<svg id="Grupo_1026708" data-name="Grupo 1026708" xmlns="http://www.w3.org/2000/svg" xmlns:xlink="http://www.w3.org/1999/xlink" width="172.553" height="217.261" viewBox="0 0 172.553 217.261">
  <defs>
    <clipPath id="clip-path">
      <rect id="Rectángulo_344481" data-name="Rectángulo 344481" width="172.553" height="217.261" fill="none"/>
    </clipPath>
    <clipPath id="clip-path-2">
      <rect id="Rectángulo_344480" data-name="Rectángulo 344480" width="172.552" height="217.261" fill="none"/>
    </clipPath>
    <clipPath id="clip-path-3">
      <rect id="Rectángulo_344461" data-name="Rectángulo 344461" width="13.245" height="3.623" fill="none"/>
    </clipPath>
    <clipPath id="clip-path-4">
      <rect id="Rectángulo_344462" data-name="Rectángulo 344462" width="39.408" height="39.287" fill="none"/>
    </clipPath>
    <clipPath id="clip-path-5">
      <rect id="Rectángulo_344463" data-name="Rectángulo 344463" width="8.932" height="39.228" fill="none"/>
    </clipPath>
    <clipPath id="clip-path-6">
      <rect id="Rectángulo_344464" data-name="Rectángulo 344464" width="6.451" height="37.759" fill="none"/>
    </clipPath>
    <clipPath id="clip-path-7">
      <rect id="Rectángulo_344465" data-name="Rectángulo 344465" width="6.295" height="2.703" fill="none"/>
    </clipPath>
    <clipPath id="clip-path-8">
      <rect id="Rectángulo_344466" data-name="Rectángulo 344466" width="0.164" height="0.612" fill="none"/>
    </clipPath>
    <clipPath id="clip-path-9">
      <rect id="Rectángulo_344467" data-name="Rectángulo 344467" width="3.287" height="0.834" fill="none"/>
    </clipPath>
    <clipPath id="clip-path-10">
      <rect id="Rectángulo_344468" data-name="Rectángulo 344468" width="0.88" height="3.247" fill="none"/>
    </clipPath>
    <clipPath id="clip-path-13">
      <rect id="Rectángulo_344471" data-name="Rectángulo 344471" width="8.931" height="39.228" fill="none"/>
    </clipPath>
    <clipPath id="clip-path-14">
      <rect id="Rectángulo_344472" data-name="Rectángulo 344472" width="6.451" height="37.76" fill="none"/>
    </clipPath>
    <clipPath id="clip-path-16">
      <rect id="Rectángulo_344474" data-name="Rectángulo 344474" width="0.164" height="0.613" fill="none"/>
    </clipPath>
    <clipPath id="clip-path-17">
      <rect id="Rectángulo_344475" data-name="Rectángulo 344475" width="3.287" height="0.833" fill="none"/>
    </clipPath>
    <clipPath id="clip-path-18">
      <rect id="Rectángulo_344476" data-name="Rectángulo 344476" width="0.881" height="3.247" fill="none"/>
    </clipPath>
    <clipPath id="clip-path-19">
      <rect id="Rectángulo_344477" data-name="Rectángulo 344477" width="20.866" height="41.316" fill="none"/>
    </clipPath>
    <clipPath id="clip-path-20">
      <rect id="Rectángulo_344478" data-name="Rectángulo 344478" width="31.855" height="87.543" fill="none"/>
    </clipPath>
    <clipPath id="clip-path-21">
      <rect id="Rectángulo_344479" data-name="Rectángulo 344479" width="14.389" height="31.185" fill="none"/>
    </clipPath>
  </defs>
  <g id="Grupo_1026707" data-name="Grupo 1026707" clip-path="url(#clip-path)">
    <g id="Grupo_1026706" data-name="Grupo 1026706" transform="translate(0 0)">
      <g id="Grupo_1026705" data-name="Grupo 1026705" clip-path="url(#clip-path-2)">
        <path id="Trazado_725607" data-name="Trazado 725607" d="M153.478,135.58,40.943,191.655A24.6,24.6,0,0,1,5.367,169.6L5.558,29.028C5.587,8.753,28.749-2.786,44.95,9.4L157.295,93.9a24.6,24.6,0,0,1-3.816,41.682" transform="translate(5.442 4.476)" fill="#06d1d1"/>
        <path id="Trazado_725608" data-name="Trazado 725608" d="M25.351,192.149A25.326,25.326,0,0,1,.09,166.818L.279,26.245A25.277,25.277,0,0,1,40.749,6.076l112.344,84.5a25.277,25.277,0,0,1-3.919,42.826L36.637,189.475a25.259,25.259,0,0,1-11.286,2.674M25.645,2.273a24.08,24.08,0,0,0-10.76,2.586A23.5,23.5,0,0,0,1.627,26.245L1.437,166.818a23.928,23.928,0,0,0,34.6,21.45l112.535-56.077a23.926,23.926,0,0,0,3.708-40.54L39.939,7.153a23.677,23.677,0,0,0-14.295-4.88" transform="translate(0.091 0.991)" fill="#b20d0d"/>
        <path id="Trazado_725609" data-name="Trazado 725609" d="M57.586,40.978a9.02,9.02,0,0,0,.681,5.041,3.755,3.755,0,0,0,2.306,1.521c2.016.58,3.75.226,4.95-1.494,1.182-1.692-2.626-6.183-2.626-6.183Z" transform="translate(58.288 40.417)" fill="#29353d"/>
        <path id="Trazado_725610" data-name="Trazado 725610" d="M62.14,33.577a9.863,9.863,0,0,1-3.18,1.79,12.052,12.052,0,0,1-3.214.864c-.381.022-.632-.028-.709-.159l-.01-.022c-.054-.141.083-.35.373-.6a11.721,11.721,0,0,1,2.971-1.587,9.462,9.462,0,0,1,3.609-.854c.173.026.286.083.32.171s-.018.236-.159.393" transform="translate(55.781 33.458)" fill="#29353d"/>
        <path id="Trazado_725611" data-name="Trazado 725611" d="M84.618,52.61a9.84,9.84,0,0,1-3.18,1.79,11.937,11.937,0,0,1-3.214.864c-.115-.26-.23-.52-.346-.777-.024-.056-.048-.111-.075-.169-1.525-3.345-3.126-6.453-4.612-9.117s-2.86-4.89-3.927-6.477a14.185,14.185,0,0,0-2.348-1.5,29.03,29.03,0,0,0-6.008-2.135c-6.247-1.631-14.111-2.824-22.983-8.765-7.339-4.694-4.568-10-4.568-10l9.284-2.1s5.85,2.165,12.529,5.093c2.292,1.007,4.682,2.1,6.968,3.232,2.239,1.106,4.376,2.246,6.221,3.359A28.051,28.051,0,0,1,72.672,29s3.474,2.409,4.719,4.634c2.866,5.129,5.282,12.2,7.067,18.417.026.085.048.167.072.252.032.1.06.207.089.31" transform="translate(33.302 14.425)" fill="#fdb9a6"/>
        <path id="Trazado_725612" data-name="Trazado 725612" d="M52.056,62.254h-.769V56.877A14.5,14.5,0,0,1,63.88,42.528l.1.763A13.723,13.723,0,0,0,52.056,56.877Z" transform="translate(52.001 43.12)" fill="#98b0d8"/>
        <path id="Trazado_725613" data-name="Trazado 725613" d="M66.221,43.572a1.814,1.814,0,0,1-1.811,1.813c-.036,0-.075,0-.109,0a1.812,1.812,0,0,1-1.661-1.424,1.719,1.719,0,0,1-.042-.385,1.75,1.75,0,0,1,.042-.387A1.81,1.81,0,0,1,64.3,41.763c.036,0,.072,0,.109,0a1.806,1.806,0,0,1,1.811,1.813" transform="translate(63.469 42.34)" fill="#f4a882"/>
        <path id="Trazado_725614" data-name="Trazado 725614" d="M68.47,43.956a1.779,1.779,0,0,1,0-.771,1.808,1.808,0,0,1,1.661-1.422l0,0H58.661a1.808,1.808,0,0,0-1.813,1.813,1.745,1.745,0,0,0,.042.385,1.809,1.809,0,0,0,1.77,1.426H70.134l0,0a1.813,1.813,0,0,1-1.661-1.422" transform="translate(57.639 42.34)" fill="#f6a274"/>
        <g id="Grupo_1026650" data-name="Grupo 1026650" transform="translate(114.529 84.099)" opacity="0.5">
          <g id="Grupo_1026649" data-name="Grupo 1026649">
            <g id="Grupo_1026648" data-name="Grupo 1026648" clip-path="url(#clip-path-3)">
              <path id="Trazado_725615" data-name="Trazado 725615" d="M70.11,45.378l0,0H58.639a1.812,1.812,0,0,1-1.77-1.426h8.956a.387.387,0,0,0,.387-.387,1.873,1.873,0,0,1,.04-.385,1.813,1.813,0,0,1,1.772-1.426h2.088l0,0a1.806,1.806,0,0,0-1.661,1.422,1.866,1.866,0,0,0,0,.771,1.813,1.813,0,0,0,1.661,1.422" transform="translate(-56.869 -41.759)" fill="#f37453"/>
            </g>
          </g>
        </g>
        <path id="Trazado_725616" data-name="Trazado 725616" d="M76.278,62.929a.386.386,0,0,1-.385-.385V56.879a13.723,13.723,0,0,0-11.92-13.586.385.385,0,0,1,.1-.763A14.5,14.5,0,0,1,76.663,56.879v5.665a.386.386,0,0,1-.385.385" transform="translate(64.523 43.118)" fill="#98b0d8"/>
        <path id="Trazado_725617" data-name="Trazado 725617" d="M71.289,53.189v.022a.89.89,0,0,0-.713-.356h-.338a.386.386,0,1,1,0-.771h.338a1.731,1.731,0,0,1,.205.012,1.431,1.431,0,0,1,.507,1.094" transform="translate(70.823 52.808)" fill="#95b0d8"/>
        <path id="Trazado_725618" data-name="Trazado 725618" d="M90.539,53.037,88.315,70.4l-.207,1.615L85.679,91h-.014c-.151.54-1.688,1.027-4.11,1.394a76.532,76.532,0,0,1-10.738.661,76.4,76.4,0,0,1-10.762-.665c-2.409-.365-3.935-.852-4.084-1.39h-.014L53.533,72.026l-.207-1.613-1.4-10.96-.767-6-.064-.508h.324l2.475.006Z" transform="translate(51.805 53.685)" fill="#b6c7d9"/>
        <path id="Trazado_725619" data-name="Trazado 725619" d="M90.539,54.163l-.008.066a.43.43,0,0,1-.048.109c-.761,1.2-9.276,2.151-19.666,2.151A103.047,103.047,0,0,1,54.1,55.4a8.657,8.657,0,0,1-2.674-.808.866.866,0,0,1-.274-.252.349.349,0,0,1-.028-.054.294.294,0,0,1-.028-.121.2.2,0,0,1,.006-.05l.008-.038a.343.343,0,0,1,.042-.087.715.715,0,0,1,.177-.183,6.634,6.634,0,0,1,2.338-.791c.075-.014.149-.03.228-.044a100.869,100.869,0,0,1,16.923-1.132c9.862,0,18.035.854,19.491,1.968a.732.732,0,0,1,.175.181.32.32,0,0,1,.054.157l0,.02" transform="translate(51.805 52.558)" fill="#e2e9f0"/>
        <path id="Trazado_725620" data-name="Trazado 725620" d="M89.7,53.921c-.3.205-1.464.751-5.808,1.226a128.936,128.936,0,0,1-13.356.618,128.908,128.908,0,0,1-13.356-.618c-4.346-.475-5.512-1.021-5.808-1.226.3-.205,1.462-.751,5.808-1.226a128.909,128.909,0,0,1,13.356-.618,128.937,128.937,0,0,1,13.356.618c4.344.475,5.512,1.021,5.808,1.226" transform="translate(52.087 52.801)" fill="#773a42"/>
        <path id="Trazado_725621" data-name="Trazado 725621" d="M52.64,51.928a1.43,1.43,0,0,0-1.311,1.424v.367a.481.481,0,0,0-.234.358v-.725a1.43,1.43,0,0,1,1.43-1.43,1.1,1.1,0,0,1,.115.006" transform="translate(51.806 52.644)" fill="#e2e9f0"/>
        <path id="Trazado_725622" data-name="Trazado 725622" d="M52.155,52.46a.343.343,0,0,1-.31.369l-.038,0-.024-.006a.158.158,0,0,1-.054-.018.4.4,0,0,0,0-.681.16.16,0,0,1,.054-.02l.024-.006.038,0a.343.343,0,0,1,.31.369" transform="translate(52.448 52.816)" fill="#6598d6"/>
        <path id="Trazado_725623" data-name="Trazado 725623" d="M52.64,51.922a1.146,1.146,0,0,0-.119.006,1.43,1.43,0,0,0-1.311,1.424v.367a.7.7,0,0,1,.075-.052.456.456,0,0,1,.04-.026,2.293,2.293,0,0,1,.246-.131l.079-.036.036-.016c.038-.016.081-.034.123-.05.066-.026.133-.05.207-.077.032-.012.066-.022.1-.034l.1-.032c.04-.012.083-.024.125-.038s.077-.022.117-.034l.2-.054c.268-.07.566-.141.892-.209.075-.014.149-.03.228-.044a1.153,1.153,0,0,0-1.136-.961M52.368,53l-.038,0-.024,0a.16.16,0,0,1-.054-.02.394.394,0,0,1,0-.681.217.217,0,0,1,.054-.02l.024,0,.038,0a.373.373,0,0,1,0,.735" transform="translate(51.923 52.644)" fill="#b6c7d9"/>
        <g id="Grupo_1026653" data-name="Grupo 1026653" transform="translate(102.928 106.788)" opacity="0.25">
          <g id="Grupo_1026652" data-name="Grupo 1026652">
            <g id="Grupo_1026651" data-name="Grupo 1026651" clip-path="url(#clip-path-4)">
              <path id="Trazado_725624" data-name="Trazado 725624" d="M90.516,53.025,88.3,70.325l-.083.636-2.554,19.96h-.014c-.151.538-1.688,1.025-4.11,1.392,3.5-16.47-9.2-25.77-9.373-25.9l0,0h0a26.7,26.7,0,0,0-13.2-5.752c-3.41-.481-5.955-1.033-7.055-1.289l-.8-6.293a.752.752,0,0,0,.3.306c1.7,1.081,9.733,1.9,19.392,1.9,10.7,0,19.412-1.009,19.712-2.262" transform="translate(-51.109 -53.025)" fill="#98b0d8"/>
            </g>
          </g>
        </g>
        <path id="Trazado_725625" data-name="Trazado 725625" d="M71.459,53.352v.725l0-.02v0c-.016-.044-.081-.068-.113-.119a.454.454,0,0,1-.117-.218v-.367a1.425,1.425,0,0,0-1.311-1.424,1.1,1.1,0,0,1,.115-.006,1.43,1.43,0,0,1,1.43,1.43" transform="translate(70.887 52.644)" fill="#e2e9f0"/>
        <path id="Trazado_725626" data-name="Trazado 725626" d="M71.348,52.258a1.433,1.433,0,0,0-.8-.332,1.173,1.173,0,0,0-1.253.957c.077.014.151.028.226.044.326.068.624.137.894.207.068.018.135.038.2.056l.117.034c.042.012.083.024.123.038l.1.03.1.036c.073.024.141.05.207.075l.123.052.036.016c.026.01.052.022.079.034.091.044.171.087.244.131l.04.026c.026.018.052.036.075.054v-.367a1.427,1.427,0,0,0-.507-1.094m-.657.713a.369.369,0,0,1-.193-.34.374.374,0,0,1,.193-.342.378.378,0,0,1,.193.342.372.372,0,0,1-.193.34" transform="translate(70.256 52.644)" fill="#b6c7d9"/>
        <path id="Trazado_725627" data-name="Trazado 725627" d="M69.774,52.46a.343.343,0,0,0,.31.369l.038,0,.024-.006A.185.185,0,0,0,70.2,52.8a.394.394,0,0,1,0-.681.189.189,0,0,0-.056-.02l-.024-.006-.038,0a.343.343,0,0,0-.31.369" transform="translate(70.745 52.816)" fill="#6598d6"/>
        <path id="Trazado_725628" data-name="Trazado 725628" d="M89.7,55.112c-.3.205-1.464.751-5.808,1.226a128.963,128.963,0,0,1-13.356.618,128.907,128.907,0,0,1-13.356-.618c-4.346-.475-5.512-1.021-5.808-1.226a6,6,0,0,1,3.879-2.475c2.664-.26,3.41.618,3.41.618A13.452,13.452,0,0,1,65.719,50.9c4.312,0,4.829,1.154,4.829,1.164s1.557-1.186,5.752-1.1,5.2,1.988,5.2,1.988,4.978-3.663,8.207,2.155" transform="translate(52.091 51.609)" fill="#773a42"/>
        <g id="Grupo_1026656" data-name="Grupo 1026656" transform="translate(102.927 106.843)" opacity="0.3">
          <g id="Grupo_1026655" data-name="Grupo 1026655">
            <g id="Grupo_1026654" data-name="Grupo 1026654" clip-path="url(#clip-path-5)">
              <path id="Trazado_725629" data-name="Trazado 725629" d="M60.04,92.281a22.2,22.2,0,0,1-2.354-.469c-1.023-.276-1.637-.588-1.73-.92h-.014L53.519,71.92l-.205-1.613-1.4-10.96-.677-5.3-.089-.7-.038-.3.028.054a.9.9,0,0,0,.276.252,8.638,8.638,0,0,0,2.674.808Z" transform="translate(-51.108 -53.053)" fill="#e2e9f0"/>
            </g>
          </g>
        </g>
        <g id="Grupo_1026659" data-name="Grupo 1026659" transform="translate(103.055 107.842)" opacity="0.3">
          <g id="Grupo_1026658" data-name="Grupo 1026658">
            <g id="Grupo_1026657" data-name="Grupo 1026657" clip-path="url(#clip-path-6)">
              <path id="Trazado_725630" data-name="Trazado 725630" d="M57.622,91.308c-1.023-.276-1.637-.588-1.73-.918h-.014L53.455,71.416,53.247,69.8l-1.4-10.96-.677-5.295c.181.038.371.077.57.113Z" transform="translate(-51.172 -53.548)" fill="#e2e9f0"/>
            </g>
          </g>
        </g>
        <path id="Trazado_725631" data-name="Trazado 725631" d="M61.611,56.132a2.813,2.813,0,0,1-.514-.9,2.777,2.777,0,0,1-.131-1.321,2.34,2.34,0,0,1-.139-1.762,2.14,2.14,0,0,1,.081-.211v0a3.763,3.763,0,0,0,3.287.467A21.556,21.556,0,0,0,67.2,50.926a1.43,1.43,0,0,1,.5,1.4,1.729,1.729,0,0,1,.328,1.506,1.527,1.527,0,0,1-.125.344c-4.346-.139-5.4,1.2-6.3,1.958" transform="translate(61.56 51.635)" fill="#fbe6c8"/>
        <path id="Trazado_725632" data-name="Trazado 725632" d="M64.806,54.173a.764.764,0,0,0-.82-.564.421.421,0,0,0,.1-.179.772.772,0,0,0-.262-.715.659.659,0,0,0-.052-.932,1.179,1.179,0,0,0,.33-.856,1.421,1.421,0,0,1,.5,1.4,1.73,1.73,0,0,1,.328,1.506l0,.018-.01.034v0l-.008.032a1.533,1.533,0,0,1-.06.163l-.008.02v0l-.008.016-.016.036-.006.008,0,.01" transform="translate(64.66 51.636)" fill="#f07651"/>
        <path id="Trazado_725633" data-name="Trazado 725633" d="M61.611,55.621c-.036-.042-.07-.087-.1-.129l-.026-.038-.034-.046-.022-.034a2.784,2.784,0,0,1-.187-.318L61.21,55a.48.48,0,0,1-.026-.056l-.024-.054c-.022-.056-.044-.111-.062-.165a2.881,2.881,0,0,1-.159-.924,2.736,2.736,0,0,0-.121-.765,2.342,2.342,0,0,1,.01-1.394l.018-.05.018-.054.018-.046.026-.06v0a1.374,1.374,0,0,1,.375.5.472.472,0,0,1,.006.332c-.2.536.32.421.2.862a.886.886,0,0,0,.167.9.34.34,0,0,1,.077.365c-.167.445.328.584-.125,1.226" transform="translate(61.56 52.146)" fill="#f07651"/>
        <g id="Grupo_1026662" data-name="Grupo 1026662" transform="translate(123.171 105.064)" opacity="0.25">
          <g id="Grupo_1026661" data-name="Grupo 1026661">
            <g id="Grupo_1026660" data-name="Grupo 1026660" clip-path="url(#clip-path-7)">
              <path id="Trazado_725634" data-name="Trazado 725634" d="M61.16,54.871c.453-.642-.042-.781.125-1.226a.34.34,0,0,0-.077-.365,3.736,3.736,0,0,1,2.37-.787,3.033,3.033,0,0,0,1.855-.143,3.387,3.387,0,0,1,1.3-.179.4.4,0,0,1-.1.179.762.762,0,0,1,.82.564c-4.346-.139-5.4,1.2-6.3,1.958" transform="translate(-61.16 -52.169)" fill="#f07651"/>
            </g>
          </g>
        </g>
        <path id="Trazado_725635" data-name="Trazado 725635" d="M62.7,51.742a.189.189,0,1,1,.2.324,1.525,1.525,0,0,1-.451.05,1.582,1.582,0,0,1,.256-.375" transform="translate(63.309 52.434)" fill="#773a42"/>
        <path id="Trazado_725636" data-name="Trazado 725636" d="M63.111,52.2a.243.243,0,1,1-.064.481,1.984,1.984,0,0,1-.491-.31,1.96,1.96,0,0,1,.556-.171" transform="translate(63.425 52.927)" fill="#773a42"/>
        <path id="Trazado_725637" data-name="Trazado 725637" d="M62.557,52.46a.211.211,0,1,1-.222-.358,1.719,1.719,0,0,1,.5-.06,1.693,1.693,0,0,1-.278.419" transform="translate(63.101 52.765)" fill="#773a42"/>
        <g id="Grupo_1026665" data-name="Grupo 1026665" transform="translate(128.947 103.877)" opacity="0.5">
          <g id="Grupo_1026664" data-name="Grupo 1026664">
            <g id="Grupo_1026663" data-name="Grupo 1026663" clip-path="url(#clip-path-8)">
              <path id="Trazado_725638" data-name="Trazado 725638" d="M64.163,52.192c-.022,0-.087-.066-.117-.236a.754.754,0,0,1,.006-.377c.022,0-.024.145.072.288a.3.3,0,0,1,.038.324" transform="translate(-64.028 -51.579)" fill="#773a42"/>
            </g>
          </g>
        </g>
        <g id="Grupo_1026668" data-name="Grupo 1026668" transform="translate(122.468 103.577)" opacity="0.25">
          <g id="Grupo_1026667" data-name="Grupo 1026667">
            <g id="Grupo_1026666" data-name="Grupo 1026666" clip-path="url(#clip-path-9)">
              <path id="Trazado_725639" data-name="Trazado 725639" d="M61.794,52.156a4.076,4.076,0,0,0-.608-.224,1.417,1.417,0,0,0-.375-.5A3.751,3.751,0,0,0,64.1,51.9a3.536,3.536,0,0,1-2.3.258" transform="translate(-60.811 -51.43)" fill="#f07651"/>
            </g>
          </g>
        </g>
        <path id="Trazado_725640" data-name="Trazado 725640" d="M61.611,55.621c-.036-.042-.07-.087-.1-.129l-.026-.038-.034-.046-.022-.034a2.784,2.784,0,0,1-.187-.318L61.21,55a.48.48,0,0,1-.026-.056l-.024-.054c-.022-.056-.044-.111-.062-.165a2.881,2.881,0,0,1-.159-.924,2.736,2.736,0,0,0-.121-.765,2.342,2.342,0,0,1,.01-1.394l.018-.05.018-.054.018-.046.026-.06v0a2.657,2.657,0,0,0,.064,1.472,2.545,2.545,0,0,1,.155,1.422,2.094,2.094,0,0,0,.483,1.295" transform="translate(61.56 52.146)" fill="#d3643d"/>
        <g id="Grupo_1026671" data-name="Grupo 1026671" transform="translate(128.763 102.562)" opacity="0.5">
          <g id="Grupo_1026670" data-name="Grupo 1026670">
            <g id="Grupo_1026669" data-name="Grupo 1026669" clip-path="url(#clip-path-10)">
              <path id="Trazado_725641" data-name="Trazado 725641" d="M64.64,54.173a2.328,2.328,0,0,0-.31-1.839,3.036,3.036,0,0,0-.393-1.408,1.421,1.421,0,0,1,.5,1.4,1.73,1.73,0,0,1,.328,1.506l0,.018-.01.034v0l-.008.032a1.531,1.531,0,0,1-.06.163l-.008.02v0l-.008.016-.016.036-.006.008,0,.01" transform="translate(-63.936 -50.926)" fill="#d3643d"/>
            </g>
          </g>
        </g>
        <path id="Trazado_725642" data-name="Trazado 725642" d="M65.643,52.207a.074.074,0,0,1-.07-.028,1.486,1.486,0,0,0-.3-.326c-.032-.028-.068-.048-.1-.075a.981.981,0,0,0-.113-.056.739.739,0,0,0-.246-.064,1.008,1.008,0,0,0-.506.091,1.526,1.526,0,0,0-.25.141l-.01-.014a1.635,1.635,0,0,1,.244-.159,1.058,1.058,0,0,1,.528-.131.786.786,0,0,1,.272.052,1.054,1.054,0,0,1,.131.054c.038.024.081.044.119.073a1.627,1.627,0,0,1,.346.328.07.07,0,0,1-.014.1l-.028.012" transform="translate(64.937 52.301)" fill="#773a42"/>
        <path id="Trazado_725643" data-name="Trazado 725643" d="M62.885,53.735c0,.358-.485.646-1.085.646s-1.083-.288-1.083-.646.485-.648,1.083-.648,1.085.29,1.085.648" transform="translate(61.561 53.826)" fill="#773a42"/>
        <path id="Trazado_725644" data-name="Trazado 725644" d="M64.666,52.745c.07.288-.481.667-1.229.848s-1.412.093-1.48-.193.481-.669,1.228-.848,1.412-.095,1.48.193" transform="translate(62.813 53.187)" fill="#773a42"/>
        <path id="Trazado_725645" data-name="Trazado 725645" d="M65.547,52.978a.957.957,0,1,1-.957-.957.957.957,0,0,1,.957.957" transform="translate(64.519 52.745)" fill="#773a42"/>
        <path id="Trazado_725646" data-name="Trazado 725646" d="M57.816,51.18a3.709,3.709,0,0,1,1.464-.294,3.777,3.777,0,0,1,.707.056,1.612,1.612,0,0,1,.655.268.99.99,0,0,1,.383.6,1.559,1.559,0,0,1-.1.9,2.258,2.258,0,0,1-.268.489c-.056.083-.117.167-.183.248s-.143.149-.222.224a3.777,3.777,0,0,1-1.146.733,3.642,3.642,0,0,1-.7.165c-.062.008-.125.016-.187.022s-.123,0-.187,0c-.127,0-.252-.01-.379-.022a4.952,4.952,0,0,1-1.4-.35,4.167,4.167,0,0,1-.562-.266c-.167-.089-.312-.175-.431-.248-.24-.145-.377-.246-.377-.246l.344-.3c.107-.089.234-.191.369-.3s.29-.224.441-.363c.3-.272.644-.52.936-.775.077-.06.151-.115.226-.167l.113-.075.1-.077a1.5,1.5,0,0,1,.409-.22" transform="translate(55.64 51.594)" fill="#f6a274"/>
        <path id="Trazado_725647" data-name="Trazado 725647" d="M57.931,52.2a.048.048,0,0,0,.032.064,5.207,5.207,0,0,0,.842.181c.145.016.3.034.451.04s.3,0,.463-.014A6.2,6.2,0,0,1,57.6,53.55c-.286-.012-.57-.042-.842-.066s-.552-.093-.818-.141a.074.074,0,0,0-.079.04.047.047,0,0,0,.042.06l.679.121c.23.038.457.046.695.068l-.528.129c-.177.032-.356.054-.536.083s-.356.06-.536.075l-.542.038c-.036,0-.064.028-.062.054a.059.059,0,0,0,.068.046l.626-.044.62-.093.31-.048c.1-.016.2-.046.306-.068.2-.052.409-.1.61-.151l.471-.163c.079-.028.159-.054.236-.085l.228-.1-.191.2c-.066.062-.137.121-.207.183l-.435.371c-.151.111-.306.217-.465.328s-.324.232-.489.32c-.032.018-.04.05-.016.073a.091.091,0,0,0,.1,0,8.484,8.484,0,0,0,1.96-1.6,5,5,0,0,0,1.49-1.126,3.43,3.43,0,0,0,.826-1.674.057.057,0,0,0-.042-.073c-.028,0-.05.024-.056.06a3.111,3.111,0,0,1-.409,1.081l-.159.244c-.054.081-.121.153-.181.23a4.2,4.2,0,0,1-.4.421,4.148,4.148,0,0,1-.5.026c-.081,0-.157,0-.236,0l-.242-.024c-.157-.02-.3-.036-.453-.066s-.3-.075-.443-.117a.058.058,0,0,0-.066.036" transform="translate(55.839 51.01)" fill="#f07651"/>
        <path id="Trazado_725648" data-name="Trazado 725648" d="M59.719,52.189c.292.508-.175,1.325-1.043,1.827s-1.813.5-2.107-.008.175-1.327,1.045-1.829,1.813-.5,2.1.01" transform="translate(57.268 52.526)" fill="#773a42"/>
        <path id="Trazado_725649" data-name="Trazado 725649" d="M67.05,54.063a2.751,2.751,0,0,1-1.243-1.533A1.288,1.288,0,0,1,66.1,51.2a1.664,1.664,0,0,1,1.267-.379,3.072,3.072,0,0,1,1.39.449,2.476,2.476,0,0,1,.614.6c.1.137.2.262.306.4.05.07.1.141.155.211s.107.133.159.2c.1.133.209.264.308.387l.276.3.27.3s-.121.085-.34.209c-.111.062-.246.133-.4.205a5.4,5.4,0,0,1-.53.179c-.1.028-.2.058-.306.079s-.209.032-.32.044a3.246,3.246,0,0,1-.671.02,2.708,2.708,0,0,1-1.22-.342" transform="translate(66.654 51.521)" fill="#93890e"/>
        <path id="Trazado_725650" data-name="Trazado 725650" d="M67.452,53.909a.04.04,0,0,0,.032-.058c-.06-.141-.117-.28-.171-.417s-.1-.284-.143-.423c-.091-.274-.153-.562-.215-.832a8.417,8.417,0,0,0,1.712,1.17c.173.175.354.352.55.522l.3.242a3.619,3.619,0,0,0,.322.232.072.072,0,0,0,.085-.006.045.045,0,0,0-.016-.068,6.874,6.874,0,0,1-.981-.8,7.773,7.773,0,0,0,.874.34c.149.044.3.077.455.115.077.018.151.04.228.054l.232.032a.052.052,0,0,0,.064-.038.051.051,0,0,0-.048-.054,6.765,6.765,0,0,1-2.012-.651,7.726,7.726,0,0,1-.729-.425,8.1,8.1,0,0,0,.918.083c.151,0,.3-.008.447-.014a3.119,3.119,0,0,0,.431-.04.048.048,0,0,0,.04-.054.049.049,0,0,0-.056-.04,6.537,6.537,0,0,1-1.98-.062,9.284,9.284,0,0,1-2.231-2.223.055.055,0,0,0-.073-.02.053.053,0,0,0-.008.075,9.218,9.218,0,0,0,1.349,1.518,8.374,8.374,0,0,0,.544,1.8.082.082,0,0,0,.079.046" transform="translate(66.38 51.167)" fill="#46420e"/>
        <path id="Trazado_725651" data-name="Trazado 725651" d="M68.093,53.583c-.25.354-.985.266-1.639-.2s-.983-1.126-.731-1.48.983-.266,1.639.2.981,1.126.731,1.48" transform="translate(66.551 52.409)" fill="#773a42"/>
        <path id="Trazado_725652" data-name="Trazado 725652" d="M68.766,52.888c0,.439-.471.793-1.053.793s-1.053-.354-1.053-.793.473-.793,1.053-.793,1.053.354,1.053.793" transform="translate(67.586 52.82)" fill="#773a42"/>
        <path id="Trazado_725653" data-name="Trazado 725653" d="M.961,64.247H.192V58.87A14.5,14.5,0,0,1,12.785,44.521l.1.761A13.727,13.727,0,0,0,.961,58.87Z" transform="translate(0.195 45.14)" fill="#98b0d8"/>
        <path id="Trazado_725654" data-name="Trazado 725654" d="M15.127,45.564a1.814,1.814,0,0,1-1.811,1.813c-.036,0-.075,0-.109,0a1.812,1.812,0,0,1-1.661-1.424,1.77,1.77,0,0,1,0-.769,1.81,1.81,0,0,1,1.661-1.424c.036,0,.072,0,.109,0a1.806,1.806,0,0,1,1.811,1.813" transform="translate(11.664 44.36)" fill="#f4a882"/>
        <path id="Trazado_725655" data-name="Trazado 725655" d="M17.375,45.949a1.78,1.78,0,0,1,0-.771,1.808,1.808,0,0,1,1.661-1.422l0,0H7.568a1.812,1.812,0,0,0-1.815,1.813,1.876,1.876,0,0,0,.042.385,1.811,1.811,0,0,0,1.772,1.426H19.039l0,0a1.813,1.813,0,0,1-1.661-1.422" transform="translate(5.833 44.361)" fill="#f6a274"/>
        <g id="Grupo_1026674" data-name="Grupo 1026674" transform="translate(11.629 88.112)" opacity="0.5">
          <g id="Grupo_1026673" data-name="Grupo 1026673">
            <g id="Grupo_1026672" data-name="Grupo 1026672" clip-path="url(#clip-path-3)">
              <path id="Trazado_725656" data-name="Trazado 725656" d="M19.015,47.371l0,0H7.544a1.814,1.814,0,0,1-1.77-1.426H14.73a.387.387,0,0,0,.387-.387,1.875,1.875,0,0,1,.04-.385,1.813,1.813,0,0,1,1.772-1.426h2.09l0,0a1.812,1.812,0,0,0-1.661,1.424,1.866,1.866,0,0,0,0,.771,1.813,1.813,0,0,0,1.661,1.422" transform="translate(-5.775 -43.751)" fill="#f37453"/>
            </g>
          </g>
        </g>
        <path id="Trazado_725657" data-name="Trazado 725657" d="M25.184,64.921a.385.385,0,0,1-.385-.385V58.871A13.725,13.725,0,0,0,12.877,45.285a.385.385,0,0,1,.1-.763A14.5,14.5,0,0,1,25.569,58.871v5.665a.385.385,0,0,1-.385.385" transform="translate(12.718 45.138)" fill="#98b0d8"/>
        <path id="Trazado_725658" data-name="Trazado 725658" d="M15.969,52.609s2.892.459,3.311,2.731c.266,1.446-.181,2.278,1.178,2.964s2.006,3.093.769,4.235c.079-.8-.365-2.453-1.138-2.7s-1.909-.254-2.336-2.177a37.558,37.558,0,0,0-1.784-5.049" transform="translate(16.191 53.341)" fill="#f6a274"/>
        <path id="Trazado_725659" data-name="Trazado 725659" d="M20.195,55.182V55.2a.89.89,0,0,0-.713-.356h-.338a.386.386,0,1,1,0-.771h.338a1.389,1.389,0,0,1,.205.014,1.423,1.423,0,0,1,.508,1.092" transform="translate(19.018 54.828)" fill="#95b0d8"/>
        <path id="Trazado_725660" data-name="Trazado 725660" d="M39.445,55.03,37.221,72.4l-.207,1.615L34.583,92.99h-.012c-.151.54-1.688,1.027-4.11,1.394a76.538,76.538,0,0,1-10.738.661A76.421,76.421,0,0,1,8.96,94.379c-2.409-.365-3.935-.852-4.086-1.39H4.862L2.439,74.019l-.207-1.613-1.4-10.96-.767-6L0,54.941H.324l2.475.006Z" transform="translate(0 55.705)" fill="#b6c7d9"/>
        <path id="Trazado_725661" data-name="Trazado 725661" d="M39.445,56.156l-.008.066a.4.4,0,0,1-.048.109c-.761,1.2-9.276,2.151-19.666,2.151A103.046,103.046,0,0,1,3,57.391,8.657,8.657,0,0,1,.33,56.583a.866.866,0,0,1-.274-.252.278.278,0,0,1-.028-.054A.294.294,0,0,1,0,56.156a.2.2,0,0,1,.006-.05l.008-.038a.383.383,0,0,1,.042-.087A.715.715,0,0,1,.234,55.8a6.634,6.634,0,0,1,2.338-.791c.075-.014.149-.03.228-.044A100.868,100.868,0,0,1,19.722,53.83c9.862,0,18.035.854,19.491,1.968a.732.732,0,0,1,.175.181.321.321,0,0,1,.054.155v0l0,.02" transform="translate(0 54.579)" fill="#e2e9f0"/>
        <path id="Trazado_725662" data-name="Trazado 725662" d="M38.606,55.914c-.3.205-1.464.751-5.808,1.226a128.937,128.937,0,0,1-13.356.618A128.909,128.909,0,0,1,6.085,57.14C1.741,56.665.573,56.119.277,55.914c.3-.205,1.464-.751,5.808-1.226a128.91,128.91,0,0,1,13.356-.618,128.938,128.938,0,0,1,13.356.618c4.344.475,5.512,1.021,5.808,1.226" transform="translate(0.281 54.821)" fill="#773a42"/>
        <path id="Trazado_725663" data-name="Trazado 725663" d="M1.545,53.92A1.43,1.43,0,0,0,.234,55.344v.367A.484.484,0,0,0,0,56.069v-.725a1.43,1.43,0,0,1,1.43-1.43,1.1,1.1,0,0,1,.115.006" transform="translate(0 54.664)" fill="#e2e9f0"/>
        <path id="Trazado_725664" data-name="Trazado 725664" d="M1.061,54.453a.341.341,0,0,1-.31.367l-.038,0-.024,0a.268.268,0,0,1-.056-.02.37.37,0,0,0,.2-.34.375.375,0,0,0-.2-.342.264.264,0,0,1,.056-.018l.024,0,.038,0a.343.343,0,0,1,.31.369" transform="translate(0.641 54.836)" fill="#6598d6"/>
        <path id="Trazado_725665" data-name="Trazado 725665" d="M1.546,53.914a1.146,1.146,0,0,0-.119.006A1.43,1.43,0,0,0,.116,55.344v.367c.024-.018.048-.036.075-.052l.04-.026A2.3,2.3,0,0,1,.476,55.5l.079-.036.036-.016.123-.05c.066-.026.133-.05.207-.077.032-.012.066-.022.1-.034l.1-.032c.04-.012.083-.024.125-.038s.077-.022.117-.034l.2-.054c.268-.07.566-.141.892-.207.075-.016.149-.032.228-.046a1.152,1.152,0,0,0-1.136-.961m-.272,1.077a.13.13,0,0,1-.038,0l-.024,0a.264.264,0,0,1-.056-.018.4.4,0,0,1,0-.683.268.268,0,0,1,.056-.02l.024,0,.038,0a.373.373,0,0,1,0,.735" transform="translate(0.118 54.664)" fill="#b6c7d9"/>
        <g id="Grupo_1026677" data-name="Grupo 1026677" transform="translate(0.027 110.801)" opacity="0.25">
          <g id="Grupo_1026676" data-name="Grupo 1026676">
            <g id="Grupo_1026675" data-name="Grupo 1026675" clip-path="url(#clip-path-4)">
              <path id="Trazado_725666" data-name="Trazado 725666" d="M39.422,55.018l-2.215,17.3-.083.636-2.554,19.96h-.014c-.151.538-1.688,1.025-4.11,1.392,3.5-16.47-9.2-25.77-9.373-25.9l0,0h0a26.7,26.7,0,0,0-13.2-5.752c-3.41-.483-5.955-1.033-7.055-1.289l-.8-6.291a.767.767,0,0,0,.3.3c1.7,1.081,9.735,1.9,19.394,1.9,10.7,0,19.412-1.009,19.712-2.262" transform="translate(-0.013 -55.017)" fill="#98b0d8"/>
            </g>
          </g>
        </g>
        <path id="Trazado_725667" data-name="Trazado 725667" d="M20.365,55.345v.725l0-.02v0c-.014-.044-.081-.068-.113-.119a.437.437,0,0,1-.117-.218v-.367a1.423,1.423,0,0,0-.508-1.092,1.405,1.405,0,0,0-.8-.332,1.1,1.1,0,0,1,.115-.006,1.43,1.43,0,0,1,1.43,1.43" transform="translate(19.082 54.665)" fill="#e2e9f0"/>
        <path id="Trazado_725668" data-name="Trazado 725668" d="M20.253,54.251a1.417,1.417,0,0,0-.8-.33,1.151,1.151,0,0,0-1.253.955c.077.014.153.028.226.044.326.066.624.137.894.207.068.018.135.038.2.056.04.01.079.022.117.034s.083.024.125.038l.095.03.1.036c.073.024.141.05.207.075l.123.052.036.016c.026.01.052.022.079.034.091.044.171.087.244.131l.04.026c.026.018.052.036.075.054v-.367a1.427,1.427,0,0,0-.508-1.094m-.657.713a.372.372,0,0,1-.193-.34.378.378,0,0,1,.193-.342.374.374,0,0,1,.193.342.369.369,0,0,1-.193.34" transform="translate(18.45 54.665)" fill="#b6c7d9"/>
        <path id="Trazado_725669" data-name="Trazado 725669" d="M18.68,54.453a.341.341,0,0,0,.31.367l.038,0,.024,0a.268.268,0,0,0,.056-.02.37.37,0,0,1-.2-.34.375.375,0,0,1,.2-.342.263.263,0,0,0-.056-.018l-.024,0-.038,0a.343.343,0,0,0-.31.369" transform="translate(18.94 54.836)" fill="#6598d6"/>
        <path id="Trazado_725670" data-name="Trazado 725670" d="M38.61,57.105c-.3.205-1.464.751-5.808,1.226a128.966,128.966,0,0,1-13.356.618,128.91,128.91,0,0,1-13.356-.618C1.745,57.856.577,57.311.281,57.105A6.007,6.007,0,0,1,4.16,54.63c2.664-.26,3.41.618,3.41.618a13.452,13.452,0,0,1,7.055-2.354c4.312,0,4.829,1.154,4.829,1.164s1.557-1.186,5.752-1.1,5.2,1.988,5.2,1.988,4.976-3.663,8.2,2.155" transform="translate(0.285 53.63)" fill="#773a42"/>
        <g id="Grupo_1026680" data-name="Grupo 1026680" transform="translate(0.027 110.856)" opacity="0.3">
          <g id="Grupo_1026679" data-name="Grupo 1026679">
            <g id="Grupo_1026678" data-name="Grupo 1026678" clip-path="url(#clip-path-13)">
              <path id="Trazado_725671" data-name="Trazado 725671" d="M8.945,94.272A21.808,21.808,0,0,1,6.59,93.8c-1.023-.276-1.637-.588-1.73-.918H4.846L2.424,73.911,2.218,72.3l-1.4-10.96-.679-5.3-.089-.7-.038-.3c.008.018.018.034.028.052a.9.9,0,0,0,.276.252,8.657,8.657,0,0,0,2.674.808Z" transform="translate(-0.014 -55.045)" fill="#e2e9f0"/>
            </g>
          </g>
        </g>
        <g id="Grupo_1026683" data-name="Grupo 1026683" transform="translate(0.154 111.854)" opacity="0.3">
          <g id="Grupo_1026682" data-name="Grupo 1026682">
            <g id="Grupo_1026681" data-name="Grupo 1026681" clip-path="url(#clip-path-14)">
              <path id="Trazado_725672" data-name="Trazado 725672" d="M6.528,93.3c-1.023-.276-1.639-.588-1.73-.918H4.784L2.361,73.408,2.153,71.8l-1.4-10.96L.077,55.541c.181.038.371.077.57.113Z" transform="translate(-0.076 -55.541)" fill="#e2e9f0"/>
            </g>
          </g>
        </g>
        <path id="Trazado_725673" data-name="Trazado 725673" d="M6.261,57.259a2.82,2.82,0,0,1-.644-2.215,2.342,2.342,0,0,1-.139-1.762c.022-.07.05-.141.081-.211a3.763,3.763,0,0,0,3.287.467,21.731,21.731,0,0,0,3.009-1.482,1.425,1.425,0,0,1,.5,1.4,1.73,1.73,0,0,1,.328,1.506,1.526,1.526,0,0,1-.125.344c-4.346-.137-5.4,1.2-6.3,1.958" transform="translate(5.44 52.779)" fill="#fbe6c8"/>
        <path id="Trazado_725674" data-name="Trazado 725674" d="M9.456,55.3a.762.762,0,0,0-.82-.564.416.416,0,0,0,.1-.181.77.77,0,0,0-.262-.713.659.659,0,0,0-.052-.932,1.179,1.179,0,0,0,.33-.856,1.421,1.421,0,0,1,.5,1.4,1.73,1.73,0,0,1,.328,1.506l0,.02-.01.034v0l-.01.032a1.218,1.218,0,0,1-.058.163l-.008.02v0l-.008.016-.016.036,0,.008-.006.01" transform="translate(8.54 52.779)" fill="#f07651"/>
        <path id="Trazado_725675" data-name="Trazado 725675" d="M6.261,56.748c-.036-.042-.07-.087-.1-.129l-.028-.038L6.1,56.534,6.073,56.5a2.783,2.783,0,0,1-.187-.318l-.026-.054-.026-.056-.024-.054c-.022-.056-.044-.111-.062-.165a2.882,2.882,0,0,1-.159-.924,2.736,2.736,0,0,0-.121-.765,2.336,2.336,0,0,1,.01-1.392l.018-.054.018-.052.02-.046.024-.058a1.374,1.374,0,0,1,.375.5.472.472,0,0,1,.006.332c-.2.536.32.421.205.862a.887.887,0,0,0,.165.9.341.341,0,0,1,.077.365c-.167.445.328.584-.125,1.226" transform="translate(5.44 53.29)" fill="#f07651"/>
        <g id="Grupo_1026686" data-name="Grupo 1026686" transform="translate(11.702 107.335)" opacity="0.25">
          <g id="Grupo_1026685" data-name="Grupo 1026685">
            <g id="Grupo_1026684" data-name="Grupo 1026684" clip-path="url(#clip-path-7)">
              <path id="Trazado_725676" data-name="Trazado 725676" d="M5.81,56c.453-.642-.042-.781.125-1.226a.341.341,0,0,0-.077-.365,3.736,3.736,0,0,1,2.37-.787,3.033,3.033,0,0,0,1.855-.143,3.426,3.426,0,0,1,1.3-.181.393.393,0,0,1-.1.181.762.762,0,0,1,.82.564c-4.346-.137-5.4,1.2-6.3,1.958" transform="translate(-5.811 -53.296)" fill="#f07651"/>
            </g>
          </g>
        </g>
        <path id="Trazado_725677" data-name="Trazado 725677" d="M7.348,52.87a.189.189,0,0,1,.193.324,1.531,1.531,0,0,1-.451.05,1.6,1.6,0,0,1,.258-.375" transform="translate(7.189 53.578)" fill="#773a42"/>
        <path id="Trazado_725678" data-name="Trazado 725678" d="M7.76,53.329a.243.243,0,0,1-.062.481,1.891,1.891,0,0,1-.491-.31,1.942,1.942,0,0,1,.554-.171" transform="translate(7.306 54.069)" fill="#773a42"/>
        <path id="Trazado_725679" data-name="Trazado 725679" d="M7.208,53.588a.211.211,0,0,1-.222-.358,1.719,1.719,0,0,1,.5-.06,1.693,1.693,0,0,1-.278.419" transform="translate(6.982 53.909)" fill="#773a42"/>
        <g id="Grupo_1026689" data-name="Grupo 1026689" transform="translate(17.478 106.148)" opacity="0.5">
          <g id="Grupo_1026688" data-name="Grupo 1026688">
            <g id="Grupo_1026687" data-name="Grupo 1026687" clip-path="url(#clip-path-16)">
              <path id="Trazado_725680" data-name="Trazado 725680" d="M8.813,53.319c-.022,0-.087-.068-.117-.236a.754.754,0,0,1,.006-.377c.022,0-.024.145.073.288a.3.3,0,0,1,.038.324" transform="translate(-8.679 -52.707)" fill="#773a42"/>
            </g>
          </g>
        </g>
        <g id="Grupo_1026692" data-name="Grupo 1026692" transform="translate(10.999 105.848)" opacity="0.25">
          <g id="Grupo_1026691" data-name="Grupo 1026691">
            <g id="Grupo_1026690" data-name="Grupo 1026690" clip-path="url(#clip-path-17)">
              <path id="Trazado_725681" data-name="Trazado 725681" d="M6.445,53.283a4.075,4.075,0,0,0-.608-.224,1.417,1.417,0,0,0-.375-.5,3.769,3.769,0,0,0,3.287.469,3.554,3.554,0,0,1-2.3.256" transform="translate(-5.461 -52.558)" fill="#f07651"/>
            </g>
          </g>
        </g>
        <path id="Trazado_725682" data-name="Trazado 725682" d="M6.261,56.748c-.036-.042-.07-.087-.1-.129l-.028-.038L6.1,56.534,6.073,56.5a2.783,2.783,0,0,1-.187-.318l-.026-.054-.026-.056-.024-.054c-.022-.056-.044-.111-.062-.165a2.882,2.882,0,0,1-.159-.924,2.736,2.736,0,0,0-.121-.765,2.336,2.336,0,0,1,.01-1.392l.018-.054.018-.052.02-.046.024-.058a2.657,2.657,0,0,0,.064,1.472,2.526,2.526,0,0,1,.155,1.422,2.107,2.107,0,0,0,.483,1.295" transform="translate(5.44 53.29)" fill="#d3643d"/>
        <g id="Grupo_1026695" data-name="Grupo 1026695" transform="translate(17.294 104.833)" opacity="0.5">
          <g id="Grupo_1026694" data-name="Grupo 1026694">
            <g id="Grupo_1026693" data-name="Grupo 1026693" clip-path="url(#clip-path-18)">
              <path id="Trazado_725683" data-name="Trazado 725683" d="M9.29,55.3a2.331,2.331,0,0,0-.31-1.839,3.035,3.035,0,0,0-.393-1.408,1.421,1.421,0,0,1,.5,1.4,1.73,1.73,0,0,1,.328,1.506l0,.02-.01.034v0l-.01.032a1.218,1.218,0,0,1-.058.163l-.008.02v0l-.008.016-.016.036,0,.008-.006.01" transform="translate(-8.587 -52.054)" fill="#d3643d"/>
            </g>
          </g>
        </g>
        <path id="Trazado_725684" data-name="Trazado 725684" d="M10.294,53.334a.075.075,0,0,1-.072-.028,1.486,1.486,0,0,0-.3-.326.812.812,0,0,0-.1-.075.981.981,0,0,0-.113-.056.727.727,0,0,0-.246-.064,1.008,1.008,0,0,0-.505.091,1.527,1.527,0,0,0-.25.141L8.7,53a1.518,1.518,0,0,1,.242-.159,1.057,1.057,0,0,1,.528-.131.786.786,0,0,1,.272.052,1.229,1.229,0,0,1,.133.054c.036.024.079.044.119.072a1.616,1.616,0,0,1,.344.328.07.07,0,0,1-.014.1l-.026.012" transform="translate(8.818 53.444)" fill="#773a42"/>
        <path id="Trazado_725685" data-name="Trazado 725685" d="M7.535,54.862c0,.358-.485.646-1.085.646s-1.083-.288-1.083-.646.485-.646,1.083-.646,1.085.29,1.085.646" transform="translate(5.441 54.97)" fill="#773a42"/>
        <path id="Trazado_725686" data-name="Trazado 725686" d="M9.317,53.872c.068.288-.481.667-1.228.848s-1.412.093-1.48-.2.481-.667,1.228-.846,1.41-.095,1.48.193" transform="translate(6.694 54.329)" fill="#773a42"/>
        <path id="Trazado_725687" data-name="Trazado 725687" d="M10.2,54.106a.956.956,0,1,1-.957-.957.957.957,0,0,1,.957.957" transform="translate(8.401 53.888)" fill="#773a42"/>
        <path id="Trazado_725688" data-name="Trazado 725688" d="M5.184,55.666a.87.87,0,0,0-.36.127.516.516,0,0,1-.352.077.236.236,0,0,1-.153-.306,1.293,1.293,0,0,1-.244.238.672.672,0,0,1-.139.077.413.413,0,0,1-.149.034.419.419,0,0,1-.3-.113.365.365,0,0,1-.141-.294.557.557,0,0,1-.5.211.588.588,0,0,1-.451-.332l-.161.044c-.054.016-.107.03-.161.042a1,1,0,0,1-.328.014.458.458,0,0,1-.215-.091c-.228-.173-.111-.441.1-.6a1.446,1.446,0,0,1,.489-.2H2.114a.231.231,0,0,1-.234-.222.325.325,0,0,1,.24-.29.971.971,0,0,1,.844.079.446.446,0,0,1,.137-.326.719.719,0,0,1,.381-.2.619.619,0,0,1,.685.322.43.43,0,0,1,.191-.272.687.687,0,0,1,.381-.111.591.591,0,0,1,.578.407.326.326,0,0,1,.312-.209.732.732,0,0,1,.228.02,1.148,1.148,0,0,1,.215.079,1.373,1.373,0,0,1,.582.5,1.063,1.063,0,0,1,.169.65,1.2,1.2,0,0,1-.25.608.987.987,0,0,1-.526.373,3.1,3.1,0,0,1-.562.109.343.343,0,0,1-.151-.038.337.337,0,0,1-.131-.1.246.246,0,0,1-.02-.318" transform="translate(1.428 54.332)" fill="#f6a274"/>
        <path id="Trazado_725689" data-name="Trazado 725689" d="M7.559,55.159a.053.053,0,0,1-.052.016,13.859,13.859,0,0,1-1.359-.449,8.583,8.583,0,0,0-1.861-.441,6.285,6.285,0,0,0-.945-.034,6.14,6.14,0,0,0-.818.091,6.232,6.232,0,0,0-.844.213.051.051,0,0,1-.064-.03.052.052,0,0,1,.04-.062c.006,0,.085-.03.22-.07l.248-.064c.095-.026.2-.044.32-.07a6.233,6.233,0,0,1,1.788-.079,8.6,8.6,0,0,1,1.907.441,13.943,13.943,0,0,0,1.378.457.061.061,0,0,1,.048.062l-.006.02" transform="translate(1.637 54.901)" fill="#f07651"/>
        <path id="Trazado_725690" data-name="Trazado 725690" d="M11.3,53.917a3.709,3.709,0,0,1,1.464-.294,3.613,3.613,0,0,1,.707.056,1.612,1.612,0,0,1,.655.268.99.99,0,0,1,.383.6,1.559,1.559,0,0,1-.1.9,2.258,2.258,0,0,1-.268.489c-.056.083-.117.167-.183.248s-.143.149-.222.224a3.752,3.752,0,0,1-1.146.733,3.643,3.643,0,0,1-.7.165c-.062.008-.125.016-.187.022s-.123,0-.187,0c-.127,0-.254-.01-.379-.022a4.885,4.885,0,0,1-1.4-.352,4.165,4.165,0,0,1-.562-.264c-.167-.091-.312-.175-.431-.248-.24-.145-.377-.246-.377-.246l.344-.3c.107-.089.234-.191.369-.3s.29-.224.441-.363c.3-.272.644-.52.936-.775.077-.06.151-.117.226-.167l.113-.075.1-.077a1.5,1.5,0,0,1,.409-.22" transform="translate(8.48 54.367)" fill="#f6a274"/>
        <path id="Trazado_725691" data-name="Trazado 725691" d="M11.419,54.935a.048.048,0,0,0,.032.064,5,5,0,0,0,.842.179c.145.018.3.036.453.042s.3-.006.461-.014a6.184,6.184,0,0,1-2.121,1.079c-.286-.012-.568-.044-.842-.066s-.552-.095-.818-.141a.073.073,0,0,0-.079.04.047.047,0,0,0,.042.06l.679.121c.23.038.457.046.695.068l-.528.127c-.177.034-.356.056-.534.085s-.358.06-.538.075l-.542.038c-.036,0-.064.028-.062.054a.059.059,0,0,0,.068.046l.626-.044.62-.093.31-.048c.1-.016.2-.046.306-.07.2-.05.409-.095.61-.151l.471-.161c.079-.028.159-.054.236-.085l.228-.1-.191.2c-.068.062-.137.121-.207.183l-.435.371c-.151.111-.306.218-.465.328s-.322.232-.489.32c-.032.018-.04.05-.016.073a.091.091,0,0,0,.1,0,8.442,8.442,0,0,0,1.96-1.6,5,5,0,0,0,1.49-1.126,3.413,3.413,0,0,0,.826-1.674.057.057,0,0,0-.042-.073c-.028,0-.05.024-.056.06a3.111,3.111,0,0,1-.409,1.081l-.159.244c-.054.081-.121.153-.181.23a3.991,3.991,0,0,1-.4.421,4.125,4.125,0,0,1-.5.026c-.081,0-.157,0-.236,0l-.242-.024c-.157-.02-.3-.036-.453-.066s-.3-.075-.443-.117a.058.058,0,0,0-.066.036" transform="translate(8.68 53.784)" fill="#f07651"/>
        <path id="Trazado_725692" data-name="Trazado 725692" d="M13.208,54.925c.292.508-.175,1.325-1.043,1.829s-1.813.5-2.107-.01.175-1.325,1.045-1.829,1.813-.5,2.1.01" transform="translate(10.11 55.3)" fill="#773a42"/>
        <path id="Trazado_725693" data-name="Trazado 725693" d="M13.285,55.852a2.751,2.751,0,0,1-1.243-1.533,1.288,1.288,0,0,1,.29-1.333,1.664,1.664,0,0,1,1.267-.379,3.072,3.072,0,0,1,1.39.449,2.511,2.511,0,0,1,.614.6c.1.137.2.262.306.4l.155.211c.052.07.107.133.159.2.1.133.209.264.308.385s.2.215.276.3l.27.3s-.121.085-.34.209c-.111.06-.246.133-.4.205a5.4,5.4,0,0,1-.53.179,2.833,2.833,0,0,1-.306.077c-.1.018-.209.034-.32.046a3.249,3.249,0,0,1-.671.02,2.708,2.708,0,0,1-1.22-.342" transform="translate(12.141 53.335)" fill="#93890e"/>
        <path id="Trazado_725694" data-name="Trazado 725694" d="M13.687,55.7a.04.04,0,0,0,.032-.058c-.06-.141-.117-.28-.171-.417s-.1-.284-.141-.423c-.093-.274-.155-.562-.218-.832a8.416,8.416,0,0,0,1.712,1.17c.173.175.354.352.55.522l.3.242a3.232,3.232,0,0,0,.322.23.069.069,0,0,0,.085,0,.045.045,0,0,0-.016-.068,5.1,5.1,0,0,1-.516-.383,4.834,4.834,0,0,1-.465-.417,7.777,7.777,0,0,0,.874.34c.149.042.3.077.455.115.077.018.151.04.228.054l.234.032a.048.048,0,1,0,.014-.093,6.765,6.765,0,0,1-2.012-.65,8.194,8.194,0,0,1-.729-.425,8.1,8.1,0,0,0,.918.083c.151,0,.3-.008.447-.014a3.09,3.09,0,0,0,.431-.04.048.048,0,0,0,.04-.054.049.049,0,0,0-.056-.04,6.537,6.537,0,0,1-1.98-.062A9.32,9.32,0,0,1,11.8,52.281a.055.055,0,0,0-.073-.02.052.052,0,0,0-.008.072,9.241,9.241,0,0,0,1.349,1.521,8.374,8.374,0,0,0,.544,1.8.082.082,0,0,0,.079.046" transform="translate(11.868 52.981)" fill="#46420e"/>
        <path id="Trazado_725695" data-name="Trazado 725695" d="M14.33,55.372c-.25.354-.985.266-1.639-.2s-.983-1.126-.733-1.48.985-.266,1.639.2.983,1.126.733,1.48" transform="translate(12.039 54.223)" fill="#773a42"/>
        <path id="Trazado_725696" data-name="Trazado 725696" d="M15,54.677c0,.439-.471.793-1.053.793s-1.053-.354-1.053-.793.473-.793,1.053-.793S15,54.238,15,54.677" transform="translate(13.073 54.634)" fill="#773a42"/>
        <path id="Trazado_725697" data-name="Trazado 725697" d="M8.519,42.665A12.116,12.116,0,0,0,7.389,48.3a.79.79,0,0,0,.681.7l.022,0a.817.817,0,0,0,.92-.767,6.066,6.066,0,0,1,.932-3.244,4.219,4.219,0,0,0-1.426-2.328" transform="translate(7.455 43.259)" fill="#29353d"/>
        <path id="Trazado_725698" data-name="Trazado 725698" d="M9.365,42.709a12.108,12.108,0,0,0-1.13,5.633.791.791,0,0,0,.681.7l.024,0a.813.813,0,0,0,.918-.765,6.074,6.074,0,0,1,.932-3.244,4.219,4.219,0,0,0-1.426-2.328" transform="translate(8.313 43.303)" fill="#29353d"/>
        <path id="Trazado_725699" data-name="Trazado 725699" d="M10.211,42.754a12.108,12.108,0,0,0-1.13,5.633.791.791,0,0,0,.681.7l.024,0a.816.816,0,0,0,.918-.767,6.066,6.066,0,0,1,.932-3.244,4.219,4.219,0,0,0-1.426-2.328" transform="translate(9.171 43.349)" fill="#29353d"/>
        <path id="Trazado_725700" data-name="Trazado 725700" d="M11.057,42.8a12.108,12.108,0,0,0-1.13,5.633.791.791,0,0,0,.681.7l.022,0a.817.817,0,0,0,.92-.767,6.083,6.083,0,0,1,.932-3.244A4.219,4.219,0,0,0,11.057,42.8" transform="translate(10.029 43.393)" fill="#29353d"/>
        <path id="Trazado_725701" data-name="Trazado 725701" d="M60.216,36.419a13.428,13.428,0,0,1-.808,1.148c-6.432-1.15-9.135-1.666-9.135-1.666S40.723,22.91,38.061,14.375c4.749.1,22.552,9.479,22.552,9.479s.131.24.314.671a13.034,13.034,0,0,1-.711,11.894" transform="translate(38.591 14.575)" fill="#d3dde8"/>
        <path id="Trazado_725702" data-name="Trazado 725702" d="M20.994,77.341c-.735,2.83,12.861,19.638,23.315,35.233a1.825,1.825,0,0,0,1.523,2.366c4,6.142,7.182,11.685,8.992,16.514l7.274,2.938,2.2-2.884c-3.6-8.577-5.707-14.681-7.425-19.8a2.36,2.36,0,0,0-1.031-3.15c-3.559-11.167-4.108-15.93-9.047-25.532a13.886,13.886,0,0,0-5.583-5.655Z" transform="translate(21.258 78.417)" fill="#3f5260"/>
        <path id="Trazado_725703" data-name="Trazado 725703" d="M32.97,110.784l.431,1.436H52.8a19.465,19.465,0,0,0,.512-5.585,4.265,4.265,0,0,0-1.446-3.037s.683,2.658-9.135,1.235a30.525,30.525,0,0,1-8.563,3.8,1.72,1.72,0,0,0-1.192,2.149" transform="translate(33.356 105.039)" fill="#1d2b33"/>
        <path id="Trazado_725704" data-name="Trazado 725704" d="M20.98,108.029l20.22.026S71.781,65.683,73.362,59.073s-5.317-12-5.317-12H47.185C30.3,76.441,20.98,108.029,20.98,108.029" transform="translate(21.272 47.729)" fill="#3f5260"/>
        <path id="Trazado_725705" data-name="Trazado 725705" d="M31.119,82.748A.187.187,0,0,1,31,82.71a.194.194,0,0,1-.044-.274c.03-.042,3.067-4.251,7.208-10.124a.2.2,0,0,1,.322.226c-4.145,5.877-7.182,10.088-7.212,10.128a.194.194,0,0,1-.159.083" transform="translate(31.352 73.233)" fill="#29353d"/>
        <path id="Trazado_725706" data-name="Trazado 725706" d="M34.488,77.341S40.741,90.292,46.445,106.2c-.773,2.568.443,3.546,1.5,3.659,2.314,6.876,5.184,14.13,6.642,21.48l4.833,2.616,4.124-2.364-.334-1.365c-1.126-4.962-1.724-12.657-2.507-20.471.453-.562,1.037-1.853-.741-3.559-.7-7.679-1-16.8-5.577-24.2a5.606,5.606,0,0,1-.568-4.626Z" transform="translate(34.968 78.417)" fill="#3f5260"/>
        <path id="Trazado_725707" data-name="Trazado 725707" d="M58.481,112.222H42.09l-.278-.767a3.3,3.3,0,0,1,1.547-4.024c.238-.125.479-.264.713-.4h0c1.188-.709,3.113-1.47,3.289-2.314,0,0,8.5,1.126,8.626-1.116,1.523,1.663,2.459,5.127,2.487,7.973Z" transform="translate(42.195 105.039)" fill="#29353d"/>
        <path id="Trazado_725708" data-name="Trazado 725708" d="M68.066,61.226a144.141,144.141,0,0,1-5.782,24.35,238.142,238.142,0,0,1-8.462,22.481l-19.334-.028c-.048-18.294,2.948-44.624,4.32-55.715.407-3.293.673-5.24.673-5.24H66.695s.187.769.433,2c.57,2.862,1.448,8.229.938,12.156" transform="translate(34.968 47.729)" fill="#3f5260"/>
        <path id="Trazado_725709" data-name="Trazado 725709" d="M34.629,100.211h-.006a.2.2,0,0,1-.191-.2c.481-17.243,2.862-38.472,4.239-49.591.056-.471.113-.914.165-1.329a.2.2,0,0,1,.391.05q-.079.619-.167,1.327c-1.375,11.113-3.754,32.327-4.233,49.552a.2.2,0,0,1-.2.191" transform="translate(34.911 49.6)" fill="#29353d"/>
        <path id="Trazado_725710" data-name="Trazado 725710" d="M35.294,30.668l12.061-8.3C39.53,16.778,31.774,5.611,31.774,5.611L23.65,11.965c1.247,4.209,11.644,18.7,11.644,18.7" transform="translate(23.979 5.689)" fill="#f7a492"/>
        <path id="Trazado_725711" data-name="Trazado 725711" d="M37.121,15.769C50.539,7.951,61.2,25.338,65.19,41.141,68.383,53.786,69.176,63.83,71.035,70.3c1.609,5.6,2.125,7.278,2.558,10.476-4.6,4.692-18.419,5.327-29.7,3.645-3.945-.588-3.508-3.645-3.508-3.645s2.737-9.85-6.839-27.2c-4.427-8.021-12.182-28.624,3.575-37.8" transform="translate(28.072 14.028)" fill="#b6c7d9"/>
        <g id="Grupo_1026698" data-name="Grupo 1026698" transform="translate(64.64 32.703)" opacity="0.5">
          <g id="Grupo_1026697" data-name="Grupo 1026697">
            <g id="Grupo_1026696" data-name="Grupo 1026696" clip-path="url(#clip-path-19)">
              <path id="Trazado_725712" data-name="Trazado 725712" d="M34.852,57.555s5.9-7.7,10.948-26.811a2.08,2.08,0,0,1,3.941-.248c.661,1.651,1.043,2.918,1.043,2.918l2.179-.709-2.411-7.315-2.4-6.878s-2.89-2.552-3.508-2.25-5.216,5.309-5.955,8.019-2.767,11.441-3.071,12.061a30.629,30.629,0,0,0-2.177,6.005c-.189,1.609-1.017,3.677-1.12,4.765s-.1,1.43-.215,2.346,2.751,8.094,2.751,8.094" transform="translate(-32.096 -16.239)" fill="#8fb5d8"/>
            </g>
          </g>
        </g>
        <path id="Trazado_725713" data-name="Trazado 725713" d="M57.828,31.423c-.791.2-1.585.445-2.27.646a4.286,4.286,0,0,0-.816.336c-1.315-4.278-4.473-12.478-9.882-14.76-2.6-1.1-5.405-.667-8.587,1.311-6.694,4.159-5.166,15.95-2.707,25.109a123.254,123.254,0,0,0,6.491,17.825c-.467.159-.951.3-1.448.433a1.679,1.679,0,0,0-1.251,1.438,125.229,125.229,0,0,1-6.91-18.86c-1.7-6.332-2.427-11.8-2.151-16.248.363-5.9,2.473-10.082,6.271-12.442,4.08-2.536,7.967-3.053,11.552-1.541,6.638,2.8,10.241,11.977,11.707,16.752" transform="translate(28.634 14.017)" fill="#29353d"/>
        <path id="Trazado_725714" data-name="Trazado 725714" d="M43.027,32.189c-.083.375-.558.64-1.313.787a17.511,17.511,0,0,1-6.3-.413,16.75,16.75,0,0,1-6.056-2.346c-.528-.407-.791-.8-.717-1.148s.445-.512,1.047-.56a27.537,27.537,0,0,1,6.346.934c2.848.616,5.325,1.212,6.414,1.891.431.27.642.552.578.854" transform="translate(29.027 28.889)" fill="#8fb5d8"/>
        <path id="Trazado_725715" data-name="Trazado 725715" d="M42.923,31.335c-.246.558-.491,1.108-.733,1.641-.387.85-.765,1.668-1.138,2.447-2.4,5.087-4.34,8.567-4.34,8.567l-8.553-3.341s.469-3.826,1.46-9.266q.1-.571.215-1.166.157-.834.328-1.708a27.636,27.636,0,0,1,6.346.934c2.85.616,5.327,1.212,6.414,1.891" transform="translate(28.551 28.889)" fill="#fdb9a6"/>
        <path id="Trazado_725716" data-name="Trazado 725716" d="M54.539,37.868s-.745,4.151-2.834,5.055c-6.173,2.672-10.2,3.25-17.839,4.743-1.78.344-3.748.739-5.987,1.224-.59.127-1.2.262-1.825.4-1.7.377-3.536.8-5.55,1.293-2.254.55-4.727,1.176-7.451,1.9l-2.475-5.166s2.582-1.033,6.344-2.505c2.129-.834,4.634-1.808,7.26-2.817h0l1.867-.715c1.69-.644,3.4-1.291,5.073-1.913,4.684-1.748,9.067-3.313,11.757-4.112a25.294,25.294,0,0,1,3.105-.725Z" transform="translate(10.724 35.009)" fill="#fdb9a6"/>
        <path id="Trazado_725717" data-name="Trazado 725717" d="M60.45,46.539l-.338.1a.725.725,0,0,1-.918-.522l-.669-2.755a.724.724,0,0,1,1.38-.429l1.009,2.65a.728.728,0,0,1-.463.951" transform="translate(59.318 43.062)" fill="#3f5260"/>
        <path id="Trazado_725718" data-name="Trazado 725718" d="M61.468,46.243l-.348.133a.767.767,0,0,1-1-.491l-.882-2.86a.765.765,0,0,1,1.428-.54l1.233,2.727a.766.766,0,0,1-.427,1.031" transform="translate(60.024 42.619)" fill="#3f5260"/>
        <path id="Trazado_725719" data-name="Trazado 725719" d="M62.354,45.823l-.326.137a.723.723,0,0,1-.965-.429l-.934-2.676a.725.725,0,0,1,1.333-.562l1.261,2.54a.727.727,0,0,1-.369.991" transform="translate(60.924 42.473)" fill="#3f5260"/>
        <path id="Trazado_725720" data-name="Trazado 725720" d="M63.145,45.368l-.294.143a.666.666,0,0,1-.91-.344l-1-2.417a.668.668,0,0,1,1.2-.586l1.295,2.274a.669.669,0,0,1-.288.93" transform="translate(61.736 42.408)" fill="#3f5260"/>
        <path id="Trazado_725721" data-name="Trazado 725721" d="M57.611,40.978s-.65,4.966.777,6a9.515,9.515,0,0,0,3.128,1.259,2.609,2.609,0,0,0,1.514-.095l2-.755a.213.213,0,0,0,.127-.274,1.306,1.306,0,0,0-1.436-.852A4.35,4.35,0,0,1,61.47,46.1a2.244,2.244,0,0,1-1.533-1.627,4.962,4.962,0,0,0,2.985-4.61Z" transform="translate(58.263 40.417)" fill="#3f5260"/>
        <path id="Trazado_725722" data-name="Trazado 725722" d="M53.672,110.654H42.09l-.278-.767a3.3,3.3,0,0,1,1.547-4.024c.238-.125.479-.264.713-.4h0c.246-.054,10.086-2.149,9.6,5.194" transform="translate(42.195 106.607)" fill="#29353d"/>
        <path id="Trazado_725723" data-name="Trazado 725723" d="M56.263,112.647c-1.412,3.673-8.626,1.116-8.626,1.116s-3.16-8.39-6.293-18.518c2.622-.322,8.62-1.108,12.879,0,.522,5.679,1.3,12.166,2.04,17.4" transform="translate(41.919 95.99)" fill="#29353d"/>
        <path id="Trazado_725724" data-name="Trazado 725724" d="M54.655,97h0C50.4,95.89,44.4,96.676,41.776,97a3.52,3.52,0,0,1-.767-1.271,1.595,1.595,0,0,1,1.126-2.07l.028-.006.179-.04q.221-.048.435-.091l.091-.018c.143-.028.288-.056.433-.083.34-.064.677-.121,1-.173.129-.018.254-.038.381-.054q.447-.063.882-.109c.143-.016.286-.03.427-.044.119-.01.238-.02.354-.028l.2-.014c.091-.006.183-.012.276-.016l.032,0c.121-.008.242-.012.363-.018.079,0,.155-.006.234-.006s.183-.006.274-.008a20.714,20.714,0,0,1,2.455.109q.583.063,1.148.155c.262.044.522.093.777.147s.514.111.769.175c.127.032.254.064.381.1.193.05.483.137.721.209a.963.963,0,0,1,.608.546c.31.731.816,2.2.066,2.612" transform="translate(41.489 94.237)" fill="#29353d"/>
        <path id="Trazado_725725" data-name="Trazado 725725" d="M33.847,97.357a25.533,25.533,0,0,1,10-2.521,1.068,1.068,0,0,1,1.017.7c1.321,3.619,6.412,16.949,6.412,16.949s.111,4.582-9.135,1.233a80.856,80.856,0,0,0-8.533-15.356.659.659,0,0,1,.236-1" transform="translate(33.937 96.155)" fill="#1d2b33"/>
        <path id="Trazado_725726" data-name="Trazado 725726" d="M35.4,100.09a37.671,37.671,0,0,1,9.151-2.453,1.245,1.245,0,0,0,1.023-1.6c-.1-.328-.2-.61-.286-.844a1.249,1.249,0,0,0-1.267-.806A28.062,28.062,0,0,0,33.9,97.219a1.25,1.25,0,0,0-.53,1.724,4.224,4.224,0,0,0,.661.868,1.244,1.244,0,0,0,1.363.28" transform="translate(33.676 95.694)" fill="#1d2b33"/>
        <path id="Trazado_725727" data-name="Trazado 725727" d="M27.769,45.116a1.424,1.424,0,0,1-1.1,1.259c-2.455.548-5.142,1.1-7.218,1.523s-3.547.7-3.561.7c-1.8.916-1.1,3.462-3.42,3.46-2.924,0-5.154-1.42-4.6-4.292a2.826,2.826,0,0,1,.427-1.108c1.172-1.651,5.117-3.228,5.117-3.228a98.431,98.431,0,0,1,11.779-5.009,1.2,1.2,0,0,1,1.5.679,13.3,13.3,0,0,1,1.077,6.014" transform="translate(7.889 38.892)" fill="#3f5260"/>
        <path id="Trazado_725728" data-name="Trazado 725728" d="M65.393,46.728l-5.311,1.116A104,104,0,0,0,55.027,35.98c.075.131.328.179.707.157a11.956,11.956,0,0,0,3.214-.864,9.879,9.879,0,0,0,3.182-1.79c.141-.157.2-.29.159-.391a76.735,76.735,0,0,1,3.1,13.636" transform="translate(55.793 33.552)" fill="#3f5260"/>
        <path id="Trazado_725729" data-name="Trazado 725729" d="M43.02,46.076c.062-.3-.149-.584-.58-.854-1.088-.679-3.565-1.275-6.414-1.891l-.8-.173A23.749,23.749,0,0,0,29.68,42.4c-.6.05-.973.222-1.045.562,0,0,2.618-26.034,12.114-27.883a9.9,9.9,0,0,1,3.575-.185c1.951.34,3.71,1.7,4.976,5.365,2.008,5.82-6.279,25.82-6.279,25.82" transform="translate(29.033 15.002)" fill="#d3dde8"/>
        <path id="Trazado_725730" data-name="Trazado 725730" d="M68.88,74.13c-.84.379-1.666.733-2.475,1.057C54.589,79.94,45.921,79.076,40.56,77.374a19.565,19.565,0,0,1-6.455-3.244c2.38-4.358.1-13.513-1.279-18.379a1.583,1.583,0,0,1-.052-.64,1.686,1.686,0,0,1,1.251-1.44c.5-.129.981-.274,1.45-.431,11.689-3.951,14.011-16.174,12.353-24.4a4.716,4.716,0,0,1,2.332-5.087,4.055,4.055,0,0,1,.816-.334c.685-.205,1.476-.447,2.268-.65,1.881-.477,3.762-.727,4.185.324,7.4,18.28,10.6,43.213,11.451,51.037" transform="translate(33.218 22.669)" fill="#3f5260"/>
        <path id="Trazado_725731" data-name="Trazado 725731" d="M17.359,10.438a27.886,27.886,0,0,1,7.874-1.456,2.729,2.729,0,0,0-.147-3.863l-2.735.92-2.4,1.74Z" transform="translate(17.601 5.19)" fill="#8fb5d8"/>
        <path id="Trazado_725732" data-name="Trazado 725732" d="M42.834,18.964a14.66,14.66,0,0,1-.352,3.5,45.784,45.784,0,0,1-7.727,7.357,4.872,4.872,0,0,1-2.123.908c-.371.062-.878.155-1.573.294a.739.739,0,0,1-.687-.213c-4.048-4.245-6.485-7.049-7-9.451-.528-2.459-.26-4.541-.516-5.061A15.287,15.287,0,0,1,20.9,11.452,7.44,7.44,0,0,1,20.871,8.5c.012-.066.028-.133.042-.2a6.751,6.751,0,0,1,2.558-3.633,12.275,12.275,0,0,1,9.983-.385c4.129,1.559,7.228,6.759,7.667,10.78.213,1.476.5,3.031.671,3.9Z" transform="translate(21.025 3.461)" fill="#fdb9a6"/>
        <path id="Trazado_725733" data-name="Trazado 725733" d="M24.208,11.534l0,.02v0l-.008.107c-.032.469-.058.938-.073,1.406-.016.505-.018,1.011.008,1.514l.01.187.016.189c0,.062.008.125.014.187l.02.189.01.093c0,.032.006.062.01.095l.026.187c.016.125.04.248.06.371l.016.095.02.093.038.183c.006.032.012.062.02.093l.022.091.046.185.01.044.014.046.077.272c.038.121.079.24.119.358v0a.046.046,0,0,1-.006.04.775.775,0,0,0-.085.2,1.378,1.378,0,0,0-.038.222,1.467,1.467,0,0,0,.032.449,1.262,1.262,0,0,0,.177.415,1.14,1.14,0,0,0,.316.32,1.4,1.4,0,0,0,.413.189,1.919,1.919,0,0,0,.455.075,2.992,2.992,0,0,0,.465-.01,4.429,4.429,0,0,0,.459-.068,3.582,3.582,0,0,1-.926.115,2.119,2.119,0,0,1-.465-.06,1.471,1.471,0,0,1-.437-.187,1.243,1.243,0,0,1-.342-.33,1.435,1.435,0,0,1-.119-.209,1.455,1.455,0,0,1-.119-.7,1.385,1.385,0,0,1,.036-.238,1,1,0,0,1,.081-.207A9.515,9.515,0,0,1,24.2,16.1a11.281,11.281,0,0,1-.171-1.514l-.01-.191,0-.191,0-.189v-.381l0-.191,0-.189.006-.189c.018-.451.048-.9.085-1.349.006-.052.01-.1.014-.157l-.077-.177c-.026-.062-.052-.125-.081-.187l-.085-.187c-.026-.062-.056-.123-.085-.185-.115-.248-.236-.491-.358-.735-.054-.109-.111-.218-.169-.324s-.1-.189-.151-.282l-.064-.115c-.064-.121-.133-.24-.2-.356s-.137-.236-.209-.352c.077.113.151.228.224.342s.145.232.215.35c.024.038.046.077.07.117.054.091.107.183.159.276s.119.211.177.318c.131.24.258.483.377.729s.236.493.346.743" transform="translate(22.954 8.778)" fill="#f7a492"/>
        <path id="Trazado_725734" data-name="Trazado 725734" d="M26.311,16.006c-.3.127-.489.185-.493.187a.1.1,0,0,1-.062-.2,10.114,10.114,0,0,0,2.59-1.369.1.1,0,0,1,.145.022.105.105,0,0,1-.022.147,11,11,0,0,1-2.157,1.212" transform="translate(26.039 14.807)" fill="#f7a492"/>
        <path id="Trazado_725735" data-name="Trazado 725735" d="M24.021,7.763A9.242,9.242,0,0,1,26,7.421a7.011,7.011,0,0,1,2,.191c.636.151,1.243.342,1.851.5A17.6,17.6,0,0,0,31.69,8.5h0a.161.161,0,0,1,.131.181.156.156,0,0,1-.165.131,18.044,18.044,0,0,1-1.917-.232c-.632-.107-1.257-.246-1.869-.334a6.278,6.278,0,0,0-1.8-.016,8.429,8.429,0,0,0-1.744.465l-.006,0a.493.493,0,1,1-.34-.924l.04-.014" transform="translate(23.987 7.514)" fill="#7c2915"/>
        <path id="Trazado_725736" data-name="Trazado 725736" d="M21.451,10.256a1.613,1.613,0,0,1,.093-.3,2.29,2.29,0,0,1,.133-.274,3.1,3.1,0,0,1,.348-.491,3.844,3.844,0,0,1,.431-.419c.038-.032.079-.062.119-.091s.081-.06.123-.089c.083-.054.169-.107.256-.153a.4.4,0,0,1,.435.671l-.02.016c-.068.054-.143.1-.215.147s-.145.095-.215.145c-.145.095-.286.193-.431.292s-.284.207-.425.316-.288.224-.429.334l-.012.008a.116.116,0,0,1-.165-.018.122.122,0,0,1-.024-.1" transform="translate(21.747 8.512)" fill="#7c2915"/>
        <path id="Trazado_725737" data-name="Trazado 725737" d="M27.994,7.554a8.107,8.107,0,0,1,2.538,5.313,2.843,2.843,0,0,0,3.387,2.491c.808-.167,1.378-.34,1.378-.34A30.844,30.844,0,0,0,34.485,5.2c-2.2-2.014-6.491,2.35-6.491,2.35" transform="translate(28.383 4.737)" fill="#8c3929"/>
        <path id="Trazado_725738" data-name="Trazado 725738" d="M20.21,11.174S18.5.251,32,.251c10.774,0,11.022,7.55,10.986,9.3A3.582,3.582,0,0,1,41.7,12.238c-.026.022-.052.044-.079.064a3.438,3.438,0,0,1-3.786.387c-2.771-1.452-8.8-3.627-17.622-1.514" transform="translate(20.421 0.254)" fill="#b6c7d9"/>
        <path id="Trazado_725739" data-name="Trazado 725739" d="M40.07,8.411l-.9.56a4.178,4.178,0,0,1-3.742.363,24.563,24.563,0,0,0-4.97-1.4v0a18.191,18.191,0,0,0-4.559-.2h0a15.133,15.133,0,0,0-1.881.284c-.1.022-.205.046-.306.068a12.4,12.4,0,0,0-6.35,3.532C21.435,5.852,28,1.25,39.812,5.785a1.475,1.475,0,0,1,.258,2.626" transform="translate(17.605 4.004)" fill="#c3d8ea"/>
        <path id="Trazado_725740" data-name="Trazado 725740" d="M34.642,10.513a14.156,14.156,0,0,1-.957,3.514,4.964,4.964,0,0,1-1.678.667l-.01,0a.615.615,0,0,1-.715-.489c-.131-.677-.354-1.877-.518-3.019-.036-.238-.066-.473-.095-.7a2.374,2.374,0,0,1,1.861-2.614l.04-.01h.008a.987.987,0,0,1,1.043.467,12.573,12.573,0,0,1,1.019,2.185" transform="translate(31.078 7.95)" fill="#fdb9a6"/>
        <path id="Trazado_725741" data-name="Trazado 725741" d="M31.147,10.869a7.154,7.154,0,0,1-.211-.969,5.318,5.318,0,0,1-.064-1,.061.061,0,0,1,.024-.042,2.256,2.256,0,0,1,.393-.224c.133-.062.268-.119.4-.175.272-.111.546-.211.826-.3a.081.081,0,0,1,.089.022,5.013,5.013,0,0,1,.437.562,6.674,6.674,0,0,1,.367.608,6.2,6.2,0,0,1,.3.642,6.6,6.6,0,0,1,.222.675.069.069,0,0,1,0,.028c-.016.242-.036.481-.07.721s-.081.475-.133.711a5.961,5.961,0,0,1-.209.693,4.249,4.249,0,0,1-.3.665.059.059,0,0,1-.081.022l-.01-.01h0a2.09,2.09,0,0,0-.383-.292,1.432,1.432,0,0,0-.447-.177.839.839,0,0,0-.471.048,1.107,1.107,0,0,0-.391.292,1.072,1.072,0,0,1,.375-.328.9.9,0,0,1,.5-.081,1.464,1.464,0,0,1,.485.159,2.125,2.125,0,0,1,.419.294l-.095.012a4.21,4.21,0,0,0,.264-.653c.072-.224.129-.453.183-.683s.091-.463.119-.7.05-.469.062-.7l0,.028a6.906,6.906,0,0,0-.505-1.277,6.457,6.457,0,0,0-.348-.594,4.905,4.905,0,0,0-.413-.546l.089.022c-.276.089-.552.183-.824.28-.137.05-.272.1-.4.157a2.208,2.208,0,0,0-.377.193l.024-.042a7.559,7.559,0,0,0,.157,1.958" transform="translate(31.298 8.269)" fill="#f7a492"/>
        <path id="Trazado_725742" data-name="Trazado 725742" d="M27.313,6.06l0,0a18.077,18.077,0,0,0-4.557-.2h0a15.173,15.173,0,0,0-1.609.228L21,6.116c-.044.01-.087.018-.131.026v0c-.1.022-.2.044-.3.068a4.6,4.6,0,0,0,.143,2.32.768.768,0,0,0,.461.505l0-.022a2.419,2.419,0,0,1,1.9-2.809,15.426,15.426,0,0,1,4.251-.147" transform="translate(20.753 5.877)" fill="#8c3929"/>
        <path id="Trazado_725743" data-name="Trazado 725743" d="M26.732.554c.04.312-.524.51-1.184.594s-1.18.02-1.22-.294S24.744.1,25.4.014s1.287.228,1.327.54" transform="translate(24.663 0)" fill="#8fb5d8"/>
        <path id="Trazado_725744" data-name="Trazado 725744" d="M30.049,3.347c.079.93-1.083,1.583-4.1,1.839S21.9,4.86,21.83,4.03s.451-2.235,3.472-2.493,4.668.88,4.747,1.811" transform="translate(22.128 1.52)" fill="#f0f4f7"/>
        <path id="Trazado_725745" data-name="Trazado 725745" d="M23.419,10.088c.143.558-.028,1.083-.381,1.174s-.757-.288-.9-.846.028-1.083.381-1.174.757.288.9.846" transform="translate(22.395 9.357)" fill="#7c2915"/>
        <path id="Trazado_725746" data-name="Trazado 725746" d="M26.18,9.561c.187.725-.036,1.41-.5,1.529s-.985-.375-1.17-1.1.036-1.41.5-1.527.985.373,1.17,1.1" transform="translate(24.788 8.561)" fill="#7c2915"/>
        <path id="Trazado_725747" data-name="Trazado 725747" d="M19.672,45.531c-.425.095-.862.193-1.305.294a1.4,1.4,0,0,0,.185-.586,13.288,13.288,0,0,0-1.077-6.012,1.2,1.2,0,0,0-.6-.634c.308-.117.616-.238.928-.356h0a12.952,12.952,0,0,1,1.857,6.058c.01.471.014.88.012,1.237" transform="translate(17.106 38.769)" fill="#f7a492"/>
        <g id="Grupo_1026701" data-name="Grupo 1026701" transform="translate(71.333 45.763)" opacity="0.25">
          <g id="Grupo_1026700" data-name="Grupo 1026700">
            <g id="Grupo_1026699" data-name="Grupo 1026699" clip-path="url(#clip-path-20)">
              <path id="Trazado_725748" data-name="Trazado 725748" d="M67.121,85.916a144.141,144.141,0,0,1-5.782,24.35l0,0c2.83-10.541,3.269-25.132,2.37-35.451-.093-1.067-.2-2.088-.32-3.053l-.012-.089a6.741,6.741,0,0,0-7.57-5.832,72.38,72.38,0,0,1-20.385-.391l.161.006a21.408,21.408,0,0,0,22.3-23.216,143.1,143.1,0,0,0-3.146-19.519c7.4,18.28,10.6,43.213,11.449,51.037.57,2.862,1.448,8.229.938,12.156" transform="translate(-35.42 -22.724)" fill="#29353d"/>
            </g>
          </g>
        </g>
        <path id="Trazado_725749" data-name="Trazado 725749" d="M43.34,91.751a.229.229,0,0,1-.081-.016.2.2,0,0,1-.1-.26c3.9-8.849,9.224-23.754,9.276-23.905a.2.2,0,0,1,.373.133c-.052.149-5.381,15.068-9.292,23.931a.2.2,0,0,1-.177.117" transform="translate(43.744 68.378)" fill="#29353d"/>
        <path id="Trazado_725750" data-name="Trazado 725750" d="M42.188,31.335c-.246.558-.491,1.108-.733,1.641-.387.85-.765,1.668-1.138,2.447-1.76-4.068-9.375-4.106-11.433-4.04q.1-.571.215-1.166.157-.834.328-1.708a27.636,27.636,0,0,1,6.346.934c2.85.616,5.327,1.212,6.414,1.891" transform="translate(29.286 28.889)" fill="#f7a492"/>
        <path id="Trazado_725751" data-name="Trazado 725751" d="M50.474,31.962c-.453-.236-.926-.453-1.412-.653a13.034,13.034,0,0,0,.711-11.894c.747.415,1.466.828,2.145,1.239,2.55,7.176-1.444,11.308-1.444,11.308" transform="translate(49.745 19.685)" fill="#f7a492"/>
        <g id="Grupo_1026704" data-name="Grupo 1026704" transform="translate(64.258 29.892)" opacity="0.25">
          <g id="Grupo_1026703" data-name="Grupo 1026703">
            <g id="Grupo_1026702" data-name="Grupo 1026702" clip-path="url(#clip-path-21)">
              <path id="Trazado_725752" data-name="Trazado 725752" d="M39.7,46.028c.062-.3-.149-.584-.58-.854-1.088-.679-3.565-1.275-6.414-1.891l-.8-.173c10.291-10.535,9.467-24.844,9.1-28.267,1.951.34,3.71,1.7,4.976,5.365,2.008,5.82-6.279,25.82-6.279,25.82" transform="translate(-31.907 -14.843)" fill="#b6c7d9"/>
            </g>
          </g>
        </g>
        <path id="Trazado_725753" data-name="Trazado 725753" d="M24.268,37.227a.1.1,0,0,1-.091-.06.1.1,0,0,1,.052-.129c.077-.032,7.844-3.315,14.18-2.709a.1.1,0,0,1,.089.109.1.1,0,0,1-.107.089c-6.287-.6-14.009,2.66-14.085,2.693a.087.087,0,0,1-.038.008" transform="translate(24.507 34.73)" fill="#f7a492"/>
      </g>
    </g>
  </g>
</svg>
