<svg id="Grupo_1026646" data-name="Grupo 1026646" xmlns="http://www.w3.org/2000/svg" xmlns:xlink="http://www.w3.org/1999/xlink" width="227" height="214.572" viewBox="0 0 227 214.572">
  <defs>
    <clipPath id="clip-path">
      <rect id="Rectángulo_344460" data-name="Rectángulo 344460" width="227" height="214.572" fill="none"/>
    </clipPath>
  </defs>
  <g id="Grupo_1026645" data-name="Grupo 1026645" clip-path="url(#clip-path)">
    <path id="Trazado_725507" data-name="Trazado 725507" d="M185.2,204.2,24,174.972a4.478,4.478,0,0,1-3.535-5.2L48.836,3.711A4.369,4.369,0,0,1,53.881.069l161.2,29.225a4.478,4.478,0,0,1,3.535,5.2l-28.37,166.064A4.369,4.369,0,0,1,185.2,204.2" transform="translate(-1.66 0)" fill="#06d1d1"/>
    <path id="Trazado_725508" data-name="Trazado 725508" d="M189.56,215.256a14.846,14.846,0,0,1-2.661-.24L45.769,189.428a15.746,15.746,0,0,1-12.417-18.256L58.188,25.788a15.361,15.361,0,0,1,17.724-12.8l141.13,25.587a15.751,15.751,0,0,1,12.419,18.258L204.624,202.222a15.462,15.462,0,0,1-15.064,13.033M73.253,14.31A13.937,13.937,0,0,0,59.678,26.056L34.842,171.439a14.192,14.192,0,0,0,11.19,16.455l141.129,25.587a13.833,13.833,0,0,0,15.972-11.526L227.971,56.567a14.2,14.2,0,0,0-11.192-16.455L75.65,14.526a13.441,13.441,0,0,0-2.4-.217" transform="translate(-2.694 -0.684)" fill="#b20d0d"/>
    <path id="Trazado_725509" data-name="Trazado 725509" d="M66.617,195.273c-1.364-6.693-6.265-12.118-10.948-12.118s-7.373,5.425-6.009,12.118,6.266,12.118,10.948,12.118,7.372-5.425,6.008-12.118" transform="translate(-4.011 -9.825)" fill="#36262b"/>
    <path id="Trazado_725510" data-name="Trazado 725510" d="M72.225,197.2H14.479v8a1.985,1.985,0,0,0,1.955,2.014H72.225Z" transform="translate(-1.178 -10.578)" fill="#36262b"/>
    <path id="Trazado_725511" data-name="Trazado 725511" d="M12.157,203.97H74.917s1.8-32.223-11.429-37.593-36.894-11.774-46.919-6.61-4.411,44.2-4.411,44.2" transform="translate(-0.862 -8.468)" fill="#705059"/>
    <path id="Trazado_725512" data-name="Trazado 725512" d="M63.91,166.375C50.677,161,27.016,154.6,16.991,159.766a5.6,5.6,0,0,0-1.213.857c11.493-2.438,32.381,4.583,44.444,10.25,9.691,4.552,10.365,23.411,10.042,33.1h5.075s1.805-32.223-11.429-37.593" transform="translate(-1.284 -8.468)" fill="#836971"/>
    <path id="Trazado_725513" data-name="Trazado 725513" d="M34.851,184.747c-9.062-7.9-15.661-16.652-19-24.4-9.032,6.633-3.7,43.751-3.7,43.751H74.917s.039-.7.063-1.914c-9.987,1.525-25.956-5.081-40.129-17.44" transform="translate(-0.862 -8.602)" fill="#563d45"/>
    <path id="Trazado_725514" data-name="Trazado 725514" d="M70.408,173.12a134.971,134.971,0,0,1-22.623-1.827c-13.423-2.159-25.5-5.886-32.64-9.931a8.157,8.157,0,0,0-.514.656c7.23,4.121,19.468,7.912,33.03,10.092a138.151,138.151,0,0,0,21.516,1.848c.558,0,1.107-.007,1.651-.016-.136-.279-.277-.552-.421-.821" transform="translate(-1.19 -8.656)" fill="#36262b"/>
    <path id="Trazado_725515" data-name="Trazado 725515" d="M61.083,177.317a36.2,36.2,0,0,1,11.81-2.633c-.131-.273-.268-.538-.407-.8a36.966,36.966,0,0,0-11.7,2.664c-13.17,5.321-21.54,17.053-21.214,28.28h.8c-.335-10.893,7.847-22.315,20.708-27.511" transform="translate(-3.219 -9.328)" fill="#36262b"/>
    <path id="Trazado_725516" data-name="Trazado 725516" d="M34.215,181.417c-.2-1.775-1.29-3.1-2.438-2.968s-1.919,1.685-1.722,3.46,1.289,3.1,2.438,2.968,1.919-1.685,1.722-3.46" transform="translate(-2.443 -9.572)" fill="#36262b"/>
    <path id="Trazado_725517" data-name="Trazado 725517" d="M33.5,181.5c-.134-1.207-.876-2.109-1.657-2.018s-1.3,1.145-1.17,2.352.876,2.11,1.657,2.018,1.3-1.145,1.17-2.352" transform="translate(-2.493 -9.627)" fill="#563d45"/>
    <path id="Trazado_725518" data-name="Trazado 725518" d="M64.134,166.376c-12.686-5.148-34.943-11.238-45.6-7.186,4.455,3.78,15.335,7.671,28.372,9.768a94.586,94.586,0,0,0,22.036,1.209,11.764,11.764,0,0,0-4.812-3.792" transform="translate(-1.508 -8.468)" fill="#ffba4e"/>
    <path id="Trazado_725519" data-name="Trazado 725519" d="M27.064,158.535c5.507,2.946,14.42,5.71,24.684,7.361a111.066,111.066,0,0,0,13.285,1.349c-.156-.073-.311-.148-.472-.213-10.008-4.062-25.971-8.706-37.5-8.5" transform="translate(-2.202 -8.504)" fill="#ffde7b"/>
    <path id="Trazado_725520" data-name="Trazado 725520" d="M80.02,202.906c-.593-2.907-2.721-5.264-4.755-5.264s-3.2,2.356-2.61,5.264,2.721,5.264,4.755,5.264,3.2-2.356,2.61-5.264" transform="translate(-5.898 -10.602)" fill="#36262b"/>
    <path id="Trazado_725521" data-name="Trazado 725521" d="M30.093,195.273c-1.364-6.693-6.265-12.118-10.948-12.118s-7.373,5.425-6.009,12.118,6.266,12.118,10.948,12.118,7.372-5.425,6.008-12.118" transform="translate(-1.04 -9.825)" fill="#36262b"/>
    <path id="Trazado_725522" data-name="Trazado 725522" d="M28.691,195.35c-1.212-5.948-5.568-10.769-9.729-10.769S12.41,189.4,13.622,195.35s5.568,10.769,9.729,10.769S29.9,201.3,28.691,195.35" transform="translate(-1.083 -9.901)" fill="#705059"/>
    <path id="Trazado_725523" data-name="Trazado 725523" d="M79.3,202.97c-.466-2.284-2.138-4.135-3.735-4.135s-2.516,1.851-2.05,4.135,2.138,4.135,3.735,4.135,2.516-1.851,2.05-4.135" transform="translate(-5.971 -10.666)" fill="#705059"/>
    <path id="Trazado_725524" data-name="Trazado 725524" d="M19.214,185.475c-2.386,0-4.109,1.792-4.744,4.48,1.726,3.3,4.514,5.589,7.215,5.589,2.387,0,4.109-1.792,4.745-4.48-1.727-3.3-4.515-5.589-7.216-5.589" transform="translate(-1.177 -9.949)" fill="#836971"/>
    <path id="Trazado_725525" data-name="Trazado 725525" d="M73.865,200.748c.68,1.416,1.768,2.4,2.826,2.4a1.9,1.9,0,0,0,1.719-1.46c-.679-1.416-1.767-2.4-2.826-2.4a1.9,1.9,0,0,0-1.719,1.459" transform="translate(-6.009 -10.69)" fill="#836971"/>
    <rect id="Rectángulo_344445" data-name="Rectángulo 344445" width="1.756" height="7.261" transform="translate(40.436 164.967)" fill="#563d45"/>
    <rect id="Rectángulo_344446" data-name="Rectángulo 344446" width="1.756" height="7.261" transform="translate(37.563 164.967)" fill="#563d45"/>
    <rect id="Rectángulo_344447" data-name="Rectángulo 344447" width="1.021" height="4.221" transform="translate(43.199 166.488)" fill="#563d45"/>
    <path id="Trazado_725526" data-name="Trazado 725526" d="M165.421,100.87l-.048.972a2.9,2.9,0,0,0,.146-1.3,7.364,7.364,0,0,0-.689-2.318,4.55,4.55,0,0,0-.741-1.079c.013.044.028.089.04.132a21.032,21.032,0,0,0,1.292,3.6" transform="translate(-13.349 -5.211)" fill="#dad2c0"/>
    <path id="Trazado_725527" data-name="Trazado 725527" d="M156.439,78.111c.227.824.354,1.687.525,2.585a13.492,13.492,0,0,0,.853,2.926,22.452,22.452,0,0,1,1.088,2.324c.5,1.508.389,2.887.931,4.6a11.358,11.358,0,0,0,.979,2.185,16.783,16.783,0,0,0,2.492,3.2c.028.03.059.064.087.1a9.082,9.082,0,0,0-1.208-2.764c-.341-.374-.6-.173-.926-.867-.356-.751-.333-1.628-.665-2.35a5.892,5.892,0,0,0-.47-.738,7.554,7.554,0,0,1-.652-1.741c-.674-2.39-1.28-4.532-1.824-6.464a29.43,29.43,0,0,0-.959-3,4.019,4.019,0,0,0-1.138-1.773,3.737,3.737,0,0,1,.888,1.784" transform="translate(-12.654 -4.094)" fill="#dad2c0"/>
    <path id="Trazado_725528" data-name="Trazado 725528" d="M150.222,80.9l.175-.846a3.412,3.412,0,0,0-.319,1.2,2.527,2.527,0,0,0,.4,1.5,1.157,1.157,0,0,0,.657.436c-.008-.03-.019-.062-.028-.091a6.087,6.087,0,0,0-.883-2.2" transform="translate(-12.209 -4.294)" fill="#dad2c0"/>
    <path id="Trazado_725529" data-name="Trazado 725529" d="M159.954,102.1a40.133,40.133,0,0,1-.9-4.233,12.566,12.566,0,0,0-1.387-4.059,16.01,16.01,0,0,1-1.656-2.548c-.636-1.591-.284-3.356-.911-4.951a4.46,4.46,0,0,0-1.126-1.641,5.778,5.778,0,0,0-2.659-1.272c-.028-.008-.056-.018-.084-.026.225.767.593,1.624,1.04,1.782.374.132.725-.262,1.063.211.382.533.235,1.5.6,2.069.171.263.388.329.582.513a4.057,4.057,0,0,1,.773,1.634q1.208,3.958,2.419,7.915a33.591,33.591,0,0,0,1.681,4.668,6.809,6.809,0,0,0,2.592,3.2,5.943,5.943,0,0,1-2.023-3.26" transform="translate(-12.302 -4.472)" fill="#dad2c0"/>
    <path id="Trazado_725530" data-name="Trazado 725530" d="M104.186,38.227c5.079,1.928,8.021,6.885,9.758,11.429s7.887,18.039,9.491,19.83-2,18.039-5.079,19.278-8.555-4.82-8.555-4.82Z" transform="translate(-8.476 -2.051)" fill="#ffba4e"/>
    <path id="Trazado_725531" data-name="Trazado 725531" d="M123.434,69.486a36.743,36.743,0,0,1-3.127-5.615c-.3,3.941-1.248,6.524-2.784,6.841-3.149.648-7.574-8.468-9.884-20.363a73.374,73.374,0,0,1-1.332-11.066,12.532,12.532,0,0,0-2.122-1.057L109.8,83.946s5.481,6.059,8.555,4.819,6.683-17.488,5.079-19.278" transform="translate(-8.476 -2.051)" fill="#ffa43c"/>
    <path id="Trazado_725532" data-name="Trazado 725532" d="M120.779,91.973c-4.918.534-8.154-2.479-8.154-4.269s5.748-18.177,11.362-17.9,4.411,21.344-3.208,22.17" transform="translate(-9.162 -3.744)" fill="#fbdeb9"/>
    <path id="Trazado_725533" data-name="Trazado 725533" d="M123.988,80.278a8.367,8.367,0,0,1-7.423-2.587c-2.338,4.481-3.939,9.492-3.939,10.436,0,1.791,3.235,4.8,8.154,4.269,4.528-.491,6.79-8.133,6.7-14.31a5.2,5.2,0,0,1-3.494,2.192" transform="translate(-9.162 -4.168)" fill="#f0c593"/>
    <path id="Trazado_725534" data-name="Trazado 725534" d="M119.514,90.446c-3.475-4.682,2.273-17.9,4.679-18.452s13.635-2.892,15.64-2.341,3.475,7.574,2.139,10.6-22.457,10.19-22.457,10.19" transform="translate(-9.634 -3.732)" fill="#ffa87a"/>
    <path id="Trazado_725535" data-name="Trazado 725535" d="M139.831,69.652a8,8,0,0,0-2.307-.008c-3.776.765-11.723,11.96-14.443,9.9-1.153-.873-1.577-2.563-1.363-4.673-2.391,4.285-4.727,12.178-2.206,15.576,0,0,21.121-7.16,22.457-10.19s-.133-10.052-2.139-10.6" transform="translate(-9.634 -3.732)" fill="#ff8759"/>
    <path id="Trazado_725536" data-name="Trazado 725536" d="M121.588,189.776l-3.673,1.305a73.075,73.075,0,0,1,2.756,10.943l3.261-.9c-1.881-2.511-2.344-11.345-2.344-11.345" transform="translate(-9.593 -10.18)" fill="#e7bf90"/>
    <path id="Trazado_725537" data-name="Trazado 725537" d="M136.583,208.336h-17s-.309-6.425,2.815-7.429,2.514,4.015,9.742,4.719c2.243.218,4.353,2.007,4.444,2.71" transform="translate(-9.727 -10.77)" fill="#fbdeb9"/>
    <path id="Trazado_725538" data-name="Trazado 725538" d="M112.471,99.785c.215,9.091,10.473,89.049,10.473,89.049s-4.3,6.434-10.329,6.381c0,0-20.155-60.492-21.016-83.221-.658-17.365,20.873-12.21,20.873-12.21" transform="translate(-7.45 -5.314)" fill="#2a85ac"/>
    <path id="Trazado_725539" data-name="Trazado 725539" d="M98.85,103.47c-.055-1.123-1.021-1.924-.937-2.887-3.687,1.638-6.56,4.983-6.314,11.494.861,22.729,21.017,83.22,21.017,83.22a10.551,10.551,0,0,0,6.217-2.216c-4.892-16.294-18.922-68.04-19.982-89.611" transform="translate(-7.45 -5.396)" fill="#00719b"/>
    <path id="Trazado_725540" data-name="Trazado 725540" d="M92.344,189.922l3.708,1.295a74.186,74.186,0,0,0,1.172,10.859l-3.207-.9c.845-2.491-1.673-11.258-1.673-11.258" transform="translate(-7.512 -10.188)" fill="#e7bf90"/>
    <path id="Trazado_725541" data-name="Trazado 725541" d="M84.408,208.34h15.16s-1.857-6.376-4.974-7.372-.91,3.985-7.122,4.683c-1.927.216-3.215,1.992-3.064,2.69" transform="translate(-6.866 -10.773)" fill="#fbdeb9"/>
    <path id="Trazado_725542" data-name="Trazado 725542" d="M85.3,187.987c5.882,1.377,14.771-1.377,14.771-1.377L96.46,109.977l2.005-3.511L111.5,96.551s-2.406-41.518-3.008-44.616-4.277-12.806-7.686-14.046-15.706-.9-17.511-.275S72,43.259,71.2,45.118s0,57.01,0,58.662,14.1,84.207,14.1,84.207" transform="translate(-5.763 -1.988)" fill="#378ebe"/>
    <path id="Trazado_725543" data-name="Trazado 725543" d="M98.487,109.719l11.166-8.495a53.2,53.2,0,0,1-14.876,2.091A51.074,51.074,0,0,1,71.109,97.7c.061,5.284.109,8.924.109,9.33,0,1.653,14.1,84.207,14.1,84.207,5.882,1.377,14.771-1.377,14.771-1.377L96.482,113.23Z" transform="translate(-5.785 -5.241)" fill="#2a85ac"/>
    <path id="Trazado_725544" data-name="Trazado 725544" d="M98.959,116.218c.1-.309,8.021-10.947,8.021-10.947l-8.422,4.957L89.234,112.6Z" transform="translate(-7.259 -5.647)" fill="#00719b"/>
    <path id="Trazado_725545" data-name="Trazado 725545" d="M79.131,117.641c-3.088-33.193-1.158-62.795,4.3-80.036-.047.012-.1.026-.133.038-1.805.62-11.3,5.646-12.1,7.506s0,57.01,0,58.662,14.1,84.207,14.1,84.207a25.161,25.161,0,0,0,9.268-.118c-6.987-16.59-12.784-41.761-15.436-70.258" transform="translate(-5.763 -2.017)" fill="#00719b"/>
    <path id="Trazado_725546" data-name="Trazado 725546" d="M107.037,60.185s-1.43-17.9-9.774-23.076c-5.169-.695-12.375.02-13.752.492-1.32.453-7.061,2.815-10.005,5.3,8.132,8.266,12.33,20.915,12.678,26.788Z" transform="translate(-5.98 -1.975)" fill="#ffba4e"/>
    <path id="Trazado_725547" data-name="Trazado 725547" d="M97.263,37.109c-5.17-.7-12.375.019-13.753.492-1.32.453-7.062,2.815-10.005,5.3a40.929,40.929,0,0,1,5.249,6.677l.175-.009c10.744-.677,19.788-3.466,23.293-6.819a15.02,15.02,0,0,0-4.959-5.638" transform="translate(-5.98 -1.975)" fill="#ff9340"/>
    <path id="Trazado_725548" data-name="Trazado 725548" d="M98.378,37.123c-.1-.013-.2-.023-.3-.034,7.72,5.718,9.07,22.593,9.07,22.593L87.211,68.767c.036.323.07.643.087.933l21.054-9.3s-1.63-18.1-9.974-23.282" transform="translate(-7.095 -1.99)" fill="#ff9340"/>
    <path id="Trazado_725549" data-name="Trazado 725549" d="M84.833,36.94,85.5,25.1,98.6,21.93V37.491s-1.872,4.82-5.08,4.682-8.689-5.232-8.689-5.232" transform="translate(-6.901 -1.176)" fill="#f97146"/>
    <path id="Trazado_725550" data-name="Trazado 725550" d="M83.456,37.9l1.17-1.607s7.021,5.525,9.458,5.123S98.571,36.6,98.571,36.6l1.657.9s-.292,4.521-1.365,6.53l-2.828-1.406c-.877.2-2.73,3.918-2.73,3.918A22.443,22.443,0,0,1,83.456,37.9" transform="translate(-6.789 -1.947)" fill="#f0c593"/>
    <path id="Trazado_725551" data-name="Trazado 725551" d="M84.833,13.492c.134,2.342.669,15.837,1.337,17.075s7.219,6.06,10.827,6.06,5.748-3.717,5.748-5.37-.535-15.837-.935-17.351S95.794,8.4,93.656,8.4s-8.823,5.094-8.823,5.094" transform="translate(-6.901 -0.45)" fill="#ff8759"/>
    <path id="Trazado_725552" data-name="Trazado 725552" d="M89.78,29.263a10.321,10.321,0,0,0,1.749,5.709c2.016,1.191,4.241,2.175,5.87,2.175,3.609,0,5.748-3.718,5.748-5.371,0-1.192-.278-8.911-.584-13.684-.129,0-.255-.018-.385-.018-6.848,0-12.4,5.01-12.4,11.189" transform="translate(-7.304 -0.97)" fill="#ffa87a"/>
    <path id="Trazado_725553" data-name="Trazado 725553" d="M81.952,12.9c-.669,6.2,3.041,17.041,3.041,17.041l.267-5.509,2.674-.826s1.6-13.5-.268-14.046-5.714,3.34-5.714,3.34" transform="translate(-6.66 -0.51)" fill="#8c273f"/>
    <path id="Trazado_725554" data-name="Trazado 725554" d="M89.478,26.19l-3.967-2.6-.57-1.914,7.786,2.978Z" transform="translate(-6.91 -1.163)" fill="#f0c593"/>
    <path id="Trazado_725555" data-name="Trazado 725555" d="M87.835,31.207l-3.893-5.766v1.652l2.807,5.525Z" transform="translate(-6.829 -1.365)" fill="#f0c593"/>
    <path id="Trazado_725556" data-name="Trazado 725556" d="M83.395,26.491c-3.928-3.541-3.342-5.371-2.406-6.334s4.946-.689,5.481,2.891.133,4.958.133,4.958a9.336,9.336,0,0,1-3.208-1.515" transform="translate(-6.533 -1.056)" fill="#ff8759"/>
    <path id="Trazado_725557" data-name="Trazado 725557" d="M81.809,16.22c-1.07-4.406-1.739-8.263-.937-9.64S90.23-.374,95.977.246c3.325.358,4.946,11.843,4.946,11.843-5.936-1.563-12.321-.1-19.114,4.131" transform="translate(-6.55 -0.011)" fill="#fbdeb9"/>
    <path id="Trazado_725558" data-name="Trazado 725558" d="M95.176,11.379c-6.214,0-11.33-2.811-12.066-6.437a8.964,8.964,0,0,0-2.237,1.893c-.8,1.377-.135,5.232.935,9.64,6.793-4.228,13.179-5.694,19.114-4.132,0,0-.1-.7-.295-1.748a18.871,18.871,0,0,1-5.452.785" transform="translate(-6.55 -0.265)" fill="#f0c593"/>
    <path id="Trazado_725559" data-name="Trazado 725559" d="M102.545,16.348c6.283-2.2,14.487-10.931,10.694-11.154-12.9-.758-24.3,8.089-24.3,8.089,6.985-1.451,13.319-2.006,13.6,3.064" transform="translate(-7.236 -0.276)" fill="#c3425a"/>
    <path id="Trazado_725560" data-name="Trazado 725560" d="M95.852,21.884c-.057-.9-.614-1.578-1.243-1.522s-1.093.829-1.035,1.726.614,1.578,1.243,1.522,1.092-.83,1.035-1.726" transform="translate(-7.612 -1.092)" fill="#413032"/>
    <path id="Trazado_725561" data-name="Trazado 725561" d="M102.971,21.154c-.06-.861-.615-1.484-1.241-1.392a1.537,1.537,0,0,0-1.022,1.726c.06.861.615,1.485,1.24,1.392a1.536,1.536,0,0,0,1.023-1.726" transform="translate(-8.192 -1.06)" fill="#413032"/>
    <path id="Trazado_725562" data-name="Trazado 725562" d="M98.541,19.849l-.035,1.273a26.557,26.557,0,0,1,1.411,5.158c0,.819-.976.247-1.568.558l-.014.48s2.151.443,2.147-.821a39.5,39.5,0,0,0-1.941-6.647" transform="translate(-8 -1.065)" fill="#f97146"/>
    <path id="Trazado_725563" data-name="Trazado 725563" d="M97.243,32.779c-.335-.008-.606.086-.605.211s.273.231.607.238.606-.086.605-.21-.272-.232-.607-.239" transform="translate(-7.862 -1.758)" fill="#f97146"/>
    <path id="Trazado_725564" data-name="Trazado 725564" d="M94.667,16.266l-2.566.592a1.109,1.109,0,0,0-.667,1.345c.119.63.61,1.05,1.1.937l2.566-.592a1.109,1.109,0,0,0,.667-1.345c-.119-.63-.611-1.05-1.1-.937" transform="translate(-7.436 -0.872)" fill="#8c273f"/>
    <path id="Trazado_725565" data-name="Trazado 725565" d="M104.231,16.387l-2.565-.6a1.076,1.076,0,0,0-1.161.923,1.042,1.042,0,0,0,.6,1.334l2.565.6a1.076,1.076,0,0,0,1.161-.923,1.042,1.042,0,0,0-.6-1.334" transform="translate(-8.173 -0.846)" fill="#8c273f"/>
    <path id="Trazado_725566" data-name="Trazado 725566" d="M100.131,29.357l-4.735-.52s-.066,3.139,2.194,3.152,2.541-2.633,2.541-2.633" transform="translate(-7.761 -1.547)" fill="#413032"/>
    <path id="Trazado_725567" data-name="Trazado 725567" d="M99.132,30.606a3.29,3.29,0,0,0,.474-1.221l-3.944-.377a3.993,3.993,0,0,0,.21,1.286Z" transform="translate(-7.782 -1.556)" fill="#fbdeb9"/>
    <path id="Trazado_725568" data-name="Trazado 725568" d="M96.061,22.381H93.143l.052,1.59h2.918Z" transform="translate(-7.577 -1.201)" fill="#ffa87a"/>
    <path id="Trazado_725569" data-name="Trazado 725569" d="M103.136,21.953h-2.918l.052,1.59h2.918Z" transform="translate(-8.153 -1.178)" fill="#ffa87a"/>
    <path id="Trazado_725570" data-name="Trazado 725570" d="M102.984,24.295l-13.568.379-2.473,7.781s4.21,5.474,10.827,5.474,6.216-8.366,5.213-13.633" transform="translate(-7.073 -1.303)" fill="#fbdeb9"/>
    <path id="Trazado_725571" data-name="Trazado 725571" d="M30.153,175.517a1.186,1.186,0,0,1-1.585.69C9.47,167.564-.041,141.019,0,128.235a22.518,22.518,0,0,1,7.124-16.919c7.861-7.442,21.7-10.745,38.957-9.306,46.688,3.9,70.2-8.305,76.634-21.026l2.133,1.146c-4.053,8.012-12.942,14.358-25.706,18.351-14.143,4.424-32.063,5.768-53.256,4-16.586-1.385-29.773,1.69-37.135,8.661a20.088,20.088,0,0,0-6.345,15.1c-.04,12.185,8.98,37.468,27.091,45.676a1.26,1.26,0,0,1,.655,1.6" transform="translate(0 -4.344)" fill="#705059"/>
    <path id="Trazado_725572" data-name="Trazado 725572" d="M29.554,176.973C14.614,170.2,5.867,151.819,3.282,138.747q-1.327-.382-2.586-.83c2.414,13.77,11.715,34.006,27.929,41.343a1.186,1.186,0,0,0,1.585-.689,1.261,1.261,0,0,0-.655-1.6" transform="translate(-0.057 -7.398)" fill="#36262b"/>
    <path id="Trazado_725573" data-name="Trazado 725573" d="M128.46,80.984c-5.5,10.881-23.516,21.375-57.824,21.745a16.245,16.245,0,0,1,.635,2.484c12.818-.172,24.08-1.749,33.618-4.733,12.763-3.993,21.652-10.339,25.7-18.351Z" transform="translate(-5.746 -4.344)" fill="#36262b"/>
    <path id="Trazado_725574" data-name="Trazado 725574" d="M136.1,83.075c-2.142.679-4.512-4.751-2.306-7.229a64.3,64.3,0,0,1,5.213-5.061l5.113,9.3s-6.717,2.583-8.021,3" transform="translate(-10.812 -3.797)" fill="#705059"/>
    <path id="Trazado_725575" data-name="Trazado 725575" d="M139.051,70.785s-.983.844-2.236,2.029c.023.025.05.039.071.064,1.327,1.559,1.156,4.413-.379,6.375a4.047,4.047,0,0,1-3.018,1.693c.61,1.425,1.654,2.446,2.655,2.129,1.3-.414,8.021-3,8.021-3Z" transform="translate(-10.859 -3.797)" fill="#563d45"/>
    <path id="Trazado_725576" data-name="Trazado 725576" d="M145.458,74.932l-9.625,6.2,2.507,5.061,12.531,1.755Z" transform="translate(-11.05 -4.02)" fill="#563d45"/>
    <path id="Trazado_725577" data-name="Trazado 725577" d="M137.485,82.081c2.067,2.835,9.279.094,10.374-2.037s-.365-11.408-2.556-12.411-6.815,3.384-6.815,3.761c0,.212,4.2,5.672,2.556,6.174-4.67,1.425-4.478,3.254-3.56,4.513" transform="translate(-11.142 -3.62)" fill="#ff8759"/>
    <path id="Trazado_725578" data-name="Trazado 725578" d="M138.509,68.261c-1.767,3.334,2.035,10.371,2.848,10.94s4.524.71,5.141-.285,3.19-9.8,1.522-11.366-7.93-2.273-9.511.711" transform="translate(-11.23 -3.551)" fill="#ffa87a"/>
    <path id="Trazado_725579" data-name="Trazado 725579" d="M138.113,68.064l12.026,22.384,11.524,1.484L151.288,64.06a2.368,2.368,0,0,0-1.039-1.242c-2.066-1.178-7.938-3.694-12.068,2.782a2.453,2.453,0,0,0-.068,2.463" transform="translate(-11.211 -3.29)" fill="#705059"/>
    <path id="Trazado_725580" data-name="Trazado 725580" d="M84.785,85.076c.267-2.066-1.871-7.3-2.673-9.64S81.978,59.6,79.974,55.883,74.091,43.9,72.22,43.9s-5.347,3.443-6.55,6.886-1.337,21.069-.935,26.439S68.611,92.1,71.552,93.2s13.233-8.124,13.233-8.124" transform="translate(-5.25 -2.355)" fill="#ffba4e"/>
    <path id="Trazado_725581" data-name="Trazado 725581" d="M73.289,84.859c0-4.118,4.106-7.489,9.327-7.817-.194-.531-.369-1.014-.5-1.409-.8-2.341-.134-15.836-2.14-19.555-.192-.357-.4-.756-.626-1.185.231,1.185.425,2.418.578,3.688,1.2,9.963-.658,18.4-4.138,18.842s-7.27-7.275-8.465-17.238a41.188,41.188,0,0,1,.245-12.616,12.742,12.742,0,0,0-1.9,3.414c-1.2,3.443-1.337,21.069-.936,26.439S68.611,92.295,71.551,93.4c1.152.431,3.43-.723,5.776-2.284a7.419,7.419,0,0,1-4.038-6.254" transform="translate(-5.25 -2.552)" fill="#ffa43c"/>
    <path id="Trazado_725582" data-name="Trazado 725582" d="M85.273,86.53l14.169,16.387-7.887,6.748L72.173,95.48s9.357-10.328,13.1-8.951" transform="translate(-5.871 -4.635)" fill="#ffa87a"/>
    <path id="Trazado_725583" data-name="Trazado 725583" d="M94.418,104.786c-7.513-1.273-13.111-5.384-12.5-9.183.386-2.419,3.2-4.123,7.127-4.718l-3.767-4.357c-3.743-1.377-13.1,8.952-13.1,8.952l19.383,14.183,5.351-4.578c-.814-.061-1.644-.156-2.489-.3" transform="translate(-5.871 -4.635)" fill="#ff8759"/>
    <path id="Trazado_725584" data-name="Trazado 725584" d="M83.966,81.735c1.738,1.791,3.342,7.3,3.342,7.3L73.272,96.745s-6.283-.689-5.614-6.886,16.308-8.124,16.308-8.124" transform="translate(-5.5 -4.384)" fill="#fbdeb9"/>
    <path id="Trazado_725585" data-name="Trazado 725585" d="M73.807,88.62c.382-3.543,5.658-5.689,10.108-6.879-.963.125-15.611,2.126-16.256,8.118-.669,6.2,5.614,6.886,5.614,6.886l3.682-2.023a5.633,5.633,0,0,1-3.147-6.1" transform="translate(-5.5 -4.385)" fill="#f0c593"/>
    <path id="Trazado_725586" data-name="Trazado 725586" d="M222.78,106.893l-.033-.024c1.187-2.263,1.031-5.2.831-7.892-.123-1.66-.327-3.513-1.377-4.536a3.631,3.631,0,0,0-2.951-.78A14.242,14.242,0,0,0,214.288,95,2.971,2.971,0,0,0,213,96.285a2.662,2.662,0,0,0-.91-1.485,1.817,1.817,0,0,0-2.454.281c2.3-5.89,1.436-13.5-2.095-18.34s-9.5-6.611-14.383-4.263a10.729,10.729,0,0,0-4.852,4.629,10.538,10.538,0,0,0-.932,7.409c.715,2.673,2.576,4.611,3.572,7.138l-2.036.676.879,2.509a2.354,2.354,0,0,1-2.34,2.315,5.453,5.453,0,0,1-3.017-1.6,6.584,6.584,0,0,0-2.969-1.77c1.582,2.021,1.218,5.472.018,7.872a4.03,4.03,0,0,1-1.678,1.954c-1.544.7-3.091-.874-4.336-2.218s-3.107-2.589-4.411-1.334c-.833.8-1.014,2.308-1.742,3.257-1.5,1.953-4.3.61-6.142,2.016q.737,1,1.477,1.994a1.784,1.784,0,0,1,.412.86c.093.933-.958,1.274-1.7,1.18-2.889-.362-4.233-.34-6.108-3.117l-.341-.9c.212,2.218.4,4.032,1.436,4.822h27.616c2.584-.08,5.166-.093,7.743,0h28.309c1.417,0,1.988-2.374.769-3.276" transform="translate(-12.764 -3.833)" fill="#dad2c0"/>
    <path id="Trazado_725587" data-name="Trazado 725587" d="M160.264,111.063c-3.709,0-6.715-2.358-6.715-5.267a4.349,4.349,0,0,1,.707-2.342,3.918,3.918,0,0,1-1.593-2.523,30.329,30.329,0,0,1-.96-4.67.8.8,0,0,1-.344.029,4.3,4.3,0,0,1,.542,2.495,7.5,7.5,0,0,0-.215,2.278,7.8,7.8,0,0,0,.678,1.543,3.8,3.8,0,0,1-.515,3.909,1.049,1.049,0,0,1-.684.384c-.658.026-1.082-.9-1.331-1.667a13.959,13.959,0,0,0-1.358-3.267,3.25,3.25,0,0,0-2.522-1.717,2.008,2.008,0,0,0-1.8,2.211,2.911,2.911,0,0,0,1.277,2.077,10.268,10.268,0,0,0,2.045.931.808.808,0,0,1,.447.342,1.011,1.011,0,0,1,.066.578,2.369,2.369,0,0,1-2.005,2.224,2.578,2.578,0,0,1-2.347-2.016c-.168-.607-.17-1.256-.33-1.865s-.569-1.223-1.078-1.226c-.573,0-.918.738-1.035,1.421a6.626,6.626,0,0,0,.669,4.148l-.937-1.343a.963.963,0,0,1-.882,1.366c-.6-.111-1.049-.82-1.244-1.538s-.206-1.476-.347-2.209a1.651,1.651,0,0,0-.547-1.08,1.04,1.04,0,0,0-.7-.114,2.484,2.484,0,0,0-1.883.992,2.105,2.105,0,0,0,.06,2.391c.291.325.715.485.9.907.366.816-.462,1.578-1.174,1.757a3.609,3.609,0,0,1-4.132-1.582c-.956-1.7-.464-3.894-.348-5.888a7.83,7.83,0,0,0-1.256-5.166,4.788,4.788,0,0,0-3.8-1.76c-3.069-.032-6.006,2.294-7.006,5.795a10.5,10.5,0,0,0,2.436,9.875h20.372c.075-.1.161-.2.233-.307.068.107.141.206.214.307H161.79c-.006-.182-.022-.364-.044-.545a8.519,8.519,0,0,1-1.482.132" transform="translate(-9.617 -5.139)" fill="#dad2c0"/>
    <path id="Trazado_725588" data-name="Trazado 725588" d="M222.78,107.442l-.033-.024c.028-.054.047-.114.074-.169a5.577,5.577,0,0,1-1.281.165c-4.245,0-7.74-4.815-8.25-11.032a2.629,2.629,0,0,0-.291.452,2.662,2.662,0,0,0-.91-1.485,1.817,1.817,0,0,0-2.454.281,20.819,20.819,0,0,0,.15-13.947,23.867,23.867,0,0,1,.138,2.528c0,11.179-7.721,20.243-17.247,20.243a15.607,15.607,0,0,1-10.481-4.171,9.839,9.839,0,0,1-.715,1.919,4.03,4.03,0,0,1-1.678,1.954,1.859,1.859,0,0,1-.743.167,9.288,9.288,0,0,1-8.355,4.949A9.447,9.447,0,0,1,163.3,105.8c-.041.028-.085.05-.125.081q.737,1,1.477,1.994a1.784,1.784,0,0,1,.412.86c.093.933-.958,1.274-1.7,1.18-2.889-.362-4.233-.34-6.108-3.117l-.341-.9c.212,2.218.4,4.032,1.436,4.822h27.616c2.584-.08,5.166-.093,7.743,0h28.309c1.417,0,1.988-2.374.769-3.276" transform="translate(-12.764 -4.382)" fill="#cabda6"/>
    <path id="Trazado_725589" data-name="Trazado 725589" d="M161.746,111.092a8.519,8.519,0,0,1-1.482.132,6.971,6.971,0,0,1-6.147-3.15,8.738,8.738,0,0,1-4.852,1.5,8.612,8.612,0,0,1-3.683-.834,2.309,2.309,0,0,1-1.169-.664,10.422,10.422,0,0,1-3.141-3.313,3.2,3.2,0,0,0-.075.326,6.629,6.629,0,0,0,.669,4.149l-.937-1.344a.963.963,0,0,1-.882,1.367c-.6-.112-1.049-.82-1.244-1.538s-.206-1.477-.347-2.209a1.648,1.648,0,0,0-.547-1.08,1.029,1.029,0,0,0-.7-.114,2.481,2.481,0,0,0-1.883.992,2.106,2.106,0,0,0,.06,2.391c.291.325.715.485.9.907.366.815-.462,1.578-1.174,1.757a3.608,3.608,0,0,1-4.132-1.583,4.05,4.05,0,0,1-.367-.942,5.735,5.735,0,0,1-2.693.7c-3.939,0-7.2-4.2-7.864-9.728a8.66,8.66,0,0,0-1.49,2.951,10.5,10.5,0,0,0,2.436,9.875h20.372c.076-.105.161-.2.233-.307.068.106.141.206.214.307H161.79q-.01-.274-.044-.546" transform="translate(-9.617 -5.301)" fill="#cabda6"/>
    <path id="Trazado_725590" data-name="Trazado 725590" d="M113.819,107.4c-.551-.981-2.807-.723-4.161-1.085s-3.409-4.389-9.674-3.718l13.735,7.489a3.932,3.932,0,0,0,.1-2.686" transform="translate(-8.134 -5.499)" fill="#ff8759"/>
    <path id="Trazado_725591" data-name="Trazado 725591" d="M109.249,107.618c-1.471-.688-6.416-4.682-9.223-5.37S89.2,106.517,89.2,107.757s3.074,4.131,3.074,4.131h24.462c-.267-2.341-6.014-3.58-7.485-4.27" transform="translate(-7.256 -5.481)" fill="#ffa87a"/>
    <path id="Trazado_725592" data-name="Trazado 725592" d="M105.465,108.509l-.334.275a65.062,65.062,0,0,1,5.882,3.167h2.874Z" transform="translate(-8.553 -5.821)" fill="#ff8759"/>
    <path id="Trazado_725593" data-name="Trazado 725593" d="M106.651,111.525c-7.075-.791-12.8-3.471-14.26-6.4-1.812,1.124-3.192,2.277-3.192,2.791,0,1.239,3.074,4.131,3.074,4.131h24.463a1.791,1.791,0,0,0-.37-.863,30.746,30.746,0,0,1-9.714.344" transform="translate(-7.256 -5.639)" fill="#ff8759"/>
    <rect id="Rectángulo_344448" data-name="Rectángulo 344448" width="2.406" height="88.406" transform="translate(141.76 109.16)" fill="#6b3628"/>
    <rect id="Rectángulo_344449" data-name="Rectángulo 344449" width="2.406" height="88.406" transform="translate(201.712 109.16)" fill="#6b3628"/>
    <rect id="Rectángulo_344450" data-name="Rectángulo 344450" width="2.406" height="86.616" transform="translate(53.938 110.95)" fill="#9e5a48"/>
    <rect id="Rectángulo_344451" data-name="Rectángulo 344451" width="70.97" height="2.174" transform="translate(46.786 113.375)" fill="#6b3628"/>
    <rect id="Rectángulo_344452" data-name="Rectángulo 344452" width="102.686" height="2.174" transform="translate(113.597 113.375)" fill="#6b3628"/>
    <rect id="Rectángulo_344453" data-name="Rectángulo 344453" width="70.97" height="2.174" transform="translate(46.786 109.106)" fill="#6b3628"/>
    <rect id="Rectángulo_344454" data-name="Rectángulo 344454" width="102.686" height="2.174" transform="translate(113.597 109.106)" fill="#6b3628"/>
    <rect id="Rectángulo_344455" data-name="Rectángulo 344455" width="72.986" height="3.58" transform="translate(44.379 106.13)" fill="#834d3b"/>
    <rect id="Rectángulo_344456" data-name="Rectángulo 344456" width="105.601" height="3.58" transform="translate(113.088 106.13)" fill="#6b3628"/>
    <rect id="Rectángulo_344457" data-name="Rectángulo 344457" width="2.406" height="16.524" transform="translate(53.938 109.987)" fill="#6b3628"/>
    <rect id="Rectángulo_344458" data-name="Rectángulo 344458" width="2.406" height="87.304" transform="translate(113.89 110.262)" fill="#834d3b"/>
    <rect id="Rectángulo_344459" data-name="Rectángulo 344459" width="2.406" height="18.039" transform="translate(113.89 110.262)" fill="#6b3628"/>
    <path id="Trazado_725594" data-name="Trazado 725594" d="M152.278,87.4,140.252,65.014a2.485,2.485,0,0,1-.258-1.5,11.132,11.132,0,0,0-1.812,2.205,2.454,2.454,0,0,0-.068,2.464L150.14,90.566l11.524,1.484-1.346-3.616Z" transform="translate(-11.211 -3.407)" fill="#563d45"/>
    <path id="Trazado_725595" data-name="Trazado 725595" d="M150.33,91.026l.882.114c-.626-1.556-1.332-3.195-2.113-4.881-3.5-7.55-7.234-13.4-8.929-14.143Z" transform="translate(-11.403 -3.868)" fill="#705059"/>
    <path id="Trazado_725596" data-name="Trazado 725596" d="M158.534,85.289a.98.98,0,0,0,.411-.328L151.571,65.15a2.128,2.128,0,0,0-.932-1.114,9.741,9.741,0,0,0-4.53-1.325c.538,1.816,1.173,3.728,1.9,5.687,3.748,10.139,8.462,17.7,10.528,16.892" transform="translate(-11.886 -3.364)" fill="#7d6069"/>
    <path id="Trazado_725597" data-name="Trazado 725597" d="M72.406,43.9c-1.5,0-4.021,2.207-5.586,4.853a51.757,51.757,0,0,0,10,.93h.08c-1.668-3.038-3.413-5.783-4.491-5.783" transform="translate(-5.436 -2.355)" fill="#ff9340"/>
    <path id="Trazado_725598" data-name="Trazado 725598" d="M88.667,76.549c0-1.255-.606-2.272-1.353-2.272s-1.354,1.017-1.354,2.272.606,2.272,1.354,2.272,1.353-1.017,1.353-2.272" transform="translate(-6.993 -3.984)" fill="#00719b"/>
    <path id="Trazado_725599" data-name="Trazado 725599" d="M111.039,66.182c0-1.255-.606-2.272-1.353-2.272s-1.354,1.017-1.354,2.272.606,2.272,1.354,2.272,1.353-1.017,1.353-2.272" transform="translate(-8.813 -3.428)" fill="#00719b"/>
    <path id="Trazado_725600" data-name="Trazado 725600" d="M83.569,25.474c-2.272-2.048-1.933-3.106-1.392-3.663a2.17,2.17,0,0,1,3.17,1.672,7.732,7.732,0,0,1,.077,2.867,5.406,5.406,0,0,1-1.856-.876" transform="translate(-6.653 -1.155)" fill="#e94e44"/>
    <path id="Trazado_725601" data-name="Trazado 725601" d="M84.819,25.089c-1.467-1.322-1.248-2.005-.9-2.365a1.4,1.4,0,0,1,2.047,1.08,4.985,4.985,0,0,1,.05,1.851,3.5,3.5,0,0,1-1.2-.566" transform="translate(-6.806 -1.209)" fill="#ff8759"/>
    <path id="Trazado_725602" data-name="Trazado 725602" d="M93.559,31.6c0-3.432,3.032-6.324,7.178-7.236l-11.322.316-2.473,7.781s4.211,5.473,10.827,5.473c.115,0,.221-.008.332-.013-2.731-1.344-4.542-3.671-4.542-6.321" transform="translate(-7.073 -1.307)" fill="#f0c593"/>
    <path id="Trazado_725603" data-name="Trazado 725603" d="M147.452,64.915a3.73,3.73,0,0,0,.254-.692,6.943,6.943,0,0,0-8.2,2.51,5.505,5.505,0,0,0,1.043.516,7.05,7.05,0,0,1,6.907-2.334" transform="translate(-11.349 -3.421)" fill="#563d45"/>
    <path id="Trazado_725604" data-name="Trazado 725604" d="M148.544,67.043a3.726,3.726,0,0,0,.254-.692,6.943,6.943,0,0,0-8.2,2.51,5.507,5.507,0,0,0,1.043.516,7.05,7.05,0,0,1,6.907-2.334" transform="translate(-11.437 -3.535)" fill="#563d45"/>
    <path id="Trazado_725605" data-name="Trazado 725605" d="M149.635,69.171a3.73,3.73,0,0,0,.254-.692,6.943,6.943,0,0,0-8.2,2.51,5.479,5.479,0,0,0,1.043.516,7.05,7.05,0,0,1,6.907-2.334" transform="translate(-11.526 -3.649)" fill="#563d45"/>
    <path id="Trazado_725606" data-name="Trazado 725606" d="M150.726,71.3a3.7,3.7,0,0,0,.254-.692,6.943,6.943,0,0,0-8.2,2.51,5.505,5.505,0,0,0,1.043.516,7.05,7.05,0,0,1,6.907-2.334" transform="translate(-11.615 -3.764)" fill="#563d45"/>
  </g>
</svg>
