<svg id="Grupo_1028302" data-name="Grupo 1028302" xmlns="http://www.w3.org/2000/svg" xmlns:xlink="http://www.w3.org/1999/xlink" width="249" height="169.24" viewBox="0 0 249 169.24">
  <defs>
    <clipPath id="clip-path">
      <rect id="Rect치ngulo_345014" data-name="Rect치ngulo 345014" width="249" height="169.24" fill="none"/>
    </clipPath>
    <clipPath id="clip-path-3">
      <rect id="Rect치ngulo_345011" data-name="Rect치ngulo 345011" width="169.197" height="97.685" fill="none"/>
    </clipPath>
  </defs>
  <g id="Grupo_1028301" data-name="Grupo 1028301" clip-path="url(#clip-path)">
    <g id="Grupo_1028300" data-name="Grupo 1028300">
      <g id="Grupo_1028299" data-name="Grupo 1028299" clip-path="url(#clip-path)">
        <path id="Trazado_727128" data-name="Trazado 727128" d="M103.768,5.335c55.37-8.63,105.557,20.153,112.094,64.289s-33.051,86.913-88.422,95.543S21.882,145.012,15.346,100.876,48.4,13.964,103.768,5.335" transform="translate(9.788 2.545)" fill="#06d1d1"/>
        <path id="Trazado_727129" data-name="Trazado 727129" d="M211.925,94.078c-3.292,11.979-9.845,23.5-19.409,33.837-16.793,18.143-40.857,30.443-67.765,34.637s-53.448-.219-74.734-12.426c-21.336-12.236-34.84-30.834-38.029-52.369s4.323-43.408,21.148-61.593C49.929,18.024,73.995,5.722,100.9,1.529c55.6-8.667,106.189,20.4,112.765,64.8a67.118,67.118,0,0,1-1.74,27.754M14.863,70.331A65.915,65.915,0,0,0,13.15,97.577c3.135,21.158,16.431,39.445,37.441,51.494,21.058,12.079,47.331,16.442,73.982,12.287s50.478-16.325,67.089-34.274C208.238,109.176,215.64,87.663,212.5,66.5,206.027,22.77,156.039-5.845,101.079,2.722,74.427,6.875,50.6,19.047,33.992,37,24.565,47.183,18.1,58.539,14.863,70.331" transform="translate(7.536 0)" fill="#b20d0d"/>
        <g id="Grupo_1028295" data-name="Grupo 1028295" transform="translate(0.001 38.196)" opacity="0.3">
          <g id="Grupo_1028294" data-name="Grupo 1028294">
            <g id="Grupo_1028293" data-name="Grupo 1028293" clip-path="url(#clip-path-3)">
              <path id="Trazado_727130" data-name="Trazado 727130" d="M51.829,119.365a11.3,11.3,0,0,1-10.185,0L2.1,96.535c-2.8-1.617-2.8-4.263,0-5.878L117.37,24.1a11.306,11.306,0,0,1,10.183,0L167.1,46.936c2.8,1.617,2.8,4.262,0,5.878Z" transform="translate(-0.001 -22.891)"/>
            </g>
          </g>
        </g>
        <path id="Trazado_727131" data-name="Trazado 727131" d="M6.207,54.066l2.668,16.31c.207,1.525,1.322,3.018,3.342,4.185,4.5,2.6,11.805,2.6,16.31,0,2.021-1.165,3.134-2.66,3.341-4.185h0l2.665-16.31Z" transform="translate(4.15 36.148)" fill="#a39c95"/>
        <path id="Trazado_727132" data-name="Trazado 727132" d="M78.219,29.806l2.665,16.31h0c.207,1.525,1.322,3.015,3.341,4.183,4.5,2.6,11.805,2.6,16.31,0,2.021-1.168,3.135-2.658,3.341-4.183l2.668-16.31Z" transform="translate(52.296 19.928)" fill="#a39c95"/>
        <path id="Trazado_727133" data-name="Trazado 727133" d="M63.964,38.035l2.668,16.31c.207,1.525,1.322,3.015,3.342,4.185,4.505,2.6,11.805,2.6,16.31,0,2.019-1.17,3.134-2.66,3.341-4.185h0l2.665-16.31Z" transform="translate(42.766 25.43)" fill="#a39c95"/>
        <path id="Trazado_727134" data-name="Trazado 727134" d="M49.711,46.264l2.665,16.312c.209,1.525,1.322,3.018,3.342,4.185,4.505,2.6,11.805,2.6,16.31,0,2.021-1.166,3.134-2.66,3.342-4.185l2.668-16.312Z" transform="translate(33.236 30.932)" fill="#a39c95"/>
        <path id="Trazado_727135" data-name="Trazado 727135" d="M35.456,54.494l2.665,16.312h0c.207,1.525,1.318,3.017,3.342,4.183,4.5,2.6,11.807,2.6,16.309,0,2.021-1.166,3.135-2.658,3.342-4.183l2.666-16.312Z" transform="translate(23.705 36.434)" fill="#a39c95"/>
        <path id="Trazado_727136" data-name="Trazado 727136" d="M21.2,62.724,23.87,79.036c.207,1.525,1.32,3.017,3.341,4.185,4.507,2.6,11.807,2.6,16.312,0,2.021-1.168,3.132-2.66,3.342-4.185L49.53,62.724Z" transform="translate(14.175 41.936)" fill="#a39c95"/>
        <path id="Trazado_727137" data-name="Trazado 727137" d="M15.64,60.568l6.871,3.966v1.29A2.406,2.406,0,0,1,21.5,68.048L16.6,70.88,10.733,63.4Z" transform="translate(7.176 40.495)" fill="#857f79"/>
        <path id="Trazado_727138" data-name="Trazado 727138" d="M17.6,66.232v1.291c0,2.189-1.54,3.077-3.436,1.981a7.592,7.592,0,0,1-3.436-5.949v-1.29Z" transform="translate(7.176 41.63)" fill="#b5afa7"/>
        <path id="Trazado_727139" data-name="Trazado 727139" d="M90.184,34.536,83.313,38.5V39.8a2.409,2.409,0,0,0,1.013,2.224l4.9,2.828,5.863-7.479Z" transform="translate(55.702 23.09)" fill="#857f79"/>
        <path id="Trazado_727140" data-name="Trazado 727140" d="M86.253,40.2v1.291c0,2.189,1.538,3.077,3.436,1.981a7.588,7.588,0,0,0,3.436-5.949V36.234Z" transform="translate(57.668 24.226)" fill="#b5afa7"/>
        <path id="Trazado_727141" data-name="Trazado 727141" d="M75.93,42.767l-6.87,3.966v1.29a2.411,2.411,0,0,0,1.01,2.226l4.9,2.828,5.867-7.48Z" transform="translate(46.173 28.593)" fill="#857f79"/>
        <path id="Trazado_727142" data-name="Trazado 727142" d="M72,48.431v1.291c0,2.189,1.538,3.079,3.436,1.981a7.592,7.592,0,0,0,3.436-5.947V44.463Z" transform="translate(48.138 29.727)" fill="#b5afa7"/>
        <path id="Trazado_727143" data-name="Trazado 727143" d="M61.676,51,54.8,54.963v1.288a2.407,2.407,0,0,0,1.011,2.224l4.9,2.83,5.865-7.479Z" transform="translate(36.642 34.096)" fill="#857f79"/>
        <path id="Trazado_727144" data-name="Trazado 727144" d="M57.746,56.661v1.288c0,2.194,1.537,3.08,3.434,1.984a7.588,7.588,0,0,0,3.436-5.949V52.693Z" transform="translate(38.608 35.23)" fill="#b5afa7"/>
        <path id="Trazado_727145" data-name="Trazado 727145" d="M47.426,59.224l-6.871,3.965v1.29a2.413,2.413,0,0,0,1.011,2.228l4.9,2.828,5.867-7.48Z" transform="translate(27.115 39.596)" fill="#857f79"/>
        <path id="Trazado_727146" data-name="Trazado 727146" d="M43.495,64.888v1.29c0,2.193,1.538,3.079,3.434,1.982a7.59,7.59,0,0,0,3.437-5.95V60.92Z" transform="translate(29.08 40.73)" fill="#b5afa7"/>
        <path id="Trazado_727147" data-name="Trazado 727147" d="M169.2,39.647V37.131l-1.116.287a5.555,5.555,0,0,0-.984-.711L127.554,13.874a11.317,11.317,0,0,0-10.183,0L2.485,80.2,0,80.848v2.518a3.565,3.565,0,0,0,2.1,2.94l39.546,22.83a11.3,11.3,0,0,0,10.185,0L167.1,42.585a3.562,3.562,0,0,0,2.1-2.938" transform="translate(0 8.467)" fill="#b5afa7"/>
        <path id="Trazado_727148" data-name="Trazado 727148" d="M51.829,107.629a11.31,11.31,0,0,1-10.185,0L2.1,84.794c-2.8-1.612-2.8-4.26,0-5.878L117.37,12.366a11.3,11.3,0,0,1,10.183,0L167.1,35.2c2.8,1.617,2.8,4.263,0,5.882Z" transform="translate(0 7.457)" fill="#e6e1dd"/>
        <path id="Trazado_727149" data-name="Trazado 727149" d="M102.4,37.354c-5.531,3.2-14.5,3.2-20.031,0s-5.531-8.37,0-11.565,14.5-3.194,20.031,0,5.533,8.373,0,11.565" transform="translate(52.296 15.641)" fill="#a39c95"/>
        <path id="Trazado_727150" data-name="Trazado 727150" d="M88.143,45.581c-5.53,3.2-14.5,3.2-20.028,0s-5.533-8.368,0-11.562,14.5-3.194,20.028,0,5.533,8.371,0,11.562" transform="translate(42.766 21.144)" fill="#a39c95"/>
        <path id="Trazado_727151" data-name="Trazado 727151" d="M73.889,53.814c-5.53,3.19-14.5,3.19-20.031,0s-5.53-8.373,0-11.565,14.5-3.2,20.031,0,5.531,8.37,0,11.565" transform="translate(33.236 26.645)" fill="#a39c95"/>
        <path id="Trazado_727152" data-name="Trazado 727152" d="M59.635,62.042c-5.531,3.2-14.5,3.2-20.03,0s-5.533-8.37,0-11.565,14.5-3.19,20.03,0,5.53,8.371,0,11.563" transform="translate(23.705 32.148)" fill="#a39c95"/>
        <path id="Trazado_727153" data-name="Trazado 727153" d="M59.635,62.042c-5.531,3.2-14.5,3.2-20.03,0s-5.533-8.37,0-11.565,14.5-3.2,20.03,0,5.53,8.373,0,11.565" transform="translate(23.705 32.148)" fill="#a39c95"/>
        <path id="Trazado_727154" data-name="Trazado 727154" d="M45.382,70.271c-5.531,3.2-14.5,3.2-20.031,0s-5.53-8.368,0-11.563,14.5-3.194,20.031,0,5.53,8.373,0,11.563" transform="translate(14.176 37.65)" fill="#a39c95"/>
        <path id="Trazado_727155" data-name="Trazado 727155" d="M88.554,29.173c-5.531,3.2-14.5,3.2-20.031,0s-5.531-8.37,0-11.565,14.5-3.194,20.031,0,5.533,8.373,0,11.565" transform="translate(43.039 10.171)" fill="#a39c95"/>
        <path id="Trazado_727156" data-name="Trazado 727156" d="M74.3,37.4c-5.53,3.2-14.5,3.2-20.028,0s-5.533-8.368,0-11.562,14.5-3.194,20.028,0,5.533,8.371,0,11.562" transform="translate(33.51 15.674)" fill="#a39c95"/>
        <path id="Trazado_727157" data-name="Trazado 727157" d="M60.045,45.633c-5.53,3.19-14.5,3.19-20.031,0s-5.53-8.373,0-11.565,14.5-3.2,20.031,0,5.531,8.37,0,11.565" transform="translate(23.98 21.175)" fill="#a39c95"/>
        <path id="Trazado_727158" data-name="Trazado 727158" d="M45.791,53.861c-5.531,3.2-14.5,3.2-20.03,0s-5.533-8.37,0-11.565,14.5-3.2,20.03,0,5.53,8.373,0,11.565" transform="translate(14.45 26.678)" fill="#a39c95"/>
        <path id="Trazado_727159" data-name="Trazado 727159" d="M31.537,62.09c-5.531,3.2-14.5,3.2-20.03,0s-5.531-8.368,0-11.563,14.5-3.194,20.03,0,5.53,8.373,0,11.563" transform="translate(4.92 32.18)" fill="#a39c95"/>
        <g id="Grupo_1028298" data-name="Grupo 1028298" transform="translate(79.803 56.047)" opacity="0.3">
          <g id="Grupo_1028297" data-name="Grupo 1028297">
            <g id="Grupo_1028296" data-name="Grupo 1028296" clip-path="url(#clip-path-3)">
              <path id="Trazado_727160" data-name="Trazado 727160" d="M99.655,130.062a11.3,11.3,0,0,1-10.185,0l-39.546-22.83c-2.8-1.617-2.8-4.263,0-5.878L165.2,34.8a11.306,11.306,0,0,1,10.183,0l39.544,22.833c2.8,1.617,2.8,4.262,0,5.878Z" transform="translate(-47.826 -33.59)"/>
            </g>
          </g>
        </g>
        <path id="Trazado_727161" data-name="Trazado 727161" d="M54.033,64.764,56.7,81.074c.207,1.525,1.322,3.018,3.342,4.185,4.5,2.6,11.805,2.6,16.31,0,2.021-1.165,3.134-2.66,3.341-4.185h0l2.665-16.31Z" transform="translate(36.126 43.3)" fill="#a39c95"/>
        <path id="Trazado_727162" data-name="Trazado 727162" d="M126.045,40.5l2.665,16.31h0c.207,1.525,1.322,3.015,3.34,4.183,4.5,2.6,11.805,2.6,16.31,0,2.021-1.168,3.135-2.658,3.341-4.183l2.668-16.31Z" transform="translate(84.272 27.08)" fill="#a39c95"/>
        <path id="Trazado_727163" data-name="Trazado 727163" d="M111.79,48.733l2.668,16.31c.207,1.525,1.322,3.015,3.342,4.185,4.505,2.6,11.805,2.6,16.31,0,2.019-1.17,3.134-2.66,3.34-4.185h0l2.665-16.31Z" transform="translate(74.741 32.582)" fill="#a39c95"/>
        <path id="Trazado_727164" data-name="Trazado 727164" d="M97.537,56.962,100.2,73.274c.209,1.525,1.322,3.018,3.342,4.185,4.505,2.6,11.805,2.6,16.31,0,2.021-1.166,3.134-2.66,3.342-4.185l2.668-16.312Z" transform="translate(65.212 38.084)" fill="#a39c95"/>
        <path id="Trazado_727165" data-name="Trazado 727165" d="M83.282,65.191,85.947,81.5h0c.207,1.525,1.318,3.017,3.342,4.183,4.5,2.6,11.807,2.6,16.309,0,2.021-1.166,3.135-2.658,3.342-4.183l2.666-16.312Z" transform="translate(55.681 43.586)" fill="#a39c95"/>
        <path id="Trazado_727166" data-name="Trazado 727166" d="M69.028,73.421,71.7,89.733c.207,1.525,1.32,3.017,3.341,4.185,4.507,2.6,11.807,2.6,16.312,0,2.021-1.168,3.132-2.66,3.342-4.185l2.665-16.312Z" transform="translate(46.151 49.088)" fill="#a39c95"/>
        <path id="Trazado_727167" data-name="Trazado 727167" d="M63.466,71.266l6.871,3.966v1.29a2.406,2.406,0,0,1-1.013,2.224l-4.9,2.832L58.559,74.1Z" transform="translate(39.152 47.648)" fill="#857f79"/>
        <path id="Trazado_727168" data-name="Trazado 727168" d="M65.43,76.929v1.291c0,2.189-1.54,3.077-3.436,1.981a7.592,7.592,0,0,1-3.436-5.949v-1.29Z" transform="translate(39.152 48.782)" fill="#b5afa7"/>
        <path id="Trazado_727169" data-name="Trazado 727169" d="M138.009,45.234,131.138,49.2v1.291a2.413,2.413,0,0,0,1.013,2.226l4.9,2.828,5.863-7.48Z" transform="translate(87.677 30.243)" fill="#857f79"/>
        <path id="Trazado_727170" data-name="Trazado 727170" d="M134.079,50.9v1.291c0,2.189,1.538,3.077,3.436,1.981a7.588,7.588,0,0,0,3.436-5.949V46.932Z" transform="translate(89.644 31.378)" fill="#b5afa7"/>
        <path id="Trazado_727171" data-name="Trazado 727171" d="M123.756,53.464l-6.87,3.966v1.29a2.411,2.411,0,0,0,1.009,2.226l4.9,2.828,5.867-7.48Z" transform="translate(78.149 35.745)" fill="#857f79"/>
        <path id="Trazado_727172" data-name="Trazado 727172" d="M119.825,59.129V60.42c0,2.189,1.538,3.079,3.436,1.981a7.592,7.592,0,0,0,3.436-5.947V55.161Z" transform="translate(80.114 36.88)" fill="#b5afa7"/>
        <path id="Trazado_727173" data-name="Trazado 727173" d="M109.5,61.694,102.63,65.66v1.288a2.408,2.408,0,0,0,1.013,2.224l4.9,2.83,5.867-7.479Z" transform="translate(68.617 41.248)" fill="#857f79"/>
        <path id="Trazado_727174" data-name="Trazado 727174" d="M105.572,67.359v1.288c0,2.194,1.537,3.08,3.434,1.984a7.588,7.588,0,0,0,3.436-5.949V63.391Z" transform="translate(70.584 42.382)" fill="#b5afa7"/>
        <path id="Trazado_727175" data-name="Trazado 727175" d="M95.252,69.922l-6.871,3.965v1.29A2.413,2.413,0,0,0,89.392,77.4l4.9,2.828,5.867-7.48Z" transform="translate(59.09 46.749)" fill="#857f79"/>
        <path id="Trazado_727176" data-name="Trazado 727176" d="M91.321,75.586v1.29c0,2.193,1.538,3.079,3.434,1.982a7.59,7.59,0,0,0,3.437-5.95v-1.29Z" transform="translate(61.056 47.883)" fill="#b5afa7"/>
        <path id="Trazado_727177" data-name="Trazado 727177" d="M217.024,50.345V47.829l-1.116.287a5.556,5.556,0,0,0-.984-.711L175.38,24.572a11.317,11.317,0,0,0-10.183,0L50.311,90.9l-2.485.644v2.518a3.565,3.565,0,0,0,2.1,2.94l39.546,22.83a11.31,11.31,0,0,0,10.185,0l115.268-66.55a3.562,3.562,0,0,0,2.1-2.938" transform="translate(31.976 15.619)" fill="#b5afa7"/>
        <path id="Trazado_727178" data-name="Trazado 727178" d="M99.655,118.327a11.31,11.31,0,0,1-10.185,0L49.925,95.492c-2.8-1.612-2.8-4.26,0-5.878L165.2,23.064a11.3,11.3,0,0,1,10.183,0L214.923,45.9c2.8,1.617,2.8,4.263,0,5.882Z" transform="translate(31.976 14.609)" fill="#e6e1dd"/>
        <path id="Trazado_727179" data-name="Trazado 727179" d="M150.225,48.052c-5.531,3.2-14.5,3.2-20.031,0s-5.531-8.37,0-11.565,14.5-3.194,20.031,0,5.533,8.373,0,11.565" transform="translate(84.272 22.793)" fill="#a39c95"/>
        <path id="Trazado_727180" data-name="Trazado 727180" d="M135.969,56.279c-5.53,3.2-14.5,3.2-20.028,0s-5.533-8.368,0-11.562,14.5-3.194,20.028,0,5.533,8.371,0,11.562" transform="translate(74.742 28.296)" fill="#a39c95"/>
        <path id="Trazado_727181" data-name="Trazado 727181" d="M121.715,64.512c-5.53,3.19-14.5,3.19-20.031,0s-5.53-8.373,0-11.565,14.5-3.2,20.031,0,5.531,8.37,0,11.565" transform="translate(65.212 33.798)" fill="#a39c95"/>
        <path id="Trazado_727182" data-name="Trazado 727182" d="M107.462,72.74c-5.531,3.2-14.5,3.2-20.03,0s-5.533-8.37,0-11.565,14.5-3.19,20.03,0,5.53,8.371,0,11.563" transform="translate(55.681 39.301)" fill="#a39c95"/>
        <path id="Trazado_727183" data-name="Trazado 727183" d="M107.462,72.74c-5.531,3.2-14.5,3.2-20.03,0s-5.533-8.37,0-11.565,14.5-3.2,20.03,0,5.53,8.373,0,11.565" transform="translate(55.681 39.3)" fill="#a39c95"/>
        <path id="Trazado_727184" data-name="Trazado 727184" d="M93.207,80.969c-5.531,3.2-14.5,3.2-20.03,0s-5.531-8.368,0-11.563,14.5-3.194,20.03,0,5.53,8.373,0,11.563" transform="translate(46.152 44.802)" fill="#a39c95"/>
        <path id="Trazado_727185" data-name="Trazado 727185" d="M136.38,39.871c-5.531,3.2-14.5,3.2-20.031,0s-5.531-8.37,0-11.565,14.5-3.194,20.031,0,5.533,8.373,0,11.565" transform="translate(75.015 17.323)" fill="#a39c95"/>
        <path id="Trazado_727186" data-name="Trazado 727186" d="M122.125,48.1c-5.53,3.2-14.5,3.2-20.028,0s-5.533-8.368,0-11.562,14.5-3.194,20.028,0,5.533,8.371,0,11.562" transform="translate(65.486 22.827)" fill="#a39c95"/>
        <path id="Trazado_727187" data-name="Trazado 727187" d="M107.871,56.331c-5.53,3.19-14.5,3.19-20.031,0s-5.53-8.373,0-11.565,14.5-3.2,20.031,0,5.531,8.37,0,11.565" transform="translate(55.956 28.328)" fill="#a39c95"/>
        <path id="Trazado_727188" data-name="Trazado 727188" d="M93.618,64.559c-5.531,3.2-14.5,3.2-20.03,0s-5.533-8.37,0-11.565,14.5-3.2,20.03,0,5.53,8.373,0,11.565" transform="translate(46.425 33.83)" fill="#a39c95"/>
        <path id="Trazado_727189" data-name="Trazado 727189" d="M79.363,72.788c-5.531,3.2-14.5,3.2-20.031,0s-5.53-8.368,0-11.563,14.5-3.194,20.031,0,5.53,8.373,0,11.563" transform="translate(36.896 39.333)" fill="#a39c95"/>
      </g>
    </g>
  </g>
</svg>
