<svg xmlns="http://www.w3.org/2000/svg" xmlns:xlink="http://www.w3.org/1999/xlink" width="425.194" height="396.025" viewBox="0 0 425.194 396.025">
  <defs>
    <clipPath id="clip-path">
      <rect id="Rectángulo_46838" data-name="Rectángulo 46838" width="425.194" height="396.025" fill="none"/>
    </clipPath>
    <clipPath id="clip-path-2">
      <rect id="Rectángulo_46825" data-name="Rectángulo 46825" width="97.022" height="97.233" fill="none"/>
    </clipPath>
    <clipPath id="clip-path-3">
      <rect id="Rectángulo_46826" data-name="Rectángulo 46826" width="112.74" height="113.021" fill="none"/>
    </clipPath>
    <clipPath id="clip-path-4">
      <rect id="Rectángulo_46827" data-name="Rectángulo 46827" width="63.071" height="66.933" fill="none"/>
    </clipPath>
    <clipPath id="clip-path-5">
      <rect id="Rectángulo_46828" data-name="Rectángulo 46828" width="72.294" height="80.061" fill="none"/>
    </clipPath>
    <clipPath id="clip-path-6">
      <rect id="Rectángulo_46829" data-name="Rectángulo 46829" width="91.64" height="106.299" fill="none"/>
    </clipPath>
    <clipPath id="clip-path-7">
      <rect id="Rectángulo_46830" data-name="Rectángulo 46830" width="119.218" height="123.397" fill="none"/>
    </clipPath>
    <clipPath id="clip-path-8">
      <rect id="Rectángulo_46831" data-name="Rectángulo 46831" width="118.757" height="128.079" fill="none"/>
    </clipPath>
    <clipPath id="clip-path-9">
      <rect id="Rectángulo_46832" data-name="Rectángulo 46832" width="103.008" height="120.086" fill="none"/>
    </clipPath>
    <clipPath id="clip-path-10">
      <rect id="Rectángulo_46833" data-name="Rectángulo 46833" width="25.919" height="27.976" fill="none"/>
    </clipPath>
    <clipPath id="clip-path-11">
      <rect id="Rectángulo_46834" data-name="Rectángulo 46834" width="112.712" height="127.478" fill="none"/>
    </clipPath>
    <clipPath id="clip-path-12">
      <rect id="Rectángulo_354649" data-name="Rectángulo 354649" width="269.639" height="283.682" fill="none"/>
    </clipPath>
  </defs>
  <g id="Grupo_1018202" data-name="Grupo 1018202" transform="translate(-200.167 -470.894)">
    <g id="Grupo_156641" data-name="Grupo 156641" transform="translate(200.167 470.894)" clip-path="url(#clip-path)">
      <path id="Trazado_244" data-name="Trazado 244" d="M344.15,183.94c-4.483,51.7-24.634,92.539-52.263,113.362-27.813,21.634-63.111,23.253-102.213,15.241-77.044-18.764-144.55-58.6-154.657-121.714C24.646,128.113,93.959,59.6,189.472,37.607c46.985-10.047,89.3-3.875,117.2,22.752,28.152,25.821,41.9,72.095,37.478,123.581" transform="translate(13.976 17.295)" fill="#ffc403"/>
      <g id="Grupo_156608" data-name="Grupo 156608" transform="translate(139.824 223.74)" opacity="0.15">
        <g id="Grupo_156607" data-name="Grupo 156607">
          <g id="Grupo_156606" data-name="Grupo 156606" clip-path="url(#clip-path-2)">
            <path id="Trazado_245" data-name="Trazado 245" d="M119.62,237.2l76.486-82.556a73.254,73.254,0,0,0-6.942-7.753L99.083,244.123A173.894,173.894,0,0,0,119.62,237.2" transform="translate(-99.083 -146.891)" fill="#d76191"/>
          </g>
        </g>
      </g>
      <g id="Grupo_156611" data-name="Grupo 156611" transform="translate(111.322 211.86)" opacity="0.15">
        <g id="Grupo_156610" data-name="Grupo 156610">
          <g id="Grupo_156609" data-name="Grupo 156609" clip-path="url(#clip-path-3)">
            <path id="Trazado_246" data-name="Trazado 246" d="M78.885,252.1a88.741,88.741,0,0,0,15.122-1.077l97.619-105.367c-2.587-2.219-5.286-4.4-8.041-6.562Z" transform="translate(-78.885 -139.091)" fill="#d76191"/>
          </g>
        </g>
      </g>
      <g id="Grupo_156614" data-name="Grupo 156614" transform="translate(179.234 238.372)" opacity="0.15">
        <g id="Grupo_156613" data-name="Grupo 156613">
          <g id="Grupo_156612" data-name="Grupo 156612" clip-path="url(#clip-path-4)">
            <path id="Trazado_247" data-name="Trazado 247" d="M162.572,200.287l23.136-24.971c4.147-7.039,5.553-13.53,3.313-18.819L127.01,223.43a214.79,214.79,0,0,0,35.562-23.143" transform="translate(-127.01 -156.497)" fill="#d76191"/>
          </g>
        </g>
      </g>
      <g id="Grupo_156617" data-name="Grupo 156617" transform="translate(75.802 137.169)" opacity="0.15">
        <g id="Grupo_156616" data-name="Grupo 156616">
          <g id="Grupo_156615" data-name="Grupo 156615" clip-path="url(#clip-path-5)">
            <path id="Trazado_248" data-name="Trazado 248" d="M53.715,170.116l72.294-78.028c-.36-.148-.7-.326-1.067-.46A26.585,26.585,0,0,0,113.69,90.14L60.531,147.518a186.634,186.634,0,0,0-6.816,22.6" transform="translate(-53.715 -90.055)" fill="#d76191"/>
          </g>
        </g>
      </g>
      <g id="Grupo_156620" data-name="Grupo 156620" transform="translate(70.714 143.292)" opacity="0.15">
        <g id="Grupo_156619" data-name="Grupo 156619">
          <g id="Grupo_156618" data-name="Grupo 156618" clip-path="url(#clip-path-6)">
            <path id="Trazado_249" data-name="Trazado 249" d="M50.11,200.374l91.639-98.912a45.811,45.811,0,0,0-7.277-7.387L52.258,182.817q-1.378,8.5-2.148,17.558" transform="translate(-50.11 -94.075)" fill="#d76191"/>
          </g>
        </g>
      </g>
      <g id="Grupo_156623" data-name="Grupo 156623" transform="translate(90.556 200.495)" opacity="0.15">
        <g id="Grupo_156622" data-name="Grupo 156622">
          <g id="Grupo_156621" data-name="Grupo 156621" clip-path="url(#clip-path-7)">
            <path id="Trazado_250" data-name="Trazado 250" d="M64.17,251.548a43.071,43.071,0,0,0,10.9,3.479L183.388,138.11c-2.729-2.129-5.456-4.276-8.12-6.48Z" transform="translate(-64.17 -131.63)" fill="#d76191"/>
          </g>
        </g>
      </g>
      <g id="Grupo_156626" data-name="Grupo 156626" transform="translate(76.925 187.996)" opacity="0.15">
        <g id="Grupo_156625" data-name="Grupo 156625">
          <g id="Grupo_156624" data-name="Grupo 156624" clip-path="url(#clip-path-8)">
            <path id="Trazado_251" data-name="Trazado 251" d="M54.511,243.686a32.4,32.4,0,0,0,6.877,7.815l111.88-120.759a103,103,0,0,1-7.335-7.319Z" transform="translate(-54.511 -123.424)" fill="#d76191"/>
          </g>
        </g>
      </g>
      <g id="Grupo_156629" data-name="Grupo 156629" transform="translate(69.865 157.188)" opacity="0.15">
        <g id="Grupo_156628" data-name="Grupo 156628">
          <g id="Grupo_156627" data-name="Grupo 156627" clip-path="url(#clip-path-9)">
            <path id="Trazado_252" data-name="Trazado 252" d="M49.645,208c-.158,4.994-.189,10.08-.038,15.283L152.516,112.206c-1.94-3.113-3.844-6.138-5.772-9.008Z" transform="translate(-49.508 -103.198)" fill="#d76191"/>
          </g>
        </g>
      </g>
      <g id="Grupo_156632" data-name="Grupo 156632" transform="translate(94.123 142.615)" opacity="0.15">
        <g id="Grupo_156631" data-name="Grupo 156631">
          <g id="Grupo_156630" data-name="Grupo 156630" clip-path="url(#clip-path-10)">
            <path id="Trazado_253" data-name="Trazado 253" d="M66.7,121.606,92.617,93.63c-9.2,5.523-18.162,15.09-25.919,27.976" transform="translate(-66.698 -93.63)" fill="#d76191"/>
          </g>
        </g>
      </g>
      <g id="Grupo_156635" data-name="Grupo 156635" transform="translate(70.591 173.104)" opacity="0.15">
        <g id="Grupo_156634" data-name="Grupo 156634">
          <g id="Grupo_156633" data-name="Grupo 156633" clip-path="url(#clip-path-11)">
            <path id="Trazado_254" data-name="Trazado 254" d="M50.022,228.768a53.747,53.747,0,0,0,2.67,12.357L162.733,122.35c-2.146-2.85-4.156-5.771-6.055-8.7Z" transform="translate(-50.022 -113.646)" fill="#d76191"/>
          </g>
        </g>
      </g>
      <path id="Trazado_255" data-name="Trazado 255" d="M268.085,126.454c0-5.15,3.87-9.323,8.638-9.323s8.638,4.173,8.638,9.323-3.868,9.325-8.638,9.325S268.085,131.6,268.085,126.454Z" transform="translate(110.232 61.28)" fill="none" stroke="#db3b5d" stroke-miterlimit="10" stroke-width="0.84"/>
      <path id="Trazado_256" data-name="Trazado 256" d="M69.759,29.212c0-5.15,3.869-9.323,8.639-9.323s8.638,4.173,8.638,9.323-3.869,9.326-8.638,9.326S69.759,34.364,69.759,29.212Z" transform="translate(28.684 10.405)" fill="none" stroke="#d7a92b" stroke-miterlimit="10" stroke-width="0.84"/>
      <path id="Trazado_257" data-name="Trazado 257" d="M339.234,187.789C308.97,249.912,258.393,314.17,204.552,324.943,151,335.836,83.189,275.622,53.205,182.531,40.008,137,44.714,94.975,72.372,69.945c26.745-25.545,76.438-34.1,132.18-24.56C260.446,54.949,305.9,77.37,328.4,102.338c23.416,25.458,23.894,53.468,10.831,85.452" transform="translate(18.974 21.76)" fill="#b20d0d"/>
      <path id="Trazado_258" data-name="Trazado 258" d="M45.487,237.845c0-10.3,7.738-18.648,17.277-18.648s17.277,8.35,17.277,18.648S72.305,256.5,62.764,256.5,45.487,248.146,45.487,237.845Z" transform="translate(18.704 114.678)" fill="none" stroke="#db3b5d" stroke-miterlimit="10" stroke-width="0.84"/>
      <path id="Trazado_259" data-name="Trazado 259" d="M.525,188.055H17.7V169.517" transform="translate(0.216 88.687)" fill="none" stroke="#fff" stroke-linecap="round" stroke-miterlimit="10" stroke-width="1.05"/>
      <path id="Trazado_260" data-name="Trazado 260" d="M12.7,175.884H29.874V157.345" transform="translate(5.221 82.319)" fill="none" stroke="#fff" stroke-linecap="round" stroke-miterlimit="10" stroke-width="1.05"/>
      <path id="Trazado_261" data-name="Trazado 261" d="M24.869,163.714H42.046v-18.54" transform="translate(10.226 75.951)" fill="none" stroke="#fff" stroke-linecap="round" stroke-miterlimit="10" stroke-width="1.05"/>
      <path id="Trazado_262" data-name="Trazado 262" d="M37.041,151.542H54.216V133" transform="translate(15.231 69.583)" fill="none" stroke="#fff" stroke-linecap="round" stroke-miterlimit="10" stroke-width="1.05"/>
      <path id="Trazado_263" data-name="Trazado 263" d="M49.211,139.369H66.387V120.831" transform="translate(20.235 63.215)" fill="none" stroke="#fff" stroke-linecap="round" stroke-miterlimit="10" stroke-width="1.05"/>
      <path id="Trazado_264" data-name="Trazado 264" d="M30.133,188.055H47.308V169.517" transform="translate(12.39 88.687)" fill="none" stroke="#fff" stroke-linecap="round" stroke-miterlimit="10" stroke-width="1.05"/>
      <path id="Trazado_265" data-name="Trazado 265" d="M42.3,175.884H59.48V157.345" transform="translate(17.394 82.319)" fill="none" stroke="#fff" stroke-linecap="round" stroke-miterlimit="10" stroke-width="1.05"/>
      <path id="Trazado_266" data-name="Trazado 266" d="M54.475,163.714H71.652v-18.54" transform="translate(22.399 75.951)" fill="none" stroke="#fff" stroke-linecap="round" stroke-miterlimit="10" stroke-width="1.05"/>
      <path id="Trazado_267" data-name="Trazado 267" d="M269.411,170.725,304.335,226.1l-61.894,4.955Z" transform="translate(99.687 89.318)" fill="none" stroke="#f2ea00" stroke-linecap="round" stroke-miterlimit="10" stroke-width="0.84"/>
      <path id="Trazado_268" data-name="Trazado 268" d="M14.688,113.892l11.177,24.314L.768,136.5Z" transform="translate(0.316 59.585)" fill="none" stroke="#f2ea00" stroke-linecap="round" stroke-miterlimit="10" stroke-width="0.84"/>
    </g>
    <g id="Grupo_1018196" data-name="Grupo 1018196" transform="translate(290 536.295)">
      <g id="Grupo_1018195" data-name="Grupo 1018195" clip-path="url(#clip-path-12)">
        <path id="Trazado_717580" data-name="Trazado 717580" d="M239.5,218.41c8.447,9.148,16.765,18.42,25.384,27.4,6.13,6.388,6.419,11.124.324,17.5-3.072,3.215-6.069,6.51-9.267,9.6-4.679,4.516-9.852,4.519-14.549,0q-15.224-14.641-30.286-29.45c-1.62-1.6-2.685-3.76-4.364-6.176-1,.543-2.495,1.319-3.955,2.162-24.478,14.125-48.992,28.188-73.381,42.465-3.755,2.2-6.678,2.439-10.556.182Q62.069,249.057,5.06,216.4C1.324,214.263-.01,211.678,0,207.517Q.144,141.905,0,76.293c-.009-4.144,1.264-6.754,5.02-8.907Q62.22,34.619,119.2,1.472c3.589-2.087,6.319-1.876,9.777.129q56.83,32.966,113.825,65.648c3.842,2.2,5.221,4.836,5.206,9.242q-.22,64.5.037,129c.031,5.753-1.238,9.76-6.839,11.824a19.3,19.3,0,0,0-3.008,1.759l1.3-.663M9.46,80.953c-.166,1.841-.358,2.968-.358,4.094-.015,39.873.028,79.746-.094,119.619-.01,3.092,1.388,4.426,3.724,5.771q51.531,29.676,103.014,59.436c1.061.612,2.238,1.023,3.806,1.729,0-16.342-.1-32.044.071-47.743a10.951,10.951,0,0,0-3.655-8.866A61.171,61.171,0,0,1,101.9,147.155c1.4-3.362,3.133-6.587,4.8-10.066l-20.7-11.908v5.112c0,13.192.028,26.384-.015,39.576-.019,6.008-3.04,7.783-8.286,4.785-10.53-6.019-20.962-12.209-31.506-18.2a6.911,6.911,0,0,1-3.88-6.807c.13-11.116.1-22.233.029-33.349-.032-5.453,1.456-11.879-.913-16.076-2.266-4.014-8.623-5.739-13.212-8.419-6.084-3.552-12.2-7.054-18.766-10.848m4.09-8.034c10.463,6.049,20.367,11.626,30.093,17.5,2.548,1.538,4.332,1.338,6.772-.079q47.348-27.492,94.8-54.808c3.9-2.255,7.778-4.562,12.118-7.111-10.372-6-20.272-11.584-30-17.454-2.536-1.529-4.321-1.366-6.772.066q-31,18.115-62.141,36C43.712,55.525,29,64,13.55,72.919m77.083,44.494,22.573,13.066a32.047,32.047,0,0,1,3.462-4.632c13.49-12.62,29.611-18.243,47.9-16.607a18.043,18.043,0,0,0,11.561-2.587C193.873,96.307,211.7,86.1,229.491,75.826c1.452-.838,2.843-1.78,4.741-2.976-10.308-5.987-20.066-11.516-29.661-17.317-2.649-1.6-4.579-1.417-7.164.086q-38.326,22.3-76.776,44.388c-9.824,5.674-19.626,11.386-30,17.406m91.833-4.108c2.407,1.208,3.864,1.916,5.3,2.664,29.382,15.265,41.659,51.646,26.993,81.345-2.382,4.824-1.876,7.3,1.934,10.627,9.582,8.367,6.183,9.353,18.837,2.375,2.7-1.488,3.552-3.214,3.544-6.236q-.152-59.529-.078-119.058c0-1.232-.157-2.464-.277-4.2l-56.254,32.484M56.033,97.412c7.62,4.421,14.7,8.325,21.547,12.6,2.923,1.823,5.08,1.691,8.039-.03q51.4-29.893,102.952-59.53c.948-.548,1.792-1.279,3.076-2.209-7.61-4.4-14.825-8.429-21.869-12.734-2.505-1.531-4.333-1.385-6.846.076-26.086,15.165-52.261,30.177-78.4,45.254-9.3,5.366-18.566,10.8-28.5,16.576m50.172,73.107c-.117,29.014,23.347,53.073,51.919,53.235a53.324,53.324,0,0,0,54.008-52.692c.319-28.529-23.722-53.074-52.132-53.227-29.852-.161-53.677,23.172-53.794,52.685m90.105,49.929c-21.946,14.785-44.309,16.057-67.536,4.6v46.788l75.067-43.359-7.531-8.033M51.318,105.127c0,14.584-.055,28.329.107,42.072.012,1.093,1.31,2.529,2.389,3.194,5.159,3.178,10.44,6.159,15.695,9.181,2.331,1.34,4.7,2.611,7.578,4.2,0-14.415.048-27.892-.083-41.369a4.738,4.738,0,0,0-1.876-3.456c-7.584-4.566-15.3-8.921-23.809-13.826M261,254.679l-31.173-30.252-13.645,11.584L247.868,266.7,261,254.679m-57.457-40.8,10.36,11.82,2.86-3.553c-3.5-3.8-6.931-7.521-10.47-11.362l-2.751,3.1" transform="translate(0 0)" fill="#161615"/>
        <path id="Trazado_717581" data-name="Trazado 717581" d="M10.578,90.993c6.568,3.794,12.681,7.3,18.764,10.848,4.59,2.679,10.947,4.4,13.213,8.419,2.369,4.2.881,10.623.914,16.075.065,11.117.1,22.235-.03,33.35a6.913,6.913,0,0,0,3.881,6.807c10.544,5.993,20.975,12.183,31.505,18.2,5.246,3,8.266,1.223,8.286-4.785.041-13.192.014-26.384.015-39.576V135.22l20.7,11.909c-1.669,3.478-3.4,6.7-4.8,10.065a61.171,61.171,0,0,0,14.067,67.839,10.952,10.952,0,0,1,3.654,8.866c-.166,15.7-.07,31.4-.07,47.743-1.568-.7-2.746-1.116-3.806-1.728Q65.353,250.2,13.849,220.477c-2.335-1.345-3.733-2.679-3.724-5.772.123-39.872.079-79.745.094-119.618,0-1.127.191-2.254.359-4.094" transform="translate(-1.117 -10.039)" fill="#af520a"/>
        <path id="Trazado_717582" data-name="Trazado 717582" d="M15.23,74.145C30.68,65.231,45.393,56.751,60.1,48.256q31.091-17.964,62.142-36c2.45-1.431,4.236-1.6,6.771-.066,9.729,5.869,19.629,11.454,30,17.454-4.341,2.549-8.214,4.856-12.118,7.111Q99.484,64.143,52.1,91.564c-2.44,1.417-4.224,1.617-6.772.079-9.726-5.872-19.63-11.449-30.093-17.5" transform="translate(-1.68 -1.226)" fill="#af520a"/>
        <path id="Trazado_717583" data-name="Trazado 717583" d="M101.872,124.161c10.372-6.02,20.174-11.731,30-17.406q38.4-22.18,76.776-44.388c2.585-1.5,4.514-1.689,7.164-.086,9.6,5.8,19.353,11.33,29.661,17.317-1.9,1.2-3.289,2.137-4.741,2.975-17.79,10.272-35.617,20.481-53.364,30.828a18.042,18.042,0,0,1-11.561,2.586c-18.286-1.635-34.407,3.987-47.9,16.607a32.055,32.055,0,0,0-3.462,4.633l-22.573-13.066" transform="translate(-11.239 -6.747)" fill="#af520a"/>
        <path id="Trazado_717584" data-name="Trazado 717584" d="M205.093,123.328l56.254-32.484c.119,1.737.277,2.968.277,4.2q.02,59.529.078,119.059c.008,3.021-.845,4.746-3.544,6.235-12.654,6.979-9.255,5.993-18.837-2.375-3.81-3.327-4.316-5.8-1.934-10.626,14.666-29.7,2.39-66.081-26.993-81.346-1.438-.746-2.894-1.456-5.3-2.664" transform="translate(-22.627 -10.022)" fill="#af520a"/>
        <path id="Trazado_717585" data-name="Trazado 717585" d="M62.982,101.681c9.934-5.78,19.2-11.209,28.5-16.575,26.138-15.077,52.313-30.089,78.4-45.254,2.513-1.461,4.341-1.607,6.846-.076,7.044,4.3,14.26,8.33,21.869,12.734-1.284.929-2.127,1.66-3.076,2.209q-51.488,29.744-102.952,59.53c-2.959,1.721-5.117,1.853-8.039.029-6.848-4.272-13.927-8.176-21.547-12.6" transform="translate(-6.949 -4.269)" fill="#fff0c0"/>
        <path id="Trazado_717586" data-name="Trazado 717586" d="M119.375,185.132c.118-29.511,23.943-52.845,53.8-52.684,28.41.152,52.451,24.7,52.132,53.227a53.324,53.324,0,0,1-54.008,52.693c-28.572-.163-52.035-24.221-51.92-53.235m7.243.123c-.029,25.24,20.413,45.912,45.458,45.968a46.12,46.12,0,0,0,45.93-45.67c.206-24.9-20.671-45.93-45.632-45.961a45.852,45.852,0,0,0-45.756,45.663" transform="translate(-13.17 -14.612)" fill="#abffff"/>
        <path id="Trazado_717587" data-name="Trazado 717587" d="M212.28,247.787l7.531,8.033-75.066,43.358V252.39c23.226,11.453,45.589,10.181,67.535-4.6" transform="translate(-15.969 -27.337)" fill="#af520a"/>
        <path id="Trazado_717588" data-name="Trazado 717588" d="M57.681,118.164c8.514,4.906,16.225,9.26,23.809,13.826a4.734,4.734,0,0,1,1.876,3.456c.131,13.477.083,26.954.083,41.369-2.877-1.593-5.247-2.863-7.578-4.2-5.255-3.022-10.536-6-15.695-9.181-1.078-.665-2.376-2.1-2.39-3.194-.162-13.743-.106-27.488-.106-42.072" transform="translate(-6.363 -13.036)" fill="#fff0c0"/>
        <path id="Trazado_717589" data-name="Trazado 717589" d="M287.808,282.51l-13.132,12.026-31.685-30.693,13.645-11.584,31.172,30.251" transform="translate(-26.808 -27.831)" fill="#a03d3d"/>
        <path id="Trazado_717590" data-name="Trazado 717590" d="M228.784,240.012l2.751-3.1c3.539,3.841,6.97,7.565,10.47,11.362l-2.86,3.553-10.36-11.82" transform="translate(-25.241 -26.138)" fill="#fff"/>
        <path id="Trazado_717591" data-name="Trazado 717591" d="M127.516,186.141a45.852,45.852,0,0,1,45.756-45.663c24.962.03,45.838,21.057,45.633,45.961a46.121,46.121,0,0,1-45.93,45.67c-25.046-.056-45.488-20.728-45.459-45.968M172.8,223.17a37.091,37.091,0,0,0,37.086-36.892c-.007-19.933-16.454-36.67-36.223-36.861-20.17-.195-37.086,16.28-37.188,36.219-.106,20.63,16.134,37.41,36.325,37.534" transform="translate(-14.068 -15.498)" fill="#161615"/>
        <path id="Trazado_717592" data-name="Trazado 717592" d="M173.909,224.278c-20.191-.125-36.431-16.9-36.325-37.534.1-19.938,17.019-36.413,37.188-36.219,19.769.191,36.216,16.928,36.223,36.861a37.091,37.091,0,0,1-37.086,36.892" transform="translate(-15.179 -16.606)" fill="#af520a"/>
      </g>
    </g>
  </g>
</svg>
