<svg id="Grupo_1031890" data-name="Grupo 1031890" xmlns="http://www.w3.org/2000/svg" xmlns:xlink="http://www.w3.org/1999/xlink" width="171.017" height="177.213" viewBox="0 0 171.017 177.213">
  <defs>
    <clipPath id="clip-path">
      <rect id="Rectángulo_354554" data-name="Rectángulo 354554" width="171.017" height="177.213" fill="none"/>
    </clipPath>
    <clipPath id="clip-path-2">
      <rect id="Rectángulo_357228" data-name="Rectángulo 357228" width="36.457" height="32.701" fill="none"/>
    </clipPath>
    <clipPath id="clip-path-3">
      <rect id="Rectángulo_357229" data-name="Rectángulo 357229" width="96.517" height="65.76" fill="none"/>
    </clipPath>
    <clipPath id="clip-path-4">
      <path id="Trazado_721792" data-name="Trazado 721792" d="M66.716,24.522V38.441l.263.825a3.376,3.376,0,0,0,1.915,2.779,9.851,9.851,0,0,0,9.255,0A3.28,3.28,0,0,0,79.4,41.021v-16.5Z" transform="translate(-66.716 -24.522)" fill="none"/>
    </clipPath>
    <clipPath id="clip-path-5">
      <path id="Trazado_721794" data-name="Trazado 721794" d="M66.339,24.837l-.482,10.9,1.252,3.939a3.376,3.376,0,0,0,1.915,2.779,9.851,9.851,0,0,0,9.255,0,3.38,3.38,0,0,0,1.916-2.779l1.34-6.78-1.99-9.677L72.832,21.8Z" transform="translate(-65.857 -21.802)" fill="none"/>
    </clipPath>
    <clipPath id="clip-path-6">
      <rect id="Rectángulo_357230" data-name="Rectángulo 357230" width="4.84" height="8.281" fill="none"/>
    </clipPath>
    <clipPath id="clip-path-8">
      <path id="Trazado_721798" data-name="Trazado 721798" d="M52.163,24.522V38.441l.263.825a3.377,3.377,0,0,0,1.916,2.779,9.851,9.851,0,0,0,9.255,0,3.272,3.272,0,0,0,1.252-1.025v-16.5Z" transform="translate(-52.163 -24.522)" fill="none"/>
    </clipPath>
    <clipPath id="clip-path-9">
      <path id="Trazado_721800" data-name="Trazado 721800" d="M51.786,24.837l-.482,10.9,1.252,3.939a3.377,3.377,0,0,0,1.916,2.779,9.851,9.851,0,0,0,9.255,0,3.379,3.379,0,0,0,1.915-2.779l1.341-6.78-1.992-9.677L58.279,21.8Z" transform="translate(-51.304 -21.802)" fill="none"/>
    </clipPath>
    <clipPath id="clip-path-12">
      <path id="Trazado_721804" data-name="Trazado 721804" d="M36.59,24.522V38.441l.262.825a3.38,3.38,0,0,0,1.916,2.779,9.851,9.851,0,0,0,9.255,0,3.272,3.272,0,0,0,1.252-1.025v-16.5Z" transform="translate(-36.59 -24.522)" fill="none"/>
    </clipPath>
    <clipPath id="clip-path-13">
      <path id="Trazado_721806" data-name="Trazado 721806" d="M36.212,24.837l-.482,10.9,1.252,3.939A3.38,3.38,0,0,0,38.9,42.459a9.851,9.851,0,0,0,9.255,0,3.376,3.376,0,0,0,1.915-2.779l1.341-6.78-1.991-9.677L42.7,21.8Z" transform="translate(-35.73 -21.802)" fill="none"/>
    </clipPath>
    <clipPath id="clip-path-16">
      <path id="Trazado_721810" data-name="Trazado 721810" d="M21.3,24.522V38.441l.262.825a3.379,3.379,0,0,0,1.917,2.779,9.849,9.849,0,0,0,9.253,0,3.264,3.264,0,0,0,1.252-1.025v-16.5Z" transform="translate(-21.297 -24.522)" fill="none"/>
    </clipPath>
    <clipPath id="clip-path-17">
      <path id="Trazado_721812" data-name="Trazado 721812" d="M20.92,24.837l-.483,10.9,1.252,3.939a3.379,3.379,0,0,0,1.917,2.779,9.849,9.849,0,0,0,9.253,0,3.376,3.376,0,0,0,1.915-2.779l1.341-6.78-1.991-9.677L27.413,21.8Z" transform="translate(-20.437 -21.802)" fill="none"/>
    </clipPath>
    <clipPath id="clip-path-20">
      <path id="Trazado_721816" data-name="Trazado 721816" d="M5.432,24.522V38.441l.262.825a3.377,3.377,0,0,0,1.916,2.779,9.849,9.849,0,0,0,9.253,0,3.28,3.28,0,0,0,1.252-1.024v-16.5Z" transform="translate(-5.432 -24.522)" fill="none"/>
    </clipPath>
    <clipPath id="clip-path-21">
      <path id="Trazado_721818" data-name="Trazado 721818" d="M5.054,24.837l-.482,10.9L5.824,39.68A3.377,3.377,0,0,0,7.74,42.459a9.849,9.849,0,0,0,9.253,0A3.377,3.377,0,0,0,18.91,39.68l1.341-6.78L18.26,23.223,11.547,21.8Z" transform="translate(-4.572 -21.802)" fill="none"/>
    </clipPath>
    <clipPath id="clip-path-24">
      <path id="Trazado_721822" data-name="Trazado 721822" d="M66.716,38.079V52l.263.825A3.375,3.375,0,0,0,68.893,55.6a9.845,9.845,0,0,0,9.255,0A3.259,3.259,0,0,0,79.4,54.578v-16.5Z" transform="translate(-66.716 -38.079)" fill="none"/>
    </clipPath>
    <clipPath id="clip-path-25">
      <path id="Trazado_721824" data-name="Trazado 721824" d="M66.339,38.395l-.482,10.9,1.252,3.938a3.375,3.375,0,0,0,1.915,2.779,9.845,9.845,0,0,0,9.255,0,3.378,3.378,0,0,0,1.916-2.779l1.34-6.779-1.99-9.679-6.713-1.421Z" transform="translate(-65.857 -35.359)" fill="none"/>
    </clipPath>
    <clipPath id="clip-path-28">
      <path id="Trazado_721828" data-name="Trazado 721828" d="M52.163,38.079V52l.263.825A3.376,3.376,0,0,0,54.342,55.6a9.845,9.845,0,0,0,9.255,0,3.269,3.269,0,0,0,1.252-1.024v-16.5Z" transform="translate(-52.163 -38.079)" fill="none"/>
    </clipPath>
    <clipPath id="clip-path-29">
      <path id="Trazado_721830" data-name="Trazado 721830" d="M51.786,38.395,51.3,49.3l1.252,3.938a3.376,3.376,0,0,0,1.916,2.779,9.845,9.845,0,0,0,9.255,0,3.377,3.377,0,0,0,1.915-2.779l1.341-6.779L64.991,36.78l-6.712-1.421Z" transform="translate(-51.304 -35.359)" fill="none"/>
    </clipPath>
    <clipPath id="clip-path-32">
      <path id="Trazado_721834" data-name="Trazado 721834" d="M36.59,38.079V52l.262.825A3.378,3.378,0,0,0,38.767,55.6a9.845,9.845,0,0,0,9.255,0,3.269,3.269,0,0,0,1.252-1.024v-16.5Z" transform="translate(-36.59 -38.079)" fill="none"/>
    </clipPath>
    <clipPath id="clip-path-33">
      <path id="Trazado_721836" data-name="Trazado 721836" d="M36.212,38.395,35.73,49.3l1.252,3.938A3.378,3.378,0,0,0,38.9,56.016a9.845,9.845,0,0,0,9.255,0,3.375,3.375,0,0,0,1.915-2.779l1.341-6.779L49.418,36.78,42.7,35.359Z" transform="translate(-35.73 -35.359)" fill="none"/>
    </clipPath>
    <clipPath id="clip-path-36">
      <path id="Trazado_721840" data-name="Trazado 721840" d="M21.3,38.079V52l.262.825A3.377,3.377,0,0,0,23.476,55.6a9.843,9.843,0,0,0,9.253,0,3.261,3.261,0,0,0,1.252-1.024v-16.5Z" transform="translate(-21.297 -38.079)" fill="none"/>
    </clipPath>
    <clipPath id="clip-path-37">
      <path id="Trazado_721842" data-name="Trazado 721842" d="M20.92,38.395l-.483,10.9,1.252,3.938a3.377,3.377,0,0,0,1.917,2.779,9.843,9.843,0,0,0,9.253,0,3.375,3.375,0,0,0,1.915-2.779l1.341-6.779L34.125,36.78l-6.712-1.421Z" transform="translate(-20.437 -35.359)" fill="none"/>
    </clipPath>
    <clipPath id="clip-path-40">
      <path id="Trazado_721846" data-name="Trazado 721846" d="M5.432,38.079V52l.262.825A3.376,3.376,0,0,0,7.609,55.6a9.843,9.843,0,0,0,9.253,0,3.259,3.259,0,0,0,1.252-1.024v-16.5Z" transform="translate(-5.432 -38.079)" fill="none"/>
    </clipPath>
    <clipPath id="clip-path-41">
      <path id="Trazado_721848" data-name="Trazado 721848" d="M5.054,38.395,4.572,49.3l1.252,3.938A3.376,3.376,0,0,0,7.74,56.016a9.843,9.843,0,0,0,9.253,0,3.376,3.376,0,0,0,1.916-2.779l1.341-6.779L18.26,36.78l-6.713-1.421Z" transform="translate(-4.572 -35.359)" fill="none"/>
    </clipPath>
  </defs>
  <g id="Grupo_1018149" data-name="Grupo 1018149" clip-path="url(#clip-path)">
    <path id="Trazado_717524" data-name="Trazado 717524" d="M17.9,24.554S4.813,16.32,4.813,36.177V176.9s3.021,5.523,16.835,5.136,87.2,0,87.2,0l2.336-3.409-44.8-12.95L17.9,161.972Z" transform="translate(-2.147 -10.199)" fill="#a03d3d"/>
    <path id="Trazado_717525" data-name="Trazado 717525" d="M10.6,14.946c-3.69,1.4-5.354,3.812-5.378,7.723-.039,6.461-.012,12.922-.012,19.383q0,45.274,0,90.547c0,.922.275,2.036-.141,2.717-.531.873-1.639,1.931-2.488,1.923-.818-.008-1.785-1.163-2.374-2.027-.348-.511-.1-1.435-.1-2.172C.1,96.49.235,59.938,0,23.389c-.052-8.11,5.636-14.64,14.521-14.48,4.977.09,9.955.017,15.418.017,0-1.95.019-3.746,0-5.541C29.9,1.112,30.917,0,33.272,0q25.752.04,51.5,0c2.37,0,3.353,1.179,3.385,3.386.025,1.734,0,3.469,0,5.538,3.07,0,5.91.145,8.732-.024,16.677-1,22.323,4.1,21.288,21.413-.208,3.487-.03,7-.03,10.648,8.3,2.234,16.461,4.432,24.62,6.625,4.793,1.289,9.595,2.542,14.378,3.866,4.362,1.208,6.023,4.209,4.864,8.588-.4,1.5-.746,3.01-1.183,4.782,1.705.494,3.356.952,4.994,1.452,4.224,1.29,5.983,4.284,4.856,8.486q-11.675,43.546-23.4,87.079c-.954,3.549-1.857,7.116-2.937,10.627-1.185,3.854-4,5.448-7.867,4.46-6.768-1.728-13.492-3.635-20.278-5.29-1.145-.279-2.538.224-3.763.562-2.533.7-5.025,2.194-7.54,2.207-30.551.157-61.1.131-91.653.085C5.642,174.481.2,168.969.115,161.409c-.05-4.43.011-8.861-.022-13.291-.013-1.811.23-3.5,2.482-3.517,2.187-.018,2.65,1.57,2.641,3.43-.02,4.246-.037,8.492,0,12.738.05,5.224,3.242,8.593,8.4,8.6q45.273.063,90.547.016a1.553,1.553,0,0,0,1.325-.662q-6.8-1.844-13.6-3.688c-7.457-2.006-15.163-3.379-22.3-6.2-5.433-2.149-10.727-1.877-16.156-1.921-11.26-.091-22.521-.008-33.782-.035-6.266-.016-9.2-2.878-9.207-9.095q-.033-64.794,0-129.589c0-1.006.091-2.013.151-3.246m70.63-.566c-.045.989-.078,1.7-.11,2.418A11.107,11.107,0,0,1,70.087,27.678q-11.072.164-22.15,0A11.133,11.133,0,0,1,36.926,17.332c-.092-.9-.124-1.8-.2-2.977-5.536,0-10.96,0-16.384,0-4.355,0-4.591.232-4.591,4.516q0,64.1,0,128.2c0,.554,0,1.108.007,1.661.028,2.054,1.135,3.032,3.125,3.034,14.491.01,28.981.025,43.47-.048a2.63,2.63,0,0,0,1.994-1.287,34.76,34.76,0,0,0,1.253-4.865c-1.849-.533-3.523-.984-5.178-1.5-4-1.244-5.714-4.3-4.66-8.346.394-1.511.9-2.992,1.3-4.5,1.036-3.939,2.04-7.887,3.124-12.089H56.73q-14.259,0-28.519,0c-1.9,0-4.036.1-4.094-2.5-.064-2.865,2.226-2.62,4.188-2.618q8.583.008,17.166,0h16.16l3.144-12.027H61.538q-17.166,0-34.333.008c-1.852,0-3.129-.671-3.112-2.648.016-1.852,1.3-2.494,2.99-2.5.738,0,1.477-.011,2.215-.011,11.537,0,23.074.027,34.61-.053.893-.007,2.369-.572,2.574-1.2,1.128-3.458,1.944-7.018,2.929-10.785-10.359,0-20.411,0-30.464,0-4.06,0-8.132.147-12.175-.124-.954-.064-1.813-1.548-2.716-2.378a19.113,19.113,0,0,1,2.695-2.478c.527-.335,1.44-.066,2.178-.066h41.9L78.606,50.5H75c-15.782,0-31.565-.032-47.347.029-2.579.01-3.777-.915-3.633-3.566.11-2.024.021-4.059.021-6.09,0-5.862.079-5.941,5.822-5.942q24.227,0,48.454,0c2.638,0,5.245.224,7.745-1.264,1.015-.6,2.7-.357,4.011-.131,2.076.358,4.1,1.017,6.145,1.563,5.393,1.441,10.784,2.889,16.438,4.4,0-6.513.21-12.691-.1-18.843-.136-2.748-2.025-4.792-4.957-5.72,0,3.965.011,7.728,0,11.491-.008,1.773-.3,3.474-2.551,3.539-2.467.072-2.717-1.757-2.736-3.618-.03-2.953-.009-5.907-.023-8.86-.008-1.647-.547-3.054-2.418-3.077-6.157-.076-12.315-.028-18.637-.028m76.055,43.276a12.506,12.506,0,0,0-2.75-1.525C132.97,50.32,111.382,44.588,89.822,38.756c-1.9-.512-2.78-.116-3.112,1.767-.127.719-.41,1.409-.6,2.118Q73.727,88.854,61.343,135.065c-.975,3.636-1.008,3.592,2.681,4.583,20.416,5.482,40.807,11.064,61.254,16.427,6.365,1.669,4.9,2.691,6.7-3.948,7.393-27.234,14.628-54.51,21.921-81.771,1.068-3.994,2.132-7.989,3.388-12.7m2.081,12.464c-1.977,7.413-3.908,14.685-5.858,21.953q-8.643,32.212-17.32,64.414c-1.456,5.369-4.1,6.789-9.486,5.357q-17.713-4.708-35.409-9.48c-6.8-1.82-13.61-3.626-20.527-5.468-.322,1.226-.566,2.2-.836,3.168-.958,3.425-.935,3.489,2.365,4.371q32.084,8.579,64.159,17.193c2.178.59,2.84-.043,3.384-2.089q12.222-45.944,24.581-91.852c1.68-6.275,1.642-6.285-5.051-7.568M42.508,14.5c-.705,4.942,1.4,7.925,5.915,8.018,7.094.147,14.194.07,21.29.02a6.05,6.05,0,0,0,5.8-8.038ZM29.315,45.441h46.99c4.176,0,4.558-.407,4.584-4.926H29.315ZM35.253,8.757H82.675V5.317H35.253Z" transform="translate(0 0)" fill="#161615"/>
    <path id="Trazado_717526" data-name="Trazado 717526" d="M93.915,25.943c6.322,0,12.481-.047,18.637.029,1.87.023,2.41,1.43,2.418,3.077.013,2.953-.008,5.907.023,8.86.019,1.862.27,3.69,2.736,3.618,2.249-.065,2.543-1.766,2.551-3.539.017-3.763,0-7.526,0-11.491,2.932.928,4.82,2.972,4.957,5.72.305,6.152.1,12.33.1,18.843-5.655-1.515-11.045-2.964-16.438-4.4-2.043-.546-4.068-1.205-6.145-1.563-1.314-.227-3-.474-4.011.131-2.5,1.489-5.107,1.263-7.745,1.265q-24.227.012-48.455,0c-5.743,0-5.821.08-5.821,5.941,0,2.031.088,4.066-.022,6.09-.143,2.65,1.055,3.576,3.634,3.566,15.782-.06,31.564-.029,47.346-.029h3.61C88.679,71.88,86.148,81.4,83.51,91.312h-41.9c-.738,0-1.651-.269-2.178.066a19.118,19.118,0,0,0-2.695,2.478c.9.831,1.761,2.314,2.715,2.378,4.043.271,8.114.124,12.175.124,10.052,0,20.1,0,30.463,0-.986,3.766-1.8,7.326-2.929,10.784-.206.631-1.681,1.2-2.574,1.2-11.537.08-23.073.053-34.61.054-.738,0-1.477.008-2.215.011-1.692.007-2.974.649-2.99,2.5-.017,1.977,1.26,2.651,3.112,2.648q17.167-.031,34.334-.008h3.236l-3.144,12.027H58.155q-8.583,0-17.167,0c-1.961,0-4.252-.246-4.187,2.618.058,2.6,2.193,2.5,4.094,2.5q14.259-.012,28.519,0h3.452c-1.084,4.2-2.088,8.15-3.124,12.089-.4,1.51-.9,2.991-1.3,4.5-1.053,4.043.656,7.1,4.66,8.346,1.654.514,3.329.965,5.178,1.5a34.875,34.875,0,0,1-1.253,4.865,2.632,2.632,0,0,1-1.994,1.287c-14.49.073-28.98.058-43.47.048-1.991,0-3.1-.98-3.126-3.034-.007-.554-.006-1.108-.006-1.661q0-64.1,0-128.2c0-4.284.237-4.513,4.591-4.516,5.424,0,10.848,0,16.384,0,.078,1.176.11,2.079.2,2.976A11.132,11.132,0,0,0,60.621,39.239q11.073.162,22.15,0A11.106,11.106,0,0,0,93.8,28.362c.032-.715.065-1.43.111-2.419M46.431,147.829c2.3,0,4.6-.014,6.906,0,1.745.014,2.87-.73,2.929-2.544.062-1.9-1.177-2.579-2.862-2.587q-6.906-.032-13.811.012c-1.7.013-2.912.8-2.816,2.645.094,1.8,1.31,2.489,3.025,2.474,2.209-.02,4.42,0,6.63,0m.092-73.709c-2.3,0-4.61-.018-6.915.006-1.738.018-3.1.919-2.733,2.633a3.761,3.761,0,0,0,2.615,2.406,133.208,133.208,0,0,0,14.093,0,3.75,3.75,0,0,0,2.57-2.425c.367-1.72-.957-2.614-2.716-2.618q-3.457-.007-6.915,0" transform="translate(-12.685 -11.562)" fill="#9ad4e3"/>
    <path id="Trazado_717527" data-name="Trazado 717527" d="M206.244,88.708c-1.256,4.71-2.32,8.705-3.388,12.7-7.292,27.261-14.528,54.537-21.921,81.771-1.8,6.64-.334,5.617-6.7,3.948-20.447-5.363-40.838-10.945-61.254-16.427-3.689-.99-3.657-.947-2.681-4.583q12.4-46.208,24.767-92.424c.19-.709.474-1.4.6-2.117.332-1.883,1.216-2.28,3.112-1.767,21.561,5.831,43.149,11.563,64.714,17.375a12.506,12.506,0,0,1,2.75,1.525M176.018,139.98c0,3.561.347,6.433-.06,9.193a22.665,22.665,0,0,1-23.984,19.14c-12.145-.95-21.529-10.731-21.338-22.639.146-9.08,4.105-16.254,12.336-20.416,8.354-4.225,16.569-3.417,24.241,1.992,1.688,1.19,3.4,2.436,4.983.254,1.553-2.145-.347-3.363-1.833-4.436A28.054,28.054,0,0,0,126.032,151.2c3.237,16.011,18.662,25.326,34.576,21.542,15.212-3.617,24.825-21.255,19.621-36-1.176-3.332-2.446-3.8-5.587-2.029q-4.451,2.516-8.871,5.082c-4.2,2.428-8.393,4.87-12.726,7.387-2.386-4.08-4.628-7.879-6.833-11.7-.905-1.568-2.085-2.422-3.836-1.42-1.623.928-1.576,2.4-.764,3.831q3.953,6.968,8.02,13.872c1.007,1.7,2.436,2.1,4.223,1,2.042-1.25,4.135-2.415,6.21-3.61,5.087-2.928,10.176-5.852,15.953-9.173m12.564-22.213c.68-.924,1.889-1.927,2.257-3.178,1.764-5.987,3.308-12.04,4.912-18.073.583-2.189-.223-3.472-2.47-4.069q-23.816-6.332-47.6-12.781c-2.566-.7-3.814.2-4.437,2.621-1.489,5.777-3.068,11.532-4.562,17.308-.911,3.519-.506,4.152,2.932,5.076q18.215,4.9,36.429,9.792c3.9,1.046,7.806,2.058,12.541,3.3" transform="translate(-48.958 -31.052)" fill="#9ad4e3"/>
    <path id="Trazado_717528" data-name="Trazado 717528" d="M215.25,126.6c6.692,1.282,6.731,1.293,5.051,7.568q-12.294,45.925-24.581,91.851c-.544,2.046-1.205,2.679-3.384,2.089q-32.057-8.68-64.159-17.192c-3.3-.882-3.323-.947-2.365-4.371.271-.968.514-1.943.836-3.168,6.917,1.842,13.724,3.647,20.527,5.467q17.706,4.737,35.409,9.481c5.387,1.432,8.031.011,9.486-5.357q8.728-32.189,17.321-64.414c1.95-7.268,3.881-14.541,5.858-21.953" transform="translate(-55.884 -56.479)" fill="#a03d3d"/>
    <path id="Trazado_717529" data-name="Trazado 717529" d="M76.638,26.181h33.01a6.05,6.05,0,0,1-5.8,8.039c-7.1.05-14.2.126-21.291-.021-4.515-.094-6.62-3.076-5.915-8.018" transform="translate(-34.131 -11.68)" fill="#b20d0d"/>
    <path id="Trazado_717530" data-name="Trazado 717530" d="M52.927,78.075V73.149H104.5c-.027,4.519-.409,4.926-4.584,4.926H52.927" transform="translate(-23.612 -32.633)" fill="#ffe8ce"/>
    <rect id="Rectángulo_354553" data-name="Rectángulo 354553" width="47.422" height="3.44" transform="translate(35.253 5.317)" fill="#ffc403"/>
    <path id="Trazado_717531" data-name="Trazado 717531" d="M53.146,241.883c-2.21,0-4.42-.015-6.63,0-1.715.016-2.931-.674-3.025-2.474-.1-1.85,1.114-2.633,2.816-2.646q6.906-.052,13.812-.011c1.685.008,2.924.687,2.862,2.586-.059,1.814-1.185,2.558-2.929,2.544-2.3-.019-4.6,0-6.906,0" transform="translate(-19.4 -105.616)" fill="#161615"/>
    <path id="Trazado_717532" data-name="Trazado 717532" d="M53.274,112.939c2.3,0,4.61,0,6.915,0,1.76,0,3.083.9,2.716,2.618a3.751,3.751,0,0,1-2.57,2.425,133.2,133.2,0,0,1-14.093,0,3.761,3.761,0,0,1-2.615-2.406c-.363-1.713,1-2.614,2.733-2.632,2.3-.024,4.61-.006,6.915-.006" transform="translate(-19.436 -50.382)" fill="#161615"/>
    <path id="Trazado_717534" data-name="Trazado 717534" d="M209.942,125.687c-4.735-1.246-8.642-2.258-12.541-3.3q-18.217-4.886-36.429-9.792c-3.438-.924-3.842-1.556-2.932-5.076,1.494-5.776,3.073-11.531,4.562-17.308.624-2.418,1.872-3.32,4.437-2.621q23.78,6.47,47.6,12.781c2.247.6,3.052,1.88,2.47,4.069-1.605,6.034-3.149,12.086-4.913,18.073-.368,1.251-1.577,2.253-2.257,3.178m1.549-20.749-44.2-11.857-3.924,14.731,44.222,11.827,3.905-14.7" transform="translate(-70.319 -38.972)" fill="#161615"/>
    <ellipse id="Elipse_5704" data-name="Elipse 5704" cx="28" cy="27" rx="28" ry="27" transform="translate(76.297 86.906)" fill="#ffc403"/>
    <path id="Trazado_717533" data-name="Trazado 717533" d="M188.653,178.495c-5.777,3.321-10.867,6.245-15.954,9.173-2.075,1.195-4.168,2.36-6.21,3.61-1.787,1.1-3.217.7-4.223-1q-4.079-6.9-8.02-13.872c-.811-1.43-.859-2.9.764-3.831,1.751-1,2.931-.148,3.836,1.42,2.206,3.821,4.447,7.62,6.833,11.7,4.334-2.516,8.526-4.959,12.727-7.386q4.425-2.558,8.871-5.082c3.141-1.775,4.411-1.3,5.587,2.029,5.2,14.743-4.409,32.381-19.621,36-15.915,3.785-31.339-5.531-34.576-21.541A28.054,28.054,0,0,1,183,161.581c1.486,1.074,3.386,2.291,1.833,4.437-1.58,2.182-3.295.936-4.983-.254-7.672-5.409-15.887-6.217-24.241-1.992-8.231,4.163-12.19,11.336-12.337,20.416-.191,11.908,9.193,21.688,21.338,22.639a22.665,22.665,0,0,0,23.983-19.14c.407-2.761.06-5.632.06-9.193" transform="translate(-61.593 -69.566)" fill="#161615"/>
    <g id="Grupo_1024164" data-name="Grupo 1024164" transform="translate(40.543 41.199) rotate(17)">
      <g id="Grupo_1024163" data-name="Grupo 1024163" transform="translate(0 0.001)" clip-path="url(#clip-path-2)">
        <path id="Trazado_721774" data-name="Trazado 721774" d="M36.4,10.393c-.789-2.678-9.563-2.456-19.6.5S-.731,18.412.057,21.092s9.563,2.456,19.6-.5S37.19,13.072,36.4,10.393" transform="translate(0 9.737)" fill="#b7b1ac"/>
        <path id="Trazado_721775" data-name="Trazado 721775" d="M14.821,25.462a7.266,7.266,0,0,1-1.875-.364,9.2,9.2,0,0,1-4.564-3.529,11.482,11.482,0,0,1-1.971-6.75,16.558,16.558,0,0,1,.418-3.229A21.217,21.217,0,0,1,7.987,7.955a18.469,18.469,0,0,1,3.248-5.331A9.979,9.979,0,0,1,13.464.709,4.994,4.994,0,0,1,15.785,0a4.078,4.078,0,0,1,1.971.422,7.106,7.106,0,0,1,1.9,1.341,12.449,12.449,0,0,1,2.254,3.021,21.361,21.361,0,0,1,1.2,2.535,20.969,20.969,0,0,1,1.269,4.534,17.428,17.428,0,0,1,.255,3.113,12.453,12.453,0,0,1-.2,2.036,11.007,11.007,0,0,1-.885,2.816,10.381,10.381,0,0,1-2.083,3.023,9.213,9.213,0,0,1-2.886,1.982,8.185,8.185,0,0,1-3.758.634" transform="translate(7.321 0)" fill="#c45d28"/>
        <path id="Trazado_721776" data-name="Trazado 721776" d="M10.5,16.254a4.318,4.318,0,0,1-.441-.019h-.006a.272.272,0,0,1-.249-.3.31.31,0,0,1,.287-.285c.1-.009.2-.015.3-.017a7.029,7.029,0,0,0,2.074-.339,7.849,7.849,0,0,0,3.531-2.46,8.962,8.962,0,0,0,1.519-2.644,9.631,9.631,0,0,0,.615-2.751,4.419,4.419,0,0,1,.071-.529l0,0a.254.254,0,0,1,.3-.208h.015a.3.3,0,0,1,.261.33,8.982,8.982,0,0,1-.182,1.6,10.553,10.553,0,0,1-2.2,4.7,8.083,8.083,0,0,1-3.011,2.258,7.106,7.106,0,0,1-2.886.66" transform="translate(11.198 7.652)" fill="#ffe1c3"/>
        <path id="Trazado_721777" data-name="Trazado 721777" d="M21.888,21.81a8.165,8.165,0,0,1-3.023,2.325,9.254,9.254,0,0,1-3.416.769,10.5,10.5,0,0,1-3.632-.529,11.145,11.145,0,0,1-2.666-1.266,12.883,12.883,0,0,1-1.626-1.241,17.616,17.616,0,0,1-2.109-2.306,21.072,21.072,0,0,1-2.462-4.016,22.013,22.013,0,0,1-1.046-2.6,12.5,12.5,0,0,1-.681-3.709,7.1,7.1,0,0,1,.309-2.3A4.1,4.1,0,0,1,2.566,5.2a5.009,5.009,0,0,1,2.1-1.224,10.013,10.013,0,0,1,2.921-.33A18.416,18.416,0,0,1,13.7,4.9a21.281,21.281,0,0,1,3.452,1.62A16.588,16.588,0,0,1,19.8,8.405a11.488,11.488,0,0,1,3.608,6.036,9.2,9.2,0,0,1-.519,5.747,7.127,7.127,0,0,1-1.007,1.622" transform="translate(1.398 4.163)" fill="#eef6ed"/>
        <path id="Trazado_721778" data-name="Trazado 721778" d="M2.805,5.42a5.594,5.594,0,0,1,2.109-1A6.394,6.394,0,0,1,7.88,4.338a8.319,8.319,0,0,1,3.658,1.828,7,7,0,0,1,.9.9.237.237,0,0,1,0,.334l-.009.006a.2.2,0,0,1-.287.017l0,0a3.257,3.257,0,0,1-.3-.294,7.6,7.6,0,0,0-1.727-1.4,7.086,7.086,0,0,0-2.235-.889,6.173,6.173,0,0,0-3.386.208,5.518,5.518,0,0,0-1.449.806c-.064.047-.129.094-.193.137a.245.245,0,0,1-.319-.036.214.214,0,0,1,.011-.3l0,0c.079-.084.176-.152.264-.229" transform="translate(2.824 4.798)" fill="#bcd1c2"/>
      </g>
    </g>
    <g id="Grupo_1024247" data-name="Grupo 1024247" transform="translate(0 106.6)">
      <g id="Grupo_1024166" data-name="Grupo 1024166" transform="translate(0 0)">
        <g id="Grupo_1024165" data-name="Grupo 1024165" clip-path="url(#clip-path-3)">
          <path id="Trazado_721779" data-name="Trazado 721779" d="M74.9,0H20.341a17.437,17.437,0,0,0,0,34.874H74.9A17.437,17.437,0,1,0,74.9,0" transform="translate(0.442 0)" fill="#ce9f7e"/>
          <path id="Trazado_721780" data-name="Trazado 721780" d="M75.687,2.569H19.193a13.384,13.384,0,1,0,0,26.768H75.687a13.384,13.384,0,0,0,0-26.768" transform="translate(0.883 0.391)" fill="#bd9273"/>
          <path id="Trazado_721781" data-name="Trazado 721781" d="M79.379,9.307h.013a.109.109,0,0,0,.1-.121,7.653,7.653,0,0,0-2.046-4.393,6.925,6.925,0,0,0-4.384-2.154,20.761,20.761,0,0,0-2.808-.066h-.2a.11.11,0,0,0,0,.219h.2a20.528,20.528,0,0,1,2.779.063,6.714,6.714,0,0,1,4.249,2.088A7.438,7.438,0,0,1,79.267,9.21a.108.108,0,0,0,.112.1" transform="translate(10.637 0.388)" fill="#281914"/>
          <path id="Trazado_721782" data-name="Trazado 721782" d="M74.769,25.542a2.755,2.755,0,0,0,1.7-.644,6.7,6.7,0,0,0,2.188-5.009.108.108,0,1,0-.217,0,6.462,6.462,0,0,1-2.1,4.84,2.371,2.371,0,0,1-2.009.547.111.111,0,0,0-.131.083.109.109,0,0,0,.083.13,2.307,2.307,0,0,0,.494.058" transform="translate(11.282 3.008)" fill="#281914"/>
          <path id="Trazado_721783" data-name="Trazado 721783" d="M31.012,25.748h0c4.121-.021,8.333-.031,12.407-.04,3.762-.009,7.649-.018,11.482-.037a.109.109,0,0,0,.109-.108h0a.112.112,0,0,0-.109-.109c-3.833.018-7.721.028-11.483.037-4.074.009-8.286.02-12.407.04a.109.109,0,1,0,0,.219Z" transform="translate(4.699 3.871)" fill="#281914"/>
          <path id="Trazado_721784" data-name="Trazado 721784" d="M32.8,3.184h0c4.121-.021,8.333-.031,12.407-.04,3.762-.01,7.649-.018,11.482-.037a.109.109,0,1,0,0-.218c-3.833.017-7.72.026-11.482.036-4.074.009-8.286.02-12.408.04a.109.109,0,1,0,0,.219Z" transform="translate(4.971 0.44)" fill="#281914"/>
          <path id="Trazado_721785" data-name="Trazado 721785" d="M10.436,25.785a.109.109,0,0,0,.008-.218c-.121-.009-.242-.015-.364-.022a4.164,4.164,0,0,1-1.264-.194C7.123,24.715,5.846,22.213,6.085,20a.109.109,0,1,0-.218-.023c-.253,2.346,1.062,4.9,2.873,5.584a4.3,4.3,0,0,0,1.324.206c.12.006.241.012.358.02Z" transform="translate(0.887 3.023)" fill="#281914"/>
          <path id="Trazado_721786" data-name="Trazado 721786" d="M5.935,9.7a.109.109,0,0,0,.108-.1,12.257,12.257,0,0,1,.592-2.662,6.588,6.588,0,0,1,5.491-4.13.11.11,0,0,0-.031-.218A6.806,6.806,0,0,0,6.432,6.865a12.4,12.4,0,0,0-.6,2.709.109.109,0,0,0,.1.122h0Z" transform="translate(0.886 0.395)" fill="#281914"/>
          <path id="Trazado_721787" data-name="Trazado 721787" d="M2.5,51.227H94.02a2.4,2.4,0,0,0,2.494-2.3,2.374,2.374,0,0,0-.037-.527l-3.334-15.26a2.941,2.941,0,0,0-2.874-2.316H6.249a2.943,2.943,0,0,0-2.876,2.316L.039,48.4A2.4,2.4,0,0,0,2.5,51.227" transform="translate(0 4.688)" fill="#ce9f7e"/>
          <path id="Trazado_721788" data-name="Trazado 721788" d="M2.5,51.227H94.02a2.4,2.4,0,0,0,2.494-2.3,2.374,2.374,0,0,0-.037-.527l-3.334-15.26a2.941,2.941,0,0,0-2.874-2.316H6.249a2.943,2.943,0,0,0-2.876,2.316L.039,48.4A2.4,2.4,0,0,0,2.5,51.227" transform="translate(0 4.688)" fill="#ce9f7e"/>
          <path id="Trazado_721789" data-name="Trazado 721789" d="M1.047,43.055l2.166-9.915a2.944,2.944,0,0,1,2.876-2.316h84.02a2.943,2.943,0,0,1,2.874,2.316l2.166,9.915Z" transform="translate(0.159 4.688)" fill="#ce9f7e"/>
          <path id="Trazado_721790" data-name="Trazado 721790" d="M76.03,28.816a.111.111,0,0,0,.109-.115.1.1,0,0,0-.009-.041,5.193,5.193,0,0,0-2.869-2.705.113.113,0,0,0-.075.213,5.056,5.056,0,0,1,2.735,2.579.115.115,0,0,0,.108.069" transform="translate(11.119 3.947)" fill="#d5d5d5"/>
        </g>
      </g>
      <g id="Grupo_1024168" data-name="Grupo 1024168" transform="translate(76.861 28.251)">
        <g id="Grupo_1024167" data-name="Grupo 1024167" clip-path="url(#clip-path-4)">
          <path id="Trazado_721791" data-name="Trazado 721791" d="M76.077,26.011a4.11,4.11,0,0,0-.368-.406,3.7,3.7,0,0,0-5.579.406,11.779,11.779,0,0,0-1.917,3.31l-.384,1a17.421,17.421,0,0,0-.93,8.7,7.588,7.588,0,0,0,.621,2.1,7.059,7.059,0,0,0,.448.821c.061.094.124.189.245.359a5.834,5.834,0,0,0,1.827,1.645,6.14,6.14,0,0,0,6.089,0,6,6,0,0,0,2.078-2,7.468,7.468,0,0,0,1.074-2.914,21.719,21.719,0,0,0,.118-2.174,20.4,20.4,0,0,0-1.313-7.274l-.1-.256a11.838,11.838,0,0,0-1.909-3.317" transform="translate(-66.717 -24.522)" fill="#c45d28"/>
        </g>
      </g>
      <g id="Grupo_1024170" data-name="Grupo 1024170" transform="translate(75.872 25.117)">
        <g id="Grupo_1024169" data-name="Grupo 1024169" clip-path="url(#clip-path-5)">
          <path id="Trazado_721793" data-name="Trazado 721793" d="M78.569,30.635s.644,6.622-2.829,9.576a9.494,9.494,0,0,1-8.308,1.157,6.059,6.059,0,0,0,1.937,1.645,6.866,6.866,0,0,0,6.456,0,6.184,6.184,0,0,0,2.2-2A7.218,7.218,0,0,0,79.167,38.1a19.612,19.612,0,0,0-.6-7.47" transform="translate(-65.618 -20.459)" fill="#7f3a19"/>
        </g>
      </g>
      <g id="Grupo_1024172" data-name="Grupo 1024172" transform="translate(78.558 29.698)">
        <g id="Grupo_1024171" data-name="Grupo 1024171" clip-path="url(#clip-path-6)">
          <path id="Trazado_721795" data-name="Trazado 721795" d="M69.014,28.608a7.05,7.05,0,0,0-.7,4.308c.43,1.344,1.263,1.52,2.152.448A3.263,3.263,0,0,0,71.1,31.7a7.417,7.417,0,0,1,1.409-3.449,2.629,2.629,0,0,0,.473-1.016c.222-1.2-.583-1.774-1.659-1.286A5.342,5.342,0,0,0,69.016,28.6" transform="translate(-68.182 -25.777)" fill="#c67243"/>
        </g>
      </g>
      <g id="Grupo_1024174" data-name="Grupo 1024174" transform="translate(0 0)">
        <g id="Grupo_1024173" data-name="Grupo 1024173" clip-path="url(#clip-path-3)">
          <path id="Trazado_721796" data-name="Trazado 721796" d="M61.477,28.816a.112.112,0,0,0,.109-.115.1.1,0,0,0-.009-.041,5.193,5.193,0,0,0-2.869-2.705.113.113,0,0,0-.075.213,5.056,5.056,0,0,1,2.735,2.579.115.115,0,0,0,.108.069" transform="translate(8.906 3.947)" fill="#d5d5d5"/>
        </g>
      </g>
      <g id="Grupo_1024176" data-name="Grupo 1024176" transform="translate(60.095 28.251)">
        <g id="Grupo_1024175" data-name="Grupo 1024175" clip-path="url(#clip-path-8)">
          <path id="Trazado_721797" data-name="Trazado 721797" d="M61.524,26.011a4.108,4.108,0,0,0-.368-.406,3.7,3.7,0,0,0-5.579.406,11.779,11.779,0,0,0-1.917,3.31l-.384,1a17.421,17.421,0,0,0-.93,8.7,7.588,7.588,0,0,0,.621,2.1,7.061,7.061,0,0,0,.448.821c.061.094.124.189.245.359a5.834,5.834,0,0,0,1.827,1.645,6.14,6.14,0,0,0,6.089,0,6,6,0,0,0,2.078-2,7.468,7.468,0,0,0,1.074-2.914,21.724,21.724,0,0,0,.118-2.174,20.4,20.4,0,0,0-1.313-7.274l-.1-.256a11.838,11.838,0,0,0-1.909-3.317" transform="translate(-52.164 -24.522)" fill="#c45d28"/>
        </g>
      </g>
      <g id="Grupo_1024178" data-name="Grupo 1024178" transform="translate(59.106 25.117)">
        <g id="Grupo_1024177" data-name="Grupo 1024177" clip-path="url(#clip-path-9)">
          <path id="Trazado_721799" data-name="Trazado 721799" d="M64.016,30.635s.644,6.622-2.829,9.576a9.494,9.494,0,0,1-8.308,1.157,6.059,6.059,0,0,0,1.937,1.645,6.866,6.866,0,0,0,6.456,0,6.184,6.184,0,0,0,2.2-2A7.217,7.217,0,0,0,64.614,38.1a19.611,19.611,0,0,0-.6-7.47" transform="translate(-51.064 -20.459)" fill="#7f3a19"/>
        </g>
      </g>
      <g id="Grupo_1024180" data-name="Grupo 1024180" transform="translate(61.794 29.698)">
        <g id="Grupo_1024179" data-name="Grupo 1024179" clip-path="url(#clip-path-6)">
          <path id="Trazado_721801" data-name="Trazado 721801" d="M54.461,28.608a7.05,7.05,0,0,0-.7,4.308c.43,1.344,1.263,1.52,2.152.448a3.263,3.263,0,0,0,.635-1.66,7.417,7.417,0,0,1,1.409-3.449,2.629,2.629,0,0,0,.473-1.016c.222-1.2-.583-1.774-1.659-1.286A5.342,5.342,0,0,0,54.463,28.6" transform="translate(-53.63 -25.777)" fill="#c67243"/>
        </g>
      </g>
      <g id="Grupo_1024182" data-name="Grupo 1024182" transform="translate(0 0)">
        <g id="Grupo_1024181" data-name="Grupo 1024181" clip-path="url(#clip-path-3)">
          <path id="Trazado_721802" data-name="Trazado 721802" d="M45.9,28.816a.112.112,0,0,0,.109-.115A.1.1,0,0,0,46,28.66a5.193,5.193,0,0,0-2.869-2.705.113.113,0,0,0-.075.213A5.056,5.056,0,0,1,45.8,28.747a.115.115,0,0,0,.108.069" transform="translate(6.538 3.947)" fill="#d5d5d5"/>
        </g>
      </g>
      <g id="Grupo_1024184" data-name="Grupo 1024184" transform="translate(42.154 28.251)">
        <g id="Grupo_1024183" data-name="Grupo 1024183" clip-path="url(#clip-path-12)">
          <path id="Trazado_721803" data-name="Trazado 721803" d="M45.95,26.011a4.108,4.108,0,0,0-.368-.406A3.7,3.7,0,0,0,40,26.011a11.779,11.779,0,0,0-1.917,3.31l-.384,1a17.421,17.421,0,0,0-.93,8.7,7.588,7.588,0,0,0,.621,2.1,7.063,7.063,0,0,0,.448.821c.061.094.124.189.245.359a5.834,5.834,0,0,0,1.827,1.645,6.14,6.14,0,0,0,6.089,0,6,6,0,0,0,2.078-2,7.468,7.468,0,0,0,1.074-2.914,21.718,21.718,0,0,0,.118-2.174,20.4,20.4,0,0,0-1.313-7.274l-.1-.256a11.81,11.81,0,0,0-1.909-3.317" transform="translate(-36.591 -24.522)" fill="#c45d28"/>
        </g>
      </g>
      <g id="Grupo_1024186" data-name="Grupo 1024186" transform="translate(41.163 25.117)">
        <g id="Grupo_1024185" data-name="Grupo 1024185" clip-path="url(#clip-path-13)">
          <path id="Trazado_721805" data-name="Trazado 721805" d="M48.443,30.635s.644,6.622-2.829,9.576a9.494,9.494,0,0,1-8.308,1.157,6.059,6.059,0,0,0,1.937,1.645,6.866,6.866,0,0,0,6.456,0,6.184,6.184,0,0,0,2.2-2A7.218,7.218,0,0,0,49.041,38.1a19.612,19.612,0,0,0-.6-7.47" transform="translate(-35.49 -20.459)" fill="#7f3a19"/>
        </g>
      </g>
      <g id="Grupo_1024188" data-name="Grupo 1024188" transform="translate(43.852 29.698)">
        <g id="Grupo_1024187" data-name="Grupo 1024187" clip-path="url(#clip-path-6)">
          <path id="Trazado_721807" data-name="Trazado 721807" d="M38.888,28.608a7.043,7.043,0,0,0-.7,4.308c.43,1.344,1.263,1.52,2.152.448a3.263,3.263,0,0,0,.635-1.66,7.417,7.417,0,0,1,1.409-3.449,2.613,2.613,0,0,0,.473-1.016c.222-1.2-.583-1.774-1.659-1.286A5.342,5.342,0,0,0,38.889,28.6" transform="translate(-38.057 -25.777)" fill="#c67243"/>
        </g>
      </g>
      <g id="Grupo_1024190" data-name="Grupo 1024190" transform="translate(0 0)">
        <g id="Grupo_1024189" data-name="Grupo 1024189" clip-path="url(#clip-path-3)">
          <path id="Trazado_721808" data-name="Trazado 721808" d="M30.611,28.816a.111.111,0,0,0,.109-.115.1.1,0,0,0-.009-.041,5.193,5.193,0,0,0-2.869-2.705.113.113,0,0,0-.075.213A5.056,5.056,0,0,1,30.5,28.747a.115.115,0,0,0,.108.069" transform="translate(4.212 3.947)" fill="#d5d5d5"/>
        </g>
      </g>
      <g id="Grupo_1024192" data-name="Grupo 1024192" transform="translate(24.536 28.251)">
        <g id="Grupo_1024191" data-name="Grupo 1024191" clip-path="url(#clip-path-16)">
          <path id="Trazado_721809" data-name="Trazado 721809" d="M30.657,26.011a4.108,4.108,0,0,0-.368-.406,3.7,3.7,0,0,0-5.579.406,11.779,11.779,0,0,0-1.917,3.31l-.384,1a17.421,17.421,0,0,0-.93,8.7,7.588,7.588,0,0,0,.621,2.1,7.061,7.061,0,0,0,.448.821c.061.094.124.189.245.359a5.834,5.834,0,0,0,1.827,1.645,6.14,6.14,0,0,0,6.089,0,6,6,0,0,0,2.078-2,7.468,7.468,0,0,0,1.074-2.914,21.718,21.718,0,0,0,.118-2.174,20.4,20.4,0,0,0-1.313-7.274l-.1-.256a11.838,11.838,0,0,0-1.909-3.317" transform="translate(-21.298 -24.522)" fill="#c45d28"/>
        </g>
      </g>
      <g id="Grupo_1024194" data-name="Grupo 1024194" transform="translate(23.545 25.117)">
        <g id="Grupo_1024193" data-name="Grupo 1024193" clip-path="url(#clip-path-17)">
          <path id="Trazado_721811" data-name="Trazado 721811" d="M33.15,30.635s.644,6.622-2.829,9.576a9.494,9.494,0,0,1-8.308,1.157,6.059,6.059,0,0,0,1.937,1.645,6.866,6.866,0,0,0,6.456,0,6.184,6.184,0,0,0,2.2-2A7.218,7.218,0,0,0,33.748,38.1a19.612,19.612,0,0,0-.6-7.47" transform="translate(-20.197 -20.459)" fill="#7f3a19"/>
        </g>
      </g>
      <g id="Grupo_1024196" data-name="Grupo 1024196" transform="translate(26.234 29.698)">
        <g id="Grupo_1024195" data-name="Grupo 1024195" clip-path="url(#clip-path-6)">
          <path id="Trazado_721813" data-name="Trazado 721813" d="M23.595,28.608a7.05,7.05,0,0,0-.7,4.308c.43,1.344,1.263,1.52,2.152.448a3.263,3.263,0,0,0,.635-1.66,7.417,7.417,0,0,1,1.409-3.449,2.629,2.629,0,0,0,.474-1.016c.222-1.2-.583-1.774-1.659-1.286A5.342,5.342,0,0,0,23.6,28.6" transform="translate(-22.764 -25.777)" fill="#c67243"/>
        </g>
      </g>
      <g id="Grupo_1024198" data-name="Grupo 1024198" transform="translate(0 0)">
        <g id="Grupo_1024197" data-name="Grupo 1024197" clip-path="url(#clip-path-3)">
          <path id="Trazado_721814" data-name="Trazado 721814" d="M14.745,28.816a.112.112,0,0,0,.109-.115.1.1,0,0,0-.009-.041,5.193,5.193,0,0,0-2.869-2.705.113.113,0,0,0-.075.213,5.056,5.056,0,0,1,2.735,2.579.115.115,0,0,0,.108.069" transform="translate(1.8 3.947)" fill="#d5d5d5"/>
        </g>
      </g>
      <g id="Grupo_1024200" data-name="Grupo 1024200" transform="translate(6.258 28.251)">
        <g id="Grupo_1024199" data-name="Grupo 1024199" clip-path="url(#clip-path-20)">
          <path id="Trazado_721815" data-name="Trazado 721815" d="M14.792,26.011a4.108,4.108,0,0,0-.368-.406,3.7,3.7,0,0,0-5.579.406,11.779,11.779,0,0,0-1.917,3.31l-.384,1a17.421,17.421,0,0,0-.93,8.7,7.588,7.588,0,0,0,.621,2.1,7.061,7.061,0,0,0,.448.821c.061.094.124.189.245.359a5.834,5.834,0,0,0,1.827,1.645,6.14,6.14,0,0,0,6.089,0,6,6,0,0,0,2.078-2A7.468,7.468,0,0,0,18,39.032a21.72,21.72,0,0,0,.118-2.174,20.819,20.819,0,0,0-.68-5.295,20.72,20.72,0,0,0-.634-1.979l-.1-.256a11.838,11.838,0,0,0-1.909-3.317" transform="translate(-5.433 -24.522)" fill="#c45d28"/>
        </g>
      </g>
      <g id="Grupo_1024202" data-name="Grupo 1024202" transform="translate(5.267 25.117)">
        <g id="Grupo_1024201" data-name="Grupo 1024201" clip-path="url(#clip-path-21)">
          <path id="Trazado_721817" data-name="Trazado 721817" d="M17.284,30.635s.644,6.622-2.829,9.576a9.494,9.494,0,0,1-8.308,1.157,6.059,6.059,0,0,0,1.937,1.645,6.866,6.866,0,0,0,6.456,0,6.184,6.184,0,0,0,2.2-2A7.218,7.218,0,0,0,17.882,38.1a19.612,19.612,0,0,0-.6-7.47" transform="translate(-4.332 -20.459)" fill="#7f3a19"/>
        </g>
      </g>
      <g id="Grupo_1024204" data-name="Grupo 1024204" transform="translate(7.955 29.698)">
        <g id="Grupo_1024203" data-name="Grupo 1024203" clip-path="url(#clip-path-6)">
          <path id="Trazado_721819" data-name="Trazado 721819" d="M7.729,28.608a7.05,7.05,0,0,0-.7,4.308c.43,1.344,1.263,1.52,2.152.448a3.263,3.263,0,0,0,.635-1.66,7.417,7.417,0,0,1,1.409-3.449,2.629,2.629,0,0,0,.474-1.016c.222-1.2-.583-1.774-1.659-1.286A5.342,5.342,0,0,0,7.731,28.6" transform="translate(-6.898 -25.777)" fill="#c67243"/>
        </g>
      </g>
      <g id="Grupo_1024206" data-name="Grupo 1024206" transform="translate(0 0)">
        <g id="Grupo_1024205" data-name="Grupo 1024205" clip-path="url(#clip-path-3)">
          <path id="Trazado_721820" data-name="Trazado 721820" d="M76.03,42.373a.111.111,0,0,0,.109-.115.1.1,0,0,0-.009-.041,5.193,5.193,0,0,0-2.869-2.705.113.113,0,0,0-.075.213A5.056,5.056,0,0,1,75.922,42.3a.115.115,0,0,0,.108.069" transform="translate(11.119 6.008)" fill="#d5d5d5"/>
        </g>
      </g>
      <g id="Grupo_1024208" data-name="Grupo 1024208" transform="translate(76.861 43.87)">
        <g id="Grupo_1024207" data-name="Grupo 1024207" clip-path="url(#clip-path-24)">
          <path id="Trazado_721821" data-name="Trazado 721821" d="M76.077,39.568a4.112,4.112,0,0,0-.368-.406,3.7,3.7,0,0,0-5.579.406,11.779,11.779,0,0,0-1.917,3.31l-.384,1a17.421,17.421,0,0,0-.93,8.7,7.588,7.588,0,0,0,.621,2.1,7.059,7.059,0,0,0,.448.821c.061.094.124.189.245.359a5.834,5.834,0,0,0,1.827,1.645,6.14,6.14,0,0,0,6.089,0,6,6,0,0,0,2.078-2,7.468,7.468,0,0,0,1.074-2.914,21.719,21.719,0,0,0,.118-2.174,20.4,20.4,0,0,0-1.313-7.274l-.1-.256a11.838,11.838,0,0,0-1.909-3.317" transform="translate(-66.717 -38.079)" fill="#c45d28"/>
        </g>
      </g>
      <g id="Grupo_1024210" data-name="Grupo 1024210" transform="translate(75.872 40.736)">
        <g id="Grupo_1024209" data-name="Grupo 1024209" clip-path="url(#clip-path-25)">
          <path id="Trazado_721823" data-name="Trazado 721823" d="M78.569,44.193s.644,6.622-2.829,9.576a9.495,9.495,0,0,1-8.308,1.157,6.059,6.059,0,0,0,1.937,1.645,6.866,6.866,0,0,0,6.456,0,6.184,6.184,0,0,0,2.2-2,7.218,7.218,0,0,0,1.138-2.914,19.612,19.612,0,0,0-.6-7.47" transform="translate(-65.618 -34.016)" fill="#7f3a19"/>
        </g>
      </g>
      <g id="Grupo_1024212" data-name="Grupo 1024212" transform="translate(78.558 45.318)">
        <g id="Grupo_1024211" data-name="Grupo 1024211" clip-path="url(#clip-path-6)">
          <path id="Trazado_721825" data-name="Trazado 721825" d="M69.014,42.165a7.05,7.05,0,0,0-.7,4.308c.43,1.344,1.263,1.52,2.152.448a3.263,3.263,0,0,0,.635-1.66,7.417,7.417,0,0,1,1.409-3.449,2.629,2.629,0,0,0,.473-1.016c.222-1.2-.583-1.774-1.659-1.286a5.342,5.342,0,0,0-2.311,2.651" transform="translate(-68.182 -39.336)" fill="#c67243"/>
        </g>
      </g>
      <g id="Grupo_1024214" data-name="Grupo 1024214" transform="translate(0 0)">
        <g id="Grupo_1024213" data-name="Grupo 1024213" clip-path="url(#clip-path-3)">
          <path id="Trazado_721826" data-name="Trazado 721826" d="M61.477,42.373a.112.112,0,0,0,.109-.115.1.1,0,0,0-.009-.041,5.193,5.193,0,0,0-2.869-2.705.113.113,0,0,0-.075.213A5.056,5.056,0,0,1,61.369,42.3a.115.115,0,0,0,.108.069" transform="translate(8.906 6.008)" fill="#d5d5d5"/>
        </g>
      </g>
      <g id="Grupo_1024216" data-name="Grupo 1024216" transform="translate(60.095 43.87)">
        <g id="Grupo_1024215" data-name="Grupo 1024215" clip-path="url(#clip-path-28)">
          <path id="Trazado_721827" data-name="Trazado 721827" d="M61.524,39.568a4.11,4.11,0,0,0-.368-.406,3.7,3.7,0,0,0-5.579.406,11.779,11.779,0,0,0-1.917,3.31l-.384,1a17.421,17.421,0,0,0-.93,8.7,7.588,7.588,0,0,0,.621,2.1,7.061,7.061,0,0,0,.448.821c.061.094.124.189.245.359a5.834,5.834,0,0,0,1.827,1.645,6.14,6.14,0,0,0,6.089,0,6,6,0,0,0,2.078-2,7.468,7.468,0,0,0,1.074-2.914,21.724,21.724,0,0,0,.118-2.174,20.4,20.4,0,0,0-1.313-7.274l-.1-.256a11.838,11.838,0,0,0-1.909-3.317" transform="translate(-52.164 -38.079)" fill="#c45d28"/>
        </g>
      </g>
      <g id="Grupo_1024218" data-name="Grupo 1024218" transform="translate(59.106 40.736)">
        <g id="Grupo_1024217" data-name="Grupo 1024217" clip-path="url(#clip-path-29)">
          <path id="Trazado_721829" data-name="Trazado 721829" d="M64.016,44.193s.644,6.622-2.829,9.576a9.495,9.495,0,0,1-8.308,1.157,6.059,6.059,0,0,0,1.937,1.645,6.866,6.866,0,0,0,6.456,0,6.184,6.184,0,0,0,2.2-2,7.217,7.217,0,0,0,1.138-2.914,19.611,19.611,0,0,0-.6-7.47" transform="translate(-51.064 -34.016)" fill="#7f3a19"/>
        </g>
      </g>
      <g id="Grupo_1024220" data-name="Grupo 1024220" transform="translate(61.794 45.318)">
        <g id="Grupo_1024219" data-name="Grupo 1024219" clip-path="url(#clip-path-6)">
          <path id="Trazado_721831" data-name="Trazado 721831" d="M54.461,42.165a7.05,7.05,0,0,0-.7,4.308c.43,1.344,1.263,1.52,2.152.448a3.263,3.263,0,0,0,.635-1.66,7.417,7.417,0,0,1,1.409-3.449,2.629,2.629,0,0,0,.473-1.016c.222-1.2-.583-1.774-1.659-1.286a5.342,5.342,0,0,0-2.311,2.651" transform="translate(-53.63 -39.336)" fill="#c67243"/>
        </g>
      </g>
      <g id="Grupo_1024222" data-name="Grupo 1024222" transform="translate(0 0)">
        <g id="Grupo_1024221" data-name="Grupo 1024221" clip-path="url(#clip-path-3)">
          <path id="Trazado_721832" data-name="Trazado 721832" d="M45.9,42.373a.112.112,0,0,0,.109-.115A.1.1,0,0,0,46,42.217a5.193,5.193,0,0,0-2.869-2.705.113.113,0,0,0-.075.213A5.056,5.056,0,0,1,45.8,42.3a.115.115,0,0,0,.108.069" transform="translate(6.538 6.008)" fill="#d5d5d5"/>
        </g>
      </g>
      <g id="Grupo_1024224" data-name="Grupo 1024224" transform="translate(42.154 43.87)">
        <g id="Grupo_1024223" data-name="Grupo 1024223" clip-path="url(#clip-path-32)">
          <path id="Trazado_721833" data-name="Trazado 721833" d="M45.95,39.568a4.11,4.11,0,0,0-.368-.406A3.7,3.7,0,0,0,40,39.568a11.779,11.779,0,0,0-1.917,3.31l-.384,1a17.421,17.421,0,0,0-.93,8.7,7.588,7.588,0,0,0,.621,2.1,7.063,7.063,0,0,0,.448.821c.061.094.124.189.245.359a5.834,5.834,0,0,0,1.827,1.645,6.14,6.14,0,0,0,6.089,0,6,6,0,0,0,2.078-2,7.468,7.468,0,0,0,1.074-2.914,21.718,21.718,0,0,0,.118-2.174,20.4,20.4,0,0,0-1.313-7.274l-.1-.256a11.81,11.81,0,0,0-1.909-3.317" transform="translate(-36.591 -38.079)" fill="#c45d28"/>
        </g>
      </g>
      <g id="Grupo_1024226" data-name="Grupo 1024226" transform="translate(41.163 40.736)">
        <g id="Grupo_1024225" data-name="Grupo 1024225" clip-path="url(#clip-path-33)">
          <path id="Trazado_721835" data-name="Trazado 721835" d="M48.443,44.193s.644,6.622-2.829,9.576a9.495,9.495,0,0,1-8.308,1.157,6.059,6.059,0,0,0,1.937,1.645,6.866,6.866,0,0,0,6.456,0,6.184,6.184,0,0,0,2.2-2,7.218,7.218,0,0,0,1.138-2.914,19.612,19.612,0,0,0-.6-7.47" transform="translate(-35.49 -34.016)" fill="#7f3a19"/>
        </g>
      </g>
      <g id="Grupo_1024228" data-name="Grupo 1024228" transform="translate(43.852 45.318)">
        <g id="Grupo_1024227" data-name="Grupo 1024227" clip-path="url(#clip-path-6)">
          <path id="Trazado_721837" data-name="Trazado 721837" d="M38.888,42.165a7.043,7.043,0,0,0-.7,4.308c.43,1.344,1.263,1.52,2.152.448a3.263,3.263,0,0,0,.635-1.66,7.417,7.417,0,0,1,1.409-3.449,2.613,2.613,0,0,0,.473-1.016c.222-1.2-.583-1.774-1.659-1.286a5.342,5.342,0,0,0-2.311,2.651" transform="translate(-38.057 -39.336)" fill="#c67243"/>
        </g>
      </g>
      <g id="Grupo_1024230" data-name="Grupo 1024230" transform="translate(0 0)">
        <g id="Grupo_1024229" data-name="Grupo 1024229" clip-path="url(#clip-path-3)">
          <path id="Trazado_721838" data-name="Trazado 721838" d="M30.611,42.373a.111.111,0,0,0,.109-.115.1.1,0,0,0-.009-.041,5.193,5.193,0,0,0-2.869-2.705.113.113,0,0,0-.075.213A5.056,5.056,0,0,1,30.5,42.3a.115.115,0,0,0,.108.069" transform="translate(4.212 6.008)" fill="#d5d5d5"/>
        </g>
      </g>
      <g id="Grupo_1024232" data-name="Grupo 1024232" transform="translate(24.536 43.87)">
        <g id="Grupo_1024231" data-name="Grupo 1024231" clip-path="url(#clip-path-36)">
          <path id="Trazado_721839" data-name="Trazado 721839" d="M30.657,39.568a4.11,4.11,0,0,0-.368-.406,3.7,3.7,0,0,0-5.579.406,11.779,11.779,0,0,0-1.917,3.31l-.384,1a17.421,17.421,0,0,0-.93,8.7,7.588,7.588,0,0,0,.621,2.1,7.061,7.061,0,0,0,.448.821c.061.094.124.189.245.359a5.834,5.834,0,0,0,1.827,1.645,6.14,6.14,0,0,0,6.089,0,6,6,0,0,0,2.078-2,7.468,7.468,0,0,0,1.074-2.914,21.718,21.718,0,0,0,.118-2.174,20.4,20.4,0,0,0-1.313-7.274l-.1-.256a11.838,11.838,0,0,0-1.909-3.317" transform="translate(-21.298 -38.079)" fill="#c45d28"/>
        </g>
      </g>
      <g id="Grupo_1024234" data-name="Grupo 1024234" transform="translate(23.545 40.736)">
        <g id="Grupo_1024233" data-name="Grupo 1024233" clip-path="url(#clip-path-37)">
          <path id="Trazado_721841" data-name="Trazado 721841" d="M33.15,44.193s.644,6.622-2.829,9.576a9.495,9.495,0,0,1-8.308,1.157,6.059,6.059,0,0,0,1.937,1.645,6.866,6.866,0,0,0,6.456,0,6.184,6.184,0,0,0,2.2-2,7.218,7.218,0,0,0,1.138-2.914,19.612,19.612,0,0,0-.6-7.47" transform="translate(-20.197 -34.016)" fill="#7f3a19"/>
        </g>
      </g>
      <g id="Grupo_1024236" data-name="Grupo 1024236" transform="translate(26.234 45.318)">
        <g id="Grupo_1024235" data-name="Grupo 1024235" clip-path="url(#clip-path-6)">
          <path id="Trazado_721843" data-name="Trazado 721843" d="M23.595,42.165a7.05,7.05,0,0,0-.7,4.308c.43,1.344,1.263,1.52,2.152.448a3.263,3.263,0,0,0,.635-1.66,7.417,7.417,0,0,1,1.409-3.449,2.629,2.629,0,0,0,.474-1.016c.222-1.2-.583-1.774-1.659-1.286A5.342,5.342,0,0,0,23.6,42.161" transform="translate(-22.764 -39.336)" fill="#c67243"/>
        </g>
      </g>
      <g id="Grupo_1024238" data-name="Grupo 1024238" transform="translate(0 0)">
        <g id="Grupo_1024237" data-name="Grupo 1024237" clip-path="url(#clip-path-3)">
          <path id="Trazado_721844" data-name="Trazado 721844" d="M14.745,42.373a.112.112,0,0,0,.109-.115.1.1,0,0,0-.009-.041,5.193,5.193,0,0,0-2.869-2.705.113.113,0,0,0-.075.213A5.056,5.056,0,0,1,14.637,42.3a.115.115,0,0,0,.108.069" transform="translate(1.8 6.008)" fill="#d5d5d5"/>
        </g>
      </g>
      <g id="Grupo_1024240" data-name="Grupo 1024240" transform="translate(6.258 43.87)">
        <g id="Grupo_1024239" data-name="Grupo 1024239" clip-path="url(#clip-path-40)">
          <path id="Trazado_721845" data-name="Trazado 721845" d="M14.792,39.568a4.109,4.109,0,0,0-.368-.406,3.7,3.7,0,0,0-5.579.406,11.779,11.779,0,0,0-1.917,3.31l-.384,1a17.421,17.421,0,0,0-.93,8.7,7.588,7.588,0,0,0,.621,2.1,7.061,7.061,0,0,0,.448.821c.061.094.124.189.245.359a5.834,5.834,0,0,0,1.827,1.645,6.14,6.14,0,0,0,6.089,0,6,6,0,0,0,2.078-2A7.468,7.468,0,0,0,18,52.589a21.72,21.72,0,0,0,.118-2.174,20.819,20.819,0,0,0-.68-5.295,20.72,20.72,0,0,0-.634-1.979l-.1-.256a11.838,11.838,0,0,0-1.909-3.317" transform="translate(-5.433 -38.079)" fill="#c45d28"/>
        </g>
      </g>
      <g id="Grupo_1024242" data-name="Grupo 1024242" transform="translate(5.267 40.736)">
        <g id="Grupo_1024241" data-name="Grupo 1024241" clip-path="url(#clip-path-41)">
          <path id="Trazado_721847" data-name="Trazado 721847" d="M17.284,44.193s.644,6.622-2.829,9.576a9.495,9.495,0,0,1-8.308,1.157,6.059,6.059,0,0,0,1.937,1.645,6.866,6.866,0,0,0,6.456,0,6.184,6.184,0,0,0,2.2-2,7.218,7.218,0,0,0,1.138-2.914,19.612,19.612,0,0,0-.6-7.47" transform="translate(-4.332 -34.016)" fill="#7f3a19"/>
        </g>
      </g>
      <g id="Grupo_1024244" data-name="Grupo 1024244" transform="translate(7.955 45.318)">
        <g id="Grupo_1024243" data-name="Grupo 1024243" clip-path="url(#clip-path-6)">
          <path id="Trazado_721849" data-name="Trazado 721849" d="M7.729,42.165a7.05,7.05,0,0,0-.7,4.308c.43,1.344,1.263,1.52,2.152.448a3.263,3.263,0,0,0,.635-1.66,7.417,7.417,0,0,1,1.409-3.449A2.629,2.629,0,0,0,11.7,40.8c.222-1.2-.583-1.774-1.659-1.286a5.342,5.342,0,0,0-2.311,2.651" transform="translate(-6.898 -39.336)" fill="#c67243"/>
        </g>
      </g>
      <g id="Grupo_1024246" data-name="Grupo 1024246" transform="translate(0 0)">
        <g id="Grupo_1024245" data-name="Grupo 1024245" clip-path="url(#clip-path-3)">
          <path id="Trazado_721850" data-name="Trazado 721850" d="M60.654,41.732h9.973l-3.34-11.455a1.175,1.175,0,0,0-1.088-.9H65.08a1.176,1.176,0,0,0-1.088.9Z" transform="translate(9.224 4.468)" fill="#ce9f7e"/>
          <path id="Trazado_721851" data-name="Trazado 721851" d="M45.463,41.732h9.973L52.1,30.277a1.175,1.175,0,0,0-1.088-.9h-1.12a1.176,1.176,0,0,0-1.088.9Z" transform="translate(6.914 4.468)" fill="#ce9f7e"/>
          <path id="Trazado_721852" data-name="Trazado 721852" d="M29.486,41.732h9.973L36.12,30.277a1.175,1.175,0,0,0-1.088-.9h-1.12a1.176,1.176,0,0,0-1.088.9Z" transform="translate(4.484 4.468)" fill="#ce9f7e"/>
          <path id="Trazado_721853" data-name="Trazado 721853" d="M14.41,41.732h9.973l-3.34-11.455a1.175,1.175,0,0,0-1.088-.9h-1.12a1.176,1.176,0,0,0-1.088.9Z" transform="translate(2.191 4.468)" fill="#ce9f7e"/>
          <path id="Trazado_721854" data-name="Trazado 721854" d="M67.674,32.915a.1.1,0,0,0,.04-.008.109.109,0,0,0,.062-.141,6.719,6.719,0,0,1-.281-1.122,3.04,3.04,0,0,0-1.076-2.2,2.267,2.267,0,0,0-2.581.273,3.929,3.929,0,0,0-.752,1.826c-.053.245-.108.5-.183.742a.11.11,0,0,0,.209.066c.079-.253.136-.51.189-.76a3.719,3.719,0,0,1,.7-1.726,2.041,2.041,0,0,1,2.312-.229,2.888,2.888,0,0,1,.972,2.051,7.01,7.01,0,0,0,.291,1.158.11.11,0,0,0,.1.07" transform="translate(9.565 4.435)" fill="#281914"/>
          <path id="Trazado_721855" data-name="Trazado 721855" d="M47.8,32.583a.109.109,0,0,0,.1-.068,6.134,6.134,0,0,0,.285-1.029c.177-.823.344-1.6,1.1-1.847a1.74,1.74,0,0,1,2.316.594,5.984,5.984,0,0,1,.615,1.944l.038.195a.111.111,0,0,0,.129.085.109.109,0,0,0,.085-.128l-.038-.19a6.194,6.194,0,0,0-.641-2.012,1.96,1.96,0,0,0-2.582-.689c-.861.287-1.05,1.167-1.233,2.009a6.031,6.031,0,0,1-.272.993.109.109,0,0,0,.061.143.124.124,0,0,0,.036.008Z" transform="translate(7.251 4.442)" fill="#281914"/>
          <path id="Trazado_721856" data-name="Trazado 721856" d="M36.575,33.142a.114.114,0,0,0,.035-.006A.11.11,0,0,0,36.679,33a10.125,10.125,0,0,1-.291-1.194,5.877,5.877,0,0,0-.576-1.8L35.806,30a2.132,2.132,0,0,0-2.847-.546l-.015.01a3.953,3.953,0,0,0-1.058,2.2c-.053.21-.108.427-.168.632a.11.11,0,1,0,.205.078l0-.016c.062-.209.118-.429.171-.641a3.83,3.83,0,0,1,.978-2.079,1.915,1.915,0,0,1,2.548.486,5.716,5.716,0,0,1,.548,1.729,10.3,10.3,0,0,0,.3,1.219.108.108,0,0,0,.1.074" transform="translate(4.822 4.43)" fill="#281914"/>
          <path id="Trazado_721857" data-name="Trazado 721857" d="M16.648,33.048a.107.107,0,0,0,.1-.066,6.424,6.424,0,0,0,.356-1.348c.173-.9.334-1.75,1.131-1.993A2.251,2.251,0,0,1,20.2,29.63,2.638,2.638,0,0,1,21.15,31.8c.028.245.056.5.1.741a.11.11,0,0,0,.128.086.108.108,0,0,0,.086-.128c-.044-.232-.071-.471-.1-.725a2.794,2.794,0,0,0-1.05-2.333,2.393,2.393,0,0,0-2.158-.009c-.916.274-1.1,1.233-1.274,2.159a6.254,6.254,0,0,1-.342,1.3.109.109,0,0,0,.056.144h0a.1.1,0,0,0,.044.014" transform="translate(2.515 4.437)" fill="#281914"/>
          <path id="Trazado_721858" data-name="Trazado 721858" d="M40.819,58.332H44.89a4.233,4.233,0,0,0,4.035-2.949l2.214-6.96H34.8l1.954,6.839a4.235,4.235,0,0,0,4.069,3.07" transform="translate(5.291 7.364)" fill="#ce9f7e"/>
          <path id="Trazado_721859" data-name="Trazado 721859" d="M25.515,58.388h4.071a4.233,4.233,0,0,0,4.033-2.95l2.214-6.96H19.491l1.954,6.84a4.235,4.235,0,0,0,4.07,3.07" transform="translate(2.964 7.372)" fill="#ce9f7e"/>
          <path id="Trazado_721860" data-name="Trazado 721860" d="M10.324,58.388H14.4a4.233,4.233,0,0,0,4.033-2.95l2.214-6.96H4.3l1.954,6.84a4.235,4.235,0,0,0,4.07,3.07" transform="translate(0.654 7.372)" fill="#ce9f7e"/>
          <path id="Trazado_721861" data-name="Trazado 721861" d="M46.629,40.207a.109.109,0,0,0,.088-.175c-1.374-1.812-3.735-3.305-6.237-2.053a6.763,6.763,0,0,0-1.594,1.136.109.109,0,1,0,.15.159,6.519,6.519,0,0,1,1.543-1.1c2.384-1.19,4.644.248,5.967,1.99a.109.109,0,0,0,.085.043" transform="translate(5.908 5.705)" fill="#281914"/>
          <path id="Trazado_721862" data-name="Trazado 721862" d="M31.1,40.2a.108.108,0,0,0,.109-.108.1.1,0,0,0-.022-.067c-1.374-1.812-3.735-3.305-6.237-2.054a6.741,6.741,0,0,0-1.6,1.137.11.11,0,0,0,.15.159,6.519,6.519,0,0,1,1.543-1.1c2.384-1.19,4.644.248,5.967,1.99a.111.111,0,0,0,.086.043" transform="translate(3.548 5.705)" fill="#281914"/>
          <path id="Trazado_721863" data-name="Trazado 721863" d="M16.023,40.207a.109.109,0,0,0,.086-.175c-1.374-1.812-3.735-3.3-6.237-2.053a6.769,6.769,0,0,0-1.6,1.136.109.109,0,0,0,.15.159,6.552,6.552,0,0,1,1.543-1.1c2.385-1.19,4.644.248,5.967,1.99a.108.108,0,0,0,.088.043" transform="translate(1.253 5.706)" fill="#281914"/>
          <path id="Trazado_721864" data-name="Trazado 721864" d="M76.787,40.2a.108.108,0,0,0,.109-.108.1.1,0,0,0-.022-.067c-1.374-1.812-3.735-3.305-6.237-2.053a6.7,6.7,0,0,0-1.6,1.136.11.11,0,0,0,.15.159,6.519,6.519,0,0,1,1.543-1.1c2.384-1.19,4.644.248,5.967,1.99a.111.111,0,0,0,.086.043" transform="translate(10.495 5.705)" fill="#281914"/>
          <path id="Trazado_721865" data-name="Trazado 721865" d="M71.2,58.332h4.071a4.232,4.232,0,0,0,4.033-2.949l2.214-6.96H65.178l1.953,6.839a4.234,4.234,0,0,0,4.071,3.07" transform="translate(9.912 7.364)" fill="#ce9f7e"/>
          <path id="Trazado_721866" data-name="Trazado 721866" d="M56.011,58.388h4.071a4.234,4.234,0,0,0,4.035-2.95l2.214-6.96H49.987l1.954,6.84a4.235,4.235,0,0,0,4.07,3.07" transform="translate(7.601 7.372)" fill="#ce9f7e"/>
          <path id="Trazado_721867" data-name="Trazado 721867" d="M61.6,40.207a.109.109,0,0,0,.088-.175c-1.376-1.812-3.735-3.305-6.237-2.053a6.736,6.736,0,0,0-1.6,1.136.11.11,0,0,0,.151.159,6.519,6.519,0,0,1,1.543-1.1c2.384-1.19,4.644.248,5.967,1.99a.107.107,0,0,0,.085.043" transform="translate(8.185 5.705)" fill="#281914"/>
          <rect id="Rectángulo_357249" data-name="Rectángulo 357249" width="91.24" height="2.188" transform="translate(2.445 53.663)" fill="#ce9f7e"/>
        </g>
      </g>
    </g>
  </g>
</svg>
