<svg xmlns="http://www.w3.org/2000/svg" xmlns:xlink="http://www.w3.org/1999/xlink" width="164.252" height="137.399" viewBox="0 0 164.252 137.399">
  <defs>
    <clipPath id="clip-path">
      <rect id="Rectángulo_340891" data-name="Rectángulo 340891" width="73.359" height="100.789" fill="none"/>
    </clipPath>
  </defs>
  <g id="Grupo_1031886" data-name="Grupo 1031886" transform="translate(-223.748 -6354.301)">
    <path id="Trazado_700357" data-name="Trazado 700357" d="M194.995,66.348A59.909,59.909,0,1,1,135.086,6.439a59.91,59.91,0,0,1,59.909,59.909" transform="translate(180.865 6355.967)" fill="#b20d0d"/>
    <path id="Trazado_700437" data-name="Trazado 700437" d="M71.272,56.681a5.606,5.606,0,1,1,5.606-5.606,5.613,5.613,0,0,1-5.606,5.606m0-8.319a2.713,2.713,0,1,0,2.713,2.713,2.716,2.716,0,0,0-2.713-2.713" transform="translate(191.764 6308.833)" fill="#303030"/>
    <path id="Trazado_700438" data-name="Trazado 700438" d="M33.413,249.911a5,5,0,1,1,5-5,5,5,0,0,1-5,5m0-7.1a2.1,2.1,0,1,0,2.1,2.1,2.106,2.106,0,0,0-2.1-2.1" transform="translate(220.571 6241.788)" fill="#303030"/>
    <path id="Trazado_700439" data-name="Trazado 700439" d="M223.435,238.859a5,5,0,1,1,5-5,5,5,0,0,1-5,5m0-7.1a2.1,2.1,0,1,0,2.1,2.1,2.106,2.106,0,0,0-2.1-2.1" transform="translate(146.009 6235.422)" fill="#303030"/>
    <path id="Trazado_700440" data-name="Trazado 700440" d="M25.384,132.052a2.343,2.343,0,1,1-2.343-2.343,2.343,2.343,0,0,1,2.343,2.343" transform="translate(203.051 6287.69)" fill="#303030"/>
    <path id="Trazado_700441" data-name="Trazado 700441" d="M206.972,75.645a2.343,2.343,0,1,1-2.343-2.343,2.343,2.343,0,0,1,2.343,2.343" transform="translate(157.476 6301.847)" fill="#303030"/>
    <g id="Grupo_976771" data-name="Grupo 976771" transform="translate(242.169 6365.537)">
      <g id="Grupo_976770" data-name="Grupo 976770" transform="translate(93.958 2.991) rotate(45)">
        <g id="Grupo_976768" data-name="Grupo 976768" clip-path="url(#clip-path)">
          <path id="Trazado_706597" data-name="Trazado 706597" d="M.03,58.717A57.419,57.419,0,0,1,1.542,45.211,89.435,89.435,0,0,1,7.721,26.594a67.3,67.3,0,0,1,10.3-16.336,33.767,33.767,0,0,1,8.8-7.5A20.145,20.145,0,0,1,36.061.012a18.615,18.615,0,0,1,7.721,1.476,28.071,28.071,0,0,1,9.409,6.57A60.067,60.067,0,0,1,63.406,22.273a88.571,88.571,0,0,1,8.341,22.873A59.247,59.247,0,0,1,73.261,61.7a45.8,45.8,0,0,1-5.3,18.885A39.3,39.3,0,0,1,54.034,95.728,32.575,32.575,0,0,1,40.822,100.5c-9.056,1.164-17.156-1.281-24.377-6.727A40.615,40.615,0,0,1,2.882,75.135,48.068,48.068,0,0,1,.043,62.013c-.089-1.092-.013-2.2-.013-3.3M37.862,98.452a27.134,27.134,0,0,0,7.111-1.119A34.677,34.677,0,0,0,62.657,84.651,43.306,43.306,0,0,0,71,59.482a62.057,62.057,0,0,0-1.137-12.226,80,80,0,0,0-3.875-13.848A69.554,69.554,0,0,0,54.469,12.874a37.608,37.608,0,0,0-8.137-7.523,18.792,18.792,0,0,0-8.657-2.974A15.449,15.449,0,0,0,30.19,3.7,26.655,26.655,0,0,0,22.85,8.5a47.292,47.292,0,0,0-8.917,11.077,82.866,82.866,0,0,0-4.841,9.391,79.392,79.392,0,0,0-5.4,16.917,67.105,67.105,0,0,0-1.385,11.7,48.523,48.523,0,0,0,.463,7.7A42.292,42.292,0,0,0,5.726,76.014a39.587,39.587,0,0,0,7.44,11.678,35.01,35.01,0,0,0,10.608,7.861,30.893,30.893,0,0,0,14.088,2.9" transform="translate(0 0)" fill="#161615"/>
          <path id="Trazado_706598" data-name="Trazado 706598" d="M35.562,96.136a30.9,30.9,0,0,1-14.088-2.9,34.988,34.988,0,0,1-10.608-7.861A39.564,39.564,0,0,1,3.426,73.7,42.264,42.264,0,0,1,.473,62.97a48.526,48.526,0,0,1-.463-7.7,67.105,67.105,0,0,1,1.385-11.7,79.4,79.4,0,0,1,5.4-16.917,82.922,82.922,0,0,1,4.841-9.391A47.294,47.294,0,0,1,20.55,6.182a26.655,26.655,0,0,1,7.339-4.8A15.448,15.448,0,0,1,35.375.06a18.8,18.8,0,0,1,8.657,2.975,37.606,37.606,0,0,1,8.137,7.523A69.559,69.559,0,0,1,63.687,31.091a79.949,79.949,0,0,1,3.875,13.848A62.058,62.058,0,0,1,68.7,57.166a43.31,43.31,0,0,1-8.342,25.169A34.679,34.679,0,0,1,42.673,95.017a27.137,27.137,0,0,1-7.111,1.119m-2.795-4.87c.557,0,1.118.042,1.669-.011a1.031,1.031,0,0,0,1-1.078,1.174,1.174,0,0,0-1.049-1.12c-.374-.042-.751-.073-1.126-.1A26.377,26.377,0,0,1,25.485,87.4a29.557,29.557,0,0,1-12.966-9.747,33.813,33.813,0,0,1-5.374-10.17A36.433,36.433,0,0,1,5.2,57.032a16.08,16.08,0,0,0-.194-2,.968.968,0,0,0-1.092-.844,1.124,1.124,0,0,0-1.09,1.208,33.761,33.761,0,0,0,.475,6.07,39.745,39.745,0,0,0,7.649,18A30.531,30.531,0,0,0,21.98,88.384a26.79,26.79,0,0,0,10.788,2.881" transform="translate(2.3 2.316)" fill="#c2763c"/>
          <path id="Trazado_706599" data-name="Trazado 706599" d="M29.953,37.082A26.79,26.79,0,0,1,19.165,34.2,30.531,30.531,0,0,1,8.132,25.28a39.745,39.745,0,0,1-7.649-18,33.76,33.76,0,0,1-.475-6.07A1.124,1.124,0,0,1,1.1,0,.968.968,0,0,1,2.19.845a16.08,16.08,0,0,1,.194,2A36.433,36.433,0,0,0,4.33,13.3,33.814,33.814,0,0,0,9.7,23.469,29.557,29.557,0,0,0,22.67,33.216a26.376,26.376,0,0,0,7.772,1.562c.376.023.752.054,1.126.1a1.174,1.174,0,0,1,1.049,1.12,1.031,1.031,0,0,1-1,1.078c-.552.053-1.113.011-1.669.011" transform="translate(5.115 56.5)" fill="#161615"/>
        </g>
      </g>
      <g id="Grupo_976769" data-name="Grupo 976769" transform="translate(0 16.502) rotate(-13)">
        <g id="Grupo_976768-2" data-name="Grupo 976768" clip-path="url(#clip-path)">
          <path id="Trazado_706597-2" data-name="Trazado 706597" d="M.03,58.717A57.419,57.419,0,0,1,1.542,45.211,89.435,89.435,0,0,1,7.721,26.594a67.3,67.3,0,0,1,10.3-16.336,33.767,33.767,0,0,1,8.8-7.5A20.145,20.145,0,0,1,36.061.012a18.615,18.615,0,0,1,7.721,1.476,28.071,28.071,0,0,1,9.409,6.57A60.067,60.067,0,0,1,63.406,22.273a88.571,88.571,0,0,1,8.341,22.873A59.247,59.247,0,0,1,73.261,61.7a45.8,45.8,0,0,1-5.3,18.885A39.3,39.3,0,0,1,54.034,95.728,32.575,32.575,0,0,1,40.822,100.5c-9.056,1.164-17.156-1.281-24.377-6.727A40.615,40.615,0,0,1,2.882,75.135,48.068,48.068,0,0,1,.043,62.013c-.089-1.092-.013-2.2-.013-3.3M37.862,98.452a27.133,27.133,0,0,0,7.111-1.119A34.677,34.677,0,0,0,62.657,84.651,43.306,43.306,0,0,0,71,59.482a62.058,62.058,0,0,0-1.137-12.226,80,80,0,0,0-3.875-13.848A69.554,69.554,0,0,0,54.469,12.874a37.608,37.608,0,0,0-8.137-7.523,18.792,18.792,0,0,0-8.657-2.974A15.449,15.449,0,0,0,30.19,3.7,26.655,26.655,0,0,0,22.85,8.5a47.292,47.292,0,0,0-8.917,11.077,82.866,82.866,0,0,0-4.841,9.391,79.392,79.392,0,0,0-5.4,16.917,67.105,67.105,0,0,0-1.385,11.7,48.523,48.523,0,0,0,.463,7.7A42.292,42.292,0,0,0,5.726,76.014a39.587,39.587,0,0,0,7.44,11.678,35.01,35.01,0,0,0,10.608,7.861,30.893,30.893,0,0,0,14.088,2.9" transform="translate(0 0)" fill="#161615"/>
          <path id="Trazado_706598-2" data-name="Trazado 706598" d="M35.562,96.136a30.9,30.9,0,0,1-14.088-2.9,34.988,34.988,0,0,1-10.608-7.861A39.564,39.564,0,0,1,3.426,73.7,42.264,42.264,0,0,1,.473,62.97a48.526,48.526,0,0,1-.463-7.7,67.105,67.105,0,0,1,1.385-11.7,79.4,79.4,0,0,1,5.4-16.917,82.923,82.923,0,0,1,4.841-9.391A47.294,47.294,0,0,1,20.55,6.182a26.655,26.655,0,0,1,7.339-4.8A15.448,15.448,0,0,1,35.375.06a18.8,18.8,0,0,1,8.657,2.975,37.606,37.606,0,0,1,8.137,7.523A69.559,69.559,0,0,1,63.687,31.091a79.951,79.951,0,0,1,3.875,13.848A62.058,62.058,0,0,1,68.7,57.166a43.31,43.31,0,0,1-8.342,25.169A34.679,34.679,0,0,1,42.673,95.017a27.137,27.137,0,0,1-7.111,1.119m-2.795-4.87c.557,0,1.118.042,1.669-.011a1.031,1.031,0,0,0,1-1.078,1.174,1.174,0,0,0-1.049-1.12c-.374-.042-.75-.073-1.126-.1A26.376,26.376,0,0,1,25.485,87.4a29.557,29.557,0,0,1-12.966-9.747,33.813,33.813,0,0,1-5.374-10.17A36.433,36.433,0,0,1,5.2,57.032a16.08,16.08,0,0,0-.194-2,.968.968,0,0,0-1.092-.844,1.124,1.124,0,0,0-1.09,1.208,33.761,33.761,0,0,0,.475,6.07,39.745,39.745,0,0,0,7.649,18A30.531,30.531,0,0,0,21.98,88.384a26.79,26.79,0,0,0,10.788,2.881" transform="translate(2.3 2.316)" fill="#fff"/>
          <path id="Trazado_706599-2" data-name="Trazado 706599" d="M29.953,37.082A26.79,26.79,0,0,1,19.165,34.2,30.531,30.531,0,0,1,8.132,25.28a39.745,39.745,0,0,1-7.649-18,33.76,33.76,0,0,1-.475-6.07A1.124,1.124,0,0,1,1.1,0,.967.967,0,0,1,2.19.845a16.079,16.079,0,0,1,.194,2A36.433,36.433,0,0,0,4.33,13.3,33.814,33.814,0,0,0,9.7,23.469,29.557,29.557,0,0,0,22.67,33.216a26.376,26.376,0,0,0,7.772,1.562c.376.023.752.054,1.126.1a1.174,1.174,0,0,1,1.049,1.12,1.031,1.031,0,0,1-1,1.078c-.552.053-1.113.011-1.669.011" transform="translate(5.115 56.5)" fill="#161615"/>
        </g>
      </g>
    </g>
  </g>
</svg>
