<svg xmlns="http://www.w3.org/2000/svg" xmlns:xlink="http://www.w3.org/1999/xlink" width="217.249" height="236.116" viewBox="0 0 217.249 236.116">
  <defs>
    <clipPath id="clip-path">
      <rect id="Rectángulo_344983" data-name="Rectángulo 344983" width="114.04" height="183.415" fill="none"/>
    </clipPath>
    <clipPath id="clip-path-2">
      <rect id="Rectángulo_344984" data-name="Rectángulo 344984" width="30.272" height="38.392" fill="none"/>
    </clipPath>
    <clipPath id="clip-path-3">
      <rect id="Rectángulo_345044" data-name="Rectángulo 345044" width="84.325" height="78.471"/>
    </clipPath>
  </defs>
  <g id="Grupo_1028317" data-name="Grupo 1028317" transform="translate(5008.839 10679)">
    <g id="Grupo_1031780" data-name="Grupo 1031780">
      <path id="Unión_31" data-name="Unión 31" d="M-919.2,235.734c-23.861-7.652-23.861-20.052,0-27.7,11.77-3.772,27.141-5.684,42.565-5.736h1.3c15.423.052,30.794,1.964,42.565,5.736,8.132,2.607,13.493,5.766,16.084,9.1q2.312-.014,4.629-.014c15.64,0,31.281.465,43.215,1.4,23.868,1.862,23.868,4.879,0,6.741-11.934.931-27.575,1.4-43.215,1.4q-2.317,0-4.629-.014c-2.591,3.334-7.952,6.492-16.084,9.1-11.934,3.824-27.575,5.737-43.215,5.737S-907.268,239.558-919.2,235.734Z" transform="translate(-4054.929 -10684.854)" fill="#bba86c" stroke="rgba(0,0,0,0)" stroke-miterlimit="10" stroke-width="1"/>
      <path id="Trazado_727218" data-name="Trazado 727218" d="M198.769,192.3c0,55.43-34.888,81.778-77.926,81.778S42.916,247.731,42.916,192.3,77.8,71.257,120.842,71.257s77.926,65.614,77.926,121.044" transform="translate(-5051.755 -10725.054)" fill="#dea26a"/>
      <g id="Grupo_1028311" data-name="Grupo 1028311" transform="translate(-4967.028 -10634.382)" opacity="0.1">
        <g id="Grupo_1028211" data-name="Grupo 1028211">
          <g id="Grupo_1028210" data-name="Grupo 1028210" clip-path="url(#clip-path)">
            <path id="Trazado_727054" data-name="Trazado 727054" d="M161.791,175.136c0,55.43-34.888,81.778-77.926,81.778-13.031,0-25.378-2.388-36.116-7.32,0,0,54.668,17.418,82.824-49.061,30.8-72.787-7.026-127.032-7.026-127.032,22.9,23.622,38.245,64.879,38.245,101.636" transform="translate(-47.747 -73.504)"/>
          </g>
        </g>
      </g>
      <g id="Grupo_1028312" data-name="Grupo 1028312" transform="translate(-4978.643 -10629.162)" opacity="0.5">
        <g id="Grupo_1028214" data-name="Grupo 1028214">
          <g id="Grupo_1028213" data-name="Grupo 1028213" clip-path="url(#clip-path-2)">
            <path id="Trazado_727055" data-name="Trazado 727055" d="M72.222,99.613c-5.927,10.011-15.514,15.3-21.407,11.8s-5.875-14.433.052-24.444c5.927-9.994,15.514-15.281,21.407-11.794,5.9,3.5,5.867,14.442-.052,24.436" transform="translate(-46.409 -74.107)" fill="#fff"/>
          </g>
        </g>
      </g>
    </g>
    <g id="Grupo_1028315" data-name="Grupo 1028315" transform="translate(-4948.329 -10679)">
      <path id="Polígono_165" data-name="Polígono 165" d="M63.569,26.191a17,17,0,0,1,29.6,0l49.236,87.13a17,17,0,0,1-14.8,25.364H29.133a17,17,0,0,1-14.8-25.364Z" transform="translate(0)" fill="#ffc403"/>
      <g id="Grupo_1028314" data-name="Grupo 1028314" transform="translate(36.207 49.696)">
        <g id="Grupo_1028313" data-name="Grupo 1028313" clip-path="url(#clip-path-3)">
          <path id="Trazado_727219" data-name="Trazado 727219" d="M42.217,71.708c.814.669,1.623,1.405,2.5,2.043a23.34,23.34,0,0,0,4.607,2.576,25.221,25.221,0,0,0,26.145-3.673,13.805,13.805,0,0,0,1.65-1.58,1.849,1.849,0,0,0-1.142-3.057,1.974,1.974,0,0,0-1.465.429,24.078,24.078,0,0,1-2.793,1.78,16.157,16.157,0,0,1-23.168-13.3A13.987,13.987,0,0,1,52.13,46.292a15.061,15.061,0,0,1,14.34-5.109,15.394,15.394,0,0,1,9.586,5.355,14.731,14.731,0,0,1,3.825,10.122c-.015.955-.076,1.911-.146,2.865a1.868,1.868,0,0,0,1.746,2.089,1.925,1.925,0,0,0,1.995-1.59,23.2,23.2,0,0,0,.688-8.849A25.546,25.546,0,0,0,71.8,32.024a21.857,21.857,0,0,0-4.948-2.187c-.213-.062-.4-.106-.334-.411.11-.54.194-1.087.277-1.632a23.889,23.889,0,0,0-1.075-11.457A24.835,24.835,0,0,0,53.611,2.048,21.569,21.569,0,0,0,48.485.061a1.776,1.776,0,0,0-1.834.568A1.8,1.8,0,0,0,46.233,2.5a2.3,2.3,0,0,0,1.46,1.291,15.557,15.557,0,0,1,8.782,9.135A15.909,15.909,0,0,1,55.425,26.52a15.133,15.133,0,0,1-16.4,7.579A14.546,14.546,0,0,1,31.7,30.151a15.188,15.188,0,0,1-4.253-7.118,15.753,15.753,0,0,1,1.859-13.04,15.269,15.269,0,0,1,7.339-6.211,3.537,3.537,0,0,0,.86-.473,1.639,1.639,0,0,0,.654-1.7A1.943,1.943,0,0,0,35.438.159,24.614,24.614,0,0,0,20.18,12.643a24.3,24.3,0,0,0-2.418,16.521c.09.463-.011.623-.437.758a25.034,25.034,0,0,0-6.308,3.07,25.419,25.419,0,0,0-8.3,9.5A24.281,24.281,0,0,0,.148,51.114,22.589,22.589,0,0,0,.343,57.6c.14.824.313,1.644.521,2.453a1.926,1.926,0,0,0,1.747,1.558,1.917,1.917,0,0,0,1.974-2.38,15.116,15.116,0,0,1,.1-5.4A15.528,15.528,0,0,1,13.2,42.745a15.269,15.269,0,0,1,13.432-.51A15,15,0,0,1,33.683,63.8a15.8,15.8,0,0,1-12.141,7.969,15.223,15.223,0,0,1-9.8-1.991c-.668-.394-1.286-.872-1.925-1.315a1.9,1.9,0,0,0-1.505-.435,1.8,1.8,0,0,0-1.449,1.257,1.682,1.682,0,0,0,.422,1.863c.988.911,1.992,1.812,3.052,2.638a23.341,23.341,0,0,0,8.406,3.9,23.071,23.071,0,0,0,9.961.453,25.406,25.406,0,0,0,10.178-3.892c1.147-.774,2.211-1.673,3.333-2.53m.013-52.62A24.149,24.149,0,0,0,31.418,21.6c-.285.14-.271.309-.193.538a12.928,12.928,0,0,0,3.767,5.787.542.542,0,0,0,.642.117,16.382,16.382,0,0,1,7.488-1.266,16.234,16.234,0,0,1,5.488,1.2.649.649,0,0,0,.8-.107,12.073,12.073,0,0,0,3.7-5.664c.112-.355.023-.521-.314-.682A24.39,24.39,0,0,0,42.23,19.089M28.093,64.6a11.366,11.366,0,0,0,3.637-6.584.665.665,0,0,0-.224-.477,17.484,17.484,0,0,1-6.5-11.5.7.7,0,0,0-.374-.473,12.052,12.052,0,0,0-6.886-.4.414.414,0,0,0-.375.534c.071.609.114,1.221.206,1.827a24.7,24.7,0,0,0,7.649,14.615c.921.87,1.921,1.656,2.866,2.465M67.011,45.232c-.274-.051-.449-.08-.622-.116a12.193,12.193,0,0,0-6.373.331.959.959,0,0,0-.759.857,21.171,21.171,0,0,1-.561,2.529A17.145,17.145,0,0,1,52.8,57.574a.7.7,0,0,0-.179.566,11.307,11.307,0,0,0,2.931,5.8c.568.6.563.627,1.213.142a25.068,25.068,0,0,0,7.644-9.012,25.7,25.7,0,0,0,2.357-7.584c.113-.746.164-1.5.242-2.25" transform="translate(0 0)"/>
        </g>
      </g>
    </g>
  </g>
</svg>
