<svg id="Grupo_1028337" data-name="Grupo 1028337" xmlns="http://www.w3.org/2000/svg" xmlns:xlink="http://www.w3.org/1999/xlink" width="120.995" height="77.33" viewBox="0 0 120.995 77.33">
  <defs>
    <clipPath id="clip-path">
      <rect id="Rectángulo_349842" data-name="Rectángulo 349842" width="120.995" height="77.33" fill="none"/>
    </clipPath>
  </defs>
  <g id="Grupo_1028336" data-name="Grupo 1028336" transform="translate(0)" clip-path="url(#clip-path)">
    <path id="Trazado_727324" data-name="Trazado 727324" d="M103.263,13.8c-.228-1.078-.7-1.571-1.646-1.667-.314-.032-.629-.05-.943-.05-9-.006-18,.01-26.993-.036a18.779,18.779,0,0,1-4.083-.665,21.191,21.191,0,0,1-5.117-2.049,23.58,23.58,0,0,1-4.814-3.422A56.386,56.386,0,0,1,55.754,1.8a5.4,5.4,0,0,0-2.5-1.591,5.094,5.094,0,0,0-4.672.936,4.924,4.924,0,0,0-1.87,3.507c-.009.078-.018.157-.026.236,0,6.909.01,13.818-.013,20.727A16.034,16.034,0,0,0,48.2,32.595a11.158,11.158,0,0,0,2.371,3.295,14.315,14.315,0,0,0,2.237,1.835.3.3,0,0,1,.139.45,10.11,10.11,0,0,0-.857,4.27c-.031,5.981-.02,11.963,0,17.944,0,.455-.076.61-.537.581-.727-.045-1.458-.022-2.186,0a1.1,1.1,0,0,1-.821-.362c-1.9-1.728-3.54-3.729-5.378-5.522-.541-.528-.957-1.185-1.5-1.723a7.47,7.47,0,0,0-4.481-2.206,19.075,19.075,0,0,0-2.337-.1q-16.285-.012-32.571-.01a2.812,2.812,0,0,0-1.605.429A1.853,1.853,0,0,0,.91,54.5a5.847,5.847,0,0,0,.878.3c.692-.009,1.384-.025,2.076-.025q15.536,0,31.072,0c.242,0,.486.042.726.022a4.118,4.118,0,0,1,3.482,1.257c.806.831,1.6,1.675,2.4,2.513,1.7,1.786,3.4,3.576,5.117,5.354.379.393.753.834,1.371.786a.108.108,0,0,1,.112.019,1.051,1.051,0,0,1,.118-.013l43.377.008c7.092,0,14.184.032,21.275-.016a4.428,4.428,0,0,1,4.5,4.923,1.879,1.879,0,0,1-.22,1.064,4.193,4.193,0,0,1-3.544,2.992c-1.73.075-3.464.013-5.2.013q-31.079,0-62.157.017a5.439,5.439,0,0,1-4.3-1.9c-2.265-2.49-4.6-4.911-6.9-7.365a1.78,1.78,0,0,0-1.144-.662,40.626,40.626,0,0,0-5.546.011,1.757,1.757,0,0,0-1.371,1.049c-.111.192.074.48-.206.592a2.142,2.142,0,0,0,1.2,1.845,2.18,2.18,0,0,0,.912.133q1.744.005,3.488-.019a1.053,1.053,0,0,1,.836.359c1.837,1.927,3.723,3.8,5.515,5.775a12.932,12.932,0,0,0,3.29,2.918,5.522,5.522,0,0,0,2.621.86c5.615,0,11.23.02,16.845.022q24.56.005,49.12,0c1.279,0,2.563.031,3.837-.056a4.949,4.949,0,0,0,2.44-.883,6.755,6.755,0,0,0,1.594-1.174,9.738,9.738,0,0,0,2.135-3.573,11.107,11.107,0,0,0,.327-3,7.672,7.672,0,0,0-1.872-4.7,8.26,8.26,0,0,0-3.888-2.609.92.92,0,0,1-.338-.221c-.014-.013-.041-.027-.04-.039a.513.513,0,0,1,.025-.107q.014-9.645.037-19.29a8.359,8.359,0,0,0-.833-3.668c-.2-.424-.057-.567.223-.769a12.418,12.418,0,0,0,4.16-5.189,15.33,15.33,0,0,0,1.278-6.847,13.815,13.815,0,0,0-2.785-7.833,12.9,12.9,0,0,0-7.937-5.034c-.978-.209-1.705.334-2.242,1.594a1.922,1.922,0,0,0,1.8,2.109,10.214,10.214,0,0,1,7.536,11.541,10.279,10.279,0,0,1-3.917,6.761c-.384.3-.623.231-.969-.048a8.413,8.413,0,0,0-7.138-1.776,8.5,8.5,0,0,0-5.415,3.363c-.289.391-.474.426-.711,0a6.415,6.415,0,0,0-2.531-2.286,8.62,8.62,0,0,0-6.482-1.012,8.819,8.819,0,0,0-5,3.18c-.459.565-.446.552-.922-.021a8.621,8.621,0,0,0-8.6-3.212A8.521,8.521,0,0,0,68.97,35.97c-.245.327-.379.294-.617-.014a8.21,8.21,0,0,0-2.541-2.4,9.121,9.121,0,0,0-4.134-1.176,8.725,8.725,0,0,0-6.234,2.186.592.592,0,0,1-.875.049,10.2,10.2,0,0,1-2.98-3.21,10.372,10.372,0,0,1-1.426-5.361c-.027-6.744-.014-13.487-.015-20.231,0-.165,0-.331.012-.495a1.525,1.525,0,0,1,.892-1.459A1.576,1.576,0,0,1,52.92,4.2c.259.282.528.555.79.835a41.094,41.094,0,0,0,6.08,5.7,26.729,26.729,0,0,0,8.171,4,22.474,22.474,0,0,0,6.091,1.028c9.064.023,18.126,0,27.19.038a2.036,2.036,0,0,0,2.02-2M59.841,36.32c.021-.032.037-.088.064-.094a5.336,5.336,0,0,1,5.164,1.35A5.536,5.536,0,0,1,66.935,41.5c.029,1.391.424,2.034,1.79,2.275,1.279-.145,1.7-1.092,1.756-2.173a5.836,5.836,0,0,1,1.625-3.865,4.531,4.531,0,0,1,3-1.515,3.718,3.718,0,0,1,2.571.047,5.885,5.885,0,0,1,4.07,5.22c.075,1.388.362,2.077,1.876,2.284a1.791,1.791,0,0,0,1.508-1.367c.168-.637.175-1.319.314-1.967a5.872,5.872,0,0,1,2.145-3.225,3.571,3.571,0,0,1,2.178-.993c.415-.3.878-.1,1.317-.141,2.528-.207,5.353,2.4,5.538,5.513.085,1.435.371,1.837,1.663,2.19a1.784,1.784,0,0,0,1.779-1.841,6.232,6.232,0,0,1,1.084-3.447,5.28,5.28,0,0,1,3.63-2.3,4.424,4.424,0,0,1,3.049.264,5.776,5.776,0,0,1,3.567,5.4c.05,1.749.016,3.5.015,5.251q0,6.673-.005,13.345c0,.34-.019.529-.424.52-1.4-.033-2.793-.029-4.189-.039-2.044.007-4.089,0-6.134.035-.444.008-.5-.151-.493-.554.015-3.334.009-6.669.009-10a1.856,1.856,0,0,0-1.89-2.1,1.741,1.741,0,0,0-1.652,1.452,6.9,6.9,0,0,0-.077,1.23q-.006,4.758.008,9.515c0,.336-.063.473-.419.465-1.377-.029-2.754-.026-4.13-.035-2.047.007-4.093,0-6.14.035-.481.009-.629-.1-.626-.627.019-3.338-.021-6.676.017-10.013A1.876,1.876,0,0,0,83.5,48.3,2.082,2.082,0,0,0,82.182,49a2.61,2.61,0,0,0-.448,1.667c-.012,3.271-.007,6.542,0,9.813,0,.281.034.5-.372.494-1.336-.034-2.672-.026-4.007-.034l-6.133.019c-.821,0-.8,0-.793-.873.018-3.23.035-6.46.015-9.69-.009-1.434-.579-2-1.952-2.082-.278.273-.718.115-1,.5a2.675,2.675,0,0,0-.548,1.631q-.009,5-.009,10c0,.326.008.544-.412.534-1.4-.033-2.791-.03-4.186-.041-2.007.006-4.014-.007-6.02.034-.534.011-.7-.116-.694-.7.016-5.927,0-11.854,0-17.781a6.309,6.309,0,0,1,1.976-5,3.787,3.787,0,0,1,2.247-1.169" transform="translate(0.002 0)"/>
    <path id="Trazado_727325" data-name="Trazado 727325" d="M63.123,17.542a2.035,2.035,0,0,1-2.021,2c-9.063-.035-18.126-.015-27.189-.038a22.512,22.512,0,0,1-6.092-1.028,26.75,26.75,0,0,1-8.172-4,41.115,41.115,0,0,1-6.08-5.7c-.261-.28-.53-.553-.79-.835a1.575,1.575,0,0,0-1.867-.345,1.524,1.524,0,0,0-.892,1.459c-.015.164-.012.33-.012.495,0,6.744-.012,13.487.015,20.231A10.365,10.365,0,0,0,11.45,35.14a10.187,10.187,0,0,0,2.981,3.211A.592.592,0,0,0,15.3,38.3a8.722,8.722,0,0,1,6.234-2.186,9.126,9.126,0,0,1,4.133,1.176,8.188,8.188,0,0,1,2.541,2.4c.239.308.373.342.617.014a8.518,8.518,0,0,1,5.464-3.449,8.622,8.622,0,0,1,8.6,3.212c.475.572.463.586.922.021a8.818,8.818,0,0,1,5-3.18A8.618,8.618,0,0,1,55.3,37.326a6.411,6.411,0,0,1,2.532,2.287c.237.43.421.395.711,0a8.5,8.5,0,0,1,5.415-3.363,8.416,8.416,0,0,1,7.138,1.776c.345.279.584.347.968.048a10.448,10.448,0,0,0-3.619-18.3,1.922,1.922,0,0,1-1.8-2.109q-1.454,0-2.908,0a.818.818,0,0,1-.611-.125" transform="translate(40.142 -3.739)" fill="#94d6a3"/>
    <path id="Trazado_727326" data-name="Trazado 727326" d="M53.821,120.063c-.619.048-.993-.392-1.372-.786-1.712-1.777-3.412-3.568-5.116-5.354-.8-.838-1.594-1.682-2.4-2.513a4.119,4.119,0,0,0-3.483-1.257c-.24.02-.483-.022-.725-.022q-15.536,0-31.071,0c-.692,0-1.385.016-2.077.025a19.2,19.2,0,0,0-.093,3.019c-.017.885.008,1.771.015,2.656q4.343,0,8.686-.006,11.789,0,23.578,0a1.551,1.551,0,0,1,1.211.355c.8.8,1.616,1.566,2.388,2.386,1.172,1.247,2.4,2.438,3.5,3.755a11.707,11.707,0,0,0,2.609,2.481,7.253,7.253,0,0,0,3.99,1.06q32.973-.026,65.947-.019a8.477,8.477,0,0,0,3.8-.86,4.426,4.426,0,0,0-4.5-4.923c-7.092.049-14.184.017-21.276.016l-43.378-.008a1.044,1.044,0,0,0-.117.013c-.046.052-.082.037-.112-.019" transform="translate(-5.785 -55.365)" fill="#e27f86"/>
    <path id="Trazado_727327" data-name="Trazado 727327" d="M123.235,130.74a8.48,8.48,0,0,1-3.8.86q-32.974.014-65.947.019a7.26,7.26,0,0,1-3.99-1.061,11.724,11.724,0,0,1-2.609-2.481c-1.107-1.318-2.332-2.509-3.5-3.756-.771-.821-1.592-1.59-2.387-2.386a1.549,1.549,0,0,0-1.211-.355H16.215q-4.343,0-8.686.006a18.15,18.15,0,0,0,.056,3.207,1.859,1.859,0,0,0,.288.044q8.974,0,17.947-.007c.511,0,1.025-.024,1.535.014a1.928,1.928,0,0,1,1.918,1.927l.208.014.123-.009a15.915,15.915,0,0,0,3.05-.227c.281-.111.1-.4.206-.591a1.756,1.756,0,0,1,1.371-1.049,40.538,40.538,0,0,1,5.545-.011,1.778,1.778,0,0,1,1.144.662c2.3,2.453,4.636,4.874,6.9,7.364a5.441,5.441,0,0,0,4.3,1.9q31.079-.041,62.157-.017c1.733,0,3.468.061,5.2-.013a4.194,4.194,0,0,0,3.544-2.992,1.875,1.875,0,0,0,.219-1.064" transform="translate(-5.816 -61.121)" fill="#dd626d"/>
    <path id="Trazado_727328" data-name="Trazado 727328" d="M229.068,130.023a1.928,1.928,0,0,0-1.918-1.927c-.509-.038-1.023-.014-1.535-.013q-8.974,0-17.947.007a1.866,1.866,0,0,1-.288-.044,5.33,5.33,0,0,0-1.1.474,1.917,1.917,0,0,0-.638,1.883,1.753,1.753,0,0,0,1.092,1.232,1.969,1.969,0,0,0,.43.123l.092-.092.043.1,11.1.015c2.815,0,5.63-.005,8.444.014,1.231.009,1.838-.339,2.223-1.767" transform="translate(-205.611 -64.37)"/>
    <path id="Trazado_727329" data-name="Trazado 727329" d="M156.732,9.6c.009-.079.018-.157.027-.236-.074.015-.165.017-.174.115s.058.134.148.12" transform="translate(-110.044 -4.706)" fill="#94d6a3"/>
    <path id="Trazado_727330" data-name="Trazado 727330" d="M12.825,122.592a.635.635,0,0,0-.025.107c0,.012.026.027.04.04a.638.638,0,0,0,.026-.107c0-.012-.027-.027-.041-.04" transform="translate(102.057 -61.629)" fill="#94d6a3"/>
    <path id="Trazado_727331" data-name="Trazado 727331" d="M205.037,132.031l-.123.009c.05.119.091.111.123-.009" transform="translate(-181.25 -66.374)" fill="#e27f86"/>
    <path id="Trazado_727332" data-name="Trazado 727332" d="M251.635,135.42l-.044-.094-.092.091.135,0" transform="translate(-249.947 -68.031)" fill="#dcd9eb"/>
    <path id="Trazado_727333" data-name="Trazado 727333" d="M61.095,84.925a1.876,1.876,0,0,1,1.759,2.029c-.037,3.337,0,6.675-.016,10.012,0,.523.146.636.626.627,2.046-.038,4.093-.028,6.139-.035a7.517,7.517,0,0,1,0-1.821q0-8.4,0-16.793a8.907,8.907,0,0,0-1.226-4.555c-.314-.542-.831-.926-1.02-1.547a3.568,3.568,0,0,0-2.178.993,5.874,5.874,0,0,0-2.145,3.225c-.139.648-.145,1.33-.313,1.967A1.791,1.791,0,0,1,61.213,80.4a37.289,37.289,0,0,0-.118,4.529" transform="translate(22.411 -36.62)" fill="#f8f9fb"/>
    <path id="Trazado_727334" data-name="Trazado 727334" d="M92,84.932c1.373.086,1.943.648,1.952,2.082.02,3.23,0,6.46-.016,9.69-.005.87-.028.875.793.873l6.133-.019a8.371,8.371,0,0,1-.231-2.924q-.009-8.07,0-16.141a7.7,7.7,0,0,0-1.069-3.908,8.7,8.7,0,0,1-.947-1.74,4.53,4.53,0,0,0-3,1.515,5.834,5.834,0,0,0-1.626,3.865c-.06,1.081-.477,2.028-1.756,2.173-.258,1.5.013,3.032-.237,4.534" transform="translate(-23.509 -36.62)" fill="#f8f9fb"/>
    <path id="Trazado_727335" data-name="Trazado 727335" d="M36.426,72.8a5.277,5.277,0,0,0-3.63,2.3,6.232,6.232,0,0,0-1.084,3.447,1.784,1.784,0,0,1-1.779,1.842q0,2.262,0,4.525a1.856,1.856,0,0,1,1.89,2.1c0,3.334.006,6.669-.009,10,0,.4.049.562.494.554,2.044-.037,4.089-.027,6.134-.035q0-9.544,0-19.086A7.375,7.375,0,0,0,37.308,74.5a5.838,5.838,0,0,1-.882-1.7" transform="translate(68.356 -36.597)" fill="#f8f9fb"/>
    <path id="Trazado_727336" data-name="Trazado 727336" d="M127.842,73.038a3.787,3.787,0,0,0-2.247,1.169,6.309,6.309,0,0,0-1.976,5c.006,5.927.019,11.854,0,17.781,0,.584.16.712.694.7,2.006-.041,4.013-.027,6.02-.034,0-6.466.048-12.932-.027-19.4a6.537,6.537,0,0,0-2.467-5.218" transform="translate(-67.998 -36.717)" fill="#f8f9fb"/>
    <path id="Trazado_727337" data-name="Trazado 727337" d="M78.778,72.632a8.721,8.721,0,0,0,.947,1.74,7.687,7.687,0,0,1,1.069,3.908q-.014,8.071,0,16.141a8.358,8.358,0,0,0,.231,2.923c1.336.008,2.672,0,4.007.034.407.01.374-.213.373-.494,0-3.271-.009-6.542,0-9.813a2.617,2.617,0,0,1,.448-1.667,2.082,2.082,0,0,1,1.322-.691,37.385,37.385,0,0,1,.118-4.529c-1.514-.207-1.8-.9-1.876-2.284a5.884,5.884,0,0,0-4.07-5.22,3.718,3.718,0,0,0-2.571-.047" transform="translate(-3.671 -36.407)" fill="#dcd9eb"/>
    <path id="Trazado_727338" data-name="Trazado 727338" d="M110.182,72.765a6.537,6.537,0,0,1,2.467,5.218c.075,6.465.027,12.932.027,19.4,1.4.011,2.791.008,4.186.041.419.01.412-.207.412-.534q-.006-5,.009-10a2.675,2.675,0,0,1,.548-1.631c.28-.383.72-.226,1-.5.25-1.5-.022-3.033.236-4.534-1.366-.241-1.761-.884-1.79-2.275a5.536,5.536,0,0,0-1.865-3.926,5.336,5.336,0,0,0-5.164-1.35c-.027.006-.043.062-.064.094" transform="translate(-50.338 -36.444)" fill="#dcd9eb"/>
    <path id="Trazado_727339" data-name="Trazado 727339" d="M56.385,84.761q0-2.262,0-4.525c-1.292-.353-1.578-.755-1.663-2.19-.185-3.117-3.011-5.72-5.538-5.512-.44.036-.9-.155-1.318.14.19.622.707,1.006,1.021,1.548a8.91,8.91,0,0,1,1.226,4.555q0,8.4,0,16.792a7.517,7.517,0,0,0,0,1.821c1.377.009,2.754.006,4.13.035.357.008.42-.129.419-.465q-.018-4.758-.008-9.515a6.9,6.9,0,0,1,.076-1.23,1.742,1.742,0,0,1,1.652-1.452" transform="translate(41.901 -36.45)" fill="#dcd9eb"/>
    <path id="Trazado_727340" data-name="Trazado 727340" d="M20.176,72.643a5.838,5.838,0,0,0,.882,1.7,7.375,7.375,0,0,1,1.133,3.949q0,9.543,0,19.086c1.4.01,2.793.005,4.189.039.4.009.424-.18.424-.519q-.009-6.672,0-13.346c0-1.75.035-3.5-.015-5.25a5.775,5.775,0,0,0-3.566-5.4,4.427,4.427,0,0,0-3.049-.264" transform="translate(84.605 -36.441)" fill="#dcd9eb"/>
    <path id="Trazado_727341" data-name="Trazado 727341" d="M153.564,130.1c.03.056.065.071.112.019a.108.108,0,0,0-.112-.019" transform="translate(-105.529 -65.397)" fill="#dd626d"/>
  </g>
</svg>
