<svg xmlns="http://www.w3.org/2000/svg" xmlns:xlink="http://www.w3.org/1999/xlink" width="103.783" height="104.352" viewBox="0 0 103.783 104.352">
  <defs>
    <clipPath id="clip-path">
      <rect id="Rectángulo_349840" data-name="Rectángulo 349840" width="103.783" height="104.352" fill="none"/>
    </clipPath>
  </defs>
  <g id="Grupo_1028321" data-name="Grupo 1028321" transform="translate(-4.084 -7.917)">
    <g id="Grupo_1028333" data-name="Grupo 1028333" transform="translate(4.084 7.917)">
      <g id="Grupo_1028332" data-name="Grupo 1028332" clip-path="url(#clip-path)">
        <path id="Trazado_727284" data-name="Trazado 727284" d="M31.9,10.709a27.5,27.5,0,0,1-3.373,5.053,16.207,16.207,0,0,1-3.21,2.731c-.4.28-.773.673-1.164.981-.6.469-1.17.957-1.732,1.467-.738.671-1.537,1.278-2.251,1.972-1.891,1.839-3.786,3.676-5.514,5.674-.718.83-1.416,1.678-2.161,2.483a7.678,7.678,0,0,1-4.237,2.364c-1.3.256-2.614.449-3.929.611-.982.121-1.974.161-2.964.206-.278.013-.377.07-.37.365.023.967.016,1.934.021,2.9a40.209,40.209,0,0,0,4.794-.445,26.662,26.662,0,0,0,3.359-.578c.536-.145,1.077-.273,1.615-.409.114-.2.337-.211.512-.3a11.4,11.4,0,0,0,2.264-1.3,23.4,23.4,0,0,0,3.3-3.475c.656-.82,1.444-1.525,2.147-2.3,1.142-1.267,2.395-2.42,3.6-3.624.185-.186.323-.494.5-.576a4.993,4.993,0,0,0,1.1-.86c.6-.517,1.126-1.131,1.769-1.582a43.886,43.886,0,0,0,3.559-2.734,21.65,21.65,0,0,0,3.959-4.963A28.79,28.79,0,0,0,36.252,8.7a9.028,9.028,0,0,0,.623-2.223,3.8,3.8,0,0,1,.8-2.083c.45-.573,1.2-.7,1.684-1.213.588.2,1.242-.019,1.815.284a2.815,2.815,0,0,1,2.2,2.551,23.164,23.164,0,0,1-.91,8.718c-.669,2.1-1.71,4.046-2.472,6.105-.779,2.105-1.6,4.2-1.378,6.521a5.657,5.657,0,0,0,1.641,3.521A5.075,5.075,0,0,0,42.135,32.2c2.3.967,4.634,1.845,6.994,2.656A15.545,15.545,0,0,0,55.5,35.9c.588-.048,1.185,0,1.778.01,1.764-.006,3.528-.02,5.292-.011.317,0,.454-.06.429-.411-.03-.4,0-.813.008-1.219,0-.186-.013-.372-.014-.558,0-1.082,0-1.082-1.108-1.082-2.762,0-5.524.026-8.285-.011a9.712,9.712,0,0,1-3.365-.8,9.313,9.313,0,0,1-1.69-.607.4.4,0,0,1-.232-.485,14.455,14.455,0,0,1,.6-2.668,7.762,7.762,0,0,1,2.733-3.578,8.044,8.044,0,0,1,3.7-1.455A8.506,8.506,0,0,1,59.1,23.3a7.693,7.693,0,0,1,4.552,3.9,1.718,1.718,0,0,0,1.94,1.04c.29-.043.567-.166.854-.236a5.078,5.078,0,0,1,4.973,1.223c.165.154.2.222,0,.375a8.7,8.7,0,0,0-.748.689q-2.12,2.056-4.236,4.115c-1.534,1.509-3.072,3.015-4.6,4.532-.245.244-.42.227-.688.027A7,7,0,0,0,58.41,37.7a19.752,19.752,0,0,0-2.761-.2,6.343,6.343,0,0,0-4.762,2.408.551.551,0,0,1-.733.187,8.843,8.843,0,0,0-4.579-.262.481.481,0,0,1-.6-.261,15.1,15.1,0,0,0-2.374-3.31A14.834,14.834,0,0,0,40.241,34.4a11.54,11.54,0,0,0-4.482-1.571,3.858,3.858,0,0,1-2.313-.729,3.4,3.4,0,0,0-1-.564,6.519,6.519,0,0,0-3.777-.362,6.045,6.045,0,0,0-4.743,5.356,2.748,2.748,0,0,1-.478,1.556,10.005,10.005,0,0,0-1.675,4.18c-.06.375.114.923-.459,1.127a18.179,18.179,0,0,0-2.234,1.076c-.141.12-.276.248-.424.358a11.006,11.006,0,0,0-4.532,9.9,11.354,11.354,0,0,0,.919,3.639,10.811,10.811,0,0,0,6.095,5.815.782.782,0,0,1,.571.818,7.909,7.909,0,0,0,.6,2.435,14.138,14.138,0,0,0,1.057,2.086,1.772,1.772,0,0,1-1-.494c-1.883-1.391-3.789-2.755-5.624-4.207A12.152,12.152,0,0,0,9.216,62c-2.734-.039-5.468-.007-8.2-.006,0,.917-.005,1.834-.017,2.751a.533.533,0,0,0,.638.59,13.6,13.6,0,0,1,2.317-.073c1.188-.02,2.377,0,3.566.009.826,0,1.65.013,2.477.059a7.142,7.142,0,0,1,3.787,1.357c1.859,1.315,3.668,2.7,5.486,4.073A18.942,18.942,0,0,0,22.039,72.6a18.561,18.561,0,0,0,2.92,1.263c.209.065.468.067.318.5a6.8,6.8,0,0,0-.333.878,5.987,5.987,0,0,1-1.324,2.774c-1.669,1.932-3.7,3.492-5.477,5.311-.144.389-.525.557-.787.836-.535.569-1.134,1.081-1.64,1.673a1.284,1.284,0,0,1-1.517.41,6.7,6.7,0,0,1-3.867-2.6,6.812,6.812,0,0,1-1.064-3.092,6.149,6.149,0,0,1,1.165-4.533,1.591,1.591,0,0,0,.155-2.08,2.775,2.775,0,0,0-1.6-.843A5.889,5.889,0,0,1,4.75,69.184a13,13,0,0,1-.477-2.062c-.032-.207-.1-.246-.282-.245q-1.376.008-2.752,0c-.16,0-.266.024-.237.218A14.3,14.3,0,0,0,1.8,70.7a9.887,9.887,0,0,0,4.6,4.848c.344.188.455.312.3.719a12.534,12.534,0,0,0-.685,3.289A8.7,8.7,0,0,0,7.346,85a9.278,9.278,0,0,0,4.532,3.9c.183.075.361.162.528.238-2.3,2.308-4.585,4.6-6.872,6.885Q2.867,98.687.186,101.339c-.243.239-.252.353,0,.591.59.553,1.148,1.141,1.7,1.727.192.2.313.218.514,0,.3-.325.637-.607.958-.907.806-.965,1.756-1.79,2.64-2.678,1.889-1.9,3.8-3.781,5.7-5.67,1.509-1.514,3-3.042,4.531-4.539,2.607-2.555,5.073-5.253,7.848-7.637a14.5,14.5,0,0,0,2.336-2.545A13.1,13.1,0,0,0,28.7,72.758c.124-1.9.15-3.811.209-5.716.043-1.383.16-2.759.243-4.137.033-.552.028-1.111.1-1.659.15-1.093.208-2.195.378-3.287.156-1,.19-2.027.332-3.033a19.039,19.039,0,0,0,.314-4.9c-.129-1.127-.24-2.254-.447-3.371A28.47,28.47,0,0,0,28.3,41.318c-.293-.739-.634-1.459-.927-2.2a4.213,4.213,0,0,1,.048-3.2,2.892,2.892,0,0,1,4.762-.673,31.883,31.883,0,0,1,5.2,8.337,14.376,14.376,0,0,1,1.145,6.061c-.033.831-.027,1.665,0,2.5a4.8,4.8,0,0,0,2.952,4.508,6.261,6.261,0,0,0,3.943.3,9.085,9.085,0,0,0,4.466-2.38c1.4-1.333,2.9-2.563,4.281-3.915,2.487-2.435,5.169-4.663,7.606-7.151.956-.975,1.934-1.93,2.923-2.872,3.275-3.117,6.465-6.321,9.747-9.432,2.379-2.255,4.679-4.592,7.021-6.885A3.858,3.858,0,0,1,84.211,22.9a3.03,3.03,0,0,1,1.763.305,3.212,3.212,0,0,1,1.433,1.458,2.953,2.953,0,0,1-.656,3.534Q79.03,35.713,71.319,43.235q-3.265,3.177-6.55,6.333c-.079.088-.155.179-.237.263-.377.39-.779.76-1.128,1.174a1.476,1.476,0,0,0-.147,1.7,1.5,1.5,0,0,0,1.39.835,2.033,2.033,0,0,0,1.568-.8q4.465-4.354,8.923-8.716c5.215-5.077,10.485-10.1,15.64-15.236a4.028,4.028,0,0,1,3.164-1.381,3.034,3.034,0,0,1,2.42,1.23,2.691,2.691,0,0,1,.671,1.645,3.447,3.447,0,0,1-1.289,2.744Q86.083,42.4,76.434,51.787,73.9,54.25,71.356,56.708c-.325.344-.676.667-.968,1.037a1.579,1.579,0,0,0,.772,2.5,1.657,1.657,0,0,0,1.838-.6c3.36-3.247,6.741-6.472,10.068-9.752,3.712-3.658,7.457-7.281,11.191-10.917a4.155,4.155,0,0,1,2.7-1.387,3.133,3.133,0,0,1,2.84,1.137,2.9,2.9,0,0,1,.6,2.683A4.1,4.1,0,0,1,99.1,43.3q-7.19,7-14.383,13.987-3.212,3.12-6.437,6.226-.433.461-.865.922a1.486,1.486,0,0,0-.271,1.651A1.507,1.507,0,0,0,78.557,67.1a1.853,1.853,0,0,0,1.475-.738q5.484-5.313,10.957-10.639c1.277-1.242,2.53-2.51,3.826-3.733a3.364,3.364,0,0,1,5.094.489l.079.134a.1.1,0,0,1,.049.084,2.738,2.738,0,0,1,.17,2.726,4.31,4.31,0,0,1-.97,1.291Q83.582,71.95,67.923,87.185a16.564,16.564,0,0,1-7.587,4.267,28.1,28.1,0,0,1-3.687.621c-1.589.184-3.162.508-4.752.684a11.1,11.1,0,0,0-6.334,2.7c-2.128,1.9-4.161,3.9-6.243,5.849-.237.222-.2.379,0,.587a4.024,4.024,0,0,1,.745.826,7.449,7.449,0,0,1,.956.982c.164.181.276.215.487.013,1.683-1.606,3.4-3.173,5.068-4.8a14.418,14.418,0,0,1,2.368-1.972,6.117,6.117,0,0,1,2.19-.813c1.833-.315,3.682-.522,5.522-.787a36.254,36.254,0,0,0,5.117-.949,20.011,20.011,0,0,0,8.67-5.133c1.2-1.209,2.476-2.351,3.632-3.61a.459.459,0,0,1,.568-.129,13.445,13.445,0,0,0,5.809.912,12.6,12.6,0,0,0,5.434-1.772,12.752,12.752,0,0,0,5.742-6.99,12.184,12.184,0,0,0,.6-2.441c.034-.261.179-.2.313-.2A9.985,9.985,0,0,0,98,73.269a8.934,8.934,0,0,0,1.2-1.094,9.455,9.455,0,0,0,2.813-5.4,8.812,8.812,0,0,0-1.235-6.361c-.21-.347-.206-.543.1-.812a8.9,8.9,0,0,0,2.239-2.695,6.3,6.3,0,0,0-3.409-8.58c-.869-.338-.866-.346-.178-.985.794-.736,1.632-1.431,2.373-2.217a6.234,6.234,0,0,0-1.591-10.051,4.741,4.741,0,0,0-1.158-.491c-.429-.1-.305-.237-.142-.466a6,6,0,0,0,1.276-4.028,6.233,6.233,0,0,0-2.326-4.456A6.335,6.335,0,0,0,95.9,24.461a6.849,6.849,0,0,0-4.667.147c-.256.1-.377.156-.422-.21a4.868,4.868,0,0,0-1.27-2.451,6.246,6.246,0,0,0-3.581-2.187,6.89,6.89,0,0,0-1.867-.117c-.832.04-1.6.393-2.425.365-.066,0-.156-.01-.2.027-1.105,1.01-2.321,1.893-3.346,3S76,25.183,74.925,26.25c-.939.934-.94.931-1.908.079a7.623,7.623,0,0,0-4.225-1.764,6.894,6.894,0,0,0-2.271.123c-.537.109-.761-.244-.992-.571a11.081,11.081,0,0,0-3.314-2.991A12.262,12.262,0,0,0,58.336,19.7a10.869,10.869,0,0,0-3.548.062,8.578,8.578,0,0,0-3.013.85,7.456,7.456,0,0,0-2.167,1.3c-.618.647-1.391,1.133-1.95,1.82a17.741,17.741,0,0,0-1.208,1.939A10.7,10.7,0,0,0,45.294,28.9c0,.016-.02.029-.023.045-.057.313.082.779-.241.889-.241.082-.6-.165-.9-.287A4.108,4.108,0,0,1,42.393,28.4a2.308,2.308,0,0,1-.528-1.307c-.2-2.153.742-4.01,1.471-5.919.414-1.086.913-2.141,1.4-3.2A8.861,8.861,0,0,0,45.5,15.9c.145-.805.573-1.538.663-2.315.1-.879.341-1.731.409-2.608a49.4,49.4,0,0,0,.086-5.561A5.234,5.234,0,0,0,45.332,2.29,5.712,5.712,0,0,0,42.946.5,7.767,7.767,0,0,0,37.3.562a5.065,5.065,0,0,0-2.4,1.986A6.3,6.3,0,0,0,33.8,5.118c-.124.806-.272,1.614-.384,2.423-.03.216-.318.536-.443.828a20.067,20.067,0,0,0-.994,2.254c.016.067-.018.089-.079.087M53.813,46.492c-.125.136-.241.281-.376.405q-2.935,2.711-5.873,5.417a5.639,5.639,0,0,1-3.839,1.529c-1.272.031-1.9-.553-1.941-1.892-.041-1.317.029-2.635-.1-3.953a26.732,26.732,0,0,0-.494-2.9,23.363,23.363,0,0,0-1.066-3.4,28.993,28.993,0,0,0-2.773-4.94.751.751,0,0,1,.689.142,9.114,9.114,0,0,1,4.548,5.554,1.522,1.522,0,0,0,2.077.975,7.406,7.406,0,0,1,1.911-.5,7.036,7.036,0,0,1,4.108.895,1.637,1.637,0,0,0,2.5-1.351,1.514,1.514,0,0,1,.586-1.03,3.4,3.4,0,0,1,1.827-.587,5.856,5.856,0,0,1,3.155.34c.519.223.517.236.1.626q-2.518,2.337-5.039,4.671M79.182,83.185A6.959,6.959,0,0,1,77.361,83c-.115-.023-.27-.007-.3-.14s.118-.191.2-.272c2.428-2.348,4.866-4.687,7.284-7.046,2.459-2.4,4.88-4.838,7.354-7.222.9-.863,1.868-1.65,2.729-2.551.994-1.039,2.013-2.051,3.1-3,.425-.369.538-.335.751.178A5.955,5.955,0,0,1,98.7,66.71a6.05,6.05,0,0,1-1.259,2.648,6.307,6.307,0,0,1-5.926,2.332,2.537,2.537,0,0,0-1.454.1,1.75,1.75,0,0,0-.969,1.75,9.328,9.328,0,0,1-.53,3.088,9.866,9.866,0,0,1-9.38,6.555M17.411,53.992c0-.254,0-.441,0-.628a3.536,3.536,0,0,1,.019-.559,8.344,8.344,0,0,1,4.8-6.286A14.741,14.741,0,0,1,23.656,46a1.576,1.576,0,0,0,1.184-1.675c-.01-.561.123-1.1.141-1.66,0-.12,0-.309.167-.329s.184.169.223.288c.258.777.533,1.55.757,2.337a24.814,24.814,0,0,1,.65,3.124c.111.742.248,1.484.291,2.231a16.629,16.629,0,0,1-.02,2.484c-.1,1.088-.311,2.166-.457,3.251-.134.994-.2,2-.331,2.988-.172,1.328-.264,2.662-.392,3.993-.105,1.1-.136,2.211-.2,3.317,0,.076.033.18-.082.209a.176.176,0,0,1-.2-.119,2.238,2.238,0,0,1-.206-.517,11.871,11.871,0,0,1-.33-2.727,1.6,1.6,0,0,0-1.164-1.524c-.338-.1-.669-.217-1-.332-2.639-.908-5.4-3.856-5.273-7.347" transform="translate(0 0)"/>
        <path id="Trazado_727285" data-name="Trazado 727285" d="M29.5,380.492c-1.9,1.889-3.808,3.77-5.7,5.67-.884.889-1.833,1.713-2.64,2.678q6.576.006,13.151.012,11.367,0,22.735,0c.271,0,.542-.022.813-.034a4.025,4.025,0,0,0-.745-.826c-.2-.209-.235-.366,0-.587,2.082-1.949,4.115-3.952,6.244-5.849a11.1,11.1,0,0,1,6.334-2.7c1.59-.176,3.163-.5,4.752-.684a28.13,28.13,0,0,0,3.687-.621,16.564,16.564,0,0,0,7.587-4.267q15.664-15.23,31.314-30.474a4.309,4.309,0,0,0,.971-1.291,2.737,2.737,0,0,0-.17-2.726,54.341,54.341,0,0,0-5.19,4.538c-1.347,1.263-2.733,2.482-4.089,3.734-1.952,1.8-3.949,3.559-5.869,5.395-1.017.973-2.068,1.906-3.1,2.859-2.223,2.051-4.516,4.029-6.692,6.127-1.27,1.225-2.643,2.327-3.916,3.547-2,1.92-4.093,3.751-6.117,5.651a15.652,15.652,0,0,1-1.936,1.555,11.64,11.64,0,0,1-6.558,1.977c-2.5.021-4.994-.015-7.491.012a9.981,9.981,0,0,0-3.927.905A17.636,17.636,0,0,0,58.877,378a11.083,11.083,0,0,1-7.167,2.671c-7.168.065-14.337.021-21.506.026a1.01,1.01,0,0,1-.708-.21" transform="translate(-17.796 -286.093)" fill="#feb3a2"/>
        <path id="Trazado_727286" data-name="Trazado 727286" d="M517.053,257.909c2.734,0,5.469-.033,8.2.006a12.151,12.151,0,0,1,7.522,2.828c1.835,1.453,3.741,2.816,5.624,4.207a1.772,1.772,0,0,0,1,.494,14.141,14.141,0,0,1-1.057-2.086,7.91,7.91,0,0,1-.6-2.435.782.782,0,0,0-.571-.818,10.811,10.811,0,0,1-6.095-5.815,11.355,11.355,0,0,1-.919-3.639,11.006,11.006,0,0,1,4.532-9.9c.149-.11.283-.238.424-.358a.712.712,0,0,0-.432-.082,7.309,7.309,0,0,0-4.125,2.106,7.788,7.788,0,0,0-2.1,4.883c-.018.153,0,.323-.181.382-.212.07-.237-.132-.319-.249a7.191,7.191,0,0,1-1.131-4.286q-.013-5.571-.007-11.142c-.538.136-1.079.264-1.615.409a26.656,26.656,0,0,1-3.359.578,40.2,40.2,0,0,1-4.794.445c0,.543-.013,1.085-.013,1.628q0,11.092,0,22.183c0,.22.009.44.014.661" transform="translate(-516.039 -195.919)" fill="#f99c81"/>
        <path id="Trazado_727287" data-name="Trazado 727287" d="M515.075,437.677c1.778-1.819,3.807-3.379,5.477-5.311a5.985,5.985,0,0,0,1.324-2.775,6.823,6.823,0,0,1,.333-.878c.151-.436-.108-.438-.317-.5a18.557,18.557,0,0,1-2.921-1.263A18.954,18.954,0,0,1,516.2,425.1c-1.817-1.373-3.627-2.758-5.486-4.073a7.142,7.142,0,0,0-3.787-1.357c-.828-.047-1.651-.06-2.477-.059a8.134,8.134,0,0,0,2.884,6.249,7.169,7.169,0,0,0,3.369,1.675c.355.071.391.238.357.529a9.756,9.756,0,0,0,2.251,7.7c.469.565,1.07.977,1.543,1.528a.693.693,0,0,1,.22.387" transform="translate(-496.933 -354.347)" fill="#c2f5f9"/>
        <path id="Trazado_727288" data-name="Trazado 727288" d="M553.935,81.334c-.008.183.052.233.25.283.8.2,1.612.327,2.4.589a.444.444,0,0,0,.618-.348,10.977,10.977,0,0,1,2.472-4.6,14.809,14.809,0,0,1,2.932-2.606,16.542,16.542,0,0,1,4.565-2.231,8.33,8.33,0,0,1,1.234-.284c.312-.042.372-.2.315-.448-.155-.658-.328-1.312-.493-1.968,0-.016-.005-.033-.009-.05-.145-.769-.147-.777-.95-.592a17.719,17.719,0,0,0-12.2,9.469A19.429,19.429,0,0,0,554,81.041a2.592,2.592,0,0,0-.066.293" transform="translate(-551.113 -58.255)"/>
        <path id="Trazado_727289" data-name="Trazado 727289" d="M110.95,595.879c.169.875.307,1.758.521,2.622.085.345.464.164.657.106.739-.222,1.488-.412,2.218-.672a18.667,18.667,0,0,0,5.076-2.659,17.507,17.507,0,0,0,6.1-8.5,2.725,2.725,0,0,1,.158-.425c.124-.23.015-.313-.192-.34a23.242,23.242,0,0,1-2.5-.571c-.223-.054-.326-.05-.411.188a15.1,15.1,0,0,1-9.211,9.269,10.822,10.822,0,0,1-2.081.576c-.285.05-.421.109-.332.41" transform="translate(-39.201 -494.354)"/>
        <path id="Trazado_727290" data-name="Trazado 727290" d="M143.82,584.815a10.868,10.868,0,0,0,3.965-1.321,13.209,13.209,0,0,0,6.444-7.144c.3-.77.314-.78-.478-1.007-.648-.186-1.31-.323-1.96-.5-.281-.078-.392.031-.489.275a10.437,10.437,0,0,1-3.886,4.84,11.186,11.186,0,0,1-3.972,1.681c-.416.09-.5.226-.387.639a17.31,17.31,0,0,1,.433,2.187c.045.339.182.383.33.356" transform="translate(-72.881 -485.408)"/>
        <path id="Trazado_727291" data-name="Trazado 727291" d="M554.686,100.356c-.455.1-.977.183-1.483.324a13.38,13.38,0,0,0-8.407,6.966,14.389,14.389,0,0,0-.633,1.431c-.195.482-.124.687.381.73a14.414,14.414,0,0,1,2.105.517c.285.068.45,0,.548-.274a8.95,8.95,0,0,1,2.981-4.146,10.564,10.564,0,0,1,3.284-1.946,16.03,16.03,0,0,1,1.724-.431c.277-.052.321-.166.308-.4-.039-.74-.322-1.435-.386-2.169-.024-.268.108-.607-.422-.6" transform="translate(-536.336 -84.747)"/>
        <path id="Trazado_727292" data-name="Trazado 727292" d="M24.082,218.726a1.01,1.01,0,0,0,.708.21c7.169,0,14.338.039,21.506-.026a11.083,11.083,0,0,0,7.167-2.671,17.635,17.635,0,0,1,4.07-2.918,9.981,9.981,0,0,1,3.927-.905c2.5-.027,4.994.008,7.491-.012a11.64,11.64,0,0,0,6.558-1.977,15.664,15.664,0,0,0,1.936-1.555c2.024-1.9,4.113-3.731,6.117-5.651,1.273-1.22,2.646-2.322,3.916-3.547,2.176-2.1,4.469-4.076,6.692-6.127,1.033-.953,2.084-1.886,3.1-2.859,1.92-1.836,3.918-3.591,5.869-5.395,1.356-1.253,2.741-2.471,4.089-3.734a54.343,54.343,0,0,1,5.19-4.538.1.1,0,0,0-.049-.084l-.079-.134a3.364,3.364,0,0,0-5.094-.489c-1.3,1.223-2.549,2.491-3.826,3.733q-5.475,5.323-10.957,10.639a1.853,1.853,0,0,1-1.475.738,1.507,1.507,0,0,1-1.417-1.012,1.486,1.486,0,0,1,.271-1.651q.431-.462.865-.922a1.6,1.6,0,0,1-.478-1.074,4.047,4.047,0,0,1,.522-2.536,7.9,7.9,0,0,1,1.411-1.653q8.526-8.546,17.072-17.073a16.945,16.945,0,0,1,1.311-1.2,3.5,3.5,0,0,1,1.282-.8.469.469,0,0,0,.4-.445,3.132,3.132,0,0,0-2.84-1.137,4.156,4.156,0,0,0-2.7,1.387c-3.734,3.636-7.48,7.259-11.191,10.917-3.328,3.28-6.708,6.506-10.068,9.752a1.657,1.657,0,0,1-1.838.6,1.579,1.579,0,0,1-.772-2.5c.292-.37.644-.693.968-1.037.041-.274-.208-.412-.293-.626a4.246,4.246,0,0,1,.952-4.593c2.123-2.194,4.482-4.143,6.643-6.29,2.9-2.882,6.006-5.543,8.9-8.432.635-.635,1.288-1.252,1.939-1.871,1.731-1.648,3.584-3.164,5.23-4.9a9.307,9.307,0,0,1,1.638-1.357,3.034,3.034,0,0,0-2.42-1.23,4.027,4.027,0,0,0-3.164,1.381c-5.156,5.138-10.425,10.159-15.64,15.236Q83.05,172.7,78.6,177.07a2.033,2.033,0,0,1-1.568.8,1.5,1.5,0,0,1-1.39-.835,1.476,1.476,0,0,1,.147-1.7c.349-.414.751-.783,1.128-1.174.082-.085.158-.175.237-.263a.964.964,0,0,1-.519-.46,3.253,3.253,0,0,1,.121-2.744,7.579,7.579,0,0,1,1.7-2c1.633-1.548,3.387-2.974,4.965-4.575,2.62-2.659,5.506-5.031,8.13-7.682.464-.469.958-.911,1.435-1.365,1.791-1.706,3.715-3.27,5.416-5.073a3.71,3.71,0,0,1,1.388-1,3.213,3.213,0,0,0-1.433-1.458,3.03,3.03,0,0,0-1.763-.305,3.858,3.858,0,0,0-2.748,1.412c-2.342,2.293-4.643,4.631-7.021,6.885-3.282,3.11-6.473,6.314-9.747,9.432-.989.942-1.967,1.9-2.923,2.872-2.437,2.488-5.119,4.715-7.606,7.151-1.381,1.352-2.881,2.582-4.281,3.915a9.084,9.084,0,0,1-4.466,2.38,6.261,6.261,0,0,1-3.943-.3,4.8,4.8,0,0,1-2.952-4.508c-.026-.831-.032-1.665,0-2.5a14.379,14.379,0,0,0-1.145-6.061,31.879,31.879,0,0,0-5.2-8.337,2.892,2.892,0,0,0-4.762.673,4.213,4.213,0,0,0-.048,3.2c.294.739.634,1.459.927,2.2a28.468,28.468,0,0,1,1.541,5.341c.206,1.117.317,2.243.447,3.371a19.045,19.045,0,0,1-.314,4.9c-.143,1.007-.176,2.029-.332,3.033-.17,1.092-.228,2.194-.378,3.287-.075.548-.07,1.107-.1,1.659-.083,1.378-.2,2.754-.243,4.137-.059,1.906-.085,3.816-.209,5.717A13.1,13.1,0,0,1,38.8,204a14.511,14.511,0,0,1-2.336,2.545c-2.775,2.384-5.242,5.082-7.848,7.637-1.526,1.5-3.021,3.025-4.531,4.539" transform="translate(-12.382 -124.327)" fill="#ffc8bd"/>
        <path id="Trazado_727293" data-name="Trazado 727293" d="M299.021,53.371q0,5.571.007,11.142a7.192,7.192,0,0,0,1.131,4.286c.082.117.107.319.319.249.18-.059.163-.229.181-.382a7.788,7.788,0,0,1,2.1-4.883,7.309,7.309,0,0,1,4.126-2.106.711.711,0,0,1,.432.082,18.176,18.176,0,0,1,2.234-1.076c.573-.2.4-.752.458-1.127a10.011,10.011,0,0,1,1.675-4.18,2.747,2.747,0,0,0,.478-1.556,6.046,6.046,0,0,1,4.743-5.357,6.52,6.52,0,0,1,3.777.362,3.4,3.4,0,0,1,1,.564,3.858,3.858,0,0,0,2.313.729,11.54,11.54,0,0,1,4.483,1.571,14.817,14.817,0,0,1,2.361,1.858,15.1,15.1,0,0,1,2.374,3.31.481.481,0,0,0,.6.261,8.841,8.841,0,0,1,4.579.262.551.551,0,0,0,.733-.187,6.343,6.343,0,0,1,4.762-2.408c.324-.045.494-.314.675-.523.311-.36.812-.553.949-1.065-.593-.006-1.189-.058-1.778-.01a15.548,15.548,0,0,1-6.367-1.043c-2.36-.811-4.694-1.689-6.994-2.656a5.074,5.074,0,0,1-1.881-1.318c-.046.337-.26.375-.519.262a6.375,6.375,0,0,1-2.313-1.509,6.608,6.608,0,0,1-1.51-6.375,13.217,13.217,0,0,1,1.587-2.923,65.272,65.272,0,0,0,3.179-6.071,14.625,14.625,0,0,0,.842-8.4,11.062,11.062,0,0,1-.348-2.4c-.572-.3-1.227-.079-1.814-.284-.481.513-1.234.639-1.684,1.213a3.8,3.8,0,0,0-.8,2.082,9.023,9.023,0,0,1-.623,2.223,28.788,28.788,0,0,1-2.762,5.67,21.654,21.654,0,0,1-3.959,4.963,43.878,43.878,0,0,1-3.559,2.734,23.685,23.685,0,0,0-1.769,1.582,5,5,0,0,1-1.1.86c-.175.083-.312.39-.5.576-1.2,1.2-2.454,2.358-3.6,3.624-.7.779-1.49,1.484-2.147,2.3a23.39,23.39,0,0,1-3.3,3.475,11.392,11.392,0,0,1-2.264,1.3c-.176.088-.4.1-.512.3" transform="translate(-288.239 -17.285)" fill="#feb3a2"/>
        <path id="Trazado_727294" data-name="Trazado 727294" d="M68.967,184.13a9.307,9.307,0,0,0-1.638,1.357c-1.646,1.736-3.5,3.253-5.23,4.9-.65.619-1.3,1.237-1.939,1.872-2.891,2.889-6,5.55-8.9,8.432-2.161,2.147-4.52,4.1-6.643,6.29a4.246,4.246,0,0,0-.952,4.593c.085.213.334.351.293.625q2.539-2.46,5.078-4.921,9.655-9.38,19.311-18.759a3.447,3.447,0,0,0,1.289-2.744,2.691,2.691,0,0,0-.671-1.645" transform="translate(27.394 -155.491)" fill="#feb3a2"/>
        <path id="Trazado_727295" data-name="Trazado 727295" d="M33.52,422.639a9.866,9.866,0,0,0,9.38-6.555A9.329,9.329,0,0,0,43.43,413a1.75,1.75,0,0,1,.969-1.75,2.535,2.535,0,0,1,1.454-.1,6.307,6.307,0,0,0,5.926-2.332,6.05,6.05,0,0,0,1.259-2.648,5.955,5.955,0,0,0-.221-3.762c-.214-.513-.327-.547-.751-.178-1.086.944-2.1,1.956-3.1,3-.862.9-1.833,1.688-2.729,2.551-2.474,2.384-4.9,4.822-7.354,7.222-2.418,2.359-4.856,4.7-7.284,7.046-.083.08-.231.143-.2.272s.185.116.3.14a6.965,6.965,0,0,0,1.821.189" transform="translate(45.662 -339.454)" fill="#c2f5f9"/>
        <path id="Trazado_727296" data-name="Trazado 727296" d="M492.982,283.834c-.129,3.491,2.634,6.439,5.273,7.347.332.114.664.234,1,.331a1.6,1.6,0,0,1,1.164,1.524,11.866,11.866,0,0,0,.33,2.727,2.238,2.238,0,0,0,.205.517.177.177,0,0,0,.2.119c.115-.029.078-.133.082-.209.066-1.106.1-2.215.2-3.317.127-1.331.22-2.664.392-3.992.128-.992.2-2,.331-2.988.146-1.085.356-2.162.458-3.251a16.645,16.645,0,0,0,.02-2.484c-.043-.747-.18-1.489-.291-2.231a24.838,24.838,0,0,0-.65-3.123c-.224-.787-.5-1.56-.757-2.338-.039-.119-.046-.309-.223-.288s-.164.209-.167.329c-.018.556-.151,1.1-.141,1.66a1.576,1.576,0,0,1-1.184,1.675,14.8,14.8,0,0,0-1.425.52,8.345,8.345,0,0,0-4.8,6.286,3.546,3.546,0,0,0-.019.559c0,.187,0,.373,0,.628m5.259-6.574a2.926,2.926,0,0,1,1.549.306,1.566,1.566,0,0,1,.724,2.585,16.427,16.427,0,0,1-4.288,3.379c-.083.044-.226.02-.235.154s.105.151.2.192a2.772,2.772,0,0,1,1.41,1.6.929.929,0,0,1-1.025,1.362,2.635,2.635,0,0,1-1.929-1.695,1.048,1.048,0,0,1,.342-1.188c.182-.135.348-.333.181-.565a3.605,3.605,0,0,1-.571-2.8,4.533,4.533,0,0,1,1.35-2.5,2.753,2.753,0,0,1,2.293-.829" transform="translate(-475.571 -229.842)" fill="#c2f5f9"/>
        <path id="Trazado_727297" data-name="Trazado 727297" d="M43.111,249.023a.469.469,0,0,1-.4.445,3.5,3.5,0,0,0-1.282.8,16.969,16.969,0,0,0-1.311,1.2Q31.577,260,23.047,268.541a7.9,7.9,0,0,0-1.411,1.653,4.046,4.046,0,0,0-.522,2.536,1.6,1.6,0,0,0,.478,1.074q3.219-3.113,6.437-6.227,7.2-6.989,14.383-13.987a4.1,4.1,0,0,0,1.3-1.885,2.9,2.9,0,0,0-.6-2.683" transform="translate(56.686 -210.29)" fill="#feb3a2"/>
        <path id="Trazado_727298" data-name="Trazado 727298" d="M126.465,158.584a3.711,3.711,0,0,0-1.388,1c-1.7,1.8-3.625,3.367-5.416,5.073-.478.455-.971.9-1.435,1.365-2.624,2.651-5.51,5.022-8.13,7.681-1.577,1.6-3.332,3.027-4.965,4.575a7.58,7.58,0,0,0-1.7,2,3.253,3.253,0,0,0-.121,2.744.965.965,0,0,0,.519.46q3.276-3.166,6.55-6.332,7.72-7.513,15.432-15.035a2.953,2.953,0,0,0,.656-3.534" transform="translate(-39.059 -133.918)" fill="#feb3a2"/>
        <path id="Trazado_727299" data-name="Trazado 727299" d="M241.264,173.6a9.712,9.712,0,0,0,3.365.8c2.761.037,5.523.011,8.285.011,1.107,0,1.106,0,1.108,1.082,0,.186.009.372.013.558l3.241.011a4.127,4.127,0,0,0,0-.66,8.666,8.666,0,0,0-3.139-5.719,7.953,7.953,0,0,0-6.573-1.641,7.809,7.809,0,0,0-5.163,3.477c-.447.662-.728,1.4-1.136,2.08" transform="translate(-191.034 -141.778)" fill="#c2f5f9"/>
        <path id="Trazado_727300" data-name="Trazado 727300" d="M209.147,156.347c.408-.677.689-1.419,1.136-2.08a7.809,7.809,0,0,1,5.163-3.477,7.953,7.953,0,0,1,6.573,1.641,8.666,8.666,0,0,1,3.139,5.719,4.132,4.132,0,0,1,0,.66l.188.126q2.118-2.058,4.236-4.115a8.649,8.649,0,0,1,.748-.688c.2-.153.166-.221,0-.375a5.078,5.078,0,0,0-4.973-1.223c-.287.071-.564.193-.854.236a1.718,1.718,0,0,1-1.94-1.04,7.692,7.692,0,0,0-4.552-3.9,8.5,8.5,0,0,0-3.751-.274,8.045,8.045,0,0,0-3.7,1.455,7.761,7.761,0,0,0-2.733,3.578,14.427,14.427,0,0,0-.6,2.668.4.4,0,0,0,.231.485,9.33,9.33,0,0,0,1.69.607" transform="translate(-158.917 -124.53)" fill="#f8f9fb"/>
        <path id="Trazado_727301" data-name="Trazado 727301" d="M321.272,267.881a23.365,23.365,0,0,1,1.066,3.4,26.658,26.658,0,0,1,.494,2.9c.131,1.318.062,2.636.1,3.953.042,1.338.668,1.923,1.941,1.892a5.64,5.64,0,0,0,3.839-1.529q2.932-2.713,5.872-5.417c.135-.125.251-.27.376-.405a4.594,4.594,0,0,0-2.564-.807,12.443,12.443,0,0,0-4.074.291,12.774,12.774,0,0,0-3.507,1.558c-.093.056-.182.207-.3.1-.056-.05-.056-.192-.042-.286a5.193,5.193,0,0,0-1.2-4.423c-.532-.607-.937-1.468-2-1.226" transform="translate(-281.151 -226.18)" fill="#c2f5f9"/>
        <path id="Trazado_727302" data-name="Trazado 727302" d="M393.442,22.293a11.06,11.06,0,0,0,.348,2.4,14.624,14.624,0,0,1-.842,8.4,65.28,65.28,0,0,1-3.179,6.071,13.213,13.213,0,0,0-1.587,2.923,6.608,6.608,0,0,0,1.51,6.375A6.374,6.374,0,0,0,392,49.971c.259.113.472.076.519-.262a5.656,5.656,0,0,1-1.641-3.521c-.218-2.324.6-4.415,1.378-6.52.762-2.059,1.8-4,2.472-6.105a23.165,23.165,0,0,0,.91-8.718,2.815,2.815,0,0,0-2.2-2.551" transform="translate(-352.269 -18.826)" fill="#f99c81"/>
        <path id="Trazado_727303" data-name="Trazado 727303" d="M289.692,241.081c1.064-.242,1.469.619,2,1.226a5.194,5.194,0,0,1,1.2,4.423c-.015.094-.014.237.042.286.119.105.208-.046.3-.1a12.775,12.775,0,0,1,3.507-1.558,12.442,12.442,0,0,1,4.074-.291,4.594,4.594,0,0,1,2.564.807q2.52-2.335,5.039-4.671c.42-.389.422-.4-.1-.626a5.855,5.855,0,0,0-3.155-.34,3.4,3.4,0,0,0-1.827.587,1.515,1.515,0,0,0-.586,1.03,1.637,1.637,0,0,1-2.5,1.351,7.035,7.035,0,0,0-4.108-.895,7.406,7.406,0,0,0-1.911.5,1.522,1.522,0,0,1-2.077-.975,9.113,9.113,0,0,0-4.548-5.554.751.751,0,0,0-.689-.142,29.007,29.007,0,0,1,2.773,4.94" transform="translate(-249.571 -199.381)" fill="#f8f9fb"/>
        <path id="Trazado_727304" data-name="Trazado 727304" d="M250.927,220.461l-.188-.126-3.241-.011c-.005.407-.037.815-.008,1.219.026.351-.111.412-.429.411-1.764-.008-3.528.005-5.292.011-.136.512-.638.706-.949,1.066-.181.209-.352.478-.675.523a19.75,19.75,0,0,1,2.761.2,6.992,6.992,0,0,1,2.735,1.263c.269.2.443.217.688-.027,1.526-1.517,3.064-3.023,4.6-4.532" transform="translate(-184.496 -186.056)" fill="#f99c81"/>
        <path id="Trazado_727305" data-name="Trazado 727305" d="M24.4,337.385l.079.134-.079-.134" transform="translate(75.512 -284.909)" fill="#feb3a2"/>
        <path id="Trazado_727306" data-name="Trazado 727306" d="M507.75,304.745a2.753,2.753,0,0,0-2.293.829,4.534,4.534,0,0,0-1.35,2.5,3.6,3.6,0,0,0,.571,2.8c.167.232,0,.43-.181.565a1.048,1.048,0,0,0-.342,1.188,2.635,2.635,0,0,0,1.929,1.695.929.929,0,0,0,1.025-1.362,2.772,2.772,0,0,0-1.41-1.6c-.094-.041-.208-.068-.2-.192s.152-.11.235-.154a16.428,16.428,0,0,0,4.288-3.379,1.566,1.566,0,0,0-.724-2.585,2.926,2.926,0,0,0-1.549-.306" transform="translate(-485.08 -257.327)" fill="#f8f9fb"/>
      </g>
    </g>
  </g>
</svg>
