<svg xmlns="http://www.w3.org/2000/svg" xmlns:xlink="http://www.w3.org/1999/xlink" width="438" height="220" viewBox="0 0 438 220">
  <defs>
    <clipPath id="clip-path">
      <rect id="Rectángulo_349847" data-name="Rectángulo 349847" width="211.475" height="217" fill="none"/>
    </clipPath>
    <clipPath id="clip-path-2">
      <rect id="Rectángulo_349857" data-name="Rectángulo 349857" width="124.96" height="199.414" fill="none"/>
    </clipPath>
  </defs>
  <g id="Grupo_1031895" data-name="Grupo 1031895" transform="translate(-844 -2629)">
    <rect id="Rectángulo_349849" data-name="Rectángulo 349849" width="438" height="21" transform="translate(844 2828)" fill="#8d0a0a"/>
    <g id="Grupo_1028344" data-name="Grupo 1028344" transform="translate(957 2629)">
      <g id="Grupo_1028342" data-name="Grupo 1028342" clip-path="url(#clip-path)">
        <path id="Trazado_727353" data-name="Trazado 727353" d="M112.937,181.581c-.973-2.242-2.6-3.693-3.641-3.244s-1.09,2.633-.116,4.874,2.6,3.695,3.641,3.244,1.089-2.632.116-4.874" transform="translate(3.19 5.241)" fill="#564447"/>
        <path id="Trazado_727354" data-name="Trazado 727354" d="M30.213,189.922l5.476-.032a80.672,80.672,0,0,0,2.817,13.677l-4.715.32c.959-3.655-3.579-13.965-3.579-13.965" transform="translate(0.888 5.583)" fill="#ddbf92"/>
        <path id="Trazado_727355" data-name="Trazado 727355" d="M57.569,188.66l-5.221,1.655a80.605,80.605,0,0,1,1.529,13.879l4.584-1.146c-2.037-3.184-.891-14.389-.891-14.389" transform="translate(1.539 5.547)" fill="#ddbf92"/>
        <path id="Trazado_727356" data-name="Trazado 727356" d="M22.515,211.105H42.888s-2.629-9.015-6.84-10.424-1.14,5.635-9.473,6.62c-2.586.307-4.28,2.817-4.061,3.8" transform="translate(0.661 5.895)" fill="#f4deba"/>
        <path id="Trazado_727357" data-name="Trazado 727357" d="M71.739,211.076H51.111s.637-8.15,4.584-9.423,2.419,5.093,11.078,5.985c2.687.277,4.966,2.547,4.966,3.438" transform="translate(1.503 5.924)" fill="#f4deba"/>
        <path id="Trazado_727358" data-name="Trazado 727358" d="M68.32,73.745l6.961,25.467L64.924,104.56,53.379,80.706Z" transform="translate(1.569 2.168)" fill="#ffa77b"/>
        <path id="Trazado_727359" data-name="Trazado 727359" d="M61.529,90.808c-1.821-3.754,2.884-9.4,7.314-11.551.291-.142.585-.266.88-.378l-1.4-5.135L53.379,80.707,64.925,104.56l10.356-5.348-1.56-5.706c-3.952,1.121-10.6.577-12.192-2.7" transform="translate(1.569 2.168)" fill="#ea875c"/>
        <path id="Trazado_727360" data-name="Trazado 727360" d="M59.788,36.636S68.3,43.605,69.1,45.928s-.439,20.39-.439,20.39.769.258.794,1.807a2.807,2.807,0,0,1-1.236,2.323l.842,4.9L55.713,84.387s-5.987-24-5.109-32.78,9.183-14.971,9.183-14.971" transform="translate(1.485 1.077)" fill="#f7ba57"/>
        <path id="Trazado_727361" data-name="Trazado 727361" d="M61.3,73.893c-.635-1.639,1.88-4.142,5.617-5.591a15.748,15.748,0,0,1,2.493-.739,1.858,1.858,0,0,0-.479-1.061,3.341,3.341,0,0,1-1.947.694c-3.9,0-7.067-7.9-7.067-17.636a36.313,36.313,0,0,1,1.68-11.4c-1.061-.911-1.808-1.524-1.808-1.524S51.483,42.83,50.6,51.606s5.109,32.78,5.109,32.78l13.352-9.034-.171-1c-3.618,1.318-6.981,1.131-7.6-.461" transform="translate(1.485 1.077)" fill="#f2a446"/>
        <path id="Trazado_727362" data-name="Trazado 727362" d="M53.456,85.146c-.742-.175-1.638-2.138-1.638-2.138s10.9-10.576,13.013-12.415c2.165-1.884,6.409-.441,6.339.838-.07,1.262.357,5.639-.719,5.856s-17,7.858-17,7.858" transform="translate(1.524 2.049)" fill="#f4deba"/>
        <path id="Trazado_727363" data-name="Trazado 727363" d="M61.787,78.638a9.969,9.969,0,0,1,5.136-8.909,3.833,3.833,0,0,0-2.092.862c-2.114,1.84-13.014,12.416-13.014,12.416s.9,1.962,1.639,2.139c0,0,4.321-2.074,8.613-4.092a10.806,10.806,0,0,1-.282-2.415" transform="translate(1.524 2.05)" fill="#e5c595"/>
        <path id="Trazado_727364" data-name="Trazado 727364" d="M20.483,30.02C6.562,65.334,8.769,147.507,27.954,203.535l14.261-3.4s-10.187-64.177-10.187-91.511l2.037.848c.862,19.74,8.372,55.955,15.96,92.36l13.922,2.377S55.8,100.564,57.24,77.219c.419-6.779,5.349-39.049,5.349-39.049s-12.9-13.583-16.3-13.243S20.483,30.02,20.483,30.02" transform="translate(0.339 0.733)" fill="#5c8ebc"/>
        <path id="Trazado_727365" data-name="Trazado 727365" d="M55.023,200.539c-7.057-33.582-14.741-66.5-14.923-95.661l-14.347-4.414,5.859,6.277c0-.111,0-.225,0-.336l2.038.849c.174,4,.625,8.683,1.291,13.9l3.647,23.159c3,16.765,7,36.005,11.021,55.3Z" transform="translate(0.757 2.954)" fill="#3f7099"/>
        <path id="Trazado_727366" data-name="Trazado 727366" d="M17.089,101.219c0-27.6,3.645-52.9,9.71-72.632-3.64.757-6.314,1.324-6.314,1.324C6.562,65.225,8.769,147.4,27.955,203.426l6.621-1.783c-11.97-28.523-17.487-57.62-17.487-100.424" transform="translate(0.339 0.841)" fill="#3f7099"/>
        <path id="Trazado_727367" data-name="Trazado 727367" d="M59.924,35.833c-3.864-3.866-11.511-11.157-14.01-10.907-2.46.246-14.892,2.807-21.562,4.2C27.9,38.115,27.7,54.552,27.7,54.552s20.628,1.911,28.9-.891c0,0,2.269-10.282,3.315-17.828" transform="translate(0.716 0.733)" fill="#f7ba57"/>
        <path id="Trazado_727368" data-name="Trazado 727368" d="M55.216,31.312c-3.618-3.315-7.622-6.553-9.3-6.385-2.459.246-14.892,2.807-21.562,4.2a40.824,40.824,0,0,1,2.058,8,54.145,54.145,0,0,0,7.3.489c9.909,0,18.21-2.605,21.5-6.306" transform="translate(0.716 0.733)" fill="#ef9348"/>
        <path id="Trazado_727369" data-name="Trazado 727369" d="M61.131,98.357c10.314-6.749,15.025-3.311,15.025-3.311l.637,17.445-11.078-2.674Z" transform="translate(1.797 2.769)" fill="#d6bdbd"/>
        <path id="Trazado_727370" data-name="Trazado 727370" d="M75.935,95.046s-2.326-1.69-7.279-.364a21.149,21.149,0,0,0,.688,4.648c1.415,5.435,4.525,9.359,7.078,9.044Z" transform="translate(2.019 2.769)" fill="#f4deba"/>
        <path id="Trazado_727372" data-name="Trazado 727372" d="M22.69,62.688s.254-2.547-.891-2.292c0,0,4.33-28.4-.636-30.56S-3.021,56.948.407,66.253A5.16,5.16,0,0,0,4.1,69.182s-2.165,4.456,1.147,7.131S22.69,62.688,22.69,62.688" transform="translate(0 0.874)" fill="#f7ba57"/>
        <path id="Trazado_727373" data-name="Trazado 727373" d="M5.482,71.922c-1.295-4.016,3.107-9.03,9.834-11.2a19.649,19.649,0,0,1,6.517-.98c.134-.908.647-4.5,1.079-8.916-3.951,6.82-8.756,10.825-12.283,9.6-3.7-1.287-4.917-7.949-3.48-16.281C2.388,52.167-1.251,61.33.407,65.829A5.161,5.161,0,0,0,4.1,68.758s-2.165,4.456,1.146,7.131c.732.591,1.993.252,3.513-.629a5.707,5.707,0,0,1-3.278-3.337" transform="translate(0 1.298)" fill="#f2a446"/>
        <path id="Trazado_727374" data-name="Trazado 727374" d="M4.972,74.262c4.33,5.348,30.943-3.056,30.943-3.056l3.819-10.441s-14.9-.636-19.1.128S4.972,74.262,4.972,74.262" transform="translate(0.146 1.779)" fill="#ffa77b"/>
        <path id="Trazado_727375" data-name="Trazado 727375" d="M33.906,60.58c-3.814,5.583-8.418,8.919-10.6,7.546-1.492-.94-1.475-3.862-.233-7.486a21.7,21.7,0,0,0-2.443.25c-4.2.764-15.662,13.37-15.662,13.37C9.3,79.607,35.915,71.2,35.915,71.2l3.819-10.441s-2.546-.108-5.827-.182" transform="translate(0.146 1.781)" fill="#ea875c"/>
        <path id="Trazado_727376" data-name="Trazado 727376" d="M29.588,75.077c-.254-9.55,6.749-16.3,6.749-16.3s9.423,3.947,11.715,5.6c0,0,5.6,1.147,7,3.312s1.528,10.823.764,10.823-8.022-.255-9.3-1.911a11.7,11.7,0,0,1-1.783-4.074l-2.165-.636Z" transform="translate(0.87 1.728)" fill="#f4deba"/>
        <path id="Trazado_727377" data-name="Trazado 727377" d="M55.762,77.573c-2.062.71-4.846-1.949-6.222-5.938-.134-.389-.245-.775-.343-1.158a29.946,29.946,0,0,1-6.075-1.125,26.118,26.118,0,0,1-10.507-5.7,21.7,21.7,0,0,0-3.028,11.286L42.576,71.75l2.164.636a11.7,11.7,0,0,0,1.783,4.074c1.273,1.655,8.532,1.911,9.3,1.911.16,0,.278-.385.356-1a2.125,2.125,0,0,1-.413.2" transform="translate(0.87 1.871)" fill="#d6bdbd"/>
        <path id="Trazado_727378" data-name="Trazado 727378" d="M78.957,117.924c-2.484,1.121-5.485,2.756-6.269,2.2s-6.832-6.925-7.346-8.821,1.821-5.96,3.211-6.463,13.916,11.492,10.4,13.079" transform="translate(1.919 3.082)" fill="#d6bdbd"/>
        <path id="Trazado_727379" data-name="Trazado 727379" d="M79.393,117.393c1.159-2.795-9.641-13.014-10.926-12.547a1.4,1.4,0,0,0-.194.1,11.227,11.227,0,0,0,2.1,7.643c2.414,3.52,6.093,5.371,9.021,4.808" transform="translate(2.005 3.082)" fill="#f4deba"/>
        <path id="Trazado_727380" data-name="Trazado 727380" d="M34.6,27.172l2.992-8.6L49.051,21,47.9,28.763s-.127,8.4-6.239,8.277c-4.737-.1-7.067-9.869-7.067-9.869" transform="translate(1.017 0.546)" fill="#dd704a"/>
        <path id="Trazado_727381" data-name="Trazado 727381" d="M33.093,27.023l1.867-1.188s3.056,9.508,7.556,9.846,5.857-9.932,5.857-9.932l.678.594a20.082,20.082,0,0,1-3.565,13.413L42.94,37.21h-.679L39.12,40.351c-3.294-3.8-5.676-8.061-6.027-13.328" transform="translate(0.973 0.757)" fill="#e5ddcf"/>
        <path id="Trazado_727382" data-name="Trazado 727382" d="M39.134,9.058c-3.056,5.6-2.879,17.818-1.8,19.618s5.219,3.779,6.119,3.779,6.12.18,7.019-1.26,6.839-14.4,7.019-17.818S52.812,7.437,49.753,6s-9.539,1.08-10.619,3.059" transform="translate(1.077 0.164)" fill="#ffa77b"/>
        <path id="Trazado_727383" data-name="Trazado 727383" d="M50.877,16.707a20.862,20.862,0,0,1,5.551.745,17.931,17.931,0,0,0,1.063-4.075c.18-3.42-4.679-5.939-7.739-7.379s-9.538,1.08-10.618,3.059c-1.982,3.632-2.6,10.027-2.5,14.578,2.189-4.048,7.731-6.929,14.242-6.929" transform="translate(1.077 0.164)" fill="#ea875c"/>
        <path id="Trazado_727384" data-name="Trazado 727384" d="M35.787,24.14c-1.89-5.8-.068-13.432-.068-13.432l6.48-.067-3.24,6.817-2.093,1.215-.135,2.97Z" transform="translate(1.027 0.313)" fill="#663842"/>
        <path id="Trazado_727385" data-name="Trazado 727385" d="M35.3,13.047C35.168,7.107,40.028,1.167,45.158.358S55.821.223,56.5,1.3s.27,12.013.27,12.013c-6.907-2.975-13.935-2.376-21.463-.27" transform="translate(1.038 0)" fill="#f4deba"/>
        <path id="Trazado_727386" data-name="Trazado 727386" d="M42.322,8.86c0-3.839,2.607-7.167,6.428-8.839a29.856,29.856,0,0,0-3.593.336c-5.13.81-9.989,6.749-9.854,12.688a49.22,49.22,0,0,1,7.461-1.532,8.414,8.414,0,0,1-.442-2.653" transform="translate(1.038 0.001)" fill="#e5c595"/>
        <path id="Trazado_727387" data-name="Trazado 727387" d="M60.354,7.316c-4.86-1.755-18.831,0-23.15,4.995,10.394-2.4,20.865.513,19.505,4.185,16.6-1.89,8.5-7.424,3.645-9.179" transform="translate(1.094 0.196)" fill="#aa445a"/>
        <path id="Trazado_727388" data-name="Trazado 727388" d="M37.8,107.489l7.64-2.929-9.423-.51Z" transform="translate(1.059 3.059)" fill="#3f7099"/>
        <path id="Trazado_727389" data-name="Trazado 727389" d="M34.435,14.251c-2.97,1.35-2.295,6.344,3.1,7.289,0,0-.135-8.639-3.1-7.289" transform="translate(0.961 0.415)" fill="#ea875c"/>
        <path id="Trazado_727390" data-name="Trazado 727390" d="M34.657,15.516c-1.886.857-1.458,4.03,1.972,4.63,0,0-.086-5.488-1.972-4.63" transform="translate(0.986 0.454)" fill="#cc4f46"/>
        <path id="Trazado_727391" data-name="Trazado 727391" d="M35.83,16.627c-1.207.484-1.12,2.734.955,3.365,0,0,.252-3.848-.955-3.365" transform="translate(1.03 0.488)" fill="#ea875c"/>
        <path id="Trazado_727392" data-name="Trazado 727392" d="M23.56,60.7c0-.849-1.783-2.207-1.783-2.207S4.8,69.015,2.762,70.713s1.614,5.942,2.717,6.2,6.2.764,6.621-.255S23.56,60.7,23.56,60.7" transform="translate(0.063 1.72)" fill="#f4deba"/>
        <path id="Trazado_727393" data-name="Trazado 727393" d="M13.968,65.337a10.274,10.274,0,0,1,.257-2.259c-4.817,3.036-10.354,6.576-11.462,7.5-2.038,1.7,1.612,5.943,2.717,6.2s6.2.764,6.621-.254c.156-.376,1.756-2.645,3.712-5.358a9.887,9.887,0,0,1-1.845-5.826" transform="translate(0.063 1.855)" fill="#e5c595"/>
        <path id="Trazado_727394" data-name="Trazado 727394" d="M110.03,182.509c-.973-2.242-2.6-3.693-3.641-3.244s-1.09,2.633-.116,4.875,2.6,3.694,3.641,3.243,1.089-2.632.116-4.874" transform="translate(3.104 5.268)" fill="#443639"/>
        <path id="Trazado_727397" data-name="Trazado 727397" d="M148.891,193a6.312,6.312,0,0,0,.147.695c-.047-.237-.112-.459-.143-.709Z" transform="translate(4.378 5.674)" fill="#d8d2c0"/>
        <path id="Trazado_727405" data-name="Trazado 727405" d="M109.3,182.782c-.361-.833-.968-1.373-1.353-1.205s-.406.978-.044,1.812.968,1.372,1.354,1.205.4-.979.043-1.812" transform="translate(3.165 5.338)" fill="#7a6a6e"/>
        <path id="Trazado_727406" data-name="Trazado 727406" d="M76.193,104.052c1.86,2.5,1.907,6.523,1.777,8.655-.037.6-.467.807-.97.468-1.723-1.162-4.7-4.588-4.825-5.844a3.211,3.211,0,0,1,.285-1.5.774.774,0,0,1,1.337-.145,1.038,1.038,0,0,0,1.794-.211Z" transform="translate(2.122 3.059)" fill="#f4deba"/>
        <path id="Trazado_727407" data-name="Trazado 727407" d="M20.743,29.835c-1.351-.589-3.759,1.16-6.477,4.19a33.246,33.246,0,0,0,8.762,2.618c-.232-3.529-.892-6.2-2.285-6.807" transform="translate(0.419 0.874)" fill="#ef9348"/>
        <path id="Trazado_727408" data-name="Trazado 727408" d="M26.773,56.763c.117-.914-.339-1.655-1.019-1.655s-1.326.741-1.443,1.655.34,1.655,1.019,1.655,1.326-.741,1.443-1.655" transform="translate(0.714 1.62)" fill="#3f7099"/>
        <path id="Trazado_727409" data-name="Trazado 727409" d="M55.883,57.052c.117-.914-.339-1.655-1.019-1.655s-1.326.741-1.443,1.655.34,1.655,1.019,1.655,1.326-.741,1.443-1.655" transform="translate(1.57 1.629)" fill="#3f7099"/>
        <path id="Trazado_727410" data-name="Trazado 727410" d="M58.761,34.493c-1.065,7.513-3.266,17.486-3.266,17.486-7.181,2.429-23.654,1.315-27.889.977.008.832,0,1.316,0,1.316s20.628,1.91,28.9-.892c0,0,2.269-10.281,3.315-17.828-.328-.327-.691-.687-1.067-1.058" transform="translate(0.812 1.014)" fill="#ef9348"/>
        <path id="Trazado_727411" data-name="Trazado 727411" d="M47.607,64.426c4.2.341,6.931-.07,7.98.807,4.032,3.374,2.823,6.431,2.823,6.431s-2.356-2.993-2.738-2.993-1.995-.127-1.995-.127Z" transform="translate(1.4 1.894)" fill="#f4deba"/>
        <path id="Trazado_727412" data-name="Trazado 727412" d="M48.924,17.677c-.142,1.508-.517,7.915-1.246,8.071a3.265,3.265,0,0,1-1.9-.692l-.075.181s1.5,1.133,2.3.964,1.176-7.928,1.283-8.381Z" transform="translate(1.344 0.52)" fill="#dd704a"/>
        <path id="Trazado_727413" data-name="Trazado 727413" d="M45.544,27.724A4.771,4.771,0,0,1,41.679,24.5c-.246-.8-.073-.96-.016-1.013a.292.292,0,0,1,.409.017.289.289,0,0,1,.055.3,4.026,4.026,0,0,0,3.524,3.356c.078.014.159.028.24.04a.3.3,0,0,1,.244.327.29.29,0,0,1-.327.244c-.089-.013-.176-.029-.261-.044" transform="translate(1.222 0.688)" fill="#dd704a"/>
        <path id="Trazado_727414" data-name="Trazado 727414" d="M42.591,27.249c-.3-.265-.607-.4-.692-.306s.088.387.385.652.607.4.692.306-.087-.387-.385-.652" transform="translate(1.231 0.791)" fill="#dd704a"/>
        <path id="Trazado_727415" data-name="Trazado 727415" d="M50.709,19.829a1.61,1.61,0,0,0,.5,1.988c.568.265,1.269-.2,1.566-1.044a2.294,2.294,0,0,0,.106-.526Z" transform="translate(1.487 0.583)" fill="#3f3335"/>
        <path id="Trazado_727416" data-name="Trazado 727416" d="M43.674,18.018l0,.005a1.614,1.614,0,0,0,.493,2c.568.265,1.269-.2,1.565-1.045a2.237,2.237,0,0,0,.111-.545Z" transform="translate(1.28 0.53)" fill="#3f3335"/>
        <path id="Trazado_727417" data-name="Trazado 727417" d="M47.3,15.189l-3.127-.431a1.077,1.077,0,0,0-1.234.852,1.025,1.025,0,0,0,.915,1.149l3.127.431a1.079,1.079,0,0,0,1.235-.852,1.026,1.026,0,0,0-.916-1.149" transform="translate(1.262 0.434)" fill="#663842"/>
        <path id="Trazado_727418" data-name="Trazado 727418" d="M55.021,17.915l-2.776-1.5a1.078,1.078,0,0,0-1.455.363,1.025,1.025,0,0,0,.453,1.4l2.776,1.5a1.077,1.077,0,0,0,1.455-.364,1.024,1.024,0,0,0-.453-1.4" transform="translate(1.49 0.478)" fill="#663842"/>
        <g id="Grupo_1028346" data-name="Grupo 1028346" transform="translate(41.433 15.91)">
          <g id="Grupo_1028345" data-name="Grupo 1028345" clip-path="url(#clip-path-2)">
            <path id="Trazado_727422" data-name="Trazado 727422" d="M48.984,80.921h-1.27A1.715,1.715,0,0,0,46,82.635v2.35h4.7v-2.35a1.715,1.715,0,0,0-1.715-1.714" fill="#d3c5ae"/>
            <path id="Trazado_727423" data-name="Trazado 727423" d="M54.888,83.715H45.759A1.664,1.664,0,0,0,44.1,85.379v15.5a1.758,1.758,0,0,0,1.759,1.758H59.736a1.758,1.758,0,0,0,1.758-1.758V90.321a6.606,6.606,0,0,0-6.606-6.606" fill="#c45b6a"/>
            <path id="Trazado_727424" data-name="Trazado 727424" d="M52.667,83.715h-6.35a2.2,2.2,0,0,0-1.441.543,18.11,18.11,0,0,0,5.606,9.221,17.348,17.348,0,0,0,11.012,4.882V92.542a8.827,8.827,0,0,0-8.827-8.827" fill="#e25a74"/>
            <path id="Trazado_727425" data-name="Trazado 727425" d="M32.935,67.712H31.124a1.508,1.508,0,0,0-1.508,1.507V74.7h4.826V69.219a1.507,1.507,0,0,0-1.507-1.507" fill="#d3c5ae"/>
            <path id="Trazado_727426" data-name="Trazado 727426" d="M28.474,71.4v31.5h13.97v-.381L38.981,79.7a8.785,8.785,0,0,0-6.346-7.15Z" fill="#5385aa"/>
            <path id="Trazado_727427" data-name="Trazado 727427" d="M32.634,72.545l-4.161-1.15V88.956A3.633,3.633,0,0,0,30,89.3c3.62,0,6.645-5.729,7.421-13.4a8.769,8.769,0,0,0-4.784-3.357" fill="#67a7ce"/>
            <path id="Trazado_727428" data-name="Trazado 727428" d="M115.428,161.313h-6.943a2.2,2.2,0,0,0,0,4.4h6.943a2.2,2.2,0,0,0,0-4.4" fill="#513d45"/>
            <path id="Trazado_727429" data-name="Trazado 727429" d="M61.587,19.27l-2.254-.811L19.576,136.393l2.253.81Z" fill="#685159"/>
            <path id="Trazado_727430" data-name="Trazado 727430" d="M67.992,102.045H26.547A1.545,1.545,0,0,0,25,103.59v.805a1.545,1.545,0,0,0,1.545,1.545H67.992a1.545,1.545,0,0,0,1.545-1.545v-.805a1.545,1.545,0,0,0-1.545-1.545" fill="#d3c5ae"/>
            <path id="Trazado_727431" data-name="Trazado 727431" d="M84.685,24.448a1.43,1.43,0,0,0,1.452-1.633,2.325,2.325,0,0,0-1.654-1.747,6.848,6.848,0,0,0-2.515-.175,1.589,1.589,0,0,0-1.146-2.6,2.789,2.789,0,1,0-5.269-1.677,1.63,1.63,0,0,0-1.61-1.6c-.41.011-.86.173-1.2-.051-.436-.286-.342-.932-.424-1.447a1.864,1.864,0,0,0-2.67-1.24,2.8,2.8,0,0,0-1.14-4.264,2.8,2.8,0,0,0-3.542,2.633,2.841,2.841,0,0,0-2.15-2,1.853,1.853,0,1,0-3.334-.5A2.594,2.594,0,0,0,57.314,7.8a3.148,3.148,0,0,0-.73-3.373,1.664,1.664,0,0,0-2.448.8,3.155,3.155,0,0,0-1.351-2.642c-1.048-.593-2.741.3-2.431,1.462A5.673,5.673,0,0,0,49.271.763c-.781-.873-2.38-1.1-3.057-.141-.484.684-.333,1.679-.838,2.347a7.458,7.458,0,0,1-.914.811,2.373,2.373,0,0,0-.389,2.849,4.184,4.184,0,0,0-2.3-.375A1.827,1.827,0,0,0,40.231,7.8c-.084,1.615,2.236,2.006,3.379,3.151l35.2,14.99a2.683,2.683,0,0,0,3.791.87,2.544,2.544,0,0,0,2.829-.182c.715-.71.254-2.3-.747-2.184" fill="#d3c5ae"/>
            <path id="Trazado_727432" data-name="Trazado 727432" d="M86.137,22.815a2.329,2.329,0,0,0-1.655-1.747,4.02,4.02,0,0,0-.744-.157,3.883,3.883,0,0,1-.374,1.46c-.616,1-2.225.875-3.06.052a5.662,5.662,0,0,1-1.288-3.208c.383,1.142-1.25,2.138-2.334,1.613a3.155,3.155,0,0,1-1.514-2.552,1.665,1.665,0,0,1-2.393.954,3.149,3.149,0,0,1-.942-3.32,2.593,2.593,0,0,1-2.183-.215,1.853,1.853,0,1,1-3.359-.287,2.845,2.845,0,0,1-2.272-1.861,2.668,2.668,0,1,1-4.776-1.332A1.865,1.865,0,0,1,56.5,11.146c-.114-.509-.06-1.159-.514-1.417-.356-.2-.795-.013-1.2.025a1.632,1.632,0,0,1-1.708-1.5,2.788,2.788,0,1,1-5.363-1.341A1.589,1.589,0,0,1,46.4,4.395,7.2,7.2,0,0,1,44.01,4.4a2.385,2.385,0,0,0,.062,2.23,4.171,4.171,0,0,0-2.3-.376A1.827,1.827,0,0,0,40.231,7.8c-.085,1.616,2.236,2.006,3.379,3.151l35.2,14.99a2.682,2.682,0,0,0,3.79.87,2.546,2.546,0,0,0,2.83-.182c.714-.709.254-2.3-.747-2.184a1.43,1.43,0,0,0,1.452-1.633" fill="#b5a58f"/>
            <path id="Trazado_727433" data-name="Trazado 727433" d="M42.613,8.91c2.64-1.112,26.944,11.231,35.581,15.7a2.24,2.24,0,0,1-.011,3.98,4.382,4.382,0,0,1-3.4.475C71.739,28.045,42.274,13.99,41.6,12.635S42.613,8.91,42.613,8.91" fill="#685159"/>
            <path id="Trazado_727434" data-name="Trazado 727434" d="M23.9,103.062h0a1.778,1.778,0,0,0-1.778,1.778v94.574h3.556V104.84a1.778,1.778,0,0,0-1.778-1.778" fill="#685159"/>
            <path id="Trazado_727435" data-name="Trazado 727435" d="M25.1,106.279H22.7a.574.574,0,0,0-.575.574v17.376h3.556V106.853a.574.574,0,0,0-.574-.574" fill="#4f3e44"/>
            <path id="Trazado_727436" data-name="Trazado 727436" d="M55.567,103.062h0a1.778,1.778,0,0,0-1.778,1.778v94.574h3.556V104.84a1.778,1.778,0,0,0-1.778-1.778" fill="#4f3e44"/>
            <path id="Trazado_727437" data-name="Trazado 727437" d="M64.075,105.432H1.06c-.585,0-1.06.682-1.06,1.524s.475,1.524,1.06,1.524H64.075c.585,0,1.06-.682,1.06-1.524s-.475-1.524-1.06-1.524" fill="#685159"/>
            <path id="Trazado_727438" data-name="Trazado 727438" d="M110.094,192.556h-6.35l1.524,5.757h3.3Z" fill="#db772c"/>
            <path id="Trazado_727439" data-name="Trazado 727439" d="M72.755,192.556H66.4l1.524,5.757h3.3Z" fill="#db772c"/>
            <path id="Trazado_727440" data-name="Trazado 727440" d="M38.041,192.556h-6.35l1.524,5.757h3.3Z" fill="#db772c"/>
            <path id="Trazado_727441" data-name="Trazado 727441" d="M79.105,192.556h-6.35l1.524,5.757h3.3Z" fill="#db772c"/>
            <rect id="Rectángulo_349850" data-name="Rectángulo 349850" width="48.092" height="68.243" transform="translate(29.743 126.769)" fill="#f7ba57"/>
            <path id="Trazado_727442" data-name="Trazado 727442" d="M74.956,128.133H47.782l-13.4,65.514H61.559Z" fill="#ffcf64"/>
            <rect id="Rectángulo_349851" data-name="Rectángulo 349851" width="48.092" height="7.493" transform="translate(29.743 129.563)" fill="#e5a345"/>
            <rect id="Rectángulo_349852" data-name="Rectángulo 349852" width="35.222" height="68.243" transform="translate(76.142 126.769)" fill="#e5a345"/>
            <path id="Trazado_727443" data-name="Trazado 727443" d="M109.5,191.074H79.655V133.627H109.5Zm-28.83-1.016h27.814V134.643H80.671Z" fill="#db9037"/>
            <path id="Trazado_727444" data-name="Trazado 727444" d="M111.364,126.769H76.142v68.243l6.265-57.575Z" fill="#db9037"/>
            <rect id="Rectángulo_349853" data-name="Rectángulo 349853" width="51.478" height="8.213" transform="translate(27.712 126.43)" fill="#ffe7ab"/>
            <path id="Trazado_727445" data-name="Trazado 727445" d="M61.748,126.43H44.137l-4.4,8.213H57.345Z" fill="#fff1d2"/>
            <rect id="Rectángulo_349854" data-name="Rectángulo 349854" width="37.339" height="8.213" transform="translate(75.21 126.43)" fill="#efc48b"/>
            <path id="Trazado_727446" data-name="Trazado 727446" d="M122.081,164.531h-6.569a1.016,1.016,0,0,1,0-2.032h6.675a.736.736,0,0,0,.625-1.123l-18.825-30.364a.743.743,0,0,0-.626-.349h-2.412a1.016,1.016,0,1,1,0-2.032h2.412a2.75,2.75,0,0,1,2.352,1.31L124.538,160.3a2.744,2.744,0,0,1-.127,3.108,2.862,2.862,0,0,1-2.33,1.118" fill="#685159"/>
            <path id="Trazado_727447" data-name="Trazado 727447" d="M10.666,104.25s-.508,19.05.889,18.923,1.778-13.335,1.778-13.335l1.016.127s-.508,16.256,1.143,16,1.4-16.129,1.4-16.129l1.27.127s-.93,13.991,1.143,12.954c.762-.381,1.016-13.081,1.016-13.081l.635-.127s-.127,9.779.762,9.525.762-14.986.762-14.986Z" fill="#e5a345"/>
            <path id="Trazado_727448" data-name="Trazado 727448" d="M7.618,104.25s-2.286,7.112-.381,7.239,3.937-7.239,3.937-7.239Z" fill="#e5a345"/>
            <path id="Trazado_727449" data-name="Trazado 727449" d="M80.544,43.286c-2.54,6.1-1.73,9.88-.339,9.483,2.371-.677.339-9.483.339-9.483" fill="#5385aa"/>
            <path id="Trazado_727450" data-name="Trazado 727450" d="M49.415,23.521c-2.54,4.945-1.73,8.015-.339,7.692,2.371-.549.339-7.692.339-7.692" fill="#5385aa"/>
            <path id="Trazado_727451" data-name="Trazado 727451" d="M83.713,82.866c-1.931,3.411-1.068,5.361.117,5.052,2.019-.526-.117-5.052-.117-5.052" fill="#5385aa"/>
            <rect id="Rectángulo_349855" data-name="Rectángulo 349855" width="48.092" height="2.371" transform="translate(29.743 192.641)" fill="#e5a345"/>
            <rect id="Rectángulo_349856" data-name="Rectángulo 349856" width="11.303" height="8.763" transform="translate(46.254 88.033)" fill="#d3c5ae"/>
          </g>
        </g>
      </g>
    </g>
  </g>
</svg>
