<svg id="Grupo_1004831" data-name="Grupo 1004831" xmlns="http://www.w3.org/2000/svg" xmlns:xlink="http://www.w3.org/1999/xlink" width="18.586" height="14" viewBox="0 0 18.586 14">
  <defs>
    <clipPath id="clip-path">
      <rect id="Rectángulo_354275" data-name="Rectángulo 354275" width="16.789" height="12.312" fill="none"/>
    </clipPath>
  </defs>
  <circle id="Elipse_5694" data-name="Elipse 5694" cx="7" cy="7" r="7" transform="translate(4.586)" fill="#b20d0d"/>
  <g id="Grupo_1004825" data-name="Grupo 1004825" transform="translate(0 0.629)">
    <g id="Grupo_1004824" data-name="Grupo 1004824" clip-path="url(#clip-path)">
      <path id="Trazado_716901" data-name="Trazado 716901" d="M8.353,10.653a4.114,4.114,0,0,1-1.862,1.352A4.672,4.672,0,0,1,.145,8.633,6.936,6.936,0,0,1,.389,5,9.152,9.152,0,0,1,2.6,1.132,5.508,5.508,0,0,1,3.515.4,2.168,2.168,0,0,1,6.023.4a6.534,6.534,0,0,1,2.069,2.29c.1.171.195.347.313.558.106-.186.191-.342.281-.494A7.435,7.435,0,0,1,10.324.731a2.433,2.433,0,0,1,3.528.061A8.771,8.771,0,0,1,16.3,4.658a7.428,7.428,0,0,1,.421,3.525,4.553,4.553,0,0,1-3.668,4.029,4.791,4.791,0,0,1-4.571-1.472c-.024-.025-.05-.048-.076-.071a.252.252,0,0,0-.055-.017M.614,7.368a5.144,5.144,0,0,0,.418,2.067,4.211,4.211,0,0,0,6.419,1.346A4.43,4.43,0,0,0,8.837,6.529,8.914,8.914,0,0,0,8.151,4.1,7.685,7.685,0,0,0,6.274,1.3,2.321,2.321,0,0,0,4.846.6a2.1,2.1,0,0,0-1.6.711A8.941,8.941,0,0,0,.614,7.368m11.329,4.354a4.19,4.19,0,0,0,3.085-1.18A4.14,4.14,0,0,0,16.2,7.5a8.767,8.767,0,0,0-1.083-4.156A6.362,6.362,0,0,0,13.206.983,1.608,1.608,0,0,0,11.743.608a3.458,3.458,0,0,0-1.009.52A7.25,7.25,0,0,0,8.749,3.852a.344.344,0,0,0,.017.24,9.745,9.745,0,0,1,.656,2.627,5.429,5.429,0,0,1-.579,3.192.3.3,0,0,0,.044.409,4.192,4.192,0,0,0,3.055,1.4" transform="translate(0 0)" fill="#161615"/>
      <path id="Trazado_716902" data-name="Trazado 716902" d="M11.71,18.111a8.941,8.941,0,0,1,2.627-6.06,2.1,2.1,0,0,1,1.6-.711,2.321,2.321,0,0,1,1.428.7,7.685,7.685,0,0,1,1.877,2.8,8.915,8.915,0,0,1,.686,2.431,4.43,4.43,0,0,1-1.386,4.253,4.21,4.21,0,0,1-6.419-1.346,5.144,5.144,0,0,1-.418-2.067m.736.095c.05.242.118.653.225,1.054.076.285.238.383.423.3.233-.106.2-.3.125-.491a2.791,2.791,0,0,1-.145-1.49c.09-.528.234-1.048.367-1.569.052-.2.039-.383-.174-.453s-.319.069-.385.256a8.291,8.291,0,0,0-.436,2.394" transform="translate(-11.096 -10.742)" fill="#fff0c0"/>
      <path id="Trazado_716903" data-name="Trazado 716903" d="M169.783,21.6a4.192,4.192,0,0,1-3.055-1.4.3.3,0,0,1-.044-.409,5.429,5.429,0,0,0,.579-3.192,9.746,9.746,0,0,0-.656-2.627.344.344,0,0,1-.017-.24,7.25,7.25,0,0,1,1.985-2.724,3.456,3.456,0,0,1,1.009-.52,1.608,1.608,0,0,1,1.463.374,6.363,6.363,0,0,1,1.907,2.359,8.768,8.768,0,0,1,1.083,4.156,4.14,4.14,0,0,1-1.168,3.044,4.19,4.19,0,0,1-3.085,1.18m-2.361-6.987c-.013.313.075.468.273.48s.293-.14.324-.448a3.153,3.153,0,0,1,.147-.71,5.454,5.454,0,0,1,1.266-1.959c.147-.155.2-.317.038-.477s-.338-.1-.47.064c-.273.339-.561.668-.8,1.028a4.048,4.048,0,0,0-.773,2.022" transform="translate(-157.841 -9.88)" fill="#ffe8ce"/>
      <path id="Trazado_716904" data-name="Trazado 716904" d="M25.738,94.135a8.291,8.291,0,0,1,.436-2.394c.066-.186.181-.322.385-.256s.227.248.174.453c-.133.52-.276,1.04-.367,1.569A2.791,2.791,0,0,0,26.511,95c.072.188.108.385-.125.491-.185.084-.347-.014-.423-.3-.107-.4-.175-.811-.225-1.054" transform="translate(-24.389 -86.672)" fill="#161615"/>
      <path id="Trazado_716905" data-name="Trazado 716905" d="M182.727,32.295a4.049,4.049,0,0,1,.773-2.022c.244-.359.532-.689.8-1.028.133-.165.3-.229.47-.064s.11.322-.038.477a5.455,5.455,0,0,0-1.266,1.959,3.154,3.154,0,0,0-.147.71c-.031.307-.123.46-.324.448s-.287-.167-.273-.48" transform="translate(-173.145 -27.56)" fill="#161615"/>
    </g>
  </g>
</svg>
