<svg xmlns="http://www.w3.org/2000/svg" xmlns:xlink="http://www.w3.org/1999/xlink" width="225.741" height="236.823" viewBox="0 0 225.741 236.823">
  <defs>
    <clipPath id="clip-path">
      <rect id="Rectángulo_344983" data-name="Rectángulo 344983" width="114.04" height="183.415" fill="none"/>
    </clipPath>
    <clipPath id="clip-path-2">
      <rect id="Rectángulo_344984" data-name="Rectángulo 344984" width="30.272" height="38.392" fill="none"/>
    </clipPath>
  </defs>
  <g id="Grupo_1028319" data-name="Grupo 1028319" transform="translate(5008.839 10679.706)">
    <path id="Unión_31" data-name="Unión 31" d="M-919.2,235.734c-23.861-7.652-23.861-20.052,0-27.7,11.77-3.772,27.141-5.684,42.565-5.736h1.3c15.423.052,30.794,1.964,42.565,5.736,8.132,2.607,13.493,5.766,16.084,9.1q2.312-.014,4.629-.014c15.64,0,31.281.465,43.215,1.4,23.868,1.862,23.868,4.879,0,6.741-11.934.931-27.575,1.4-43.215,1.4q-2.317,0-4.629-.014c-2.591,3.334-7.952,6.492-16.084,9.1-11.934,3.824-27.575,5.737-43.215,5.737S-907.268,239.558-919.2,235.734Z" transform="translate(-4054.929 -10684.854)" fill="#bba86c" stroke="rgba(0,0,0,0)" stroke-miterlimit="10" stroke-width="1"/>
    <path id="Trazado_727218" data-name="Trazado 727218" d="M198.769,192.3c0,55.43-34.888,81.778-77.926,81.778S42.916,247.731,42.916,192.3,77.8,71.257,120.842,71.257s77.926,65.614,77.926,121.044" transform="translate(-5051.755 -10725.054)" fill="#dea26a"/>
    <g id="Grupo_1028311" data-name="Grupo 1028311" transform="translate(-4967.028 -10634.382)" opacity="0.1">
      <g id="Grupo_1028211" data-name="Grupo 1028211">
        <g id="Grupo_1028210" data-name="Grupo 1028210" clip-path="url(#clip-path)">
          <path id="Trazado_727054" data-name="Trazado 727054" d="M161.791,175.136c0,55.43-34.888,81.778-77.926,81.778-13.031,0-25.378-2.388-36.116-7.32,0,0,54.668,17.418,82.824-49.061,30.8-72.787-7.026-127.032-7.026-127.032,22.9,23.622,38.245,64.879,38.245,101.636" transform="translate(-47.747 -73.504)"/>
        </g>
      </g>
    </g>
    <g id="Grupo_1028312" data-name="Grupo 1028312" transform="translate(-4978.643 -10629.162)" opacity="0.5">
      <g id="Grupo_1028214" data-name="Grupo 1028214">
        <g id="Grupo_1028213" data-name="Grupo 1028213" clip-path="url(#clip-path-2)">
          <path id="Trazado_727055" data-name="Trazado 727055" d="M72.222,99.613c-5.927,10.011-15.514,15.3-21.407,11.8s-5.875-14.433.052-24.444c5.927-9.994,15.514-15.281,21.407-11.794,5.9,3.5,5.867,14.442-.052,24.436" transform="translate(-46.409 -74.107)" fill="#fff"/>
        </g>
      </g>
    </g>
    <g id="Grupo_1028315" data-name="Grupo 1028315" transform="translate(-4967.329 -10684)">
      <g id="Grupo_1028315-2" data-name="Grupo 1028315" transform="translate(26.231 4.294)">
        <path id="Polígono_165" data-name="Polígono 165" d="M64.195,26.238a17,17,0,0,1,29.611,0l49.887,88.408A17,17,0,0,1,128.887,140H29.113a17,17,0,0,1-14.805-25.355Z" fill="#ffc403"/>
      </g>
      <path id="Unión_35" data-name="Unión 35" d="M8.117,65.543A57.51,57.51,0,0,1,0,50.182l.3.114L27.69,41.43a9.978,9.978,0,0,0,2.092,6.583,9.871,9.871,0,0,0,6.3,3.708h0L21.4,77.669A64.4,64.4,0,0,1,8.117,65.543ZM43.188,51.721h0a9.868,9.868,0,0,0,6.3-3.708,9.979,9.979,0,0,0,2.092-6.582L78.972,50.3l.3-.113a57.522,57.522,0,0,1-8.117,15.361A64.413,64.413,0,0,1,57.874,77.669Zm-13.04-11.31a9.6,9.6,0,1,1,9.6,9.63A9.613,9.613,0,0,1,30.148,40.412Zm3.016-9.784L21.832,3.038A64.119,64.119,0,0,1,39.53,0,57.051,57.051,0,0,1,56.589,3.038l-.275.168-9.9,27.119a9.889,9.889,0,0,0-13.248.3h0Z" transform="translate(66.621 54.314)"/>
    </g>
  </g>
</svg>
