<svg id="Grupo_1026644" data-name="Grupo 1026644" xmlns="http://www.w3.org/2000/svg" xmlns:xlink="http://www.w3.org/1999/xlink" width="174.28" height="214.096" viewBox="0 0 174.28 214.096">
  <defs>
    <clipPath id="clip-path">
      <rect id="Rectángulo_344444" data-name="Rectángulo 344444" width="174.28" height="214.096" fill="none"/>
    </clipPath>
    <clipPath id="clip-path-2">
      <rect id="Rectángulo_344443" data-name="Rectángulo 344443" width="174.279" height="214.096" fill="none"/>
    </clipPath>
    <clipPath id="clip-path-3">
      <rect id="Rectángulo_344434" data-name="Rectángulo 344434" width="2.411" height="4.243" fill="none"/>
    </clipPath>
    <clipPath id="clip-path-4">
      <rect id="Rectángulo_344435" data-name="Rectángulo 344435" width="3.094" height="128.309" fill="none"/>
    </clipPath>
    <clipPath id="clip-path-5">
      <rect id="Rectángulo_344436" data-name="Rectángulo 344436" width="45.995" height="8.791" fill="none"/>
    </clipPath>
    <clipPath id="clip-path-6">
      <rect id="Rectángulo_344437" data-name="Rectángulo 344437" width="37.412" height="59.605" fill="none"/>
    </clipPath>
    <clipPath id="clip-path-7">
      <rect id="Rectángulo_344438" data-name="Rectángulo 344438" width="34.522" height="17.242" fill="none"/>
    </clipPath>
    <clipPath id="clip-path-8">
      <rect id="Rectángulo_344439" data-name="Rectángulo 344439" width="1.279" height="0.918" fill="none"/>
    </clipPath>
    <clipPath id="clip-path-9">
      <rect id="Rectángulo_344440" data-name="Rectángulo 344440" width="1.135" height="0.796" fill="none"/>
    </clipPath>
    <clipPath id="clip-path-10">
      <rect id="Rectángulo_344441" data-name="Rectángulo 344441" width="5.571" height="4.183" fill="none"/>
    </clipPath>
    <clipPath id="clip-path-11">
      <rect id="Rectángulo_344442" data-name="Rectángulo 344442" width="2.104" height="2.029" fill="none"/>
    </clipPath>
  </defs>
  <g id="Grupo_1026643" data-name="Grupo 1026643" clip-path="url(#clip-path)">
    <g id="Grupo_1026642" data-name="Grupo 1026642" transform="translate(0 0)">
      <g id="Grupo_1026641" data-name="Grupo 1026641" clip-path="url(#clip-path-2)">
        <path id="Trazado_725419" data-name="Trazado 725419" d="M72.857,187.406,3.546,130.375a9.725,9.725,0,0,1-1.33-13.689L83.795,17.544a9.723,9.723,0,0,1,13.689-1.33l69.311,57.031a9.725,9.725,0,0,1,1.33,13.689L86.546,186.076a9.725,9.725,0,0,1-13.689,1.33" transform="translate(0 12.268)" fill="#06d1d1"/>
        <path id="Trazado_725420" data-name="Trazado 725420" d="M81.085,195.694a10.108,10.108,0,0,1-6.453-2.321L5.322,136.34A10.189,10.189,0,0,1,3.927,122L85.506,22.855a10.191,10.191,0,0,1,14.34-1.392l69.311,57.031a10.188,10.188,0,0,1,1.392,14.342L88.972,191.978a10.255,10.255,0,0,1-7.887,3.715m12.3-175.627q-.453,0-.912.045a9.191,9.191,0,0,0-6.256,3.333L4.642,122.589a9.262,9.262,0,0,0,1.267,13.036L75.22,192.656a9.26,9.26,0,0,0,13.038-1.267l81.579-99.142a9.262,9.262,0,0,0-1.268-13.038L99.259,22.18a9.186,9.186,0,0,0-5.87-2.113" transform="translate(1.407 16.777)" fill="#b20d0d"/>
        <path id="Trazado_725421" data-name="Trazado 725421" d="M64.611,109.932l-.321.854a12.524,12.524,0,0,0-.537,6.96H79.47a5.167,5.167,0,0,0-1.989-5.643L74.4,109.932Z" transform="translate(55.646 96.35)" fill="#29353d"/>
        <path id="Trazado_725422" data-name="Trazado 725422" d="M69.4,51.555l-2.261,1.437a1.488,1.488,0,0,1-.644.326,1.556,1.556,0,0,1-1.526-.484l-1.612-1.824a19.343,19.343,0,0,1-.435-2.524c.088-.141,1.83-1.9,1.882-1.937s2.239.251,2.239.251Z" transform="translate(55.143 40.797)" fill="#29353d"/>
        <path id="Trazado_725423" data-name="Trazado 725423" d="M28.57,28.072a8.794,8.794,0,0,1-4.535.612c.175-4.008.246-7.423.246-7.423s3.411,1.3,3.693,1.481.6,5.331.6,5.331" transform="translate(21.066 18.633)" fill="#29353d"/>
        <g id="Grupo_1026616" data-name="Grupo 1026616" transform="translate(45.1 37.773)" opacity="0.5">
          <g id="Grupo_1026615" data-name="Grupo 1026615">
            <g id="Grupo_1026614" data-name="Grupo 1026614" clip-path="url(#clip-path-3)">
              <path id="Trazado_725424" data-name="Trazado 725424" d="M26.446,20.13v3.832c0,.069-.068.133-.19.19a4,4,0,0,1-1.486.221,5.905,5.905,0,0,1-.736-.043v-4.2a4.264,4.264,0,0,0,2.411,0" transform="translate(-24.035 -20.13)" fill="#f37453"/>
            </g>
          </g>
        </g>
        <path id="Trazado_725425" data-name="Trazado 725425" d="M29.836,13.752v1.672H22.444c-.351,0-.63-.749-.63-1.672Z" transform="translate(19.119 12.053)" fill="#f26144"/>
        <path id="Trazado_725426" data-name="Trazado 725426" d="M28.022,90.5v14.952a2.474,2.474,0,0,1-1.835,2.389,2.548,2.548,0,0,1-.636.083,2.473,2.473,0,0,1-2.475-2.471V90.5Z" transform="translate(20.225 79.32)" fill="#95b0d8"/>
        <path id="Trazado_725427" data-name="Trazado 725427" d="M28.021,90.788v0c0,.15-.22.289-.585.4a7.036,7.036,0,0,1-1.886.22,7.051,7.051,0,0,1-1.888-.22c-.366-.107-.585-.246-.585-.4s.22-.291.585-.4a8.217,8.217,0,0,1,3.774,0c.364.107.584.244.585.4" transform="translate(20.226 79.033)" fill="#c3d1dd"/>
        <path id="Trazado_725428" data-name="Trazado 725428" d="M26.664,21V151.478a3.435,3.435,0,0,1-.58.144,6.068,6.068,0,0,1-.966.075,4.8,4.8,0,0,1-1.548-.22V21Z" transform="translate(20.658 18.406)" fill="#d9b1a9"/>
        <path id="Trazado_725429" data-name="Trazado 725429" d="M33.919,12.771v7.845a6.477,6.477,0,0,1-4.794,6.247V30.7c0,.068-.068.131-.19.19a4,4,0,0,1-1.486.22,5.924,5.924,0,0,1-.736-.041,3.946,3.946,0,0,1-.448-.077,1.136,1.136,0,0,1-.424-.175.157.157,0,0,1-.068-.116V26.863a6.475,6.475,0,0,1-4.794-6.247V12.771a.325.325,0,0,1,.325-.325h2.7a.328.328,0,0,1,.327.325v7.845a3.121,3.121,0,0,0,3.237,3.115,3.169,3.169,0,0,0,3-3.192V12.771a.325.325,0,0,1,.325-.325h2.7a.325.325,0,0,1,.327.325" transform="translate(18.387 10.908)" fill="#f6a274"/>
        <path id="Trazado_725430" data-name="Trazado 725430" d="M29.836,12.861V16.2H22.444c-.351,0-.63-.749-.63-1.67s.28-1.674.63-1.674Z" transform="translate(19.119 11.272)" fill="#f37453"/>
        <path id="Trazado_725431" data-name="Trazado 725431" d="M27.846,12.861c-.349,0-.632.749-.632,1.672s.283,1.672.632,1.672h1.218V12.861Z" transform="translate(23.852 11.272)" fill="#f37453"/>
        <path id="Trazado_725432" data-name="Trazado 725432" d="M29.128,14.533c0,.923-.283,1.672-.632,1.672s-.632-.749-.632-1.672.283-1.672.632-1.672.632.749.632,1.672" transform="translate(24.421 11.272)" fill="#ff8871"/>
        <g id="Grupo_1026619" data-name="Grupo 1026619" transform="translate(44.228 41.721)" opacity="0.5">
          <g id="Grupo_1026618" data-name="Grupo 1026618">
            <g id="Grupo_1026617" data-name="Grupo 1026617" clip-path="url(#clip-path-4)">
              <path id="Trazado_725433" data-name="Trazado 725433" d="M26.664,22.307V150.4a3.435,3.435,0,0,1-.58.144V27.537a3.4,3.4,0,0,0-2.5-3.256l-.017,0V22.234a1.136,1.136,0,0,0,.424.175,5.279,5.279,0,0,0,1.184.12,4,4,0,0,0,1.486-.221" transform="translate(-23.57 -22.234)" fill="#c97b71"/>
            </g>
          </g>
        </g>
        <path id="Trazado_725434" data-name="Trazado 725434" d="M26.548,90.5v14.95a2.473,2.473,0,0,1-1.79,2.376V91.094a5.886,5.886,0,0,0,1.2-.2c.366-.107.585-.246.585-.4" transform="translate(21.699 79.322)" fill="#7ca5d6"/>
        <path id="Trazado_725435" data-name="Trazado 725435" d="M40.069,125.973a1.011,1.011,0,0,1-1.011-1.011V102.178a1.487,1.487,0,0,0-1.484-1.486H22.184a1.487,1.487,0,0,0-1.486,1.486v22.784a1.01,1.01,0,1,1-2.021,0V102.178a3.51,3.51,0,0,1,3.507-3.507H37.573a3.511,3.511,0,0,1,3.507,3.507v22.784a1.011,1.011,0,0,1-1.011,1.011" transform="translate(16.37 86.481)" fill="#95b0d8"/>
        <path id="Trazado_725436" data-name="Trazado 725436" d="M23.189,125.973a1.011,1.011,0,0,1-1.011-1.011V99.682a1.011,1.011,0,0,1,2.023,0v25.28a1.011,1.011,0,0,1-1.011,1.011" transform="translate(19.438 86.481)" fill="#95b0d8"/>
        <path id="Trazado_725437" data-name="Trazado 725437" d="M27.047,125.973a1.011,1.011,0,0,1-1.011-1.011V99.682a1.011,1.011,0,0,1,2.023,0v25.28a1.011,1.011,0,0,1-1.011,1.011" transform="translate(22.819 86.481)" fill="#95b0d8"/>
        <path id="Trazado_725438" data-name="Trazado 725438" d="M49.058,20.459c-6.205,7.525-13.542,35.889-13.542,35.889l6.77,3.674S54.8,47.442,56.821,35.777c1.12-6.478-7.763-15.318-7.763-15.318" transform="translate(31.128 17.931)" fill="#f7a492"/>
        <path id="Trazado_725439" data-name="Trazado 725439" d="M66.951,45.01l-2.306,1.308A2.939,2.939,0,0,0,63.61,50.45l1.267,2A2.173,2.173,0,0,0,67.4,53.51c2.392-.569,4.093-1.754,4.057-3.64l.129-1.546Z" transform="translate(55.351 39.449)" fill="#3f5260"/>
        <path id="Trazado_725440" data-name="Trazado 725440" d="M47.675,20.459A63.6,63.6,0,0,0,37.094,44.281c3.635,5.513,10.24,10,10.24,10s5.879-8.044,6.3-8.65-2.711-21.493-5.961-25.169" transform="translate(32.511 17.931)" fill="#b8bd9b"/>
        <path id="Trazado_725441" data-name="Trazado 725441" d="M97.6,44.738l-8.155,5.134c-3.034-1.407-6.211-2.666-9.322-3.956-2.372-.983-4.7-1.983-6.905-3.081C68.96,40.713,65.2,38.229,62.6,34.808l3.044-14.349a144.622,144.622,0,0,1,12.837,8.6c2.006,1.471,4.2,3.139,6.549,5,3.244,2.574,6.783,5.519,10.527,8.844q1.013.9,2.047,1.839" transform="translate(54.863 17.931)" fill="#fdb9a6"/>
        <path id="Trazado_725442" data-name="Trazado 725442" d="M80.522,41.881a11.486,11.486,0,0,1-2.588,3.19,10.411,10.411,0,0,1-2.077,1.372c-6.7-3.308-13.06-7.329-13.06-7.329l.936-6.547,1.732-12.107s11.6,5.77,17.25,11.394c0,0,.011.193.015.542a20.234,20.234,0,0,1-2.209,9.485" transform="translate(55.039 17.931)" fill="#b8bd9b"/>
        <path id="Trazado_725443" data-name="Trazado 725443" d="M64.016,27.923H49.487V8.29H61.451s-.206,14.33,2.565,19.633" transform="translate(43.373 7.266)" fill="#f7a492"/>
        <path id="Trazado_725444" data-name="Trazado 725444" d="M49.451,111.112c-2.85,1.98-7.9,2.614-10.975,3.406a2.934,2.934,0,0,0-2.164,3.34l.182,1.068H59.586l.077-.486a11.86,11.86,0,0,0-1.049-7.328l-4.3-2.526Z" transform="translate(31.788 95.171)" fill="#29353d"/>
        <path id="Trazado_725445" data-name="Trazado 725445" d="M69.982,60.469a77.047,77.047,0,0,1-2.434,18.568c-1.721,6.483-4.173,11.854-6.806,17.68A24.761,24.761,0,0,0,58.96,111.23a35.1,35.1,0,0,1,.563,6.038c0,4.53-1.794,24.525-2.779,37.659-.173,2.3,1.2,5.873.144,7.369-1.109,1.58-3.047-1.841-5.665-1.882-2.254-.036-4.363,1.2-4.888.385-.884-1.374-.263-3.972-.417-5.948-2.012-25.906-6.386-50.158-6.386-50.158s.6-25.963,3.76-46.206c.342-2.194.715-4.321,1.122-6.341.015-.084.032-.169.049-.251H69.84q.115,2.339.148,4.5.034,2.111-.006,4.07" transform="translate(34.649 45.484)" fill="#773a42"/>
        <path id="Trazado_725446" data-name="Trazado 725446" d="M85.387,160.8c-.691.655-4.436-.8-10.521,2.162-2.505-2.4-.846-8.086-1.394-11.039-2.351-12.664-6.153-23.428-7.75-36.426a17.01,17.01,0,0,1,.041-3.644,29.023,29.023,0,0,0-1.589-12.707C61.3,91.127,59.126,84.36,57.537,79.035c-2.646-8.859-3.685-13.728-3.685-13.728l-.319-.533A14.082,14.082,0,0,1,51.585,58.8l-.251-2.757-.377-4.154H77.643s.073.129.2.368a30.382,30.382,0,0,1,1.434,3.162A23.647,23.647,0,0,1,80.8,61.471c1.4,14.244,1.407,43.945,1.407,44.723v.015a29.909,29.909,0,0,1,.852,6.729c.094,7.4.422,26.021,1.494,39.676.238,3.03,1.52,7.53.829,8.183" transform="translate(44.661 45.483)" fill="#773a42"/>
        <path id="Trazado_725447" data-name="Trazado 725447" d="M86.573,80.942S79.006,85.479,66.1,85.479a74.081,74.081,0,0,1-24.324-4.537s.824-2.045,1.741-4.914c1.158-3.62,2.469-8.555,2.469-12.332,0-11.394-2.413-26.332-2.413-26.332s-1.1-14.794,0-15.409c3.038-1.7,12.675-3.2,12.675-3.2H70.777s8.363,1.017,11.992,2.582a5.387,5.387,0,0,1,1.12.617c.589.45.694,3.13.614,6.132a79.759,79.759,0,0,1-1.544,13.559,97.9,97.9,0,0,0-2.122,17.507,23.64,23.64,0,0,0,1.182,7.971c1.165,3.494,2.993,6.577,4.554,13.818" transform="translate(36.614 16.437)" fill="#a6ad82"/>
        <path id="Trazado_725448" data-name="Trazado 725448" d="M95.853,38.042a2.757,2.757,0,0,1-.152.308c-2.785,4.822-6.6,3.976-25.884,20.17l-4.64-3.314C77.256,44.831,78.92,38.944,83.626,35.587a12.682,12.682,0,0,1,1.207-.764c3.271-1.833,10.506-1.405,10.506-1.405s1.315,2.713.514,4.624" transform="translate(57.125 29.252)" fill="#fdb9a6"/>
        <path id="Trazado_725449" data-name="Trazado 725449" d="M64.572,18.753s-6.787,7.007-12.522,6.665-2.008-6.665-2.008-6.665Z" transform="translate(42.817 16.436)" fill="#f7a492"/>
        <path id="Trazado_725450" data-name="Trazado 725450" d="M50.23,57.281a23.034,23.034,0,0,1-7.236-2.257c-2.505-1.473-7.474-9.416-13.858-23.084q-.853-1.827-1.741-3.794-.467-1.039-.944-2.113l4.541-2.445q.937,1.565,1.824,2.991,1.1,1.776,2.126,3.349C45.541,46.245,49.934,47.138,51,51.537c.514,2.128-.766,5.744-.766,5.744" transform="translate(23.184 20.673)" fill="#fdb9a6"/>
        <path id="Trazado_725451" data-name="Trazado 725451" d="M24.964,23.485l-1.651-.15a.812.812,0,0,1-.724-.964l.068-.34a.812.812,0,0,1,1.036-.619l1.584.488a.812.812,0,0,1-.311,1.586" transform="translate(19.784 18.735)" fill="#3f5260"/>
        <path id="Trazado_725452" data-name="Trazado 725452" d="M25.352,24.376l-1.831.323a.908.908,0,0,1-1.066-.831l-.028-.387a.911.911,0,0,1,.94-.974l1.858.062a.911.911,0,0,1,.128,1.807" transform="translate(19.654 19.726)" fill="#3f5260"/>
        <path id="Trazado_725453" data-name="Trazado 725453" d="M25.352,25.184l-1.6.529a.824.824,0,0,1-1.064-.6l-.073-.342a.822.822,0,0,1,.711-1L25,23.583a.824.824,0,0,1,.351,1.6" transform="translate(19.805 20.665)" fill="#3f5260"/>
        <path id="Trazado_725454" data-name="Trazado 725454" d="M25.351,25.726l-1.214.715a.689.689,0,0,1-.978-.306l-.122-.266a.692.692,0,0,1,.407-.942l1.336-.448a.69.69,0,0,1,.57,1.248" transform="translate(20.136 21.422)" fill="#3f5260"/>
        <path id="Trazado_725455" data-name="Trazado 725455" d="M34.085,26.253A10.212,10.212,0,0,0,28.564,20.9a4.982,4.982,0,0,0-3.89.09l-1.034.572a1.21,1.21,0,0,0-.713,1.193l.171,2.214a.4.4,0,0,0,.385.37,1.216,1.216,0,0,0,1.253-1.246l-.019-.724a2.336,2.336,0,0,1,1.8.092c1.64,1.032-.306,3.916,3.032,5.239Z" transform="translate(20.092 18.007)" fill="#3f5260"/>
        <path id="Trazado_725456" data-name="Trazado 725456" d="M34.494,28.693c-.084.051-.167.1-.25.152a14.732,14.732,0,0,1-5.575,2.088c-.261.032-.4.036-.4.036l-1.816-4.937,4.541-2.445s1.544,2.212,3.5,5.106" transform="translate(23.184 20.673)" fill="#3f5260"/>
        <path id="Trazado_725457" data-name="Trazado 725457" d="M68.87,43.078a9.333,9.333,0,0,1,4.642,4.108,40.9,40.9,0,0,1-3.695,2.832L65.177,46.7Z" transform="translate(57.125 37.756)" fill="#3f5260"/>
        <path id="Trazado_725458" data-name="Trazado 725458" d="M59.184,5.755s1.706-1.2.67-4.55c-.135,1.807-.972,2.276-.972,2.276S59.418.67,58.482,0c.1,1.908-2.276,3.648-2.276,3.648Z" transform="translate(49.262 0)" fill="#7c2915"/>
        <path id="Trazado_725459" data-name="Trazado 725459" d="M46.1,15.528c.1.694.146,1.073.146,1.073s-.049.184-.113.507a17.135,17.135,0,0,0-.293,4.567c.366,3.984,3.019,8.8,3.83,10.534a.9.9,0,0,0,.781.52A28.491,28.491,0,0,0,54.3,32.7c1.308-.223,7.755-4.237,8.879-6.357.259-1.3,1.773-5.793,1.773-5.793a9.856,9.856,0,0,1,1.561-2.428c.03-.032.062-.068.1-.105a9.8,9.8,0,0,0,.844-12.488c-.49-.679-.818-1.064-.818-1.064A22.336,22.336,0,0,0,58.116,1.4c-5.4.863-12.976,7.369-12.754,8.909C45.7,12.644,45.948,14.458,46.1,15.528Z" transform="translate(39.754 1.227)" fill="#fdb9a6"/>
        <path id="Trazado_725460" data-name="Trazado 725460" d="M54.764,10.523a14.62,14.62,0,0,0-2.013-1.88,24.139,24.139,0,0,0-4.717-.713.111.111,0,0,0-.113.129L48,8.484a.172.172,0,0,0,.161.141,20.207,20.207,0,0,1,4.336.608,18.513,18.513,0,0,1,2.265,1.291" transform="translate(41.999 6.95)" fill="#7c2915"/>
        <path id="Trazado_725461" data-name="Trazado 725461" d="M62.932,20.656a3.261,3.261,0,0,0-.8-2.914c-1.056-1.041,2.179-5.6,2.179-5.6s-8.917-.086-12.906,3.933a4.505,4.505,0,0,1,1.9-3.828c-1.717.03-6.718.338-8.926,3.466,0-1.319.163-6.549,4.23-8.816a23.379,23.379,0,0,0-3.554.771S47.8,2.246,58.247.06c5.706.246,8.8,2.31,8.8,2.31s4.511,3.192,4.695,11.137c-1.013,4.941-4.141,6.566-4.141,6.566Z" transform="translate(38.895 0.053)" fill="#8c3929"/>
        <path id="Trazado_725462" data-name="Trazado 725462" d="M54.772,11.494c-.931,1.769-.726,3.71.46,4.333s2.9-.306,3.83-2.075.726-3.71-.458-4.333-2.9.306-3.832,2.075" transform="translate(47.494 8.085)" fill="#fdb9a6"/>
        <path id="Trazado_725463" data-name="Trazado 725463" d="M47.479,8.049l.156.4a.137.137,0,0,1-.111.186,8.478,8.478,0,0,0-1.944.529c-.116-.353.516-.918,1.743-1.2a.135.135,0,0,1,.156.083" transform="translate(39.937 6.979)" fill="#7c2915"/>
        <path id="Trazado_725464" data-name="Trazado 725464" d="M46.072,13.77a2.4,2.4,0,0,0,1.167,1.141l1.086-.259c-.379-.537,1.248-.3,1.248-.3s-2.826-1.329-3.5-.584" transform="translate(40.38 11.87)" fill="#f7a492"/>
        <path id="Trazado_725465" data-name="Trazado 725465" d="M49.125,17.6a1.348,1.348,0,0,1,.336.255.963.963,0,0,1,.218.368,1.255,1.255,0,0,1,.068.424,1.535,1.535,0,0,1-.069.43l-.008.024-.028.008c-.773.206-1.548.405-2.323.6l-.032.008-.032-.015a2.965,2.965,0,0,1-.379-.21,3.063,3.063,0,0,1-.343-.261,2.351,2.351,0,0,1-.3-.325,1.672,1.672,0,0,1-.212-.4l-.011-.028.008-.032.212-1.047.2-1.045c.135-.7.268-1.4.39-2.1s.242-1.4.357-2.1.22-1.405.306-2.111v.008c-.008-.317-.026-.636-.066-.953-.019-.158-.043-.315-.075-.473a2.623,2.623,0,0,0-.131-.46,2.5,2.5,0,0,1,.165.452c.043.156.075.313.1.471a9.624,9.624,0,0,1,.12.959v.008c-.054.713-.137,1.42-.229,2.128s-.2,1.411-.315,2.115-.244,1.405-.381,2.105-.281,1.4-.437,2.092l0-.06a1.387,1.387,0,0,0,.175.34,2.17,2.17,0,0,0,.265.295,2.908,2.908,0,0,0,.315.248,2.685,2.685,0,0,0,.343.206l-.062-.006c.781-.175,1.561-.347,2.344-.512l-.036.032a1.406,1.406,0,0,0,.084-.4,1.179,1.179,0,0,0-.039-.405,1.127,1.127,0,0,0-.075-.191,1.147,1.147,0,0,0-.114-.173,1.256,1.256,0,0,0-.311-.276" transform="translate(40.324 7.162)" fill="#f7a492"/>
        <path id="Trazado_725466" data-name="Trazado 725466" d="M58.423,9.919a3.03,3.03,0,0,0-1.1.212,4.525,4.525,0,0,0-.98.527l-.223.165c-.071.058-.139.122-.21.182a5.536,5.536,0,0,0-.4.385c-.128.133-.244.281-.368.418l-.336.447,0-.139a2.726,2.726,0,0,1,.233.417,1.616,1.616,0,0,1,.131.477.984.984,0,0,1-.081.507,1.3,1.3,0,0,1-.31.4l.03-.124a.856.856,0,0,0,.223.272,1.583,1.583,0,0,0,.152.12c.054.034.109.071.165.1a1.5,1.5,0,0,0,.749.173,1.586,1.586,0,0,0,.752-.229A2.328,2.328,0,0,0,57.188,14c.105-.086.2-.184.306-.276-.092.1-.173.216-.274.311a2.29,2.29,0,0,1-.321.265,1.37,1.37,0,0,1-.178.114l-.191.094c-.068.023-.135.041-.2.062a1.564,1.564,0,0,1-.212.038,1.609,1.609,0,0,1-.846-.148c-.068-.03-.129-.068-.193-.1a1.93,1.93,0,0,1-.176-.129l-.083-.071-.079-.081a.842.842,0,0,1-.135-.2.1.1,0,0,1,.023-.116l.008-.008a1.078,1.078,0,0,0,.244-.325.746.746,0,0,0,.056-.385,1.3,1.3,0,0,0-.116-.4,2.817,2.817,0,0,0-.21-.383l-.006-.008a.119.119,0,0,1,.008-.131l.351-.456c.129-.143.251-.291.39-.426a5.583,5.583,0,0,1,.428-.388c.075-.06.15-.122.227-.178l.24-.161a4.166,4.166,0,0,1,1.047-.48,2.8,2.8,0,0,1,1.133-.1" transform="translate(47.839 8.675)" fill="#f7a492"/>
        <path id="Trazado_725467" data-name="Trazado 725467" d="M56.364,10.315a2.872,2.872,0,0,1,.263.927,2.818,2.818,0,0,1-.06.97l-.028.118c-.011.039-.026.077-.039.116-.03.075-.053.156-.086.229a2.43,2.43,0,0,1-.246.422,2.806,2.806,0,0,1-.308.373,1.842,1.842,0,0,1-.18.161c-.062.051-.126.1-.188.15a4.062,4.062,0,0,0,.6-.737,2.787,2.787,0,0,0,.358-.863,3.233,3.233,0,0,0,.084-.933c-.008-.079-.011-.158-.019-.236s-.021-.156-.038-.235a3.082,3.082,0,0,0-.111-.463" transform="translate(48.635 9.041)" fill="#f7a492"/>
        <path id="Trazado_725468" data-name="Trazado 725468" d="M47.791,15.982a1.174,1.174,0,0,0,.884.411,15.651,15.651,0,0,0,3.246-.816h0a18.158,18.158,0,0,1-3.59-.03.768.768,0,0,0-.426.263.844.844,0,0,0-.116.173" transform="translate(41.887 13.626)" fill="#fff"/>
        <path id="Trazado_725469" data-name="Trazado 725469" d="M48.737,16.674a1.3,1.3,0,0,1-.987-.46.123.123,0,0,1,.023-.175.125.125,0,0,1,.175.023,1.041,1.041,0,0,0,.786.362,13.919,13.919,0,0,0,3.2-.809c.248-.094.458-.178.612-.24a.126.126,0,0,1,.161.069.124.124,0,0,1-.069.161c-.152.062-.366.148-.614.242A14.322,14.322,0,0,1,48.737,16.674Z" transform="translate(41.828 13.469)" fill="#f7a492"/>
        <path id="Trazado_725470" data-name="Trazado 725470" d="M48.01,16H48a1.265,1.265,0,0,1-.387-.084.124.124,0,1,1,.1-.229,1.016,1.016,0,0,0,.3.066.122.122,0,0,1,.118.129A.124.124,0,0,1,48.01,16" transform="translate(41.668 13.736)" fill="#f7a492"/>
        <path id="Trazado_725471" data-name="Trazado 725471" d="M50.477,15.788a.112.112,0,0,1-.051-.011.12.12,0,0,1-.064-.159c-.006-.011-.023-.038-.1-.058a.125.125,0,1,1,.062-.242.378.378,0,0,1,.263.186.243.243,0,0,1,0,.214.121.121,0,0,1-.111.071" transform="translate(43.968 13.421)" fill="#f7a492"/>
        <path id="Trazado_725472" data-name="Trazado 725472" d="M49.74,10.058c0,.6-.3,1.081-.668,1.081s-.668-.484-.668-1.081.3-1.081.668-1.081.668.484.668,1.081" transform="translate(42.424 7.868)" fill="#5d1f10"/>
        <path id="Trazado_725473" data-name="Trazado 725473" d="M46.985,9.936c0,.452-.227.82-.507.82s-.507-.368-.507-.82.227-.82.507-.82.507.368.507.82" transform="translate(40.292 7.99)" fill="#5d1f10"/>
        <path id="Trazado_725474" data-name="Trazado 725474" d="M65.7,107.736H65.7a.135.135,0,0,1-.129-.141,28.874,28.874,0,0,0-1.7-10.985c-7.423-20.7-10.191-33.226-10.322-33.832l-.308-.514a14.316,14.316,0,0,1-1.967-6.027l-.114-1.25a.136.136,0,0,1,.27-.024l.113,1.25a14.049,14.049,0,0,0,1.929,5.913l.319.533a.191.191,0,0,1,.017.041c.026.126,2.751,12.72,10.317,33.819a29.15,29.15,0,0,1,1.717,11.088.136.136,0,0,1-.135.129" transform="translate(44.837 48.065)" fill="#592c32"/>
        <path id="Trazado_725475" data-name="Trazado 725475" d="M72.878,40.342q-1.013-.419-2.013-.846c4.526-3.837,4.811-10.709,4.794-12.675q1.039.8,2.12,1.661c.387,5.6-3.481,10.328-4.9,11.861" transform="translate(62.11 23.507)" fill="#f7a492"/>
        <path id="Trazado_725476" data-name="Trazado 725476" d="M86.721,34.257s-7.236-.428-10.506,1.405a13.021,13.021,0,0,0-1.2.762c.094-.116,3-3.584,9.664-4.006q1.013.9,2.047,1.839" transform="translate(65.743 28.413)" fill="#f7a492"/>
        <g id="Grupo_1026622" data-name="Grupo 1026622" transform="translate(77.942 97.63)" opacity="0.25">
          <g id="Grupo_1026621" data-name="Grupo 1026621">
            <g id="Grupo_1026620" data-name="Grupo 1026620" clip-path="url(#clip-path-5)">
              <path id="Trazado_725477" data-name="Trazado 725477" d="M87.532,55.306a69.908,69.908,0,0,1-19.3,5.044,72.577,72.577,0,0,1-8.026.469,66.714,66.714,0,0,1-18.665-2.451c.343-2.194.717-4.32,1.122-6.341a76.835,76.835,0,0,0,16.931,3.9,61.236,61.236,0,0,0,6.718.383q.982,0,1.923-.034A43.746,43.746,0,0,0,86.1,52.144a29.973,29.973,0,0,1,1.434,3.162" transform="translate(-41.537 -52.03)" fill="#592c32"/>
            </g>
          </g>
        </g>
        <g id="Grupo_1026625" data-name="Grupo 1026625" transform="translate(85.775 37.773)" opacity="0.5">
          <g id="Grupo_1026624" data-name="Grupo 1026624">
            <g id="Grupo_1026623" data-name="Grupo 1026623" clip-path="url(#clip-path-6)">
              <path id="Trazado_725478" data-name="Trazado 725478" d="M83.123,79.736c-2.167-6.455-6.479-12.537-8.778-19.151A14.79,14.79,0,0,0,61.99,50.7a61.122,61.122,0,0,1-16.278-3.967,105.846,105.846,0,0,0,19.872.972,11.667,11.667,0,0,0,9.305-5.62c5.633-9.382,4.43-21.953,4.43-21.953a5.387,5.387,0,0,1,1.12.617c.589.45.694,3.13.614,6.132q-.082,2.961-.383,5.905-.4,3.85-1.162,7.654l-.006.028a97.793,97.793,0,0,0-2.117,17.479,23.64,23.64,0,0,0,1.182,7.971c1.165,3.494,2.993,6.577,4.554,13.818" transform="translate(-45.71 -20.13)" fill="#959e59"/>
            </g>
          </g>
        </g>
        <path id="Trazado_725479" data-name="Trazado 725479" d="M33.908,27.473c-1.7,1.415-4.669,1.88-5.808,2.012q-.231-.5-.465-1.006a14.719,14.719,0,0,0,5.573-2.09q.352.552.7,1.085" transform="translate(24.221 23.128)" fill="#f7a492"/>
        <path id="Trazado_725480" data-name="Trazado 725480" d="M79.713,36.258a11.486,11.486,0,0,1-2.588,3.19,10.41,10.41,0,0,1-2.077,1.372c-4.575-2.257-8.986-4.847-11.328-6.264l.006-.03c.509-2.531.9-5.087,1.16-7.652a60.565,60.565,0,0,0,14.828,9.384" transform="translate(55.848 23.554)" fill="#a6ad82"/>
        <path id="Trazado_725481" data-name="Trazado 725481" d="M28.975,103.9a5.317,5.317,0,0,1,3.16,1.835c1.383,1.563,6,.22,8.667,4.1-1.914,1.644-5.254.428-5.254.428s-4.333-2.3-4.376-2.374-2.2-3.989-2.2-3.989" transform="translate(25.395 91.06)" fill="#f07651"/>
        <path id="Trazado_725482" data-name="Trazado 725482" d="M28.422,103.744s2.929.493,3.359,2.34-.233,2.935,1.52,3.82,2.586,3.986.993,5.457c.1-1.032-.471-3.162-1.467-3.486s-2.46-.327-3.012-2.8-1.392-5.327-1.392-5.327" transform="translate(24.911 90.927)" fill="#f6a274"/>
        <path id="Trazado_725483" data-name="Trazado 725483" d="M67.131,122.15h-52.2s-2.646-6.787,3.74-7.981c6.491-1.212,6.063-7.451,13.935-8.941h0c3.149-.6,7.624-.433,14.4,1.116q.642.146,1.261.3l.015,0c.2.051.4.1.595.156s.4.107.6.163l.03.008c.186.053.37.105.552.161q.583.166,1.135.349c.184.058.368.12.548.18s.358.122.535.186c.357.124.7.251,1.04.383s.662.259.983.394c.15.062.3.128.447.191.038.015.073.032.109.047.285.126.565.251.837.381.131.062.259.122.387.186.038.017.071.036.109.054.272.135.54.27.8.409s.525.281.777.426c.028.017.053.032.079.045.114.068.229.133.342.2.128.075.255.152.377.229.373.229.73.463,1.073.7.114.081.225.16.336.236s.221.161.33.242c.216.161.426.323.629.484a20.827,20.827,0,0,1,1.664,1.49c.084.084.165.167.248.251l.028.028.21.223c.156.169.306.338.454.507.071.084.143.171.214.253s.114.143.175.214a.367.367,0,0,1,.032.043c.068.084.133.167.2.253s.128.171.191.253.122.171.182.255.12.169.178.253c.105.156.208.311.308.465.066.1.126.2.186.3.1.167.2.332.291.5.047.083.094.167.135.251.088.165.175.334.255.5s.158.33.231.5c.038.083.071.163.107.244s.068.163.1.244l.1.242c.154.4.287.8.4,1.18.094.321.175.632.246.938.021.1.045.2.064.3" transform="translate(12.613 91.946)" fill="#93474d"/>
        <g id="Grupo_1026628" data-name="Grupo 1026628" transform="translate(45.222 196.854)" opacity="0.25">
          <g id="Grupo_1026627" data-name="Grupo 1026627">
            <g id="Grupo_1026626" data-name="Grupo 1026626" clip-path="url(#clip-path-7)">
              <path id="Trazado_725484" data-name="Trazado 725484" d="M41.552,116.754C37.981,108.282,24.1,105.229,24.1,105.229c3.151-.6,7.626-.433,14.406,1.115q.645.146,1.261.306l.015,0c.2.051.4.1.593.154s.4.107.6.163l.03.009c.186.053.368.105.55.16.388.111.767.229,1.137.349.184.06.368.12.546.18s.36.124.537.186c.355.126.7.251,1.04.383s.661.261.981.394l.448.191.109.047c.285.126.565.253.835.381l.388.186.109.054c.272.135.539.27.8.409s.525.283.777.428c.028.015.053.032.079.045.114.066.229.133.342.2s.253.152.377.229c.372.229.73.463,1.071.7.116.079.227.158.336.236s.223.16.33.242c.218.159.426.321.629.484a19.85,19.85,0,0,1,1.664,1.488l.25.251.026.028.212.225c.158.167.308.336.452.5.073.084.144.171.216.255.058.069.114.143.173.212a.34.34,0,0,1,.034.043l.2.253.038.047,0,0c.053.069.1.137.152.206.064.084.124.169.184.253l.178.253c.107.158.208.311.306.465.068.1.128.2.186.3.1.165.2.332.291.5.047.084.094.167.137.251.09.167.175.332.253.5s.161.33.231.494c.038.083.073.165.109.244s.068.165.1.244.064.163.1.242q.234.6.4,1.18c.094.321.176.634.244.938.023.1.045.2.066.3H38.414c2.691-1.025,4.275-2.7,3.137-5.395" transform="translate(-24.1 -104.907)" fill="#773a42"/>
            </g>
          </g>
        </g>
        <path id="Trazado_725485" data-name="Trazado 725485" d="M17.264,114.1a3.683,3.683,0,0,1-2.169-1.5,1.731,1.731,0,0,1-.128-1.822,2.24,2.24,0,0,1,1.488-.963,4.112,4.112,0,0,1,1.953.06,3.369,3.369,0,0,1,1.017.546c.176.139.357.261.542.4l.278.214c.094.071.186.129.28.2l.54.381c.173.107.332.2.469.287.276.171.458.281.458.281s-.124.156-.36.4c-.118.122-.266.263-.443.417-.176.137-.383.283-.614.43-.114.069-.238.148-.364.212s-.259.122-.4.178a4.3,4.3,0,0,1-.856.278,3.63,3.63,0,0,1-1.7.015" transform="translate(12.941 96.168)" fill="#93890e"/>
        <path id="Trazado_725486" data-name="Trazado 725486" d="M17.868,113.415a.052.052,0,0,0,.019-.088c-.129-.158-.255-.315-.377-.471s-.229-.328-.338-.492a11.213,11.213,0,0,1-.589-.987,11.228,11.228,0,0,0,2.638.863c.287.161.587.321.9.467l.48.2a3.951,3.951,0,0,0,.5.178.1.1,0,0,0,.107-.038.061.061,0,0,0-.045-.083,6.9,6.9,0,0,1-.807-.3,6.49,6.49,0,0,1-.754-.362,10.3,10.3,0,0,0,1.25.109c.21,0,.418-.015.629-.021.105-.006.21-.006.313-.017l.311-.043a.071.071,0,0,0,.066-.075.07.07,0,0,0-.083-.053,8.995,8.995,0,0,1-2.828-.083c-.368-.083-.739-.156-1.1-.274a10.233,10.233,0,0,0,1.21-.238c.2-.056.385-.122.57-.184a4.019,4.019,0,0,0,.539-.214.062.062,0,0,0,.032-.084.066.066,0,0,0-.086-.032,8.8,8.8,0,0,1-2.569.661,12.444,12.444,0,0,1-3.7-2.025.071.071,0,0,0-.1,0,.07.07,0,0,0,.019.1,12.228,12.228,0,0,0,2.3,1.45,11.128,11.128,0,0,0,1.37,2.107.112.112,0,0,0,.118.03" transform="translate(12.311 96.155)" fill="#46420e"/>
        <path id="Trazado_725487" data-name="Trazado 725487" d="M23.148,113.385c0,1.511-1.651,2.736-3.683,2.736s-3.682-1.225-3.682-2.736,1.648-2.736,3.682-2.736,3.683,1.225,3.683,2.736" transform="translate(13.833 96.979)" fill="#93474d"/>
        <path id="Trazado_725488" data-name="Trazado 725488" d="M29.2,103.728s-2.257,1.308-2.627,2.484a13.035,13.035,0,0,0,4.633.653Z" transform="translate(23.287 90.913)" fill="#f6a274"/>
        <path id="Trazado_725491" data-name="Trazado 725491" d="M28.876,103.026c-.42.131-.621-.124-.852-.293a.27.27,0,0,0-.358.034l-.047-.184a.477.477,0,0,1,.317-.572.77.77,0,0,1,.57.051.558.558,0,0,1,.31.435Z" transform="translate(24.194 89.378)" fill="#f07651"/>
        <path id="Trazado_725492" data-name="Trazado 725492" d="M28.867,104.7a3.785,3.785,0,0,1,.315,1.244,5.623,5.623,0,0,1-.028,1.293c-.041.21-.069.426-.131.632-.028.1-.051.21-.084.311l-.105.306a3.127,3.127,0,0,1-.12.3l-.128.295c-.1.191-.2.381-.3.567.081-.2.175-.39.253-.589l.111-.3a2.492,2.492,0,0,0,.1-.3l.094-.306c.032-.1.051-.206.075-.31.056-.2.084-.415.122-.623a6.668,6.668,0,0,0,.056-1.268l-.009-.16-.017-.158c-.009-.105-.028-.21-.047-.315a3.692,3.692,0,0,0-.156-.619" transform="translate(24.788 91.767)" fill="#f6a274"/>
        <path id="Trazado_725493" data-name="Trazado 725493" d="M28.31,108.944a2.8,2.8,0,0,0-.261.278,2.943,2.943,0,0,0-.231.3,3.014,3.014,0,0,0-.343.664,2.891,2.891,0,0,0-.107.357,3.117,3.117,0,0,0-.049.37,3.318,3.318,0,0,0,.045.756c-.019-.062-.038-.122-.054-.186a1.219,1.219,0,0,1-.045-.186l-.026-.193c-.009-.064,0-.128-.008-.193a2.243,2.243,0,0,1,.03-.388,2.859,2.859,0,0,1,.107-.375,2.412,2.412,0,0,1,.381-.677,2.361,2.361,0,0,1,.561-.524" transform="translate(23.865 95.484)" fill="#f6a274"/>
        <path id="Trazado_725494" data-name="Trazado 725494" d="M26.627,110.149a.18.18,0,1,1-.18-.18.18.18,0,0,1,.18.18" transform="translate(23.022 96.383)" fill="#f6a274"/>
        <path id="Trazado_725495" data-name="Trazado 725495" d="M29.153,107.5a.121.121,0,0,1-.242,0,.121.121,0,0,1,.242,0" transform="translate(25.339 94.117)" fill="#f6a274"/>
        <path id="Trazado_725496" data-name="Trazado 725496" d="M28.443,104.983a.11.11,0,1,1-.109-.109.109.109,0,0,1,.109.109" transform="translate(24.736 91.917)" fill="#f6a274"/>
        <path id="Trazado_725497" data-name="Trazado 725497" d="M30.364,106.749a3.114,3.114,0,0,0-2.383,2.539c-.37,1.411-1.646,2.505-2.848,3.451a6.832,6.832,0,0,0,2.937-4.169,3.3,3.3,0,0,1,2.077-1.983l.311-2.479h.024v.111a22.471,22.471,0,0,1-.118,2.531" transform="translate(22.027 91.245)" fill="#f6a274"/>
        <path id="Trazado_725498" data-name="Trazado 725498" d="M37.785,108.919a.145.145,0,0,1-.109.079c-.038.006-.073.011-.111.019l-.126.034-.064.017-.062.024-.12.047-.116.062a.858.858,0,0,0-.111.071,1.046,1.046,0,0,0-.105.081,1.357,1.357,0,0,0-.225.238,1.749,1.749,0,0,0-.113.176c-.013.023-.024.045-.036.068a1.552,1.552,0,0,0-.143.452,1.584,1.584,0,0,1,.09-.5l.019-.051c.019-.045.038-.09.058-.133a1.435,1.435,0,0,1,.242-.358,1.073,1.073,0,0,1,.1-.1.932.932,0,0,1,.113-.1l.12-.086.129-.073.064-.036.069-.03.135-.056h0c.043-.015.088-.03.133-.043a.137.137,0,0,1,.169.09l.006.021a.146.146,0,0,1-.013.09" transform="translate(31.856 95.282)" fill="#773a42"/>
        <g id="Grupo_1026631" data-name="Grupo 1026631" transform="translate(68.369 203.995)" opacity="0.5">
          <g id="Grupo_1026630" data-name="Grupo 1026630">
            <g id="Grupo_1026629" data-name="Grupo 1026629" clip-path="url(#clip-path-8)">
              <path id="Trazado_725499" data-name="Trazado 725499" d="M37.715,108.81a1.614,1.614,0,0,0-1.233.822l-.047-.028.011-.021a.549.549,0,0,1,.039-.073,1.32,1.32,0,0,1,.191-.265,1.362,1.362,0,0,1,.1-.105.921.921,0,0,1,.113-.1l.12-.088.128-.071.066-.038.068-.028.137-.056,0,0c.043-.015.088-.028.133-.043a.168.168,0,0,1,.075,0,.139.139,0,0,1,.094.092" transform="translate(-36.435 -108.713)" fill="#662832"/>
            </g>
          </g>
        </g>
        <g id="Grupo_1026634" data-name="Grupo 1026634" transform="translate(68.419 203.995)" opacity="0.5">
          <g id="Grupo_1026633" data-name="Grupo 1026633">
            <g id="Grupo_1026632" data-name="Grupo 1026632" clip-path="url(#clip-path-9)">
              <path id="Trazado_725500" data-name="Trazado 725500" d="M37.6,108.717a2.152,2.152,0,0,0-1.137.792,1.319,1.319,0,0,1,.191-.265,1.11,1.11,0,0,1,.105-.105,1.084,1.084,0,0,1,.113-.1l.12-.086.129-.073.064-.038.068-.028.135-.056,0,0c.043-.015.086-.028.133-.041a.146.146,0,0,1,.075,0" transform="translate(-36.462 -108.714)" fill="#662832"/>
            </g>
          </g>
        </g>
        <path id="Trazado_725501" data-name="Trazado 725501" d="M40,112.708a2.921,2.921,0,0,1-4.064,1.482,2.629,2.629,0,0,1-1.186-3.122,3.8,3.8,0,0,1,.3-.856c.689-1.364,1.95-1.514,3.316-.826.068.036.137.071.2.111,1.255.707,2.081,1.914,1.428,3.211" transform="translate(30.374 95.521)" fill="#f6a274"/>
        <g id="Grupo_1026637" data-name="Grupo 1026637" transform="translate(65.031 205.846)" opacity="0.75">
          <g id="Grupo_1026636" data-name="Grupo 1026636">
            <g id="Grupo_1026635" data-name="Grupo 1026635" clip-path="url(#clip-path-10)">
              <path id="Trazado_725502" data-name="Trazado 725502" d="M40,112.082a2.921,2.921,0,0,1-4.064,1.482,1.843,1.843,0,0,1-.533-.338l0,0a2.649,2.649,0,0,1-.739-2.092,2.692,2.692,0,0,0,2.89,1.642c.983-.233,2.477-1.754,2.068-3.076a2.31,2.31,0,0,1,.6,1.291l0,0a1.972,1.972,0,0,1-.22,1.088" transform="translate(-34.657 -109.7)" fill="#f07651"/>
            </g>
          </g>
        </g>
        <g id="Grupo_1026640" data-name="Grupo 1026640" transform="translate(65.81 204.82)" opacity="0.25">
          <g id="Grupo_1026639" data-name="Grupo 1026639">
            <g id="Grupo_1026638" data-name="Grupo 1026638" clip-path="url(#clip-path-11)">
              <path id="Trazado_725503" data-name="Trazado 725503" d="M36.333,110.416c-.5.48-.782.97-1.06.677a1.219,1.219,0,0,1,.19-1.559,1.336,1.336,0,0,1,1.638-.176c.276.291-.263.58-.767,1.058" transform="translate(-35.071 -109.152)" fill="#fff"/>
            </g>
          </g>
        </g>
        <path id="Trazado_725504" data-name="Trazado 725504" d="M39.806,112.993c0,1.045-1.475,1.891-3.289,1.891s-3.288-.846-3.288-1.891S34.7,111.1,36.517,111.1s3.289.846,3.289,1.891" transform="translate(29.124 97.376)" fill="#773a42"/>
        <path id="Trazado_725505" data-name="Trazado 725505" d="M39.962,112.877a2,2,0,1,1-2-2.03,2.015,2.015,0,0,1,2,2.03" transform="translate(31.517 97.152)" fill="#773a42"/>
        <path id="Trazado_725506" data-name="Trazado 725506" d="M20.537,112.816a10.014,10.014,0,0,0,2.368.762,3.257,3.257,0,0,1-2.175.114.07.07,0,1,0-.041.133,3.306,3.306,0,0,0,2.46-.206,5.51,5.51,0,0,0,2.886-.289,4.825,4.825,0,0,0,1.7-1.158,3.977,3.977,0,0,1-3.059,2.931.07.07,0,0,0,.03.137,4.145,4.145,0,0,0,3.218-3.276,4.854,4.854,0,0,0,.764-1.177.07.07,0,0,0-.038-.092l-.013,0a.072.072,0,0,0-.079.043,4.978,4.978,0,0,1-2.255,2.323,6.452,6.452,0,0,1-3.987-2.631.073.073,0,0,0-.043-.028.071.071,0,0,0-.054.011.07.07,0,0,0-.017.1,6.686,6.686,0,0,0,3.882,2.65l-.1.045a5.388,5.388,0,0,1-2.828.276l0,0h-.006a9.69,9.69,0,0,1-2.55-.788.07.07,0,1,0-.058.128" transform="translate(17.964 96.758)" fill="#773a42"/>
      </g>
    </g>
  </g>
</svg>
