<svg id="Grupo_1028228" data-name="Grupo 1028228" xmlns="http://www.w3.org/2000/svg" xmlns:xlink="http://www.w3.org/1999/xlink" width="210" height="189.53" viewBox="0 0 210 189.53">
  <defs>
    <clipPath id="clip-path">
      <rect id="Rectángulo_344989" data-name="Rectángulo 344989" width="210" height="189.53" fill="none"/>
    </clipPath>
    <clipPath id="clip-path-2">
      <rect id="Rectángulo_344988" data-name="Rectángulo 344988" width="210" height="189.53" fill="#b20d0d"/>
    </clipPath>
    <clipPath id="clip-path-3">
      <rect id="Rectángulo_344965" data-name="Rectángulo 344965" width="204.04" height="117.802" fill="none"/>
    </clipPath>
    <clipPath id="clip-path-4">
      <rect id="Rectángulo_344966" data-name="Rectángulo 344966" width="7.795" height="26.764" fill="none"/>
    </clipPath>
    <clipPath id="clip-path-5">
      <rect id="Rectángulo_344967" data-name="Rectángulo 344967" width="6.202" height="7.866" fill="none"/>
    </clipPath>
    <clipPath id="clip-path-6">
      <rect id="Rectángulo_344968" data-name="Rectángulo 344968" width="7.794" height="26.768" fill="none"/>
    </clipPath>
    <clipPath id="clip-path-7">
      <rect id="Rectángulo_344969" data-name="Rectángulo 344969" width="6.201" height="7.866" fill="none"/>
    </clipPath>
    <clipPath id="clip-path-9">
      <rect id="Rectángulo_344971" data-name="Rectángulo 344971" width="6.202" height="7.865" fill="none"/>
    </clipPath>
    <clipPath id="clip-path-12">
      <rect id="Rectángulo_344974" data-name="Rectángulo 344974" width="7.794" height="26.766" fill="none"/>
    </clipPath>
    <clipPath id="clip-path-13">
      <rect id="Rectángulo_344975" data-name="Rectángulo 344975" width="6.201" height="7.865" fill="none"/>
    </clipPath>
    <clipPath id="clip-path-14">
      <rect id="Rectángulo_344976" data-name="Rectángulo 344976" width="7.794" height="26.77" fill="none"/>
    </clipPath>
    <clipPath id="clip-path-17">
      <rect id="Rectángulo_344979" data-name="Rectángulo 344979" width="6.202" height="7.867" fill="none"/>
    </clipPath>
    <clipPath id="clip-path-18">
      <rect id="Rectángulo_344980" data-name="Rectángulo 344980" width="7.795" height="26.766" fill="none"/>
    </clipPath>
    <clipPath id="clip-path-20">
      <rect id="Rectángulo_344982" data-name="Rectángulo 344982" width="31.934" height="18.436" fill="none"/>
    </clipPath>
    <clipPath id="clip-path-21">
      <rect id="Rectángulo_344983" data-name="Rectángulo 344983" width="23.276" height="37.435" fill="none"/>
    </clipPath>
    <clipPath id="clip-path-22">
      <rect id="Rectángulo_344984" data-name="Rectángulo 344984" width="6.179" height="7.836" fill="none"/>
    </clipPath>
    <clipPath id="clip-path-23">
      <rect id="Rectángulo_344985" data-name="Rectángulo 344985" width="41.16" height="18.439" fill="none"/>
    </clipPath>
    <clipPath id="clip-path-24">
      <rect id="Rectángulo_344986" data-name="Rectángulo 344986" width="37.436" height="23.277" fill="none"/>
    </clipPath>
    <clipPath id="clip-path-25">
      <rect id="Rectángulo_344987" data-name="Rectángulo 344987" width="7.835" height="6.179" fill="none"/>
    </clipPath>
  </defs>
  <g id="Grupo_1028227" data-name="Grupo 1028227" clip-path="url(#clip-path)">
    <g id="Grupo_1028226" data-name="Grupo 1028226" transform="translate(0 0)">
      <g id="Grupo_1028225" data-name="Grupo 1028225" clip-path="url(#clip-path-2)">
        <path id="Trazado_726985" data-name="Trazado 726985" d="M17.176,144.979,50.867,18.62C55.768.239,76.844-6.14,89.858,6.821l100.017,99.607c14.425,14.367,7.492,40.374-11.792,44.231L44.373,177.411c-17.4,3.479-32.1-14.051-27.2-32.432" transform="translate(12.426 0)" fill="#06d1d1"/>
        <path id="Trazado_726986" data-name="Trazado 726986" d="M9,164.934a28.306,28.306,0,0,1,.268-13.569L42.963,25C45.313,16.185,51.6,9.444,59.772,6.968A22.87,22.87,0,0,1,82.8,12.949l100.017,99.609a27.553,27.553,0,0,1,6.893,26.622c-2.568,9.632-9.825,16.748-18.939,18.572L37.06,184.5a23.119,23.119,0,0,1-22.438-8.2A26.952,26.952,0,0,1,9,164.934m1.264-13.258a26.52,26.52,0,0,0,5.123,23.881A22.133,22.133,0,0,0,36.873,183.4l133.708-26.75c8.86-1.773,15.638-8.419,18.134-17.779a26.052,26.052,0,0,0-6.6-25.491L82.1,13.77A21.894,21.894,0,0,0,60.051,8.047c-7.825,2.37-13.842,8.823-16.092,17.27Z" transform="translate(6.362 4.581)" fill="#b20d0d"/>
        <g id="Grupo_1028158" data-name="Grupo 1028158" transform="translate(0.001 50.031)" opacity="0.3">
          <g id="Grupo_1028157" data-name="Grupo 1028157">
            <g id="Grupo_1028156" data-name="Grupo 1028156" clip-path="url(#clip-path-3)">
              <path id="Trazado_726987" data-name="Trazado 726987" d="M62.5,144.669a13.624,13.624,0,0,1-12.281,0L2.532,117.138c-3.375-1.95-3.375-5.141,0-7.089l139.01-80.258a13.631,13.631,0,0,1,12.279,0L201.51,57.327c3.377,1.948,3.377,5.137,0,7.087Z" transform="translate(-0.001 -28.329)"/>
            </g>
          </g>
        </g>
        <path id="Trazado_726988" data-name="Trazado 726988" d="M7.072,63.849,10.29,83.518c.249,1.838,1.593,3.64,4.03,5.047,5.429,3.133,14.236,3.133,19.669,0,2.439-1.406,3.779-3.209,4.028-5.047h0l3.212-19.669Z" transform="translate(5.418 48.912)" fill="#a39c95"/>
        <path id="Trazado_726989" data-name="Trazado 726989" d="M89.121,36.207l3.214,19.669h0c.249,1.838,1.593,3.638,4.028,5.046,5.431,3.135,14.236,3.135,19.669,0,2.437-1.408,3.781-3.207,4.03-5.046l3.218-19.669Z" transform="translate(68.272 27.737)" fill="#a39c95"/>
        <path id="Trazado_726990" data-name="Trazado 726990" d="M72.88,45.583,76.1,65.252c.249,1.838,1.593,3.638,4.032,5.047,5.431,3.137,14.234,3.137,19.667,0,2.435-1.409,3.779-3.209,4.03-5.047h0l3.212-19.669Z" transform="translate(55.83 34.919)" fill="#a39c95"/>
        <path id="Trazado_726991" data-name="Trazado 726991" d="M56.64,54.959l3.212,19.67c.251,1.84,1.593,3.64,4.032,5.047,5.432,3.137,14.236,3.137,19.669,0,2.437-1.408,3.779-3.207,4.03-5.047L90.8,54.959Z" transform="translate(43.389 42.102)" fill="#a39c95"/>
        <path id="Trazado_726992" data-name="Trazado 726992" d="M40.4,64.336l3.214,19.67h0c.249,1.84,1.589,3.638,4.03,5.046,5.429,3.135,14.238,3.135,19.667,0,2.437-1.408,3.781-3.205,4.03-5.046l3.216-19.67Z" transform="translate(30.947 49.285)" fill="#a39c95"/>
        <path id="Trazado_726993" data-name="Trazado 726993" d="M24.157,73.713l3.218,19.67c.249,1.84,1.591,3.638,4.028,5.047,5.434,3.133,14.238,3.133,19.67,0,2.439-1.409,3.779-3.207,4.032-5.047l3.212-19.67Z" transform="translate(18.506 56.468)" fill="#a39c95"/>
        <path id="Trazado_726994" data-name="Trazado 726994" d="M18.147,71.258l8.286,4.782V77.6a2.9,2.9,0,0,1-1.22,2.681l-5.907,3.414-7.077-9.019Z" transform="translate(9.368 54.588)" fill="#857f79"/>
        <path id="Trazado_726995" data-name="Trazado 726995" d="M20.515,77.974V79.53c0,2.64-1.856,3.711-4.143,2.389a9.157,9.157,0,0,1-4.143-7.174V73.192Z" transform="translate(9.368 56.069)" fill="#b5afa7"/>
        <path id="Trazado_726996" data-name="Trazado 726996" d="M103.212,41.6l-8.288,4.782v1.558a2.909,2.909,0,0,0,1.22,2.684l5.911,3.41,7.071-9.019Z" transform="translate(72.717 31.866)" fill="#857f79"/>
        <path id="Trazado_726997" data-name="Trazado 726997" d="M98.275,48.317v1.556c0,2.64,1.854,3.71,4.143,2.389a9.152,9.152,0,0,0,4.143-7.174V43.531Z" transform="translate(75.284 33.347)" fill="#b5afa7"/>
        <path id="Trazado_726998" data-name="Trazado 726998" d="M86.97,50.974l-8.285,4.782v1.554A2.909,2.909,0,0,0,79.9,60l5.909,3.41,7.075-9.019Z" transform="translate(60.277 39.049)" fill="#857f79"/>
        <path id="Trazado_726999" data-name="Trazado 726999" d="M82.035,57.693v1.556c0,2.64,1.856,3.714,4.143,2.389a9.156,9.156,0,0,0,4.143-7.172V52.907Z" transform="translate(62.843 40.53)" fill="#b5afa7"/>
        <path id="Trazado_727000" data-name="Trazado 727000" d="M70.729,60.352l-8.286,4.782v1.554a2.9,2.9,0,0,0,1.22,2.683l5.907,3.414,7.075-9.021Z" transform="translate(47.835 46.233)" fill="#857f79"/>
        <path id="Trazado_727001" data-name="Trazado 727001" d="M65.795,67.07v1.554c0,2.646,1.853,3.712,4.141,2.391a9.15,9.15,0,0,0,4.141-7.174V62.284Z" transform="translate(50.403 47.713)" fill="#b5afa7"/>
        <path id="Trazado_727002" data-name="Trazado 727002" d="M54.493,69.726l-8.286,4.781v1.556a2.91,2.91,0,0,0,1.219,2.686l5.909,3.41L60.41,73.14Z" transform="translate(35.397 53.414)" fill="#857f79"/>
        <path id="Trazado_727003" data-name="Trazado 727003" d="M49.558,76.444V78c0,2.642,1.854,3.71,4.141,2.389a9.154,9.154,0,0,0,4.145-7.174V71.658Z" transform="translate(37.964 54.894)" fill="#b5afa7"/>
        <path id="Trazado_727004" data-name="Trazado 727004" d="M204.041,49.216V46.18l-1.346.346a6.979,6.979,0,0,0-1.187-.857L153.82,18.135a13.643,13.643,0,0,0-12.279,0L3,98.125,0,98.9v3.036c0,1.287.842,2.573,2.533,3.544l47.689,27.533a13.624,13.624,0,0,0,12.281,0L201.509,52.76c1.69-.973,2.533-2.261,2.533-3.544" transform="translate(0 12.774)" fill="#b5afa7"/>
        <path id="Trazado_727005" data-name="Trazado 727005" d="M62.5,131.3a13.635,13.635,0,0,1-12.281,0L2.532,103.762c-3.375-1.944-3.375-5.137,0-7.091l139.01-80.255a13.62,13.62,0,0,1,12.279,0L201.51,43.951c3.377,1.95,3.377,5.141,0,7.092Z" transform="translate(0.001 11.456)" fill="#e6e1dd"/>
        <path id="Trazado_727006" data-name="Trazado 727006" d="M118.281,45.736c-6.672,3.852-17.486,3.852-24.158,0s-6.67-10.095,0-13.947,17.486-3.85,24.158,0,6.672,10.1,0,13.947" transform="translate(68.271 22.141)" fill="#a39c95"/>
        <path id="Trazado_727007" data-name="Trazado 727007" d="M102.038,55.111c-6.669,3.854-17.484,3.854-24.153,0s-6.674-10.091,0-13.943,17.482-3.852,24.153,0,6.672,10.095,0,13.943" transform="translate(55.83 29.324)" fill="#a39c95"/>
        <path id="Trazado_727008" data-name="Trazado 727008" d="M85.8,64.491c-6.669,3.848-17.486,3.848-24.156,0s-6.669-10.1,0-13.947,17.487-3.854,24.156,0,6.67,10.095,0,13.947" transform="translate(43.389 36.506)" fill="#a39c95"/>
        <path id="Trazado_727009" data-name="Trazado 727009" d="M69.557,73.865c-6.67,3.854-17.484,3.854-24.154,0s-6.672-10.095,0-13.947,17.484-3.848,24.154,0,6.669,10.095,0,13.945" transform="translate(30.948 43.69)" fill="#a39c95"/>
        <path id="Trazado_727010" data-name="Trazado 727010" d="M101.194,35.876c-6.669,3.848-17.486,3.848-24.156,0s-6.669-10.1,0-13.948,17.487-3.854,24.156,0,6.67,10.093,0,13.948" transform="translate(55.184 14.584)" fill="#a39c95"/>
        <path id="Trazado_727011" data-name="Trazado 727011" d="M72.709,34.714c.6-11,7.5-23.262,15.923-23.262,8.35,0,15.2,12.053,15.909,22.973.039.613-31.86.8-31.831.29" transform="translate(55.699 8.773)" fill="#dea26a"/>
        <path id="Trazado_727012" data-name="Trazado 727012" d="M99.892,22.109c-6.218-3.59-16.3-3.59-22.521,0s-6.217,9.411,0,13,16.3,3.592,22.521,0,6.22-9.411,0-13" transform="translate(55.699 14.874)" fill="#dea26a"/>
        <g id="Grupo_1028161" data-name="Grupo 1028161" transform="translate(152.46 24.206)" opacity="0.1">
          <g id="Grupo_1028160" data-name="Grupo 1028160">
            <g id="Grupo_1028159" data-name="Grupo 1028159" clip-path="url(#clip-path-4)">
              <path id="Trazado_727013" data-name="Trazado 727013" d="M87.441,40.47c.109-.24.221-.489.327-.742,6.312-14.911-1.439-26.021-1.439-26.021,4.376,4.509,7.409,12.165,7.8,19.287,0,5.01-6.683,7.476-6.683,7.476" transform="translate(-86.328 -13.706)"/>
            </g>
          </g>
        </g>
        <g id="Grupo_1028164" data-name="Grupo 1028164" transform="translate(134.554 25.273)" opacity="0.5">
          <g id="Grupo_1028163" data-name="Grupo 1028163">
            <g id="Grupo_1028162" data-name="Grupo 1028162" clip-path="url(#clip-path-5)">
              <path id="Trazado_727014" data-name="Trazado 727014" d="M81.477,19.539c-1.215,2.052-3.175,3.131-4.387,2.418s-1.2-2.96.014-5.007,3.175-3.135,4.383-2.418,1.2,2.955-.011,5.007" transform="translate(-76.189 -14.31)" fill="#fff"/>
            </g>
          </g>
        </g>
        <path id="Trazado_727015" data-name="Trazado 727015" d="M84.953,45.251c-6.67,3.848-17.484,3.848-24.153,0s-6.674-10.1,0-13.947,17.482-3.854,24.153,0,6.672,10.093,0,13.947" transform="translate(42.742 21.767)" fill="#a39c95"/>
        <path id="Trazado_727016" data-name="Trazado 727016" d="M56.469,44.089c.6-11,7.5-23.259,15.921-23.259,8.352,0,15.2,12.052,15.909,22.975.037.611-31.86.8-31.83.284" transform="translate(43.258 15.957)" fill="#dea26a"/>
        <path id="Trazado_727017" data-name="Trazado 727017" d="M83.651,31.484c-6.218-3.589-16.3-3.589-22.517,0s-6.22,9.413,0,13,16.3,3.589,22.517,0,6.22-9.413,0-13" transform="translate(43.258 22.057)" fill="#dea26a"/>
        <g id="Grupo_1028167" data-name="Grupo 1028167" transform="translate(123.78 40.765)" opacity="0.1">
          <g id="Grupo_1028166" data-name="Grupo 1028166">
            <g id="Grupo_1028165" data-name="Grupo 1028165" clip-path="url(#clip-path-6)">
              <path id="Trazado_727018" data-name="Trazado 727018" d="M71.2,49.85c.111-.242.221-.491.327-.749,6.312-14.907-1.436-26.019-1.436-26.019,4.376,4.512,7.405,12.168,7.794,19.289,0,5.012-6.685,7.479-6.685,7.479" transform="translate(-70.089 -23.083)"/>
            </g>
          </g>
        </g>
        <g id="Grupo_1028170" data-name="Grupo 1028170" transform="translate(105.872 41.833)" opacity="0.5">
          <g id="Grupo_1028169" data-name="Grupo 1028169">
            <g id="Grupo_1028168" data-name="Grupo 1028168" clip-path="url(#clip-path-7)">
              <path id="Trazado_727019" data-name="Trazado 727019" d="M65.237,28.916c-1.215,2.05-3.179,3.133-4.385,2.416s-1.2-2.956.009-5.005,3.179-3.133,4.387-2.42,1.2,2.956-.011,5.009" transform="translate(-59.949 -23.687)" fill="#fff"/>
            </g>
          </g>
        </g>
        <path id="Trazado_727020" data-name="Trazado 727020" d="M68.713,54.625c-6.672,3.852-17.486,3.852-24.156,0s-6.67-10.095,0-13.947,17.484-3.85,24.156,0,6.669,10.1,0,13.947" transform="translate(30.301 28.95)" fill="#a39c95"/>
        <path id="Trazado_727021" data-name="Trazado 727021" d="M40.227,53.463c.6-10.994,7.5-23.257,15.923-23.257,8.35,0,15.2,12.05,15.905,22.973.042.613-31.856.8-31.828.284" transform="translate(30.816 23.139)" fill="#dea26a"/>
        <path id="Trazado_727022" data-name="Trazado 727022" d="M67.411,40.862c-6.218-3.59-16.3-3.59-22.519,0s-6.22,9.413,0,13.005,16.3,3.587,22.519,0,6.22-9.413,0-13.005" transform="translate(30.816 29.24)" fill="#dea26a"/>
        <g id="Grupo_1028173" data-name="Grupo 1028173" transform="translate(95.097 57.323)" opacity="0.1">
          <g id="Grupo_1028172" data-name="Grupo 1028172">
            <g id="Grupo_1028171" data-name="Grupo 1028171" clip-path="url(#clip-path-6)">
              <path id="Trazado_727023" data-name="Trazado 727023" d="M54.958,59.226q.167-.363.328-.744c6.312-14.911-1.439-26.025-1.439-26.025,4.376,4.514,7.409,12.17,7.794,19.292,0,5.01-6.683,7.476-6.683,7.476" transform="translate(-53.847 -32.458)"/>
            </g>
          </g>
        </g>
        <g id="Grupo_1028176" data-name="Grupo 1028176" transform="translate(77.19 58.394)" opacity="0.5">
          <g id="Grupo_1028175" data-name="Grupo 1028175">
            <g id="Grupo_1028174" data-name="Grupo 1028174" clip-path="url(#clip-path-9)">
              <path id="Trazado_727024" data-name="Trazado 727024" d="M49,38.291c-1.215,2.052-3.179,3.133-4.387,2.418s-1.2-2.958.014-5.007S47.8,32.569,49,33.286s1.2,2.956-.009,5.005" transform="translate(-43.707 -33.064)" fill="#fff"/>
            </g>
          </g>
        </g>
        <path id="Trazado_727025" data-name="Trazado 727025" d="M52.471,64c-6.669,3.854-17.484,3.854-24.156,0s-6.67-10.095,0-13.947,17.487-3.848,24.156,0,6.67,10.1,0,13.947" transform="translate(17.858 36.133)" fill="#a39c95"/>
        <path id="Trazado_727026" data-name="Trazado 727026" d="M23.986,62.844c.6-11,7.5-23.262,15.923-23.262,8.353,0,15.2,12.055,15.909,22.976.039.613-31.86.8-31.831.286" transform="translate(18.375 30.322)" fill="#dea26a"/>
        <path id="Trazado_727027" data-name="Trazado 727027" d="M51.169,50.24c-6.217-3.592-16.3-3.592-22.521,0s-6.217,9.411,0,13,16.3,3.589,22.521,0,6.218-9.413,0-13" transform="translate(18.375 36.423)" fill="#dea26a"/>
        <g id="Grupo_1028179" data-name="Grupo 1028179" transform="translate(66.415 73.883)" opacity="0.1">
          <g id="Grupo_1028178" data-name="Grupo 1028178">
            <g id="Grupo_1028177" data-name="Grupo 1028177" clip-path="url(#clip-path-6)">
              <path id="Trazado_727028" data-name="Trazado 727028" d="M38.715,68.6c.111-.244.223-.491.328-.745,6.312-14.911-1.438-26.023-1.438-26.023C41.982,46.347,45.013,54,45.4,61.124c0,5.012-6.685,7.479-6.685,7.479" transform="translate(-37.607 -41.835)"/>
            </g>
          </g>
        </g>
        <g id="Grupo_1028182" data-name="Grupo 1028182" transform="translate(48.507 74.952)" opacity="0.5">
          <g id="Grupo_1028181" data-name="Grupo 1028181">
            <g id="Grupo_1028180" data-name="Grupo 1028180" clip-path="url(#clip-path-5)">
              <path id="Trazado_727029" data-name="Trazado 727029" d="M32.753,47.669c-1.213,2.05-3.177,3.131-4.383,2.418s-1.2-2.955.011-5.009,3.179-3.131,4.385-2.418,1.2,2.956-.012,5.009" transform="translate(-27.466 -42.44)" fill="#fff"/>
            </g>
          </g>
        </g>
        <path id="Trazado_727030" data-name="Trazado 727030" d="M36.232,73.38c-6.672,3.848-17.486,3.848-24.156,0s-6.674-10.1,0-13.947,17.484-3.854,24.156,0,6.67,10.095,0,13.947" transform="translate(5.417 43.316)" fill="#a39c95"/>
        <path id="Trazado_727031" data-name="Trazado 727031" d="M7.744,72.219c.606-11,7.506-23.263,15.928-23.263,8.348,0,15.2,12.055,15.905,22.978.041.611-31.861.8-31.833.284" transform="translate(5.932 37.504)" fill="#dea26a"/>
        <path id="Trazado_727032" data-name="Trazado 727032" d="M34.93,59.615c-6.222-3.59-16.3-3.59-22.521,0s-6.218,9.413,0,13,16.3,3.589,22.521,0,6.218-9.411,0-13" transform="translate(5.933 43.606)" fill="#dea26a"/>
        <g id="Grupo_1028185" data-name="Grupo 1028185" transform="translate(37.733 90.443)" opacity="0.1">
          <g id="Grupo_1028184" data-name="Grupo 1028184">
            <g id="Grupo_1028183" data-name="Grupo 1028183" clip-path="url(#clip-path-12)">
              <path id="Trazado_727033" data-name="Trazado 727033" d="M22.477,77.978c.111-.242.219-.491.328-.745,6.308-14.907-1.439-26.021-1.439-26.021C25.741,55.724,28.771,63.38,29.16,70.5c0,5.012-6.683,7.474-6.683,7.474" transform="translate(-21.365 -51.212)"/>
            </g>
          </g>
        </g>
        <g id="Grupo_1028188" data-name="Grupo 1028188" transform="translate(19.825 91.513)" opacity="0.5">
          <g id="Grupo_1028187" data-name="Grupo 1028187">
            <g id="Grupo_1028186" data-name="Grupo 1028186" clip-path="url(#clip-path-13)">
              <path id="Trazado_727034" data-name="Trazado 727034" d="M16.514,57.044c-1.215,2.049-3.179,3.135-4.387,2.418s-1.2-2.955.011-5.005,3.179-3.133,4.387-2.418,1.2,2.955-.011,5" transform="translate(-11.226 -51.818)" fill="#fff"/>
            </g>
          </g>
        </g>
        <path id="Trazado_727035" data-name="Trazado 727035" d="M118.281,45.736c-6.672,3.852-17.486,3.852-24.158,0s-6.67-10.095,0-13.947,17.486-3.85,24.158,0,6.667,10.1,0,13.947" transform="translate(68.271 22.141)" fill="#a39c95"/>
        <path id="Trazado_727036" data-name="Trazado 727036" d="M89.794,44.576c.6-11,7.5-23.259,15.923-23.259,8.35,0,15.2,12.052,15.909,22.973.039.615-31.86.8-31.831.286" transform="translate(68.787 16.33)" fill="#dea26a"/>
        <path id="Trazado_727037" data-name="Trazado 727037" d="M116.981,31.975c-6.222-3.592-16.3-3.592-22.524,0s-6.218,9.411,0,13,16.3,3.587,22.524,0,6.215-9.413,0-13" transform="translate(68.787 22.431)" fill="#dea26a"/>
        <g id="Grupo_1028191" data-name="Grupo 1028191" transform="translate(182.637 41.624)" opacity="0.1">
          <g id="Grupo_1028190" data-name="Grupo 1028190">
            <g id="Grupo_1028189" data-name="Grupo 1028189" clip-path="url(#clip-path-14)">
              <path id="Trazado_727038" data-name="Trazado 727038" d="M104.524,50.339c.111-.244.221-.491.327-.747,6.312-14.909-1.436-26.023-1.436-26.023,4.373,4.514,7.405,12.17,7.794,19.291,0,5.012-6.685,7.479-6.685,7.479" transform="translate(-103.415 -23.569)"/>
            </g>
          </g>
        </g>
        <g id="Grupo_1028194" data-name="Grupo 1028194" transform="translate(164.727 42.694)" opacity="0.5">
          <g id="Grupo_1028193" data-name="Grupo 1028193">
            <g id="Grupo_1028192" data-name="Grupo 1028192" clip-path="url(#clip-path-5)">
              <path id="Trazado_727039" data-name="Trazado 727039" d="M98.561,29.4c-1.212,2.05-3.175,3.131-4.382,2.416s-1.206-2.958.009-5.01,3.179-3.129,4.387-2.414,1.2,2.956-.014,5.009" transform="translate(-93.274 -24.174)" fill="#fff"/>
            </g>
          </g>
        </g>
        <path id="Trazado_727040" data-name="Trazado 727040" d="M102.038,55.111c-6.669,3.854-17.484,3.854-24.153,0s-6.674-10.091,0-13.943,17.482-3.852,24.153,0,6.672,10.095,0,13.943" transform="translate(55.83 29.324)" fill="#a39c95"/>
        <path id="Trazado_727041" data-name="Trazado 727041" d="M73.553,53.954c.6-11,7.5-23.262,15.925-23.262,8.348,0,15.2,12.055,15.905,22.976.041.613-31.86.8-31.83.286" transform="translate(56.346 23.512)" fill="#dea26a"/>
        <path id="Trazado_727042" data-name="Trazado 727042" d="M100.738,41.351c-6.218-3.592-16.3-3.592-22.519,0s-6.22,9.411,0,13,16.3,3.59,22.519,0,6.22-9.411,0-13" transform="translate(56.346 29.613)" fill="#dea26a"/>
        <g id="Grupo_1028197" data-name="Grupo 1028197" transform="translate(153.953 58.184)" opacity="0.1">
          <g id="Grupo_1028196" data-name="Grupo 1028196">
            <g id="Grupo_1028195" data-name="Grupo 1028195" clip-path="url(#clip-path-6)">
              <path id="Trazado_727043" data-name="Trazado 727043" d="M88.282,59.714q.17-.363.33-.745c6.308-14.911-1.439-26.023-1.439-26.023,4.376,4.512,7.407,12.168,7.794,19.292,0,5.009-6.685,7.476-6.685,7.476" transform="translate(-87.174 -32.946)"/>
            </g>
          </g>
        </g>
        <g id="Grupo_1028200" data-name="Grupo 1028200" transform="translate(136.046 59.254)" opacity="0.5">
          <g id="Grupo_1028199" data-name="Grupo 1028199">
            <g id="Grupo_1028198" data-name="Grupo 1028198" clip-path="url(#clip-path-17)">
              <path id="Trazado_727044" data-name="Trazado 727044" d="M82.322,38.779c-1.215,2.05-3.179,3.135-4.385,2.418s-1.2-2.955.009-5.005,3.179-3.135,4.387-2.419,1.2,2.958-.011,5.007" transform="translate(-77.034 -33.551)" fill="#fff"/>
            </g>
          </g>
        </g>
        <path id="Trazado_727045" data-name="Trazado 727045" d="M85.8,64.491c-6.669,3.848-17.486,3.848-24.156,0s-6.669-10.1,0-13.947,17.487-3.854,24.156,0,6.67,10.095,0,13.947" transform="translate(43.389 36.506)" fill="#a39c95"/>
        <path id="Trazado_727046" data-name="Trazado 727046" d="M57.312,63.329c.6-11,7.5-23.259,15.923-23.259,8.35,0,15.2,12.052,15.909,22.975.039.611-31.86.8-31.831.284" transform="translate(43.904 30.696)" fill="#dea26a"/>
        <path id="Trazado_727047" data-name="Trazado 727047" d="M84.5,50.726c-6.218-3.59-16.3-3.59-22.521,0s-6.217,9.413,0,13,16.3,3.594,22.521,0,6.22-9.41,0-13" transform="translate(43.904 36.796)" fill="#dea26a"/>
        <g id="Grupo_1028203" data-name="Grupo 1028203" transform="translate(125.271 74.745)" opacity="0.1">
          <g id="Grupo_1028202" data-name="Grupo 1028202">
            <g id="Grupo_1028201" data-name="Grupo 1028201" clip-path="url(#clip-path-18)">
              <path id="Trazado_727048" data-name="Trazado 727048" d="M72.042,69.089c.111-.242.223-.486.329-.744,6.312-14.909-1.438-26.023-1.438-26.023,4.375,4.511,7.407,12.166,7.8,19.292,0,5.009-6.686,7.474-6.686,7.474" transform="translate(-70.932 -42.323)"/>
            </g>
          </g>
        </g>
        <g id="Grupo_1028206" data-name="Grupo 1028206" transform="translate(107.363 75.814)" opacity="0.5">
          <g id="Grupo_1028205" data-name="Grupo 1028205">
            <g id="Grupo_1028204" data-name="Grupo 1028204" clip-path="url(#clip-path-9)">
              <path id="Trazado_727049" data-name="Trazado 727049" d="M66.081,48.154c-1.213,2.054-3.177,3.135-4.387,2.418s-1.2-2.955.014-5.005,3.175-3.133,4.383-2.418,1.2,2.955-.011,5.005" transform="translate(-60.792 -42.929)" fill="#fff"/>
            </g>
          </g>
        </g>
        <path id="Trazado_727050" data-name="Trazado 727050" d="M69.557,73.866c-6.67,3.854-17.484,3.854-24.154,0s-6.672-10.095,0-13.947,17.484-3.854,24.154,0,6.669,10.1,0,13.947" transform="translate(30.948 43.689)" fill="#a39c95"/>
        <path id="Trazado_727051" data-name="Trazado 727051" d="M53.316,83.241c-6.67,3.852-17.487,3.852-24.156,0s-6.67-10.093,0-13.945,17.486-3.85,24.156,0,6.669,10.1,0,13.945" transform="translate(18.506 50.873)" fill="#a39c95"/>
        <g id="Grupo_1028209" data-name="Grupo 1028209" transform="translate(75.697 154.003)" opacity="0.3">
          <g id="Grupo_1028208" data-name="Grupo 1028208">
            <g id="Grupo_1028207" data-name="Grupo 1028207" clip-path="url(#clip-path-20)">
              <path id="Trazado_727052" data-name="Trazado 727052" d="M70.119,102.938c-6.236,3.6-16.345,3.6-22.581,0S41.3,93.5,47.538,89.9s16.345-3.6,22.581,0,6.236,9.436,0,13.037" transform="translate(-42.862 -87.202)"/>
            </g>
          </g>
        </g>
        <path id="Trazado_727053" data-name="Trazado 727053" d="M74.726,95.962c0,11.313-7.121,16.691-15.905,16.691s-15.905-5.378-15.905-16.691,7.119-24.705,15.905-24.705S74.726,84.649,74.726,95.962" transform="translate(32.876 54.587)" fill="#dea26a"/>
        <g id="Grupo_1028212" data-name="Grupo 1028212" transform="translate(84.325 129.806)" opacity="0.1">
          <g id="Grupo_1028211" data-name="Grupo 1028211">
            <g id="Grupo_1028210" data-name="Grupo 1028210" clip-path="url(#clip-path-21)">
              <path id="Trazado_727054" data-name="Trazado 727054" d="M71.025,94.244c0,11.313-7.121,16.691-15.905,16.691a17.659,17.659,0,0,1-7.372-1.494S58.906,113,64.653,99.427C70.94,84.571,63.219,73.5,63.219,73.5c4.673,4.821,7.806,13.242,7.806,20.744" transform="translate(-47.748 -73.501)"/>
            </g>
          </g>
        </g>
        <g id="Grupo_1028215" data-name="Grupo 1028215" transform="translate(81.955 130.872)" opacity="0.5">
          <g id="Grupo_1028214" data-name="Grupo 1028214">
            <g id="Grupo_1028213" data-name="Grupo 1028213" clip-path="url(#clip-path-22)">
              <path id="Trazado_727055" data-name="Trazado 727055" d="M51.675,79.31c-1.21,2.043-3.167,3.122-4.369,2.409s-1.2-2.946.011-4.989,3.167-3.119,4.369-2.407,1.2,2.948-.011,4.987" transform="translate(-46.406 -74.104)" fill="#fff"/>
            </g>
          </g>
        </g>
        <g id="Grupo_1028218" data-name="Grupo 1028218" transform="translate(102.248 164.21)" opacity="0.3">
          <g id="Grupo_1028217" data-name="Grupo 1028217">
            <g id="Grupo_1028216" data-name="Grupo 1028216" clip-path="url(#clip-path-23)">
              <path id="Trazado_727056" data-name="Trazado 727056" d="M93.03,95.685c-8.039-3.6-21.069-3.6-29.1,0s-8.039,9.432,0,13.037,21.066,3.6,29.1,0,8.036-9.44,0-13.037" transform="translate(-57.897 -92.981)"/>
            </g>
          </g>
        </g>
        <path id="Trazado_727057" data-name="Trazado 727057" d="M82.467,114.6c11.313,0,16.693-7.123,16.693-15.907s-5.379-15.9-16.693-15.9S57.762,89.911,57.762,98.7,71.152,114.6,82.467,114.6" transform="translate(44.249 63.423)" fill="#dea26a"/>
        <g id="Grupo_1028221" data-name="Grupo 1028221" transform="translate(105.973 154.749)" opacity="0.1">
          <g id="Grupo_1028220" data-name="Grupo 1028220">
            <g id="Grupo_1028219" data-name="Grupo 1028219" clip-path="url(#clip-path-24)">
              <path id="Trazado_727058" data-name="Trazado 727058" d="M80.748,110.9c11.313,0,16.693-7.123,16.693-15.907a17.661,17.661,0,0,0-1.494-7.37s3.557,11.154-10.017,16.9c-14.853,6.289-25.924-1.432-25.924-1.432,4.82,4.675,13.238,7.808,20.742,7.808" transform="translate(-60.005 -87.624)"/>
            </g>
          </g>
        </g>
        <g id="Grupo_1028224" data-name="Grupo 1028224" transform="translate(107.039 152.378)" opacity="0.5">
          <g id="Grupo_1028223" data-name="Grupo 1028223">
            <g id="Grupo_1028222" data-name="Grupo 1028222" clip-path="url(#clip-path-25)">
              <path id="Trazado_727059" data-name="Trazado 727059" d="M65.819,91.552c2.042-1.212,3.117-3.167,2.407-4.373s-2.948-1.2-4.989.014-3.121,3.161-2.407,4.367,2.944,1.2,4.989-.009" transform="translate(-60.609 -86.282)" fill="#fff"/>
            </g>
          </g>
        </g>
      </g>
    </g>
  </g>
</svg>
