<svg xmlns="http://www.w3.org/2000/svg" xmlns:xlink="http://www.w3.org/1999/xlink" width="438" height="220" viewBox="0 0 438 220">
  <defs>
    <clipPath id="clip-path">
      <rect id="Rect치ngulo_349847" data-name="Rect치ngulo 349847" width="211.475" height="217" fill="none"/>
    </clipPath>
  </defs>
  <g id="Grupo_1031894" data-name="Grupo 1031894" transform="translate(-319 -2629)">
    <rect id="Rect치ngulo_349848" data-name="Rect치ngulo 349848" width="438" height="21" transform="translate(319 2828)" fill="#8d0a0a"/>
    <g id="Grupo_1028343" data-name="Grupo 1028343" transform="translate(432 2629)">
      <g id="Grupo_1028342" data-name="Grupo 1028342" clip-path="url(#clip-path)">
        <path id="Trazado_727353" data-name="Trazado 727353" d="M112.937,181.581c-.973-2.242-2.6-3.693-3.641-3.244s-1.09,2.633-.116,4.874,2.6,3.695,3.641,3.244,1.089-2.632.116-4.874" transform="translate(3.19 5.241)" fill="#564447"/>
        <path id="Trazado_727354" data-name="Trazado 727354" d="M30.213,189.922l5.476-.032a80.672,80.672,0,0,0,2.817,13.677l-4.715.32c.959-3.655-3.579-13.965-3.579-13.965" transform="translate(0.888 5.583)" fill="#ddbf92"/>
        <path id="Trazado_727355" data-name="Trazado 727355" d="M57.569,188.66l-5.221,1.655a80.605,80.605,0,0,1,1.529,13.879l4.584-1.146c-2.037-3.184-.891-14.389-.891-14.389" transform="translate(1.539 5.547)" fill="#ddbf92"/>
        <path id="Trazado_727356" data-name="Trazado 727356" d="M22.515,211.105H42.888s-2.629-9.015-6.84-10.424-1.14,5.635-9.473,6.62c-2.586.307-4.28,2.817-4.061,3.8" transform="translate(0.661 5.895)" fill="#f4deba"/>
        <path id="Trazado_727357" data-name="Trazado 727357" d="M71.739,211.076H51.111s.637-8.15,4.584-9.423,2.419,5.093,11.078,5.985c2.687.277,4.966,2.547,4.966,3.438" transform="translate(1.503 5.924)" fill="#f4deba"/>
        <path id="Trazado_727358" data-name="Trazado 727358" d="M68.32,73.745l6.961,25.467L64.924,104.56,53.379,80.706Z" transform="translate(1.569 2.168)" fill="#ffa77b"/>
        <path id="Trazado_727359" data-name="Trazado 727359" d="M61.529,90.808c-1.821-3.754,2.884-9.4,7.314-11.551.291-.142.585-.266.88-.378l-1.4-5.135L53.379,80.707,64.925,104.56l10.356-5.348-1.56-5.706c-3.952,1.121-10.6.577-12.192-2.7" transform="translate(1.569 2.168)" fill="#ea875c"/>
        <path id="Trazado_727360" data-name="Trazado 727360" d="M59.788,36.636S68.3,43.605,69.1,45.928s-.439,20.39-.439,20.39.769.258.794,1.807a2.807,2.807,0,0,1-1.236,2.323l.842,4.9L55.713,84.387s-5.987-24-5.109-32.78,9.183-14.971,9.183-14.971" transform="translate(1.485 1.077)" fill="#f7ba57"/>
        <path id="Trazado_727361" data-name="Trazado 727361" d="M61.3,73.893c-.635-1.639,1.88-4.142,5.617-5.591a15.748,15.748,0,0,1,2.493-.739,1.858,1.858,0,0,0-.479-1.061,3.341,3.341,0,0,1-1.947.694c-3.9,0-7.067-7.9-7.067-17.636a36.313,36.313,0,0,1,1.68-11.4c-1.061-.911-1.808-1.524-1.808-1.524S51.483,42.83,50.6,51.606s5.109,32.78,5.109,32.78l13.352-9.034-.171-1c-3.618,1.318-6.981,1.131-7.6-.461" transform="translate(1.485 1.077)" fill="#f2a446"/>
        <path id="Trazado_727362" data-name="Trazado 727362" d="M53.456,85.146c-.742-.175-1.638-2.138-1.638-2.138s10.9-10.576,13.013-12.415c2.165-1.884,6.409-.441,6.339.838-.07,1.262.357,5.639-.719,5.856s-17,7.858-17,7.858" transform="translate(1.524 2.049)" fill="#f4deba"/>
        <path id="Trazado_727363" data-name="Trazado 727363" d="M61.787,78.638a9.969,9.969,0,0,1,5.136-8.909,3.833,3.833,0,0,0-2.092.862c-2.114,1.84-13.014,12.416-13.014,12.416s.9,1.962,1.639,2.139c0,0,4.321-2.074,8.613-4.092a10.806,10.806,0,0,1-.282-2.415" transform="translate(1.524 2.05)" fill="#e5c595"/>
        <path id="Trazado_727364" data-name="Trazado 727364" d="M20.483,30.02C6.562,65.334,8.769,147.507,27.954,203.535l14.261-3.4s-10.187-64.177-10.187-91.511l2.037.848c.862,19.74,8.372,55.955,15.96,92.36l13.922,2.377S55.8,100.564,57.24,77.219c.419-6.779,5.349-39.049,5.349-39.049s-12.9-13.583-16.3-13.243S20.483,30.02,20.483,30.02" transform="translate(0.339 0.733)" fill="#5c8ebc"/>
        <path id="Trazado_727365" data-name="Trazado 727365" d="M55.023,200.539c-7.057-33.582-14.741-66.5-14.923-95.661l-14.347-4.414,5.859,6.277c0-.111,0-.225,0-.336l2.038.849c.174,4,.625,8.683,1.291,13.9l3.647,23.159c3,16.765,7,36.005,11.021,55.3Z" transform="translate(0.757 2.954)" fill="#3f7099"/>
        <path id="Trazado_727366" data-name="Trazado 727366" d="M17.089,101.219c0-27.6,3.645-52.9,9.71-72.632-3.64.757-6.314,1.324-6.314,1.324C6.562,65.225,8.769,147.4,27.955,203.426l6.621-1.783c-11.97-28.523-17.487-57.62-17.487-100.424" transform="translate(0.339 0.841)" fill="#3f7099"/>
        <path id="Trazado_727367" data-name="Trazado 727367" d="M59.924,35.833c-3.864-3.866-11.511-11.157-14.01-10.907-2.46.246-14.892,2.807-21.562,4.2C27.9,38.115,27.7,54.552,27.7,54.552s20.628,1.911,28.9-.891c0,0,2.269-10.282,3.315-17.828" transform="translate(0.716 0.733)" fill="#f7ba57"/>
        <path id="Trazado_727368" data-name="Trazado 727368" d="M55.216,31.312c-3.618-3.315-7.622-6.553-9.3-6.385-2.459.246-14.892,2.807-21.562,4.2a40.824,40.824,0,0,1,2.058,8,54.145,54.145,0,0,0,7.3.489c9.909,0,18.21-2.605,21.5-6.306" transform="translate(0.716 0.733)" fill="#ef9348"/>
        <path id="Trazado_727369" data-name="Trazado 727369" d="M61.131,98.357c10.314-6.749,15.025-3.311,15.025-3.311l.637,17.445-11.078-2.674Z" transform="translate(1.797 2.769)" fill="#d6bdbd"/>
        <path id="Trazado_727370" data-name="Trazado 727370" d="M75.935,95.046s-2.326-1.69-7.279-.364a21.149,21.149,0,0,0,.688,4.648c1.415,5.435,4.525,9.359,7.078,9.044Z" transform="translate(2.019 2.769)" fill="#f4deba"/>
        <path id="Trazado_727371" data-name="Trazado 727371" d="M56.714,71.519l-1.273,1.528,57.98,121.478.848-6.367Z" transform="translate(1.63 2.103)" fill="#564447"/>
        <path id="Trazado_727372" data-name="Trazado 727372" d="M22.69,62.688s.254-2.547-.891-2.292c0,0,4.33-28.4-.636-30.56S-3.021,56.948.407,66.253A5.16,5.16,0,0,0,4.1,69.182s-2.165,4.456,1.147,7.131S22.69,62.688,22.69,62.688" transform="translate(0 0.874)" fill="#f7ba57"/>
        <path id="Trazado_727373" data-name="Trazado 727373" d="M5.482,71.922c-1.295-4.016,3.107-9.03,9.834-11.2a19.649,19.649,0,0,1,6.517-.98c.134-.908.647-4.5,1.079-8.916-3.951,6.82-8.756,10.825-12.283,9.6-3.7-1.287-4.917-7.949-3.48-16.281C2.388,52.167-1.251,61.33.407,65.829A5.161,5.161,0,0,0,4.1,68.758s-2.165,4.456,1.146,7.131c.732.591,1.993.252,3.513-.629a5.707,5.707,0,0,1-3.278-3.337" transform="translate(0 1.298)" fill="#f2a446"/>
        <path id="Trazado_727374" data-name="Trazado 727374" d="M4.972,74.262c4.33,5.348,30.943-3.056,30.943-3.056l3.819-10.441s-14.9-.636-19.1.128S4.972,74.262,4.972,74.262" transform="translate(0.146 1.779)" fill="#ffa77b"/>
        <path id="Trazado_727375" data-name="Trazado 727375" d="M33.906,60.58c-3.814,5.583-8.418,8.919-10.6,7.546-1.492-.94-1.475-3.862-.233-7.486a21.7,21.7,0,0,0-2.443.25c-4.2.764-15.662,13.37-15.662,13.37C9.3,79.607,35.915,71.2,35.915,71.2l3.819-10.441s-2.546-.108-5.827-.182" transform="translate(0.146 1.781)" fill="#ea875c"/>
        <path id="Trazado_727376" data-name="Trazado 727376" d="M29.588,75.077c-.254-9.55,6.749-16.3,6.749-16.3s9.423,3.947,11.715,5.6c0,0,5.6,1.147,7,3.312s1.528,10.823.764,10.823-8.022-.255-9.3-1.911a11.7,11.7,0,0,1-1.783-4.074l-2.165-.636Z" transform="translate(0.87 1.728)" fill="#f4deba"/>
        <path id="Trazado_727377" data-name="Trazado 727377" d="M55.762,77.573c-2.062.71-4.846-1.949-6.222-5.938-.134-.389-.245-.775-.343-1.158a29.946,29.946,0,0,1-6.075-1.125,26.118,26.118,0,0,1-10.507-5.7,21.7,21.7,0,0,0-3.028,11.286L42.576,71.75l2.164.636a11.7,11.7,0,0,0,1.783,4.074c1.273,1.655,8.532,1.911,9.3,1.911.16,0,.278-.385.356-1a2.125,2.125,0,0,1-.413.2" transform="translate(0.87 1.871)" fill="#d6bdbd"/>
        <path id="Trazado_727378" data-name="Trazado 727378" d="M78.957,117.924c-2.484,1.121-5.485,2.756-6.269,2.2s-6.832-6.925-7.346-8.821,1.821-5.96,3.211-6.463,13.916,11.492,10.4,13.079" transform="translate(1.919 3.082)" fill="#d6bdbd"/>
        <path id="Trazado_727379" data-name="Trazado 727379" d="M79.393,117.393c1.159-2.795-9.641-13.014-10.926-12.547a1.4,1.4,0,0,0-.194.1,11.227,11.227,0,0,0,2.1,7.643c2.414,3.52,6.093,5.371,9.021,4.808" transform="translate(2.005 3.082)" fill="#f4deba"/>
        <path id="Trazado_727380" data-name="Trazado 727380" d="M34.6,27.172l2.992-8.6L49.051,21,47.9,28.763s-.127,8.4-6.239,8.277c-4.737-.1-7.067-9.869-7.067-9.869" transform="translate(1.017 0.546)" fill="#dd704a"/>
        <path id="Trazado_727381" data-name="Trazado 727381" d="M33.093,27.023l1.867-1.188s3.056,9.508,7.556,9.846,5.857-9.932,5.857-9.932l.678.594a20.082,20.082,0,0,1-3.565,13.413L42.94,37.21h-.679L39.12,40.351c-3.294-3.8-5.676-8.061-6.027-13.328" transform="translate(0.973 0.757)" fill="#e5ddcf"/>
        <path id="Trazado_727382" data-name="Trazado 727382" d="M39.134,9.058c-3.056,5.6-2.879,17.818-1.8,19.618s5.219,3.779,6.119,3.779,6.12.18,7.019-1.26,6.839-14.4,7.019-17.818S52.812,7.437,49.753,6s-9.539,1.08-10.619,3.059" transform="translate(1.077 0.164)" fill="#ffa77b"/>
        <path id="Trazado_727383" data-name="Trazado 727383" d="M50.877,16.707a20.862,20.862,0,0,1,5.551.745,17.931,17.931,0,0,0,1.063-4.075c.18-3.42-4.679-5.939-7.739-7.379s-9.538,1.08-10.618,3.059c-1.982,3.632-2.6,10.027-2.5,14.578,2.189-4.048,7.731-6.929,14.242-6.929" transform="translate(1.077 0.164)" fill="#ea875c"/>
        <path id="Trazado_727384" data-name="Trazado 727384" d="M35.787,24.14c-1.89-5.8-.068-13.432-.068-13.432l6.48-.067-3.24,6.817-2.093,1.215-.135,2.97Z" transform="translate(1.027 0.313)" fill="#663842"/>
        <path id="Trazado_727385" data-name="Trazado 727385" d="M35.3,13.047C35.168,7.107,40.028,1.167,45.158.358S55.821.223,56.5,1.3s.27,12.013.27,12.013c-6.907-2.975-13.935-2.376-21.463-.27" transform="translate(1.038 0)" fill="#f4deba"/>
        <path id="Trazado_727386" data-name="Trazado 727386" d="M42.322,8.86c0-3.839,2.607-7.167,6.428-8.839a29.856,29.856,0,0,0-3.593.336c-5.13.81-9.989,6.749-9.854,12.688a49.22,49.22,0,0,1,7.461-1.532,8.414,8.414,0,0,1-.442-2.653" transform="translate(1.038 0.001)" fill="#e5c595"/>
        <path id="Trazado_727387" data-name="Trazado 727387" d="M60.354,7.316c-4.86-1.755-18.831,0-23.15,4.995,10.394-2.4,20.865.513,19.505,4.185,16.6-1.89,8.5-7.424,3.645-9.179" transform="translate(1.094 0.196)" fill="#aa445a"/>
        <path id="Trazado_727388" data-name="Trazado 727388" d="M37.8,107.489l7.64-2.929-9.423-.51Z" transform="translate(1.059 3.059)" fill="#3f7099"/>
        <path id="Trazado_727389" data-name="Trazado 727389" d="M34.435,14.251c-2.97,1.35-2.295,6.344,3.1,7.289,0,0-.135-8.639-3.1-7.289" transform="translate(0.961 0.415)" fill="#ea875c"/>
        <path id="Trazado_727390" data-name="Trazado 727390" d="M34.657,15.516c-1.886.857-1.458,4.03,1.972,4.63,0,0-.086-5.488-1.972-4.63" transform="translate(0.986 0.454)" fill="#cc4f46"/>
        <path id="Trazado_727391" data-name="Trazado 727391" d="M35.83,16.627c-1.207.484-1.12,2.734.955,3.365,0,0,.252-3.848-.955-3.365" transform="translate(1.03 0.488)" fill="#ea875c"/>
        <path id="Trazado_727392" data-name="Trazado 727392" d="M23.56,60.7c0-.849-1.783-2.207-1.783-2.207S4.8,69.015,2.762,70.713s1.614,5.942,2.717,6.2,6.2.764,6.621-.255S23.56,60.7,23.56,60.7" transform="translate(0.063 1.72)" fill="#f4deba"/>
        <path id="Trazado_727393" data-name="Trazado 727393" d="M13.968,65.337a10.274,10.274,0,0,1,.257-2.259c-4.817,3.036-10.354,6.576-11.462,7.5-2.038,1.7,1.612,5.943,2.717,6.2s6.2.764,6.621-.254c.156-.376,1.756-2.645,3.712-5.358a9.887,9.887,0,0,1-1.845-5.826" transform="translate(0.063 1.855)" fill="#e5c595"/>
        <path id="Trazado_727394" data-name="Trazado 727394" d="M110.03,182.509c-.973-2.242-2.6-3.693-3.641-3.244s-1.09,2.633-.116,4.875,2.6,3.694,3.641,3.243,1.089-2.632.116-4.874" transform="translate(3.104 5.268)" fill="#443639"/>
        <path id="Trazado_727395" data-name="Trazado 727395" d="M96.765,197.006c1.186-.01,2.661-.549,2.7-1.734a1.394,1.394,0,0,0-2.294-.933c1.64-1.306,3.438-2.946,3.329-5.039a1.874,1.874,0,0,0-.822-1.576,2.549,2.549,0,0,0-1.123-.235,4.685,4.685,0,0,0-1.95.168,1.6,1.6,0,0,0-1.1,1.477,5.266,5.266,0,0,0-2.03-3.591,4.616,4.616,0,0,0-4.021-.739c-2.411.734-3.722,3.617-3.236,6.09a8.862,8.862,0,0,0,4.593,5.7,2.706,2.706,0,0,0,1.576,2.314,7.952,7.952,0,0,0,2.857.669,12.934,12.934,0,0,0,7.109-.744l.15-.173c-1.789,1.461-7.487.627-5.738-1.659" transform="translate(2.532 5.428)" fill="#d8d2c0"/>
        <path id="Trazado_727396" data-name="Trazado 727396" d="M130.734,175.974a1.934,1.934,0,0,0-1.609-.717,1.149,1.149,0,0,0-.839.631,3.414,3.414,0,0,0-1.049-3.03,3.516,3.516,0,0,0-3.253.021,4.986,4.986,0,0,0-1.758,1.047,5.843,5.843,0,0,0-1.782,3.942c.03,1.606.7,6.94,6.812,7.322l.117-.222a1.153,1.153,0,0,1-.836-1.514,2.36,2.36,0,0,1,1.415-1.311c.611-.257,1.272-.4,1.857-.712a3.5,3.5,0,0,0,.924-5.455" transform="translate(3.541 5.071)" fill="#d8d2c0"/>
        <path id="Trazado_727397" data-name="Trazado 727397" d="M148.891,193a6.312,6.312,0,0,0,.147.695c-.047-.237-.112-.459-.143-.709Z" transform="translate(4.378 5.674)" fill="#d8d2c0"/>
        <path id="Trazado_727398" data-name="Trazado 727398" d="M186.824,184.611a4.444,4.444,0,0,0-4.86-3.043,3.114,3.114,0,0,0-2.262,1.507c-.364.7-.43,1.64-1.113,2.037.094-1.381,1.2-2.452,1.8-3.7a5.231,5.231,0,0,0-2.529-6.858,4.8,4.8,0,0,0-6.3,3.354,10.19,10.19,0,0,0-5.568-7.645,9.638,9.638,0,0,0-9.386.679,9.151,9.151,0,0,0-3.876,8.521,9.728,9.728,0,0,0,1.425,3.883,10.949,10.949,0,0,0,4.076,3.818c2.252,1.211,5,1.681,6.722,3.569a6.34,6.34,0,0,1,.393,7.57,7.975,7.975,0,0,1-7.068,3.3,10.836,10.836,0,0,1-7.118-3.585,8.809,8.809,0,0,1-2.123-3.625,11.174,11.174,0,0,0,4.249,6.485c.967.759-.191,4.584,4.315,4.266.746-.053,1.481-.634,2.118-.244a2.233,2.233,0,0,0,1.549,3.327,2.75,2.75,0,0,0,2.871-2.686,8.294,8.294,0,0,1-.01-1.421,2.244,2.244,0,0,1,1.633-1.619,4.733,4.733,0,0,1,2.393.063,2.435,2.435,0,0,0-1.015,3.465,3.085,3.085,0,0,0,3.665,1.045,4.24,4.24,0,0,0,2.435-3.128c.269-1.333.012-2.761.481-4.037a3.828,3.828,0,0,1,3.371-2.446,20.844,20.844,0,0,1,2.168.21,4.175,4.175,0,0,0,3.161-.988,2.671,2.671,0,0,0,.624-3.106,2.079,2.079,0,0,0-2.012-1,12.568,12.568,0,0,0,4.133-2.605,5.706,5.706,0,0,0,1.661-5.361" transform="translate(4.382 4.979)" fill="#d8d2c0"/>
        <path id="Trazado_727399" data-name="Trazado 727399" d="M205.825,190.365a1.088,1.088,0,0,0-.454-.376,2.311,2.311,0,0,0-2.482.31,6.5,6.5,0,0,0,1.671-3.523,1.991,1.991,0,0,0-.056-.982,1.752,1.752,0,0,0-.82-.849,3.322,3.322,0,0,0-4.854,3.675,4.351,4.351,0,0,0-1.845-2.471,2.541,2.541,0,0,0-2.936.221,1.814,1.814,0,0,0,.144,2.732c.49.308,1.226.414,1.363.977a.914.914,0,0,1-.711.988,2.944,2.944,0,0,1-1.335-.027c-2.961-.543-5.8,3.846-5.253,5.273l.056-.128c.116-1.9,2.146-3.186,4.046-3.268s3.714.689,5.529,1.253,3.865.912,5.556.041a5.146,5.146,0,0,0,2.339-2.7,1.3,1.3,0,0,0,.043-1.145" transform="translate(5.533 5.426)" fill="#d8d2c0"/>
        <path id="Trazado_727400" data-name="Trazado 727400" d="M186.824,184.55a4.444,4.444,0,0,0-4.86-3.043,3.114,3.114,0,0,0-2.262,1.507c-.364.7-.43,1.64-1.113,2.037.094-1.381,1.2-2.452,1.8-3.7a4.988,4.988,0,0,0,.355-3.085c-.876,2-2.316,3.3-3.947,3.3-2.126,0-3.927-2.214-4.577-5.29a3.959,3.959,0,0,0-.665,1.568,10.277,10.277,0,0,0-3.646-6.412,13.569,13.569,0,0,1,2.45,7.842,13.042,13.042,0,0,1-5.781,11.049c.125.115.255.22.371.347a6.34,6.34,0,0,1,.393,7.57,7.975,7.975,0,0,1-7.068,3.3,10.836,10.836,0,0,1-7.118-3.585,8.809,8.809,0,0,1-2.123-3.625,11.174,11.174,0,0,0,4.249,6.485c.967.759-.191,4.584,4.315,4.266.746-.053,1.481-.634,2.118-.244a2.233,2.233,0,0,0,1.549,3.327,2.75,2.75,0,0,0,2.871-2.686,8.294,8.294,0,0,1-.01-1.421,2.244,2.244,0,0,1,1.633-1.619,4.733,4.733,0,0,1,2.393.063,2.435,2.435,0,0,0-1.015,3.465,3.085,3.085,0,0,0,3.665,1.045,4.24,4.24,0,0,0,2.435-3.128c.269-1.333.012-2.761.481-4.037a3.828,3.828,0,0,1,3.371-2.446,20.844,20.844,0,0,1,2.168.21,4.175,4.175,0,0,0,3.161-.988,2.671,2.671,0,0,0,.624-3.106,2.079,2.079,0,0,0-2.012-1,12.568,12.568,0,0,0,4.133-2.605,5.706,5.706,0,0,0,1.661-5.361" transform="translate(4.382 5.041)" fill="#c6bda7"/>
        <path id="Trazado_727401" data-name="Trazado 727401" d="M176.126,189.341c0-2.813-1.6-5.093-3.566-5.093s-3.565,2.28-3.565,5.093,1.6,5.093,3.565,5.093,3.566-2.28,3.566-5.093" transform="translate(4.969 5.417)" fill="#d8d2c0"/>
        <path id="Trazado_727402" data-name="Trazado 727402" d="M205.825,190.328a1.088,1.088,0,0,0-.454-.376,2.311,2.311,0,0,0-2.482.31,6.5,6.5,0,0,0,1.671-3.523,2.09,2.09,0,0,0-.042-.911,6.825,6.825,0,0,1-6.63,4.825,7.192,7.192,0,0,1-2.335-.394.976.976,0,0,1-.707.772A2.944,2.944,0,0,1,193.51,191c-2.961-.543-5.8,3.846-5.253,5.273l.056-.128c.116-1.9,2.146-3.186,4.046-3.268s3.714.689,5.529,1.253,3.865.912,5.556.041a5.146,5.146,0,0,0,2.339-2.7,1.3,1.3,0,0,0,.043-1.145" transform="translate(5.533 5.464)" fill="#c6bda7"/>
        <path id="Trazado_727403" data-name="Trazado 727403" d="M130.732,175.952a1.934,1.934,0,0,0-1.609-.717,1.149,1.149,0,0,0-.839.631,4,4,0,0,0-.656-2.655c0,.081.008.161.008.242,0,3.7-1.976,6.706-4.415,6.706a3.584,3.584,0,0,1-2.711-1.422c.266,2.136,1.5,6.1,6.744,6.431l.117-.222a1.153,1.153,0,0,1-.836-1.514,2.36,2.36,0,0,1,1.415-1.311c.611-.257,1.272-.4,1.857-.712a3.5,3.5,0,0,0,.924-5.455" transform="translate(3.543 5.093)" fill="#c6bda7"/>
        <path id="Trazado_727404" data-name="Trazado 727404" d="M96.765,196.949c1.186-.01,2.661-.549,2.7-1.734a1.394,1.394,0,0,0-2.294-.933c1.64-1.306,3.438-2.946,3.329-5.039a2.551,2.551,0,0,0-.092-.538c-1.295,3.288-3.633,5.492-6.312,5.492-3.232,0-5.973-3.2-6.973-7.658a5.8,5.8,0,0,0-.906,4.3,8.862,8.862,0,0,0,4.593,5.7,2.706,2.706,0,0,0,1.576,2.314,7.952,7.952,0,0,0,2.857.669,12.934,12.934,0,0,0,7.109-.744l.15-.173c-1.789,1.461-7.487.627-5.738-1.659" transform="translate(2.532 5.485)" fill="#c6bda7"/>
        <path id="Trazado_727405" data-name="Trazado 727405" d="M109.3,182.782c-.361-.833-.968-1.373-1.353-1.205s-.406.978-.044,1.812.968,1.372,1.354,1.205.4-.979.043-1.812" transform="translate(3.165 5.338)" fill="#7a6a6e"/>
        <path id="Trazado_727406" data-name="Trazado 727406" d="M76.193,104.052c1.86,2.5,1.907,6.523,1.777,8.655-.037.6-.467.807-.97.468-1.723-1.162-4.7-4.588-4.825-5.844a3.211,3.211,0,0,1,.285-1.5.774.774,0,0,1,1.337-.145,1.038,1.038,0,0,0,1.794-.211Z" transform="translate(2.122 3.059)" fill="#f4deba"/>
        <path id="Trazado_727407" data-name="Trazado 727407" d="M20.743,29.835c-1.351-.589-3.759,1.16-6.477,4.19a33.246,33.246,0,0,0,8.762,2.618c-.232-3.529-.892-6.2-2.285-6.807" transform="translate(0.419 0.874)" fill="#ef9348"/>
        <path id="Trazado_727408" data-name="Trazado 727408" d="M26.773,56.763c.117-.914-.339-1.655-1.019-1.655s-1.326.741-1.443,1.655.34,1.655,1.019,1.655,1.326-.741,1.443-1.655" transform="translate(0.714 1.62)" fill="#3f7099"/>
        <path id="Trazado_727409" data-name="Trazado 727409" d="M55.883,57.052c.117-.914-.339-1.655-1.019-1.655s-1.326.741-1.443,1.655.34,1.655,1.019,1.655,1.326-.741,1.443-1.655" transform="translate(1.57 1.629)" fill="#3f7099"/>
        <path id="Trazado_727410" data-name="Trazado 727410" d="M58.761,34.493c-1.065,7.513-3.266,17.486-3.266,17.486-7.181,2.429-23.654,1.315-27.889.977.008.832,0,1.316,0,1.316s20.628,1.91,28.9-.892c0,0,2.269-10.281,3.315-17.828-.328-.327-.691-.687-1.067-1.058" transform="translate(0.812 1.014)" fill="#ef9348"/>
        <path id="Trazado_727411" data-name="Trazado 727411" d="M47.607,64.426c4.2.341,6.931-.07,7.98.807,4.032,3.374,2.823,6.431,2.823,6.431s-2.356-2.993-2.738-2.993-1.995-.127-1.995-.127Z" transform="translate(1.4 1.894)" fill="#f4deba"/>
        <path id="Trazado_727412" data-name="Trazado 727412" d="M48.924,17.677c-.142,1.508-.517,7.915-1.246,8.071a3.265,3.265,0,0,1-1.9-.692l-.075.181s1.5,1.133,2.3.964,1.176-7.928,1.283-8.381Z" transform="translate(1.344 0.52)" fill="#dd704a"/>
        <path id="Trazado_727413" data-name="Trazado 727413" d="M45.544,27.724A4.771,4.771,0,0,1,41.679,24.5c-.246-.8-.073-.96-.016-1.013a.292.292,0,0,1,.409.017.289.289,0,0,1,.055.3,4.026,4.026,0,0,0,3.524,3.356c.078.014.159.028.24.04a.3.3,0,0,1,.244.327.29.29,0,0,1-.327.244c-.089-.013-.176-.029-.261-.044" transform="translate(1.222 0.688)" fill="#dd704a"/>
        <path id="Trazado_727414" data-name="Trazado 727414" d="M42.591,27.249c-.3-.265-.607-.4-.692-.306s.088.387.385.652.607.4.692.306-.087-.387-.385-.652" transform="translate(1.231 0.791)" fill="#dd704a"/>
        <path id="Trazado_727415" data-name="Trazado 727415" d="M50.709,19.829a1.61,1.61,0,0,0,.5,1.988c.568.265,1.269-.2,1.566-1.044a2.294,2.294,0,0,0,.106-.526Z" transform="translate(1.487 0.583)" fill="#3f3335"/>
        <path id="Trazado_727416" data-name="Trazado 727416" d="M43.674,18.018l0,.005a1.614,1.614,0,0,0,.493,2c.568.265,1.269-.2,1.565-1.045a2.237,2.237,0,0,0,.111-.545Z" transform="translate(1.28 0.53)" fill="#3f3335"/>
        <path id="Trazado_727417" data-name="Trazado 727417" d="M47.3,15.189l-3.127-.431a1.077,1.077,0,0,0-1.234.852,1.025,1.025,0,0,0,.915,1.149l3.127.431a1.079,1.079,0,0,0,1.235-.852,1.026,1.026,0,0,0-.916-1.149" transform="translate(1.262 0.434)" fill="#663842"/>
        <path id="Trazado_727418" data-name="Trazado 727418" d="M55.021,17.915l-2.776-1.5a1.078,1.078,0,0,0-1.455.363,1.025,1.025,0,0,0,.453,1.4l2.776,1.5a1.077,1.077,0,0,0,1.455-.364,1.024,1.024,0,0,0-.453-1.4" transform="translate(1.49 0.478)" fill="#663842"/>
        <path id="Trazado_727419" data-name="Trazado 727419" d="M91.295,203.732a1.473,1.473,0,0,0,.132,2.246,2.4,2.4,0,0,0,2.476.067,7.037,7.037,0,0,0,1.958-1.7,1.636,1.636,0,0,0,2.724,1.055,2.87,2.87,0,1,0,5.055-2.615,1.679,1.679,0,0,0,2.34-.005c.289-.307.5-.752.912-.838.526-.11.927.429,1.362.744a1.92,1.92,0,0,0,2.846-1.041,2.746,2.746,0,1,0,4.6-2.221,2.924,2.924,0,0,0,3.02-.109,1.908,1.908,0,1,0,2.79-2.064,2.672,2.672,0,0,0,1.833-1.321,3.24,3.24,0,0,0,2.986,1.924,1.713,1.713,0,0,0,1.2-2.366,3.244,3.244,0,0,0,2.907.94c1.194-.33,1.778-2.212.705-2.833a5.836,5.836,0,0,0,3.178,1.6c1.2.067,2.531-.933,2.329-2.123-.145-.849-.98-1.464-1.1-2.318a7.83,7.83,0,0,1,.075-1.256,2.443,2.443,0,0,0-1.79-2.357,4.3,4.3,0,0,0,1.945-1.4,1.88,1.88,0,0,0,0-2.252c-1.114-1.237-3.087.168-4.753.167L94.481,198.368a2.763,2.763,0,0,0-3.393,2.127,2.621,2.621,0,0,0-1.927,2.192c0,1.037,1.486,1.856,2.134,1.046" transform="translate(2.622 5.38)" fill="#d3c5ae"/>
        <path id="Trazado_727420" data-name="Trazado 727420" d="M91.427,205.978a2.4,2.4,0,0,0,2.476.067,4,4,0,0,0,.656-.427,4,4,0,0,1-.79-1.335c-.278-1.175.983-2.256,2.19-2.266a5.842,5.842,0,0,1,3.272,1.4c-1.11-.553-.646-2.466.525-2.872a3.244,3.244,0,0,1,2.96.755,1.712,1.712,0,0,1,1.048-2.436,3.24,3.24,0,0,1,3.1,1.73,2.672,2.672,0,0,1,1.746-1.433,1.907,1.907,0,1,1,2.654-2.235,2.927,2.927,0,0,1,3.008-.3,2.746,2.746,0,1,1,4.446-2.507,1.919,1.919,0,0,1,2.774-1.218c.454.287.888.8,1.406.658.407-.112.589-.57.859-.895a1.677,1.677,0,0,1,2.334-.152,2.871,2.871,0,1,1,4.88-2.929,1.636,1.636,0,0,1,2.786.882,7.422,7.422,0,0,1,1.738-1.746,2.45,2.45,0,0,0-1.668-1.577,4.3,4.3,0,0,0,1.945-1.4,1.878,1.878,0,0,0,0-2.252c-1.114-1.237-3.087.168-4.753.167L94.481,198.368a2.762,2.762,0,0,0-3.392,2.127,2.619,2.619,0,0,0-1.927,2.192c0,1.037,1.485,1.856,2.133,1.046a1.473,1.473,0,0,0,.132,2.246" transform="translate(2.622 5.38)" fill="#b5a58f"/>
        <path id="Trazado_727421" data-name="Trazado 727421" d="M133.122,184.476c-1.113,2.731-27.788,11.438-37.324,14.474a2.306,2.306,0,0,1-2.89-2.9,4.515,4.515,0,0,1,2.127-2.818c2.957-1.478,34.635-12.7,36.115-12.2s1.972,3.452,1.972,3.452" transform="translate(2.728 5.322)" fill="#685159"/>
      </g>
    </g>
  </g>
</svg>
