<svg id="Grupo_1028292" data-name="Grupo 1028292" xmlns="http://www.w3.org/2000/svg" xmlns:xlink="http://www.w3.org/1999/xlink" width="168.554" height="248" viewBox="0 0 168.554 248">
  <defs>
    <clipPath id="clip-path">
      <path id="Trazado_727127" data-name="Trazado 727127" d="M0,0H168.554V248H0Z" fill="none"/>
    </clipPath>
    <clipPath id="clip-path-2">
      <rect id="Rectángulo_345010" data-name="Rectángulo 345010" width="168.554" height="233.673" fill="none"/>
    </clipPath>
    <clipPath id="clip-path-3">
      <rect id="Rectángulo_344990" data-name="Rectángulo 344990" width="60.881" height="34.444" fill="none"/>
    </clipPath>
    <clipPath id="clip-path-4">
      <rect id="Rectángulo_344991" data-name="Rectángulo 344991" width="17.971" height="21.447" fill="none"/>
    </clipPath>
    <clipPath id="clip-path-5">
      <rect id="Rectángulo_344992" data-name="Rectángulo 344992" width="32.276" height="15.249" fill="none"/>
    </clipPath>
    <clipPath id="clip-path-6">
      <rect id="Rectángulo_344993" data-name="Rectángulo 344993" width="29.904" height="27.796" fill="none"/>
    </clipPath>
    <clipPath id="clip-path-7">
      <rect id="Rectángulo_344994" data-name="Rectángulo 344994" width="33.423" height="22.13" fill="none"/>
    </clipPath>
    <clipPath id="clip-path-8">
      <rect id="Rectángulo_344995" data-name="Rectángulo 344995" width="4.501" height="2.276" fill="none"/>
    </clipPath>
    <clipPath id="clip-path-9">
      <rect id="Rectángulo_344996" data-name="Rectángulo 344996" width="5.499" height="4.157" fill="none"/>
    </clipPath>
    <clipPath id="clip-path-10">
      <rect id="Rectángulo_344997" data-name="Rectángulo 344997" width="3.929" height="12.94" fill="none"/>
    </clipPath>
    <clipPath id="clip-path-11">
      <rect id="Rectángulo_344998" data-name="Rectángulo 344998" width="4.503" height="2.276" fill="none"/>
    </clipPath>
    <clipPath id="clip-path-12">
      <rect id="Rectángulo_344999" data-name="Rectángulo 344999" width="5.497" height="4.154" fill="none"/>
    </clipPath>
    <clipPath id="clip-path-13">
      <rect id="Rectángulo_345000" data-name="Rectángulo 345000" width="3.934" height="12.933" fill="none"/>
    </clipPath>
    <clipPath id="clip-path-14">
      <rect id="Rectángulo_345001" data-name="Rectángulo 345001" width="4.21" height="6.069" fill="none"/>
    </clipPath>
    <clipPath id="clip-path-15">
      <rect id="Rectángulo_345002" data-name="Rectángulo 345002" width="2.652" height="7.002" fill="none"/>
    </clipPath>
    <clipPath id="clip-path-16">
      <rect id="Rectángulo_345003" data-name="Rectángulo 345003" width="3.163" height="8.222" fill="none"/>
    </clipPath>
    <clipPath id="clip-path-17">
      <rect id="Rectángulo_345004" data-name="Rectángulo 345004" width="40.474" height="36.168" fill="none"/>
    </clipPath>
    <clipPath id="clip-path-18">
      <rect id="Rectángulo_345005" data-name="Rectángulo 345005" width="35.613" height="28.567" fill="none"/>
    </clipPath>
    <clipPath id="clip-path-19">
      <rect id="Rectángulo_345006" data-name="Rectángulo 345006" width="18.059" height="15.918" fill="none"/>
    </clipPath>
    <clipPath id="clip-path-20">
      <rect id="Rectángulo_345007" data-name="Rectángulo 345007" width="11.605" height="6.119" fill="none"/>
    </clipPath>
    <clipPath id="clip-path-21">
      <rect id="Rectángulo_345008" data-name="Rectángulo 345008" width="1.291" height="3.568" fill="none"/>
    </clipPath>
    <clipPath id="clip-path-22">
      <rect id="Rectángulo_345009" data-name="Rectángulo 345009" width="4.819" height="2.57" fill="none"/>
    </clipPath>
  </defs>
  <g id="Enmascarar_grupo_977098" data-name="Enmascarar grupo 977098" clip-path="url(#clip-path)">
    <g id="Grupo_1028290" data-name="Grupo 1028290">
      <g id="Grupo_1028289" data-name="Grupo 1028289" clip-path="url(#clip-path-2)">
        <path id="Trazado_727060" data-name="Trazado 727060" d="M160.869,216.48l-139.71,3.628a5.748,5.748,0,0,1-5.894-5.6L10.734,39.983a5.746,5.746,0,0,1,5.6-5.894l139.71-3.627a5.745,5.745,0,0,1,5.893,5.594l4.532,174.531a5.746,5.746,0,0,1-5.6,5.893" transform="translate(2.088 5.926)" fill="#06d1d1"/>
        <path id="Trazado_727061" data-name="Trazado 727061" d="M14.419,223.114a13.818,13.818,0,0,1-9.85-12.781L0,37.648A13.883,13.883,0,0,1,13.644,23.542L136.585,20.41a14.053,14.053,0,0,1,10.007,3.771,13.557,13.557,0,0,1,4.36,9.62l4.565,172.682a13.529,13.529,0,0,1-3.843,9.829,14.038,14.038,0,0,1-9.8,4.277l-122.94,3.136a14.158,14.158,0,0,1-4.517-.612M140.716,22.3a12.892,12.892,0,0,0-4.1-.555L13.677,24.881A12.534,12.534,0,0,0,1.369,37.615L5.933,210.3A12.556,12.556,0,0,0,18.9,222.386l122.94-3.134a12.669,12.669,0,0,0,8.84-3.864,12.2,12.2,0,0,0,3.471-8.869L149.587,33.835a12.218,12.218,0,0,0-3.935-8.678,12.628,12.628,0,0,0-4.935-2.854" transform="translate(4.778 9.943)" fill="#b20d0d"/>
        <g id="Grupo_1028231" data-name="Grupo 1028231" transform="translate(31.12 176.895)" opacity="0.3">
          <g id="Grupo_1028230" data-name="Grupo 1028230">
            <g id="Grupo_1028229" data-name="Grupo 1028229" clip-path="url(#clip-path-3)">
              <path id="Trazado_727062" data-name="Trazado 727062" d="M84.421,153.072c6.676,6.7-.416,17.6-15.841,24.359s-33.343,6.8-40.017.106.417-17.6,15.842-24.354,33.339-6.8,40.016-.111" transform="translate(-26.052 -148.085)"/>
            </g>
          </g>
        </g>
        <path id="Trazado_727063" data-name="Trazado 727063" d="M77.573,158.7c1.445,1.61,1.562,4.5.415,5.454-2.007,1.672-5.244.945-8.738.184s-5.708-2.024-10.065-2.85-10.039-.1-10.912-1.92.567-5.2.567-5.2,28.011,5.575,28.734,4.336" transform="translate(9.337 30.032)" fill="#f7edd4"/>
        <path id="Trazado_727064" data-name="Trazado 727064" d="M40.449,166.446s7.523,4.236,8.122,6.355a3.576,3.576,0,0,1-2.377,4.64c-2.358.662-8.473.911-10.77-4.907-1.984-5.027-3.317-9.147-3.281-10.1a14.3,14.3,0,0,1,.29-2.1Z" transform="translate(6.253 31.193)" fill="#f7edd4"/>
        <path id="Trazado_727065" data-name="Trazado 727065" d="M44.389,159.844A40.827,40.827,0,0,0,45.7,165.9c.911,2.934,2.276,4.314,2.873,6.436a3.578,3.578,0,0,1-2.377,4.64c-2.357.658-8.472.9-10.769-4.914-1.984-5.023-3.317-9.14-3.281-10.086s.166-4.342.166-4.342Z" transform="translate(6.253 30.668)" fill="#b88f5a"/>
        <g id="Grupo_1028234" data-name="Grupo 1028234" transform="translate(37.561 188.301)" opacity="0.7">
          <g id="Grupo_1028233" data-name="Grupo 1028233">
            <g id="Grupo_1028232" data-name="Grupo 1028232" clip-path="url(#clip-path-4)">
              <path id="Trazado_727066" data-name="Trazado 727066" d="M33.929,159.136s2.07,9.222,8.02,7.339c3.64-1.146,2.376-5.114,2.384-7.2,0-.889.178-.649.178-.649a40.555,40.555,0,0,0,2.024,7.529c1.2,2.682,2.093,4.189,2.583,6.19.761,3.123.2,5.688-3.35,6.509a9.5,9.5,0,0,1-11.116-6.587c-1.651-5.282-2.917-8.559-3.121-10.008a32.418,32.418,0,0,1,.017-4.626Z" transform="translate(-31.444 -157.634)" fill="#fff"/>
            </g>
          </g>
        </g>
        <path id="Trazado_727067" data-name="Trazado 727067" d="M70.261,56.155s5.763,9.012,8.138,10.4,9.982,2.728,9.982,2.728l2.949-12.1s-3.7-.793-5.932-1.083c-.656-.54-9.376-25.788-12.349-30.436a10.75,10.75,0,0,0-7.563-5.017l-4.643,5.122Z" transform="translate(11.837 4.016)" fill="#377691"/>
        <path id="Trazado_727068" data-name="Trazado 727068" d="M81.86,50.841s-5,.659-4.918,6.7a17.558,17.558,0,0,1,4.918-6.7" transform="translate(14.969 9.891)" fill="#2d5a78"/>
        <path id="Trazado_727069" data-name="Trazado 727069" d="M96.25,53.129s-4.5-1.248-8.552-1.908-7.13,12.15-2.666,12.419a84.764,84.764,0,0,0,8.865,0Z" transform="translate(16.116 9.96)" fill="#e0dedc"/>
        <path id="Trazado_727070" data-name="Trazado 727070" d="M48.431,20.606l-.306,2.572v5.254L51.638,33.1l7.4,3.225,5.252-1.1,1.939-2.872L64.45,24.337l-13.6-4.874Z" transform="translate(9.363 3.787)" fill="#c7a495"/>
        <path id="Trazado_727071" data-name="Trazado 727071" d="M48.185,25.115l.463-2.541s-.172,4.186,5.126,8.394c7.644,6.074,10.826,1.858,11.032.618s2.5.515,2.5.515l-.367,6.075-6.76,3.783L47.346,38.114l-1.92-9.234Z" transform="translate(8.838 4.392)" fill="#b4ced6"/>
        <path id="Trazado_727072" data-name="Trazado 727072" d="M61.563,150.643a33.652,33.652,0,0,0,6.775,4.021c3.512,1.451,7.811,2.223,9.257,3.833s1.561,4.5.415,5.453c-2.007,1.677-5.244.944-8.739.185s-5.706-2.024-10.064-2.848-10.039-.1-10.912-1.92-.122-7.22-.122-7.22Z" transform="translate(9.314 29.308)" fill="#b88f5a"/>
        <g id="Grupo_1028237" data-name="Grupo 1028237" transform="translate(56.564 180.45)" opacity="0.7">
          <g id="Grupo_1028236" data-name="Grupo 1028236">
            <g id="Grupo_1028235" data-name="Grupo 1028235" clip-path="url(#clip-path-5)">
              <path id="Trazado_727073" data-name="Trazado 727073" d="M49.733,153.54c1.02,1.714,15.465,4.629,18.547,3.387,2.408-.97.162-2.344.162-2.344s6.991,1.361,9.464,3.431c2.112,1.767,2.736,6.581-.775,7.8-5.577,1.939-12.625-2.4-18.162-3.34s-10.611.431-11.355-2.064c-.8-2.7.5-9.352.5-9.352a26.939,26.939,0,0,1,1.617,2.479" transform="translate(-47.352 -151.061)" fill="#fff"/>
            </g>
          </g>
        </g>
        <path id="Trazado_727074" data-name="Trazado 727074" d="M73.572,77.361c-.626,33.127-5.957,42.771-8.413,55.07-2.873,14.382-3,26.159-2.5,31.488s-14.349,7.689-14.847.993-1.147-28.139,1.331-36.7,4.837-41.407,4.837-41.407S72.7,74.323,73.572,77.361" transform="translate(9.211 14.958)" fill="#377691"/>
        <path id="Trazado_727075" data-name="Trazado 727075" d="M68.24,28.426a14.566,14.566,0,0,1-2.006,8.941s-17.853.5-15.342-12.254c-4.107,3.653-13.5,12.012-13.5,12.012l1.168,48.58a41.127,41.127,0,0,0-2.253,10.28c-.658,6.349,1.49,38.5.662,43.541s-3.057,7.929-3.8,12.889-1.407,24.056-1.656,31,14.736,4.954,14.753,0,.259-27.153,3.721-34.34,8.994-35.043,10.068-42.152c10.164-4.464,16.33-11.529,16.681-20.213.164-3.967.072-19.748,1.64-29.007s1.571-16.941,0-22.932S67.6,22.573,67.6,22.573a41.459,41.459,0,0,0,.641,5.853" transform="translate(6.132 4.392)" fill="#428aa8"/>
        <path id="Trazado_727076" data-name="Trazado 727076" d="M64.357,87.2c-.52-18.4,5.479-44.3-3.777-52.241C68.6,47.772,61.2,73.233,64.357,87.2" transform="translate(11.786 6.801)" fill="#377691"/>
        <path id="Trazado_727077" data-name="Trazado 727077" d="M39.509,34.545c-8.348-.025-8.8,14.323-8.8,14.323s-.372,21.964-.744,27.829,5.912,9.1,9.03,8.887,8.116-2.266,8.116-2.266L44.256,70.757s2.016-20.337,2.853-24.886-3.481-11.314-7.6-11.326" transform="translate(5.826 6.721)" fill="#377691"/>
        <path id="Trazado_727078" data-name="Trazado 727078" d="M43.681,64.859s-9.621,1.233-10.776,4.7c2.313-.5,10.776-4.7,10.776-4.7" transform="translate(6.402 12.618)" fill="#2d5a78"/>
        <path id="Trazado_727079" data-name="Trazado 727079" d="M52.73,62.721s-5.46,1.321-10.442,2.554-.67,15.524,3.84,12.09C53.473,71.773,58.4,68.429,58.4,68.429Z" transform="translate(7.794 12.202)" fill="#e0dedc"/>
        <path id="Trazado_727080" data-name="Trazado 727080" d="M61.879,68.784a10.629,10.629,0,0,0,4.4-1.62c1.592-1.261.708-4.218.708-4.218l-7.867,1.162-.448,2.88Z" transform="translate(11.415 12.246)" fill="#e0dedc"/>
        <path id="Trazado_727081" data-name="Trazado 727081" d="M56.372,58.876s2.733-2.612,4.325-1.02,2.672,3.7,1.693,4.376S59.4,60.983,59.4,60.983l-1.148,1.486Z" transform="translate(10.967 11.156)" fill="#e0dedc"/>
        <path id="Trazado_727082" data-name="Trazado 727082" d="M69.753,69.176l-4.118-2.9.508-.615Z" transform="translate(12.769 12.774)" fill="#f4efe9"/>
        <path id="Trazado_727083" data-name="Trazado 727083" d="M61.444,61.406c2.862,2.378,5.343,4.567,6.86,6.034a.415.415,0,0,1-.514.615c-1.719-1.221-4.328-3.253-7.191-5.631-4.883-4.052-5.375-4.845-5.141-5.123s1.1.054,5.986,4.106" transform="translate(10.78 11.133)" fill="#fa5c52"/>
        <path id="Trazado_727084" data-name="Trazado 727084" d="M71.533,11.649a41.8,41.8,0,0,1,.712,6.31c-.047.624-1.032.928-1.052,1.549a20.006,20.006,0,0,1,.458,3.034c-.032,1.552-1.7,9.755-1.946,10.725s-2.789,2.542-4.339,2.542c-3.78,0-10.764-4.607-11.573-5.846A14.386,14.386,0,0,1,52.567,25.7s-2.3.808-3.625-2.6a12.323,12.323,0,0,1-1.181-2.482V11.5l19.03-3.52Z" transform="translate(9.292 1.552)" fill="#f0c6b4"/>
        <path id="Trazado_727085" data-name="Trazado 727085" d="M49.279,24.421c-.167-.759-1.245-4.795.573-5.329s3.6,3.715,4.589,3.8.692-2.641,1.3-3.347,2.419.331,5.644-1.533c2.719-1.564,3.879-2.765,4.337-2.479S63.9,18.843,63.9,18.843s9.619-2.457,8.187-8.806C71.59,7.836,65.085-1.738,54.9,2.1c-14.851,5.6-6.859,22.688-5.618,22.317" transform="translate(8.954 0.234)" fill="#362c29"/>
        <path id="Trazado_727086" data-name="Trazado 727086" d="M57.5,58.626s2.648,3.549,3.722,3.943a19.454,19.454,0,0,0,6.015.268c.641-.246,1.9-1.672,3.014-2.1a1.048,1.048,0,0,1,1.2,1.654,19.291,19.291,0,0,1-4.143,2.972c-.714.3-5.774.88-5.774.88l1.922,3.378-7.1-.4s-6.691.029-5.668-5.706c1.706-2.166,6.815-4.892,6.815-4.892" transform="translate(9.84 11.406)" fill="#e0dedc"/>
        <path id="Trazado_727087" data-name="Trazado 727087" d="M112.576,43.248a3.416,3.416,0,0,0-2.942.3L90.754,54.518l4.22,1.745,11.208-6.621,4.474-1.12Z" transform="translate(17.656 8.375)" fill="#fff"/>
        <path id="Trazado_727088" data-name="Trazado 727088" d="M95.714,52.211s-4.876-2.154-6.664,7.7a122.753,122.753,0,0,1-6.672,22.148L95.714,69.116Z" transform="translate(16.027 10.119)" fill="#b5afa7"/>
        <path id="Trazado_727089" data-name="Trazado 727089" d="M116.352,43.26,82.133,87.345l-.733-.606L94.444,54.88l21.175-12.229Z" transform="translate(15.836 8.298)" fill="#b87139"/>
        <path id="Trazado_727090" data-name="Trazado 727090" d="M103.188,75.021,82.014,87.246,95.059,55.383l21.173-12.221Z" transform="translate(15.956 8.397)" fill="#6b4414"/>
        <path id="Trazado_727091" data-name="Trazado 727091" d="M105.522,57.866a6.272,6.272,0,0,0-3.845,3.347c-1.425,3.408-1.052,5.831-.246,6.758s4.865-.683,8.029-5.766c2.271-3.658-2.946-6.7-2.946-6.7Z" transform="translate(19.594 10.799)" fill="#e0dedc"/>
        <g id="Grupo_1028240" data-name="Grupo 1028240" transform="translate(52.612)" opacity="0.7">
          <g id="Grupo_1028239" data-name="Grupo 1028239">
            <g id="Grupo_1028238" data-name="Grupo 1028238" clip-path="url(#clip-path-6)">
              <path id="Trazado_727092" data-name="Trazado 727092" d="M45.7,21.556C43.931,17.829,41.3,6.569,51.708,2.03,63.623-3.162,70.6,2.722,72.847,7.214c1.49,2.972,1.588,4.5-.458,6.919-4.379,7.114-14.11,6.43-16.717,9.776C53.7,26.451,54.741,27.8,53.3,27.8c-3.475-.006-5.935-2.707-7.606-6.24" transform="translate(-44.044 0)" fill="#fff"/>
            </g>
          </g>
        </g>
        <g id="Grupo_1028243" data-name="Grupo 1028243" transform="translate(117.231 185.914)" opacity="0.3">
          <g id="Grupo_1028242" data-name="Grupo 1028242">
            <g id="Grupo_1028241" data-name="Grupo 1028241" clip-path="url(#clip-path-7)">
              <path id="Trazado_727093" data-name="Trazado 727093" d="M129.465,158.259c4.471,3.952,1.554,10.933-6.515,15.592s-18.243,5.238-22.714,1.29-1.556-10.936,6.517-15.6,18.238-5.238,22.712-1.287" transform="translate(-98.138 -155.635)"/>
            </g>
          </g>
        </g>
        <path id="Trazado_727094" data-name="Trazado 727094" d="M109.38,160.244a12.747,12.747,0,0,1-5.129,4.4,4.727,4.727,0,0,0,2.739-.091,8.376,8.376,0,0,0,2.39-2.988l.331-1.184Z" transform="translate(20.282 31.176)" fill="#e3bd5e"/>
        <g id="Grupo_1028246" data-name="Grupo 1028246" transform="translate(124.534 193.696)" opacity="0.15">
          <g id="Grupo_1028245" data-name="Grupo 1028245">
            <g id="Grupo_1028244" data-name="Grupo 1028244" clip-path="url(#clip-path-8)">
              <path id="Trazado_727095" data-name="Trazado 727095" d="M108.377,162.265a5.349,5.349,0,0,1-4.125,2,4.726,4.726,0,0,0,2.739-.091,3.068,3.068,0,0,0,1.762-2.03Z" transform="translate(-104.252 -162.15)"/>
            </g>
          </g>
        </g>
        <path id="Trazado_727096" data-name="Trazado 727096" d="M111.52,162.47a2.921,2.921,0,0,1-.628-1.07,24.045,24.045,0,0,0,.3-3.072,18.157,18.157,0,0,0-.173-2.684h-1.172a19.281,19.281,0,0,1,.054,2.984,16.88,16.88,0,0,1-1.462,4.9A18.168,18.168,0,0,1,105,167.3a11.359,11.359,0,0,0-1.051,1.281,2.826,2.826,0,0,0,1.715-.346A11.4,11.4,0,0,0,109,165.529a6.694,6.694,0,0,0,0,3.053c1.45-.89,1.758-4.926,1.779-5.083a1.756,1.756,0,0,0,2.15-.352,2.41,2.41,0,0,1-1.4-.677" transform="translate(20.223 30.281)" fill="#e3bd5e"/>
        <g id="Grupo_1028249" data-name="Grupo 1028249" transform="translate(124.17 194.726)" opacity="0.15">
          <g id="Grupo_1028248" data-name="Grupo 1028248">
            <g id="Grupo_1028247" data-name="Grupo 1028247" clip-path="url(#clip-path-9)">
              <path id="Trazado_727097" data-name="Trazado 727097" d="M109.446,163.012c-3.28,3.849-5.5,4.137-5.5,4.137a2.826,2.826,0,0,0,1.715-.346A11.406,11.406,0,0,0,109,164.1a7.718,7.718,0,0,1,.447-1.083" transform="translate(-103.947 -163.012)"/>
            </g>
          </g>
        </g>
        <g id="Grupo_1028252" data-name="Grupo 1028252" transform="translate(129.219 185.923)" opacity="0.15">
          <g id="Grupo_1028251" data-name="Grupo 1028251">
            <g id="Grupo_1028250" data-name="Grupo 1028250" clip-path="url(#clip-path-10)">
              <path id="Trazado_727098" data-name="Trazado 727098" d="M110.7,162.47a2.921,2.921,0,0,1-.628-1.07,24.046,24.046,0,0,0,.3-3.072,18.157,18.157,0,0,0-.173-2.684h-1.172s.119,1.324.1,2.328c.256.35.833.228.833.228a12,12,0,0,1-.8,4.917,2.371,2.371,0,0,0,.669-.768,15.207,15.207,0,0,1-1.644,6.234c1.45-.89,1.758-4.926,1.779-5.083a1.756,1.756,0,0,0,2.15-.352,2.41,2.41,0,0,1-1.4-.677" transform="translate(-108.174 -155.642)"/>
            </g>
          </g>
        </g>
        <path id="Trazado_727099" data-name="Trazado 727099" d="M115.224,163.618a12.749,12.749,0,0,1-5.127,4.4,4.717,4.717,0,0,0,2.739-.085,8.344,8.344,0,0,0,2.388-2.994l.332-1.184Z" transform="translate(21.419 31.832)" fill="#e3bd5e"/>
        <g id="Grupo_1028255" data-name="Grupo 1028255" transform="translate(131.515 197.729)" opacity="0.15">
          <g id="Grupo_1028254" data-name="Grupo 1028254">
            <g id="Grupo_1028253" data-name="Grupo 1028253" clip-path="url(#clip-path-11)">
              <path id="Trazado_727100" data-name="Trazado 727100" d="M114.222,165.638a5.331,5.331,0,0,1-4.125,2,4.717,4.717,0,0,0,2.739-.085,3.094,3.094,0,0,0,1.763-2.032Z" transform="translate(-110.096 -165.526)"/>
            </g>
          </g>
        </g>
        <path id="Trazado_727101" data-name="Trazado 727101" d="M117.363,165.849a2.984,2.984,0,0,1-.627-1.08,23.943,23.943,0,0,0,.3-3.066,17.834,17.834,0,0,0-.174-2.684h-1.172a19.337,19.337,0,0,1,.056,2.982,16.879,16.879,0,0,1-1.462,4.9,18.148,18.148,0,0,1-3.439,3.775,12.086,12.086,0,0,0-1.052,1.273,2.829,2.829,0,0,0,1.714-.344,11.4,11.4,0,0,0,3.34-2.7,6.7,6.7,0,0,0-.007,3.047c1.453-.89,1.762-4.92,1.782-5.079a1.757,1.757,0,0,0,2.15-.352,2.412,2.412,0,0,1-1.406-.671" transform="translate(21.36 30.937)" fill="#e3bd5e"/>
        <g id="Grupo_1028258" data-name="Grupo 1028258" transform="translate(131.15 198.756)" opacity="0.15">
          <g id="Grupo_1028257" data-name="Grupo 1028257">
            <g id="Grupo_1028256" data-name="Grupo 1028256" clip-path="url(#clip-path-12)">
              <path id="Trazado_727102" data-name="Trazado 727102" d="M115.287,166.385c-3.274,3.852-5.5,4.133-5.5,4.133a2.829,2.829,0,0,0,1.714-.344,11.4,11.4,0,0,0,3.34-2.7,7.691,7.691,0,0,1,.443-1.086" transform="translate(-109.79 -166.386)"/>
            </g>
          </g>
        </g>
        <g id="Grupo_1028261" data-name="Grupo 1028261" transform="translate(136.197 189.956)" opacity="0.15">
          <g id="Grupo_1028260" data-name="Grupo 1028260">
            <g id="Grupo_1028259" data-name="Grupo 1028259" clip-path="url(#clip-path-13)">
              <path id="Trazado_727103" data-name="Trazado 727103" d="M116.541,165.849a2.983,2.983,0,0,1-.627-1.08,23.944,23.944,0,0,0,.3-3.066,17.834,17.834,0,0,0-.174-2.684h-1.172s.122,1.327.1,2.329c.254.349.835.225.835.225a12.05,12.05,0,0,1-.808,4.917,2.4,2.4,0,0,0,.67-.772,15.146,15.146,0,0,1-1.647,6.234c1.453-.89,1.762-4.92,1.782-5.079a1.757,1.757,0,0,0,2.15-.352,2.412,2.412,0,0,1-1.406-.671" transform="translate(-114.015 -159.018)"/>
            </g>
          </g>
        </g>
        <path id="Trazado_727104" data-name="Trazado 727104" d="M110.259,141.54c2.154-.044,5.768-1.908,11.806-8.444.553-.2,5.648-2.014,5.648-2.014l3.735,2.779a20.785,20.785,0,0,1,2.139,8.119,24.12,24.12,0,0,1-1.315,7.573l-3.984,6.132-2.664,3.787s-5.77,9.261-15.008,8.141a12.514,12.514,0,0,1-4.947-1.9,14.189,14.189,0,0,1-4.138-.643c-3.9-1.033-5.562-8.22-5.169-13.174a23.555,23.555,0,0,1,.773-4.1Z" transform="translate(18.737 25.502)" fill="#fff"/>
        <g id="Grupo_1028264" data-name="Grupo 1028264" transform="translate(126.664 166.942)" opacity="0.2">
          <g id="Grupo_1028263" data-name="Grupo 1028263">
            <g id="Grupo_1028262" data-name="Grupo 1028262" clip-path="url(#clip-path-14)">
              <path id="Trazado_727105" data-name="Trazado 727105" d="M109.205,145.822s-.446-4.021,1.039-5.679a28.154,28.154,0,0,0-3.682-.389l-.528,3.876Z" transform="translate(-106.035 -139.753)"/>
            </g>
          </g>
        </g>
        <path id="Trazado_727106" data-name="Trazado 727106" d="M117.873,133.805c1.365-1.908-1.61-6.353,3.135-6.368,4.525-.007,1.889,7.227,1.889,7.227s-5.334.63-5.023-.859" transform="translate(22.93 24.793)" fill="#fff"/>
        <g id="Grupo_1028267" data-name="Grupo 1028267" transform="translate(143.936 152.23)" opacity="0.1">
          <g id="Grupo_1028266" data-name="Grupo 1028266">
            <g id="Grupo_1028265" data-name="Grupo 1028265" clip-path="url(#clip-path-15)">
              <path id="Trazado_727107" data-name="Trazado 727107" d="M120.494,127.437c2.494,0,2.813,2.191,2.595,4.164-.176,1.608-2.267,2.838-2.267,2.838s-.358-.35-.031-2.647c.324-2.233,2.187-3.278-.3-4.355" transform="translate(-120.494 -127.437)"/>
            </g>
          </g>
        </g>
        <path id="Trazado_727108" data-name="Trazado 727108" d="M123.419,135.664s3.6-7.264,6.834-4.067c3.752,3.711-2.07,5.507-2.254,7.61-1.766.828-4.58-3.543-4.58-3.543" transform="translate(24.011 25.444)" fill="#fff"/>
        <path id="Trazado_727109" data-name="Trazado 727109" d="M120.769,134.5s.866-9.295,5.893-7-1.2,8.222-1.2,8.222Z" transform="translate(23.496 24.734)" fill="#fff"/>
        <g id="Grupo_1028270" data-name="Grupo 1028270" transform="translate(148.955 152.23)" opacity="0.1">
          <g id="Grupo_1028269" data-name="Grupo 1028269">
            <g id="Grupo_1028268" data-name="Grupo 1028268" clip-path="url(#clip-path-16)">
              <path id="Trazado_727110" data-name="Trazado 727110" d="M125.9,127.437c5.028,2.3-1.2,8.222-1.2,8.222s3.143-5.207,1.2-8.222" transform="translate(-124.695 -127.437)"/>
            </g>
          </g>
        </g>
        <g id="Grupo_1028273" data-name="Grupo 1028273" transform="translate(115.047 157.041)" opacity="0.1">
          <g id="Grupo_1028272" data-name="Grupo 1028272">
            <g id="Grupo_1028271" data-name="Grupo 1028271" clip-path="url(#clip-path-17)">
              <path id="Trazado_727111" data-name="Trazado 727111" d="M135.526,131.464c1.757,3.808-2.286,5.01-2.435,6.821-.079-.309-.16-.612-.246-.908,0,0,.6,5.456-2.246,7.692-2.3,4.464-6.9,8.631-16,5.475-1.435,6.022,2.311,8.7,2.311,8.7s-8.521,10.015-14.337-1.9c-.038.855.142,2.51.929,3.115-3.253,1.517-6.219-.952-7.195-6.834a22.052,22.052,0,0,0,.263,3.041c.6,3.87,2.236,7.6,4.961,8.322a14.179,14.179,0,0,0,4.137.643,12.514,12.514,0,0,0,4.947,1.9c9.239,1.12,15.008-8.142,15.008-8.142l2.664-3.786,3.984-6.132a24.12,24.12,0,0,0,1.315-7.573,14.585,14.585,0,0,0-.32-2.841s0,.006,0,.01c.184-2.1,6.006-3.9,2.254-7.61" transform="translate(-96.31 -131.464)"/>
            </g>
          </g>
        </g>
        <g id="Grupo_1028276" data-name="Grupo 1028276" transform="translate(116.712 164.642)" opacity="0.1">
          <g id="Grupo_1028275" data-name="Grupo 1028275">
            <g id="Grupo_1028274" data-name="Grupo 1028274" clip-path="url(#clip-path-18)">
              <path id="Trazado_727112" data-name="Trazado 727112" d="M130.6,143.281c-1.941,5.623-5.843,13.046-15.167,9.814.3,5.838,5.119,5.822,5.119,5.822s-7.3,10.863-16.706,3.109c-3.878,2.3-6.761-3.031-6.029-1.579a5.835,5.835,0,0,0,3.444,3.305,14.184,14.184,0,0,0,4.138.643,12.494,12.494,0,0,0,4.947,1.9c9.239,1.122,15.007-8.141,15.007-8.141l2.665-3.787,3.983-6.13a24.141,24.141,0,0,0,1.316-7.573,14.574,14.574,0,0,0-.32-2.841s0,.006,0,.008c1.069,8.614-2.4,5.445-2.4,5.445" transform="translate(-97.703 -137.827)"/>
            </g>
          </g>
        </g>
        <path id="Trazado_727113" data-name="Trazado 727113" d="M112.645,152.192s2.006,7.252,10.653,5.266c6.46-1.485,6.772-7.139,6.772-7.139l-.776-.062.944-.6a6.573,6.573,0,0,0-1.288-5.991c-2.793-3.556-8.426-2.295-8.426-2.295l-5.956,2.169-2.946,5.114Z" transform="translate(21.716 27.462)" fill="#fff"/>
        <g id="Grupo_1028279" data-name="Grupo 1028279" transform="translate(134.139 169.347)" opacity="0.1">
          <g id="Grupo_1028278" data-name="Grupo 1028278">
            <g id="Grupo_1028277" data-name="Grupo 1028277" clip-path="url(#clip-path-19)">
              <path id="Trazado_727114" data-name="Trazado 727114" d="M112.514,152.074s2.006,7.252,10.653,5.266c6.46-1.485,6.772-7.139,6.772-7.139l-.776-.062.944-.6a6.573,6.573,0,0,0-1.288-5.991,5.95,5.95,0,0,0-2.006-1.637c-2.86-1.454,5.846,8.144-4.723,11.594-8.653,2.822-9.129-5.675-9.235-6.194a7.81,7.81,0,0,0-.34,4.758" transform="translate(-112.292 -141.766)"/>
            </g>
          </g>
        </g>
        <path id="Trazado_727115" data-name="Trazado 727115" d="M110.963,147.307a19.505,19.505,0,0,1-1-5.129,4.691,4.691,0,0,1,.957-2.007l2.4-.575a2.8,2.8,0,0,0,0-1.152,7.057,7.057,0,0,0-.858-2.229l-1.251-2.27-2.872-1.82h-3.157a4.5,4.5,0,0,0-2.861,2.107c-1.03,1.783-1.066,3.353-1.6,4.827C99.226,143.2,97.869,144.4,97,147.591Z" transform="translate(18.872 25.705)" fill="#fff"/>
        <g id="Grupo_1028282" data-name="Grupo 1028282" transform="translate(119.824 157.83)" opacity="0.1">
          <g id="Grupo_1028281" data-name="Grupo 1028281">
            <g id="Grupo_1028280" data-name="Grupo 1028280" clip-path="url(#clip-path-20)">
              <path id="Trazado_727116" data-name="Trazado 727116" d="M100.309,138.243a13.056,13.056,0,0,1,1.363-4.011,4.49,4.49,0,0,1,2.861-2.107h3.157l2.871,1.82,1.252,2.268a10.9,10.9,0,0,0,.1,1.654c-2.835-5.272-5.473-4.691-7.034-4.691-3.506,0-4.572,5.066-4.572,5.066" transform="translate(-100.309 -132.125)"/>
            </g>
          </g>
        </g>
        <path id="Trazado_727117" data-name="Trazado 727117" d="M109.519,139.182a7.24,7.24,0,0,0-.86-2.626c-.993-1.442-2.921-1.995-3.9-1.423-.9.521-.879,2.519.364,3.34a20.147,20.147,0,0,0,2.184.821,3.411,3.411,0,0,1,1.328.911l.879-.174Z" transform="translate(20.26 26.247)" fill="#ff9496"/>
        <g id="Grupo_1028285" data-name="Grupo 1028285" transform="translate(127.871 166.122)" opacity="0.2">
          <g id="Grupo_1028284" data-name="Grupo 1028284">
            <g id="Grupo_1028283" data-name="Grupo 1028283" clip-path="url(#clip-path-21)">
              <path id="Trazado_727118" data-name="Trazado 727118" d="M108.17,142.634l-.078-.48.242-3.088a2.728,2.728,0,0,0-1.281,2.03,1.251,1.251,0,0,0,1.116,1.539" transform="translate(-107.045 -139.066)"/>
            </g>
          </g>
        </g>
        <path id="Trazado_727119" data-name="Trazado 727119" d="M111.226,138.024a3.988,3.988,0,0,0,.037-2.725c-.266-.493-.505.033-.505.033a3.241,3.241,0,0,0-.714-1.792c-.6-.53-.573.141-.573.141s-.521-1.358-1.352-1.7-.767.194-.767.194a1.611,1.611,0,0,0-1.295-.83c-.981-.116-.79.584-.75.718a2.316,2.316,0,0,0-1.461.215,8.584,8.584,0,0,1,4.773,1.739,9.222,9.222,0,0,1,2.608,4.005" transform="translate(20.203 25.551)" fill="#db585a"/>
        <path id="Trazado_727120" data-name="Trazado 727120" d="M111.223,139.032a2.187,2.187,0,0,0-.754,1.31c-.139.843.073,1.193-.072,1.543a1.306,1.306,0,0,1-1.709.668,1.706,1.706,0,0,1-1.211-1.8,2.4,2.4,0,0,1,.775-1.676Z" transform="translate(20.909 27.049)" fill="#db585a"/>
        <path id="Trazado_727121" data-name="Trazado 727121" d="M111.15,137.414a11.367,11.367,0,0,1-.516,1.081,3.707,3.707,0,0,0-1.754.053c-.676.256-.779.544-.754.84.09,1,.957.791,2.07,1.04a12.839,12.839,0,0,1,2.747,1.456,8.279,8.279,0,0,0-.6-2.842,3.644,3.644,0,0,0-1.191-1.628" transform="translate(21.035 26.734)" fill="#e3bd5e"/>
        <g id="Grupo_1028288" data-name="Grupo 1028288" transform="translate(129.16 166.048)" opacity="0.15">
          <g id="Grupo_1028287" data-name="Grupo 1028287">
            <g id="Grupo_1028286" data-name="Grupo 1028286" clip-path="url(#clip-path-22)">
              <path id="Trazado_727122" data-name="Trazado 727122" d="M109.821,139.527c-1.592-.05-1.72-.747-1.7-.449.09,1,.957.79,2.07,1.039a12.865,12.865,0,0,1,2.746,1.457,3.982,3.982,0,0,0-3.121-2.047" transform="translate(-108.124 -139.005)"/>
            </g>
          </g>
        </g>
        <path id="Trazado_727123" data-name="Trazado 727123" d="M105.582,136.447a1.435,1.435,0,0,0,.646,1.12c.36.2.65.038.65-.374a1.421,1.421,0,0,0-.65-1.12c-.357-.207-.646-.041-.646.374" transform="translate(20.541 26.456)" fill="#db585a"/>
        <path id="Trazado_727124" data-name="Trazado 727124" d="M105.71,136.622a1.741,1.741,0,0,0,.456.79c.16.091.306.16.4.087a.387.387,0,0,0,.143-.337,1.208,1.208,0,0,0-.547-.946.4.4,0,0,0-.35-.053c-.164.178-.106.269-.106.459" transform="translate(20.564 26.487)" fill="#362c29"/>
        <path id="Trazado_727125" data-name="Trazado 727125" d="M105.637,136.528a1.209,1.209,0,0,0,.541.947.376.376,0,0,0,.4.02c-.219.057-1.069-.782-.754-1.336a.367.367,0,0,0-.192.368" transform="translate(20.552 26.49)" fill="#0a0808"/>
        <path id="Trazado_727126" data-name="Trazado 727126" d="M106.237,136.693a.35.35,0,0,0,.11.3c.078.066.152.033.174-.073a.354.354,0,0,0-.11-.3c-.078-.061-.155-.033-.174.069" transform="translate(20.668 26.574)" fill="#fff"/>
      </g>
    </g>
  </g>
</svg>
