<svg id="Grupo_1028335" data-name="Grupo 1028335" xmlns="http://www.w3.org/2000/svg" xmlns:xlink="http://www.w3.org/1999/xlink" width="110.996" height="101.333" viewBox="0 0 110.996 101.333">
  <defs>
    <clipPath id="clip-path">
      <rect id="Rectángulo_349841" data-name="Rectángulo 349841" width="110.996" height="101.333" fill="none"/>
    </clipPath>
  </defs>
  <g id="Grupo_1028334" data-name="Grupo 1028334" clip-path="url(#clip-path)">
    <path id="Trazado_727307" data-name="Trazado 727307" d="M39.66,91.93a8.461,8.461,0,0,1,1.754,1.452c-.144.188-.277.384-.434.563a18.221,18.221,0,0,0-2.019,2.867A15.4,15.4,0,0,0,37,102.918a25.354,25.354,0,0,0-.05,2.943q.054,11.263.015,22.527a3.552,3.552,0,0,0,1.163,2.822,4.4,4.4,0,0,0-.075,1.266,3,3,0,0,1-.2,1.273,1.51,1.51,0,0,0-.977,1.567c-.009.314-.012.627-.012.941q0,7.771-.008,15.542a2.2,2.2,0,0,1-2.112,2.181,14.211,14.211,0,0,1-1.782.093q-8.288-.017-16.576-.031a2.354,2.354,0,0,1-2.038-1.213,3.731,3.731,0,0,1-.331-2.162q-.014-18.017-.008-36.034c0-.742-.025-1.485-.008-2.227a1.1,1.1,0,0,0-1.113-1.1,1.193,1.193,0,0,0-1.079.937,5.788,5.788,0,0,0-.089,1.38q0,7.919.018,15.838c0,.365-.077.535-.535.526-1.316-.026-2.634-.006-3.951-.01a1.854,1.854,0,0,1-1.364-.713,5.571,5.571,0,0,1-.152-1.579q0-11.829,0-23.66a11.784,11.784,0,0,1,.3-2.552,14.99,14.99,0,0,1,5.174-8.241c.159-.136.36-.156.513-.313a8.766,8.766,0,0,1,2.861-1.888.615.615,0,0,1,.919.571,19.832,19.832,0,0,0,.334,2.648,12.184,12.184,0,0,0,4.255,7.432,8.459,8.459,0,0,0,5.553,2.059,7.954,7.954,0,0,0,3.814-1.078c3.178-1.794,4.7-4.593,5.545-7.775A12.068,12.068,0,0,0,35.355,92c.018-1.028.4-1.229,1.433-.814a5.723,5.723,0,0,1,1.135.666,1.428,1.428,0,0,0,1.738.078" transform="translate(-3.455 -54.817)" fill="#fbdb73"/>
    <path id="Trazado_727308" data-name="Trazado 727308" d="M204.078,139.109c0,3.085-.033,6.171.011,9.256a4.478,4.478,0,0,1-3.393,4.488,5.2,5.2,0,0,1-1.46.161c-6.068.011-12.137.037-18.2-.012a4.517,4.517,0,0,1-4.239-3.378,8.344,8.344,0,0,1-.123-2.111q-.023-8.959-.01-17.919c0-.439-.087-.61-.635-.656a40.716,40.716,0,0,0-4.687-.028,1.256,1.256,0,0,1-.545-.156A3.908,3.908,0,0,1,168.617,127a3.208,3.208,0,0,1-.3-1.367c.008-8.135,0-16.269.025-24.4a15.491,15.491,0,0,1,2.015-7.516,18.221,18.221,0,0,1,3.219-4.165,20.055,20.055,0,0,1,4.6-3.312,3.013,3.013,0,0,1,4.366,1.387,4.073,4.073,0,0,1,.175,1.165,12.711,12.711,0,0,0,1.027,4.694,8.014,8.014,0,0,0,6.088,5.043,4.138,4.138,0,0,0,2.149-.275,8.06,8.06,0,0,0,5.165-5.061,14.013,14.013,0,0,0,.9-4.586,2.973,2.973,0,0,1,4.539-2.418c5.288,2.988,8.7,7.142,9.643,12.844a15.57,15.57,0,0,1,.208,2.55q0,11.831-.008,23.661a3.32,3.32,0,0,1-1.94,3.28,3.431,3.431,0,0,1-1.507.342c-1.427-.005-2.854.012-4.28-.01-.46-.007-.624.1-.621.552.022,3.234.012,6.468.012,9.7Zm-2.24-10.142h-.025q0-5.05,0-10.1,0-4.753.01-9.505a1.2,1.2,0,0,1,1.115-1.182,1.178,1.178,0,0,1,1.14,1.179c.018.792.03,1.584.029,2.376q0,6.955-.014,13.91c0,1.2.006,1.211,1.328,1.215a32.569,32.569,0,0,0,3.518-.063c.677-.072,1.109-.4,1.1-.911-.011-.612.119-1.208.118-1.817q-.013-8.441,0-16.883c0-2.152.019-4.306-.027-6.457a11.863,11.863,0,0,0-.686-3.571,17.543,17.543,0,0,0-5.146-7.353,15.222,15.222,0,0,0-2.681-1.812c-.723-.414-1.31-.184-1.316.476a14.265,14.265,0,0,1-1.332,5.93,10.677,10.677,0,0,1-4.575,5.119,7.712,7.712,0,0,1-6.7.583,10.759,10.759,0,0,1-6.147-6.195A18.637,18.637,0,0,1,180.37,88.6c-.094-.747-.451-.923-1.189-.553a16.664,16.664,0,0,0-2.884,1.909,15.488,15.488,0,0,0-3.733,4.263,12.716,12.716,0,0,0-1.865,5.649c-.077,1.156-.009,2.309-.009,3.464q0,11.015.008,22.03c0,1.04.385,1.4,1.526,1.419,1.3.024,2.6-.01,3.9.023.471.012.58-.135.579-.538q-.032-8.02-.035-16.04c0-.363,0-.727.028-1.088a1.158,1.158,0,0,1,1.105-.964c.355-.016,1.116.406,1.124.631.012.356.021.712.021,1.068q.013,7.3.021,14.6.007,11.782.006,23.565a3.564,3.564,0,0,0,.094,1.19,2.587,2.587,0,0,0,2.73,1.707c5.8.008,11.6.02,17.392-.017a2.367,2.367,0,0,0,2.616-2.3c.031-.511.034-1.023.034-1.534q0-9.06,0-18.12" transform="translate(-101.439 -51.698)"/>
    <path id="Trazado_727309" data-name="Trazado 727309" d="M88.048,29.956a5.417,5.417,0,0,1-2.276-1.431,2.622,2.622,0,0,1-.545-.779c-.137-.392-.381-.5-.825-.5q-14.711.02-29.421.019c-.242,0-.631-.133-.689.134-.033.153.31.374.614.453a2.117,2.117,0,0,1,1.7,1.939c.027.23.161.328.354.441q2.162,1.27,4.307,2.563a.94.94,0,0,1,.521,1.011,1.063,1.063,0,0,1-.828.823.788.788,0,0,1-.705-.083c-1.393-.824-2.8-1.629-4.179-2.472a.827.827,0,0,0-1.047.028,35.257,35.257,0,0,1-3.861,2.272c-.389.2-.787.471-1.294.187a.956.956,0,0,1-.1-1.773c.761-.5,1.563-.948,2.35-1.415.7-.412,1.389-.831,2.1-1.219.342-.186.194-.311-.031-.394a4.357,4.357,0,0,1-2.576-2.359.243.243,0,0,0-.25-.146l-.434,0H20.665a1.14,1.14,0,0,0,.761.552c.931.348,1.649.839,1.725,1.847a.7.7,0,0,0,.4.552q1.911,1.124,3.81,2.268a4.208,4.208,0,0,1,.642.45.87.87,0,0,1,.152,1.217,1.083,1.083,0,0,1-1.274.394,3.212,3.212,0,0,1-.617-.3c-1.255-.747-2.514-1.488-3.751-2.26a.713.713,0,0,0-.918.018,45.2,45.2,0,0,1-3.938,2.352,1.444,1.444,0,0,1-1.13.21,1,1,0,0,1-.732-.735.837.837,0,0,1,.375-.968c.519-.355,1.066-.677,1.61-1,.952-.567,1.912-1.124,2.866-1.688.115-.068.3-.1.283-.262s-.188-.189-.316-.239a4.16,4.16,0,0,1-2.353-2.088c-.149-.314-.4-.32-.7-.32q-7.667,0-15.334.005A7.792,7.792,0,0,1,.88,27.14a.94.94,0,0,1-.826-.786A.93.93,0,0,1,.56,25.315a1.549,1.549,0,0,1,.86-.207c5.292,0,10.583-.008,15.875.006.473,0,.72-.028.915-.516a3.893,3.893,0,0,1,3.068-2.314,4.237,4.237,0,0,1,4.688,2.488c.126.318.254.422.652.379a18.443,18.443,0,0,1,2-.055q10.918,0,21.836.005a2.649,2.649,0,0,1,.54.018.415.415,0,0,0,.553-.3,4.259,4.259,0,0,1,2.27-2.34,2.71,2.71,0,0,1,.776-.134,4.751,4.751,0,0,1,3.621.807,2.951,2.951,0,0,1,1.107,1.51.626.626,0,0,0,.776.482,15.726,15.726,0,0,1,1.678-.045q10.945,0,21.89.008a2.77,2.77,0,0,1,.754.034c.442.13.587-.116.687-.4a4.121,4.121,0,0,1,4.455-2.4,4.02,4.02,0,0,1,3.37,2.5c.066.15.106.339.4.319,1.767-.123,3.539-.056,5.307-.049a9.388,9.388,0,0,0,3.288-.7,12.1,12.1,0,0,0,4-2.433,8.463,8.463,0,0,0,2.34-3.834,8.842,8.842,0,0,0,.256-4.572,8.175,8.175,0,0,0-2.2-4.133,12.34,12.34,0,0,0-3.478-2.55,10.221,10.221,0,0,0-2.713-.821,49.494,49.494,0,0,0-7.907-.254c-3.375-.05-6.752.04-10.127-.055a.7.7,0,0,0-.791.538A5.2,5.2,0,0,1,75.9,9.507a5.1,5.1,0,0,1-4.542-3.53A4.21,4.21,0,0,1,72.753,1.3,5.5,5.5,0,0,1,77.658.124a4.955,4.955,0,0,1,3.237,2.241c.211.3.568.635.519,1.111-.038.372.3.408.642.4,5.038-.133,10.077-.048,15.115-.058a22.444,22.444,0,0,1,3,.236A13.848,13.848,0,0,1,105.8,6.2a11.726,11.726,0,0,1,3.616,3.861,8.791,8.791,0,0,1,1.134,2.565,9.852,9.852,0,0,1,.219,4.908,16.583,16.583,0,0,1-1.033,2.954,12.245,12.245,0,0,1-1.671,2.483,10.888,10.888,0,0,1-2.855,2.319,13.476,13.476,0,0,1-7.182,2c-3.286-.018-6.573,0-9.86.012-.133,0-.332-.085-.387.075s.117.268.241.348a2.64,2.64,0,0,0,.6.307,1.936,1.936,0,0,1,1.453,1.608.968.968,0,0,0,.552.73c1.3.766,2.6,1.546,3.9,2.325.4.241.72.5.676,1.028a1.007,1.007,0,0,1-1.461.861,9.223,9.223,0,0,1-1.113-.608c-1.072-.641-2.142-1.286-3.2-1.942a.639.639,0,0,0-.809.028,36.054,36.054,0,0,1-4.1,2.4,1.18,1.18,0,0,1-1.624-.226c-.375-.511-.229-1.062.446-1.472,1.53-.93,3.076-1.839,4.7-2.808M76.4,7.355a2.821,2.821,0,0,0,2.916-2.581,2.852,2.852,0,0,0-2.906-2.659,2.781,2.781,0,0,0-2.883,2.592A2.758,2.758,0,0,0,76.4,7.355M90.52,25.1c-.26-.224-.4-.362-.56-.478a2.223,2.223,0,0,0-2.154.063c-.1.087-.3.155-.248.289.061.157.274.192.448.205.8.06,1.579-.159,2.514-.079m-36.568-.034h3.029a2,2,0,0,0-3.029,0m-30.432,0c-.892-.943-2.412-.914-2.828,0Z" transform="translate(-0.021 0)"/>
    <path id="Trazado_727310" data-name="Trazado 727310" d="M85.442,128.041a3.552,3.552,0,0,1-1.163-2.822q.025-11.263-.015-22.527a25.357,25.357,0,0,1,.05-2.943,15.4,15.4,0,0,1,1.963-6.106A18.237,18.237,0,0,1,88.3,90.776c.157-.179.29-.375.434-.563a23.369,23.369,0,0,1,5.151-3.98,3.229,3.229,0,0,1,3.366-.095,2.39,2.39,0,0,1,1.321,2.194,12.639,12.639,0,0,0,.752,4.254,9.329,9.329,0,0,0,1.642,2.975,7.766,7.766,0,0,0,4.007,2.7,5.266,5.266,0,0,0,3.469-.3,8.328,8.328,0,0,0,4.88-5.643,16.532,16.532,0,0,0,.664-3.976,2.912,2.912,0,0,1,4.4-2.265,11.481,11.481,0,0,1,1.8,1.091.964.964,0,0,1,.434,1.253,1.138,1.138,0,0,1-1.291.583.756.756,0,0,1-.368-.156c-.426-.278-.864-.54-1.309-.791-.852-.482-1.474-.342-1.506.788a13.391,13.391,0,0,1-2.77,7.959,9.657,9.657,0,0,1-6.307,3.761,7.052,7.052,0,0,1-4.017-.722,10.716,10.716,0,0,1-5.413-5.557A14.879,14.879,0,0,1,96.3,88.676c-.041-.741-.47-1.03-1.092-.672a17.231,17.231,0,0,0-7.384,7.425,14.172,14.172,0,0,0-1.252,6.081q-.033,11.758-.016,23.516a2.2,2.2,0,0,0,.271,1.183.965.965,0,0,0,.929.509c1.445.016,2.89,0,4.335.018.377,0,.444-.135.443-.443q-.014-8.317-.008-16.635a1.406,1.406,0,0,1,.49-1.308,1.165,1.165,0,0,1,1.772.6,6,6,0,0,1,.091.885q.005,11.832,0,23.665a19.568,19.568,0,0,0-.035,2.568q0,1.926,0,3.853a28.542,28.542,0,0,0,0,2.874c0,1.284-.065,2.569.016,3.853a10.692,10.692,0,0,0,0,2.319,2.017,2.017,0,0,0,1.525,1.727,5.263,5.263,0,0,0,1.691.165q8.284.021,16.568.037a5.342,5.342,0,0,0,1.273-.161,2.017,2.017,0,0,0,1.666-1.575,11.29,11.29,0,0,0,.068-2.511q0-1.94-.01-3.88a26.7,26.7,0,0,0,.012-2.859q0-1.81.01-3.619c0-.1.012-.2-.1-.263a23.538,23.538,0,0,0,.112-3.542c.015-.279.019-.56.047-.838a1.111,1.111,0,0,1,1.376-1.055c.31.028,1.03.809.91,1.1-.168.413.029.775.028,1.159-.014,4.9-.007,9.8-.014,14.7a5.86,5.86,0,0,1-.57,3.025,4.7,4.7,0,0,1-4.353,2.375c-6,.03-11.992.019-17.988,0a4.834,4.834,0,0,1-2.544-.811,4.274,4.274,0,0,1-1.955-3.045,12.15,12.15,0,0,1-.072-2.309q-.027-8.663-.012-17.326c0-.339.008-.546-.5-.6-.741-.082-1.475-.021-2.21-.056-.881-.042-1.764.049-2.648-.063a4.544,4.544,0,0,1-1.726-.709" transform="translate(-50.771 -51.648)"/>
    <path id="Trazado_727311" data-name="Trazado 727311" d="M36.206,88.767a1.428,1.428,0,0,1-1.738-.078,5.724,5.724,0,0,0-1.135-.666c-1.033-.415-1.415-.213-1.433.814a12.067,12.067,0,0,1-.356,2.891C30.7,94.91,29.178,97.709,26,99.5a7.954,7.954,0,0,1-3.814,1.078,8.459,8.459,0,0,1-5.553-2.059,12.184,12.184,0,0,1-4.255-7.432,19.832,19.832,0,0,1-.334-2.648.615.615,0,0,0-.919-.571,8.766,8.766,0,0,0-2.861,1.888c-.153.157-.354.177-.513.313a14.99,14.99,0,0,0-5.174,8.241,11.784,11.784,0,0,0-.3,2.552q0,11.83,0,23.66a5.572,5.572,0,0,0,.152,1.579,1.854,1.854,0,0,0,1.364.713c1.317,0,2.634-.016,3.951.01.458.009.536-.161.535-.526q-.02-7.919-.018-15.838a5.788,5.788,0,0,1,.089-1.38,1.193,1.193,0,0,1,1.079-.937,1.1,1.1,0,0,1,1.113,1.1c-.017.742.008,1.484.008,2.227q0,18.017.008,36.034a3.731,3.731,0,0,0,.331,2.162,2.354,2.354,0,0,0,2.038,1.213q8.288.013,16.576.031a14.205,14.205,0,0,0,1.782-.093,2.2,2.2,0,0,0,2.112-2.181q.005-7.771.008-15.542c0-.314,0-.627.012-.941a1.51,1.51,0,0,1,.977-1.567,4.776,4.776,0,0,1,.643.209c.5.106.613.5.639.941.184,3.114.07,6.231.081,9.347.009,2.656.107,5.315-.077,7.968a4.5,4.5,0,0,1-3.934,3.833,10.19,10.19,0,0,1-1.509.1q-8.425-.005-16.851-.006A4.908,4.908,0,0,1,9,150.839,4.956,4.956,0,0,1,8.274,148q-.015-8.564,0-17.129a18.244,18.244,0,0,1-.055-1.906c.023-.219-.241-.137-.375-.138-1.282-.01-2.566-.051-3.846,0a4.1,4.1,0,0,1-2.9-.868,3.038,3.038,0,0,1-1.067-2.328c0-.149-.007-.3-.007-.445,0-8.268-.057-16.536.033-24.8a14.255,14.255,0,0,1,2.341-7.31,19.493,19.493,0,0,1,7.521-6.96,2.951,2.951,0,0,1,4.376,1.762c.126.66.036,1.341.141,2.013.439,2.791,1.369,5.339,3.883,7.205a5.9,5.9,0,0,0,7.573-.1,8.773,8.773,0,0,0,3.221-4.806,19.731,19.731,0,0,0,.626-3.838,2.921,2.921,0,0,1,4.446-2.25,16.846,16.846,0,0,1,1.634.967c.762.5.848.935.393,1.7" transform="translate(0 -51.654)"/>
    <path id="Trazado_727312" data-name="Trazado 727312" d="M133.624,212.359c.108.064.1.167.1.263q0,1.809-.01,3.618l-21.995,0c-.271,0-.541.01-.811.016q0-1.926,0-3.853,3.543-.01,7.085-.019,7.816-.013,15.631-.02" transform="translate(-66.837 -127.978)" fill="#fbdb73"/>
    <path id="Trazado_727313" data-name="Trazado 727313" d="M49.512,104.31c-.883,0-1.767.013-2.65,0a1.264,1.264,0,0,1-1.181-.732.8.8,0,0,1,.181-.914,1.338,1.338,0,0,1,1.1-.43c1.73,0,3.461-.008,5.191.006.778.006,1.242.407,1.253,1.024.01.591-.468,1.019-1.246,1.043-.882.027-1.766.006-2.65.006Z" transform="translate(-27.482 -61.607)"/>
    <path id="Trazado_727314" data-name="Trazado 727314" d="M217.933,104.307c-.848,0-1.7.008-2.544,0-.755-.01-1.279-.429-1.287-1-.009-.644.45-1.059,1.268-1.067q2.625-.026,5.251,0c.815.009,1.2.373,1.195,1.041,0,.635-.439,1.013-1.229,1.026-.884.015-1.769,0-2.653,0" transform="translate(-129.028 -61.605)"/>
    <path id="Trazado_727315" data-name="Trazado 727315" d="M137.606,103.276c.022.577-.668,1.066-1.325,1.016s-1.3-.014-1.947-.014c-1.028,0-2.057.016-3.084-.006s-1.56-.694-1.206-1.505a1,1,0,0,1,.943-.545c1.893-.07,3.787-.062,5.68,0a1.032,1.032,0,0,1,.94,1.057" transform="translate(-78.304 -61.573)"/>
    <path id="Trazado_727316" data-name="Trazado 727316" d="M205.386,132q0,9.06,0,18.12c0,.511,0,1.024-.034,1.534a2.367,2.367,0,0,1-2.616,2.3c-5.8.037-11.595.025-17.392.017a2.587,2.587,0,0,1-2.73-1.707,3.564,3.564,0,0,1-.094-1.19q0-11.783-.006-23.565,0-7.3-.021-14.6c0-.356-.009-.712-.021-1.068-.008-.225-.768-.647-1.124-.631a1.158,1.158,0,0,0-1.105.964c-.032.361-.028.726-.028,1.088q.012,8.02.035,16.04c0,.4-.108.549-.579.538-1.3-.033-2.6,0-3.9-.023-1.141-.021-1.525-.379-1.526-1.419q-.012-11.015-.008-22.03c0-1.154-.068-2.308.009-3.464a12.716,12.716,0,0,1,1.865-5.649,15.488,15.488,0,0,1,3.733-4.263,16.664,16.664,0,0,1,2.884-1.909c.739-.37,1.1-.194,1.189.553a18.639,18.639,0,0,0,1.178,5.308,10.759,10.759,0,0,0,6.147,6.195,7.712,7.712,0,0,0,6.7-.583,10.677,10.677,0,0,0,4.575-5.119,14.264,14.264,0,0,0,1.332-5.93c.006-.661.592-.891,1.316-.476a15.221,15.221,0,0,1,2.681,1.812,17.544,17.544,0,0,1,5.146,7.353,11.863,11.863,0,0,1,.686,3.571c.046,2.152.027,4.3.027,6.457q0,8.442,0,16.883c0,.609-.129,1.206-.118,1.817.009.509-.423.839-1.1.911a32.57,32.57,0,0,1-3.518.063c-1.323,0-1.329-.013-1.328-1.215q0-6.955.014-13.91c0-.792-.011-1.584-.029-2.376a1.178,1.178,0,0,0-1.14-1.179,1.2,1.2,0,0,0-1.115,1.182q-.014,4.752-.01,9.505,0,5.05,0,10.1h.025" transform="translate(-104.987 -54.733)" fill="#fbdb73"/>
    <path id="Trazado_727317" data-name="Trazado 727317" d="M187.856,10.562a2.758,2.758,0,0,1-2.873-2.648,2.781,2.781,0,0,1,2.883-2.592,2.852,2.852,0,0,1,2.906,2.659,2.821,2.821,0,0,1-2.915,2.581" transform="translate(-111.48 -3.207)" fill="#fbdb73"/>
    <path id="Trazado_727318" data-name="Trazado 727318" d="M223.251,62.056c-.935-.08-1.715.139-2.514.079-.174-.013-.387-.048-.447-.205-.052-.134.148-.2.248-.288a2.222,2.222,0,0,1,2.154-.063c.16.116.3.254.56.478" transform="translate(-132.752 -36.96)" fill="#f8f9fb"/>
    <path id="Trazado_727319" data-name="Trazado 727319" d="M135.726,62.02a2,2,0,0,1,3.029,0Z" transform="translate(-81.795 -36.958)" fill="#f8f9fb"/>
    <path id="Trazado_727320" data-name="Trazado 727320" d="M54.851,62.017H52.023c.416-.914,1.936-.943,2.828,0" transform="translate(-31.352 -36.955)" fill="#f8f9fb"/>
    <path id="Trazado_727321" data-name="Trazado 727321" d="M133.636,239.072a11.29,11.29,0,0,1-.068,2.511,2.017,2.017,0,0,1-1.666,1.575,5.336,5.336,0,0,1-1.273.161q-8.284-.025-16.567-.037a5.261,5.261,0,0,1-1.691-.165,2.017,2.017,0,0,1-1.525-1.727,10.692,10.692,0,0,1,0-2.319q6.847-.005,13.7-.01,4.547,0,9.094.011" transform="translate(-66.763 -144.07)" fill="#f8f9fb"/>
    <path id="Trazado_727322" data-name="Trazado 727322" d="M133.67,233.2q-4.547-.006-9.094-.011-6.848,0-13.7.01c-.081-1.284-.018-2.569-.016-3.854.126-.006.252-.016.378-.016l22.417-.01q0,1.94.01,3.88" transform="translate(-66.797 -138.202)" fill="#fbdb73"/>
    <path id="Trazado_727323" data-name="Trazado 727323" d="M133.643,224.98l-22.417.01c-.126,0-.252.01-.378.016a28.409,28.409,0,0,1,0-2.874c.27-.006.54-.015.811-.015l22,0a26.709,26.709,0,0,1-.012,2.859" transform="translate(-66.78 -133.858)" fill="#f8f9fb"/>
  </g>
</svg>
