<svg id="Grupo_1028339" data-name="Grupo 1028339" xmlns="http://www.w3.org/2000/svg" xmlns:xlink="http://www.w3.org/1999/xlink" width="104" height="122.73" viewBox="0 0 104 122.73">
  <defs>
    <clipPath id="clip-path">
      <rect id="Rectángulo_349843" data-name="Rectángulo 349843" width="104" height="122.731" fill="none"/>
    </clipPath>
  </defs>
  <g id="Grupo_1028338" data-name="Grupo 1028338" clip-path="url(#clip-path)">
    <path id="Trazado_727342" data-name="Trazado 727342" d="M60.115,37.372c0-2.731-.037-5.463.012-8.193a2.747,2.747,0,1,0-5.458-.045c-.017,2.155,0,4.309,0,6.464.007,3.4,0,6.8.04,10.2.007.6-.17.786-.763.782-3.126-.018-6.253,0-9.38,0-.376,0-.574-.027-.71-.537-.449-1.688-.964-3.365-1.489-5.026-.232-.735-.266-1.488-.512-2.2-.278-.808-.45-1.651-.7-2.468-.529-1.722-1.856-2.3-3.588-1.947a2.544,2.544,0,0,0-1.527,3.3c.788,2.623,1.477,5.277,2.187,7.923.163.608.067.976-.767.961-2.822-.053-5.646-.018-8.468-.007a12.641,12.641,0,0,0-5.288,1.1.593.593,0,0,1-.9-.254,18.658,18.658,0,0,1-2.736-6.5,16.552,16.552,0,0,1-.377-3.357,18.1,18.1,0,0,1,5.544-12.692c.508-.493,1.149-.874,1.385-1.615.11-.346.5-.152.763-.314.913-.569,1.913-.993,2.839-1.542a12.92,12.92,0,0,1,6.329-1.436c2.125-.082,3.969-.678,4.972-2.765a16.2,16.2,0,0,1,4.035-5.309c.346-.3.181-.733.657-1A13.9,13.9,0,0,0,49.059,9.4c.877-.811,2.176-.686,3.026-1.578.223-.235,1-.178,1.522-.233a23.007,23.007,0,0,1,2.685-.147c2.727.038,5.455.164,8,1.449a20.362,20.362,0,0,1,7.145,5.339,16.543,16.543,0,0,1,1.827,2.92,5.091,5.091,0,0,0,4.769,2.823A17.324,17.324,0,0,1,94.615,34.5a18.017,18.017,0,0,1-.3,7.58A17.147,17.147,0,0,1,92.1,47.3c-.3.478-.568.584-1.087.3a9.633,9.633,0,0,0-4.575-1.028c-3.065-.03-6.132-.007-9.2.015-.664,0-1.066.037-.748-.9.537-1.581.712-3.3,1.367-4.819.527-1.221.583-2.506.994-3.728a2.393,2.393,0,0,0-1.56-2.753,2.556,2.556,0,0,0-3.253,1,19.716,19.716,0,0,0-1.675,4.954c-.367,1.728-1.2,3.325-1.373,5.085-.1.979-.581,1.166-1.476,1.151-2.882-.051-5.767-.026-8.651,0-.566,0-.778-.124-.77-.745.036-2.822.016-5.644.016-8.466Z" transform="translate(-5.299 -2.003)" fill="#f8f5f8"/>
    <path id="Trazado_727343" data-name="Trazado 727343" d="M59.439,86.789a8.28,8.28,0,0,0,1.155-.105,2.81,2.81,0,0,0,2.333-2.833,6.962,6.962,0,0,0,2.172.164,11.758,11.758,0,0,0,4.15-.346,3.23,3.23,0,0,0,3.268,3.1c1.47-.1,2.951-.024,4.427-.026a.424.424,0,0,0,.71,0L80.2,86.8q.007,8.5.015,17.009a31.035,31.035,0,0,1-8.766,21.851,30.338,30.338,0,0,1-6.92,5.359.66.66,0,0,0-.346.673,17.122,17.122,0,0,1-5.96.163,25.883,25.883,0,0,1-9.7-3.078A27.693,27.693,0,0,1,34.136,104.1c.049-5.519.025-11.039.01-16.559,0-.553.075-.812.728-.809,6.948.028,13.9.026,20.845.034a2.62,2.62,0,0,1,.271.028.719.719,0,0,0,1.264,0l1.652,0c.181.423.36.424.534,0" transform="translate(-9.188 -22.52)" fill="#fcddb2"/>
    <path id="Trazado_727344" data-name="Trazado 727344" d="M66.817,79.561a11.777,11.777,0,0,1-4.151.346,6.963,6.963,0,0,1-2.172-.164c-.531-2.05-1.509-2.558-3.672-2.566q-13.792-.05-27.585-.006a4.4,4.4,0,0,1-4.121-3.919,4.271,4.271,0,0,1,3.326-4.667,9.885,9.885,0,0,1,1.785-.175q28.723,0,57.447.012c2.936,0,4.821,1.69,4.884,4.354a4.177,4.177,0,0,1-4.415,4.376c-5.8.018-11.592.007-17.388.011a9.578,9.578,0,0,0-1.272.039,3.186,3.186,0,0,0-2.665,2.358" transform="translate(-6.754 -18.414)" fill="#b2e59e"/>
    <path id="Trazado_727345" data-name="Trazado 727345" d="M75.253,132.826a.66.66,0,0,1,.346-.673A31.051,31.051,0,0,0,90.924,109.9a30.674,30.674,0,0,0,.362-4.959q-.016-8.5-.016-17.009,2.364-.023,4.728-.045c.94-.008,1.88,0,2.82-.023.463-.014.651.141.65.623-.008,5.7.083,11.408-.041,17.11a30.536,30.536,0,0,1-.8,6.663A27.126,27.126,0,0,1,90.05,126.45a26.264,26.264,0,0,1-13.893,6.363,6.77,6.77,0,0,1-.9.012" transform="translate(-20.255 -23.65)" fill="#facb84"/>
    <path id="Trazado_727346" data-name="Trazado 727346" d="M24.308,95.191c0,2.03,0,4.059,0,6.089,0,1.126-.192,1.334-1.242.99a7.322,7.322,0,0,1-5.192-5.115A7.223,7.223,0,0,1,23,88.139c.963-.28,1.214-.074,1.217.963.006,2.03,0,4.06,0,6.089Z" transform="translate(-4.734 -23.693)" fill="#facb84"/>
    <path id="Trazado_727347" data-name="Trazado 727347" d="M115.855,95.218c0-2.119.042-4.24-.021-6.358-.024-.808.36-.862.921-.726a13.292,13.292,0,0,1,2.587,1.063c1.39.669,1.913,1.97,2.51,3.2a6.531,6.531,0,0,1,.433,4.042c-.515,3.118-2.407,4.875-5.281,5.771-1.073.335-1.189.205-1.18-.9.017-2.029,0-4.058,0-6.086h.026" transform="translate(-31.175 -23.706)" fill="#facb84"/>
    <path id="Trazado_727348" data-name="Trazado 727348" d="M65.3,87.941a.719.719,0,0,1-1.264,0H65.3" transform="translate(-17.237 -23.67)" fill="#facb84"/>
    <path id="Trazado_727349" data-name="Trazado 727349" d="M93.423,87.795a.423.423,0,0,1-.71,0,.407.407,0,0,1,.71,0" transform="translate(-24.955 -23.575)" fill="#facb84"/>
    <path id="Trazado_727350" data-name="Trazado 727350" d="M68.562,87.939c-.175.428-.353.428-.534,0l.534,0" transform="translate(-18.31 -23.67)" fill="#facb84"/>
    <path id="Trazado_727351" data-name="Trazado 727351" d="M31.535,117.021c-3.46,0-6.92-.016-10.379,0a55.05,55.05,0,0,0-6.961.208,31.211,31.211,0,0,0-10.988,3.412A26.221,26.221,0,0,0,0,122.731H14.216a29.426,29.426,0,0,1,3.526-.23c5.494-.037,10.988,0,16.483-.01,2.794,0,3.786-1,3.775-3.757-.009-2.125-.018-4.248-.051-6.372-.01-.613.132-.735.726-.46a37.883,37.883,0,0,0,6.692,2.323,31.921,31.921,0,0,0,19.98-2.181c.68-.287.821-.161.826.523q.022,3.549.109,7.1a2.858,2.858,0,0,0,2.962,2.833c6.6.119,13.215-.28,19.815.216a9.042,9.042,0,0,1,.914.017H104c-.286-.214-.569-.43-.859-.64-2.076-1.508-4.487-2.336-6.674-3.6-1.588.172-2.866-.93-4.474-1-1.7-.07-3.39-.508-5.137-.489-4.825.053-9.65.015-14.475.009-.226,0-.494.115-.649-.172-.19-.109-.17-.248-.06-.4q.015-3.9.03-7.8a.762.762,0,0,1-.039-.129c0-.013.036-.031.055-.046-.035-.334.225-.485.433-.644a31.268,31.268,0,0,0,8.53-10.16,32.809,32.809,0,0,0,3.642-12.615.932.932,0,0,1,1-.975,9.955,9.955,0,0,0,4.229-1.195,11.856,11.856,0,0,0,6.29-7.156,13.976,13.976,0,0,0,.392-7.3,11.7,11.7,0,0,0-5.6-7.746c-.694-.433-1.126-.541-.55-1.619a9.244,9.244,0,0,0,.162-8.839.636.636,0,0,1,.075-.824,7.155,7.155,0,0,0,.821-1.169,21.919,21.919,0,0,0,3.709-15.383c-.064-.621.148-1.317-.077-1.8-.694-1.489-.9-3.133-1.622-4.607A27.256,27.256,0,0,0,87.271,18.4,22.824,22.824,0,0,0,74.25,12.636c-.636-.086-1.455.246-1.973-.632a22.6,22.6,0,0,0-5.289-6.556A20.19,20.19,0,0,0,64.683,3.7a42.264,42.264,0,0,0-4.389-2.129A20.085,20.085,0,0,0,52.454.006a21.285,21.285,0,0,0-4.205.257,22.312,22.312,0,0,0-7.46,2.646c-.889.531-1.7,1.177-2.562,1.72A18.905,18.905,0,0,0,34.408,8.2c-.98,1.079-1.68,2.369-2.554,3.529-.243.323-.432.742-.95.769a25.352,25.352,0,0,0-7.11,1.632,23,23,0,0,0-10.053,7.417,22.038,22.038,0,0,0-4.025,8.215,26.142,26.142,0,0,0-.734,5.792,17.257,17.257,0,0,0,.49,4.227,23.932,23.932,0,0,0,1.2,4.378,30.715,30.715,0,0,0,3.058,5.285.766.766,0,0,1,.041.939,7.584,7.584,0,0,0-.86,3.181,9.63,9.63,0,0,0,1.448,5.828c.313.507.146.818-.32.976A8.694,8.694,0,0,0,10.162,63.5a11.694,11.694,0,0,0-2.738,8.2,12.683,12.683,0,0,0,3.837,8.829,9.438,9.438,0,0,0,2.36,2.011,13.484,13.484,0,0,0,5.207,1.535c.281,0,.842.04.821.619a10.247,10.247,0,0,0,.2,1.684,30.108,30.108,0,0,0,2.152,8.184,39.437,39.437,0,0,0,6.466,10.061l.692.742,3.231,3.13c.264.146.152.341.07.532-.014,1.906-.015,3.813-.05,5.719-.008.4-.219.756-.052,1.208.314.846.114,1.063-.816,1.063M90.677,68.687a6.526,6.526,0,0,1,.433,4.042C90.6,75.846,88.7,77.6,85.83,78.5c-1.074.335-1.19.2-1.181-.9.018-2.029.005-4.058.005-6.086h.026c0-2.12.042-4.241-.021-6.358-.024-.808.36-.862.921-.726a13.223,13.223,0,0,1,2.586,1.063c1.391.669,1.914,1.97,2.511,3.2M14.393,35.557a18.1,18.1,0,0,1,5.544-12.693c.508-.493,1.149-.874,1.385-1.615.11-.346.5-.152.763-.314.913-.568,1.913-.992,2.839-1.541a12.913,12.913,0,0,1,6.329-1.437c2.125-.082,3.969-.678,4.972-2.765A16.2,16.2,0,0,1,40.26,9.883c.346-.3.182-.733.657-1A13.92,13.92,0,0,0,43.761,7.4c.877-.811,2.176-.686,3.026-1.578.223-.235,1-.178,1.522-.233a23.016,23.016,0,0,1,2.685-.147c2.727.038,5.455.164,8,1.449a20.362,20.362,0,0,1,7.145,5.339,16.543,16.543,0,0,1,1.827,2.92,5.091,5.091,0,0,0,4.769,2.823A17.326,17.326,0,0,1,89.317,32.5a18.017,18.017,0,0,1-.3,7.58A17.14,17.14,0,0,1,86.8,45.295c-.3.478-.568.584-1.087.3a9.633,9.633,0,0,0-4.575-1.028c-3.066-.03-6.132-.007-9.2.015-.664.005-1.066.037-.748-.9.537-1.581.713-3.3,1.368-4.819.526-1.221.582-2.506.993-3.728a2.392,2.392,0,0,0-1.56-2.753,2.556,2.556,0,0,0-3.253,1,19.726,19.726,0,0,0-1.675,4.954c-.367,1.728-1.2,3.325-1.373,5.085-.1.979-.581,1.166-1.476,1.151-2.882-.051-5.767-.026-8.65,0-.566.005-.778-.124-.771-.745.036-2.822.016-5.644.016-8.466h.006c0-2.731-.037-5.463.012-8.193a2.747,2.747,0,1,0-5.458-.046c-.016,2.155,0,4.309,0,6.464.007,3.4,0,6.8.04,10.2.007.6-.17.786-.763.783-3.127-.018-6.252,0-9.38,0-.376,0-.574-.027-.71-.537-.449-1.688-.965-3.365-1.49-5.026-.232-.735-.266-1.488-.512-2.2-.278-.808-.45-1.65-.7-2.468-.529-1.722-1.856-2.3-3.588-1.947a2.543,2.543,0,0,0-1.528,3.3c.788,2.623,1.477,5.277,2.187,7.923.163.608.067.977-.767.961-2.822-.053-5.646-.018-8.468-.007a12.619,12.619,0,0,0-5.288,1.1.594.594,0,0,1-.9-.254,18.66,18.66,0,0,1-2.736-6.5,16.616,16.616,0,0,1-.377-3.357m3.939,43.02a7.322,7.322,0,0,1-5.192-5.115,7.223,7.223,0,0,1,5.128-9.016c.963-.28,1.214-.074,1.217.963.006,2.03,0,4.06,0,6.089h.087c0,2.03,0,4.059,0,6.089,0,1.125-.192,1.333-1.242.99m8.245,12.76a27.292,27.292,0,0,1-1.629-9.76c.049-5.519.025-11.039.01-16.559,0-.553.076-.812.728-.809,6.949.028,13.9.026,20.846.034a2.422,2.422,0,0,1,.27.029h1.264l1.652,0,.535,0a8.281,8.281,0,0,0,1.155-.105,2.809,2.809,0,0,0,2.333-2.833c-.531-2.051-1.51-2.559-3.672-2.567q-13.792-.049-27.586-.006a4.4,4.4,0,0,1-4.12-3.919,4.27,4.27,0,0,1,3.326-4.667A9.806,9.806,0,0,1,23.472,50q28.723,0,57.446.011c2.937,0,4.822,1.69,4.884,4.355a4.176,4.176,0,0,1-4.414,4.376c-5.8.018-11.593.007-17.388.011a9.471,9.471,0,0,0-1.273.039,3.186,3.186,0,0,0-2.665,2.358,3.23,3.23,0,0,0,3.269,3.1c1.469-.1,2.95-.024,4.427-.026a.407.407,0,0,1,.71,0l2.546.065q2.364-.023,4.728-.045c.941-.008,1.88,0,2.82-.023.463-.014.651.142.65.623-.008,5.7.083,11.409-.041,17.11a30.632,30.632,0,0,1-.8,6.664A27.122,27.122,0,0,1,69.8,102.8,26.253,26.253,0,0,1,55.9,109.164a6.653,6.653,0,0,1-.9.012,17.117,17.117,0,0,1-5.959.163,25.882,25.882,0,0,1-9.7-3.078A27.235,27.235,0,0,1,26.577,91.338" transform="translate(0 0)"/>
  </g>
</svg>
