<svg id="Grupo_1028331" data-name="Grupo 1028331" xmlns="http://www.w3.org/2000/svg" xmlns:xlink="http://www.w3.org/1999/xlink" width="120.985" height="121" viewBox="0 0 120.985 121">
  <defs>
    <clipPath id="clip-path">
      <rect id="Rectángulo_349839" data-name="Rectángulo 349839" width="120.986" height="121" fill="none"/>
    </clipPath>
  </defs>
  <g id="Grupo_1028330" data-name="Grupo 1028330" clip-path="url(#clip-path)">
    <path id="Trazado_727249" data-name="Trazado 727249" d="M32.4,12.208a1.418,1.418,0,0,0-.51.095,15.448,15.448,0,0,0-2.908,1.706,24.87,24.87,0,0,0-4.91,4.7,24.177,24.177,0,0,0-4.111,9.365.984.984,0,0,0,.484,1.166c.616.339,1.252-.04,1.406-.919a18.822,18.822,0,0,1,.988-3.565A19.294,19.294,0,0,1,32.68,14a1.1,1.1,0,0,0,.573-1.23.707.707,0,0,0-.857-.563M24.744,26.233c0,.745.344,1.182.847,1.217.474.033.818-.311.959-.917.1-.414.21-.825.347-1.227a9.688,9.688,0,0,1,4.877-5.66.809.809,0,0,0,.534-.656c.078-.845-.461-1.226-1.348-.943a7.818,7.818,0,0,0-2.9,1.991,11.548,11.548,0,0,0-2.471,3.521,8.458,8.458,0,0,0-.84,2.673" transform="translate(-10.327 -6.323)" fill="#f8f9fb"/>
    <path id="Trazado_727250" data-name="Trazado 727250" d="M42.855,111.211c-.555-.231-1.113-.457-1.666-.693a24.642,24.642,0,0,1-3.966-2.181A28.977,28.977,0,0,1,26.71,95.528a30.251,30.251,0,0,1-2.132-6.582c-.091-.48-.227-.952-.314-1.433-.057-.32-.347-.312-.535-.384a4.144,4.144,0,0,1-2.2-2,2.729,2.729,0,0,1-.312-1.177c-.084-1.39-.314-2.794.436-4.111a3.906,3.906,0,0,1,3.6-2.046q12.869-.038,25.739,0c.389,0,.539-.072.7-.482C52.5,75.24,53,73.069,53.768,70.983a2.6,2.6,0,0,0,.126-.461c.046-.275-.007-.437-.36-.442-1.239-.018-2.479-.05-3.717-.118a41.992,41.992,0,0,1-4.671-.337,9.8,9.8,0,0,0-1.414-.086c-1.191-.025-2.359-.239-3.545-.3a9.7,9.7,0,0,0-3.309.643c-3.844,1.13-7.673,2.31-11.511,3.462-4.159,1.248-8.323,2.478-12.481,3.731-3.513,1.058-7.018,2.143-10.532,3.2-.415.124-.853.2-1.274.3-.6.146-.765-.222-.939-.61a3.766,3.766,0,0,1-.109-1.6Q.005,57.683.018,37.008c0-1.032.342-1.38,1.364-1.48,1.006-.1,2.017-.165,3.018-.274a6.686,6.686,0,0,0,1.362-.213,7.255,7.255,0,0,1,1.249-.077c1.208-.152,2.422-.312,3.627-.423,1.281-.118,2.572-.212,3.859-.326,1.77-.156,3.547-.263,5.306-.5,1.561-.211,3.14-.237,4.691-.48,1.461-.229,2.943-.209,4.4-.459a.759.759,0,0,0,.557-.373,25.05,25.05,0,0,0,1.9-4.037A18.542,18.542,0,0,1,32.723,25.6a25.289,25.289,0,0,1,3.452-4.332c1.594-1.62,3.2-3.232,4.754-4.885a15.531,15.531,0,0,0,2.581-4.017,2.648,2.648,0,0,1,1.579-1.547,3.085,3.085,0,0,1,3.482,1.136c1.5,1.777,1.3,3.834.838,5.89A9.038,9.038,0,0,1,46.714,22.5C46.178,23,45.7,23.574,45.2,24.114a1.346,1.346,0,0,0-.31.5c-.058.174-.15.351-.01.509s.316.1.491.035c1.633-.6,3.269-1.19,4.9-1.788,3.538-1.3,7.044-2.676,10.593-3.941,1.026-.366,2.027-.816,3.074-1.126a.48.48,0,0,0,.4-.547,2.918,2.918,0,0,1,.051-.944,1.722,1.722,0,0,1,1.416-1.318c.4-.055.458-.251.453-.6-.018-1.16-.006-2.321-.006-3.481A11.5,11.5,0,0,1,68.34,4.944a10.24,10.24,0,0,1,3.338-3.175A11.3,11.3,0,0,1,76.122.222,34.834,34.834,0,0,1,80.209,0Q93.2,0,106.188.012A17.841,17.841,0,0,1,109.6.266a11.024,11.024,0,0,1,6.128,3.4,12.284,12.284,0,0,1,1.531,1.846,10.857,10.857,0,0,1,1.673,5.338c.277,8.374.082,16.75.111,25.124.038,11.523.012,23.046,0,34.569a.873.873,0,0,0,.615.97,1.986,1.986,0,0,1,1.2,1.62,25.032,25.032,0,0,1,.105,3.693q.012,21.245,0,42.491c0,1.367-.311,1.678-1.681,1.678H17.238c-.24,0-.482.015-.72-.007a1.073,1.073,0,0,1-1.02-1.1c0-1.9,0-3.8.01-5.7a2.781,2.781,0,0,1,1.837-2.47,9.817,9.817,0,0,1,2.417-.322H42.828l.026-.181M76.58,15.605c0,.078.03.121.115.1a1.609,1.609,0,0,1,.96,1.191,7.077,7.077,0,0,1,.119,1.838A2.1,2.1,0,0,1,76.262,21c-.226.072-.287.141-.215.42.284,1.108.539,2.226.741,3.352.078.436.2.456.576.332a11.341,11.341,0,0,1,4.135-.5c2.3.119,3.587,2.053,2.59,4.069A5.9,5.9,0,0,1,80.555,31.7c-.586.2-1.17.4-1.758.592a.372.372,0,0,0-.277.544,20.191,20.191,0,0,1,.681,2.955c.069.348.215.379.465.345q1.518-.206,3.033-.432a4.523,4.523,0,0,1,2.753.2,2.994,2.994,0,0,1,.853,4.963c-.168.158-.368.261-.233.584a3.217,3.217,0,0,1-.485,3.321,6.872,6.872,0,0,1-3.229,2.376c-.322.119-.389.207-.3.545.245.983.425,1.982.654,2.969.118.506.427.657.966.551a7.986,7.986,0,0,1,2.727-.209,3.237,3.237,0,0,1,2.763,2.5,2.937,2.937,0,0,1-1.375,3.091,6.85,6.85,0,0,1-2.744,1.079c-.29.054-.5.044-.339.51.346,1,.556,2.051.839,3.076q.666,2.409,1.358,4.81t1.4,4.781c.325,1.091.649,2.183,1,3.266.357,1.105.746,2.2,1.122,3.3.075.22.176.372.463.368,1.218-.015,2.435-.007,3.688-.007a12.85,12.85,0,0,1-.471-1.865q-.007-12.93-.012-25.861a6.168,6.168,0,0,1,.466-2.452,6.847,6.847,0,0,1,4.918-4.21c.251-.061.393-.146.386-.462-.026-1.06-.023-2.12,0-3.18.007-.331-.112-.393-.412-.391-1.7.013-3.4,0-5.1.01-.8.006-1.168.42-1.215,1.222a24.541,24.541,0,0,1-.091,2.736c-.117.686-.627.758-1.068.793-.344.027-.6-.37-.66-.737a9.89,9.89,0,0,1-.012-3.445c.347-1.8,1.53-2.444,3.29-2.487,1.439-.035,2.879-.007,4.319-.007.937,0,.937,0,.945-.928a2.963,2.963,0,0,1,2.582-2.816,11.153,11.153,0,0,1,2.644.018,2.767,2.767,0,0,1,2.317,2.193,10.343,10.343,0,0,1,.141,1.591c-.023,1.78-.008,3.56-.01,5.341,0,.24-.036.466.3.548.536.131,1.062.306,1.607.466.007-.109.014-.168.013-.228-.076-10.512.152-21.025-.107-31.537a2.461,2.461,0,0,0-.707-1.652,3.278,3.278,0,0,0-2.7-.829C97.2,9.6,88.467,9.606,79.729,9.6a6.432,6.432,0,0,0-1.811.218,2.71,2.71,0,0,0-1.954,2.028c-.19.893-.018,1.79-.121,2.675a.847.847,0,0,0,.738,1.081m-3.9,71.781H26.971c-.18,0-.36,0-.54,0-.212,0-.328.121-.244.3a4.691,4.691,0,0,1,.161.966c.4,1.456.781,2.917,1.3,4.344a35.769,35.769,0,0,0,3.11,6.32,21.319,21.319,0,0,0,2.583,3.419,21.533,21.533,0,0,0,3.743,3.38,26.368,26.368,0,0,0,3.16,2.033,26.992,26.992,0,0,0,5.973,2.251,38.215,38.215,0,0,0,4.866.844c1.362.115,2.738.164,4.115.162q31.223-.023,62.448-.011a8.716,8.716,0,0,1,.959.007c.388.042.454-.117.457-.471.046-5.471-.046-10.942.042-16.413.034-2.127-.023-4.265-.033-6.4,0-.591-.126-.747-.739-.746q-22.825.03-45.651.016M1.938,65.552c0,4.1.009,8.2-.01,12.3,0,.53.135.589.611.439,1.636-.517,3.285-.992,4.928-1.485L22.6,72.26q6.907-2.076,13.816-4.146a10,10,0,0,1,4.428-.7c1.951.284,3.941.331,5.914.505,2.14.189,4.3.173,6.443.236a67.28,67.28,0,0,0,11.988-.444c1.943-.291,3.914-.4,5.869-.618,2-.222,3.989-.472,5.982-.72a2.937,2.937,0,0,0,1.8-.984.936.936,0,0,0,.308-1.08,1.239,1.239,0,0,0-1.045-.8,17.246,17.246,0,0,0-2.157.036c-2.175.2-4.355.353-6.528.57-.688.068-1.379.1-2.068.2a3.266,3.266,0,0,1-2.777-.637,1.844,1.844,0,0,1-.453-2.687,3.273,3.273,0,0,1,2.256-1.444c2.625-.531,5.253-1.05,7.88-1.573q5.178-1.032,10.355-2.066a5.382,5.382,0,0,0,2.119-.787,1.152,1.152,0,0,0,.6-1.207A1.549,1.549,0,0,0,86.1,52.822a4.959,4.959,0,0,0-1.068.107c-1.171.107-2.328.333-3.495.474-1.085.131-2.186.318-3.272.523-.535.1-1.1.106-1.619.207q-1.042.2-2.091.364c-1.508.236-3.016.473-4.528.685a25.852,25.852,0,0,1-4.543.516,2.448,2.448,0,0,1-2.425-1.767,2.539,2.539,0,0,1,1.39-2.682,5.952,5.952,0,0,1,.885-.362c2.4-.8,4.807-1.6,7.209-2.4q4.6-1.54,9.19-3.094a4.613,4.613,0,0,0,2.495-2.055c.4-.654.212-1.192-.448-1.381a3.8,3.8,0,0,0-1.829-.119A31.458,31.458,0,0,0,77.43,43c-.97.354-1.97.621-2.944.975a79.219,79.219,0,0,1-10.526,3.149,2.656,2.656,0,0,1-2.688-.936,2.238,2.238,0,0,1-.4-2.6,3.393,3.393,0,0,1,1.234-1.275c3.133-2.144,6.256-4.305,9.412-6.415a2.978,2.978,0,0,0,1.3-1.861c.212-.855-.086-1.236-.963-1.273a3.927,3.927,0,0,0-2.616.6c-.423.307-1.075.2-1.427.468a15.4,15.4,0,0,1-2.565,1.407c-1.519.757-3.046,1.5-4.568,2.247q-4.35,2.148-8.7,4.3a4.386,4.386,0,0,1-2.168.6,2.067,2.067,0,0,1-1.875-3.02,6.267,6.267,0,0,1,1.236-1.685,18.652,18.652,0,0,0,1.657-1.732A9.45,9.45,0,0,0,52.712,30.2c0-1.283-.806-1.56-1.831-1.1a4.475,4.475,0,0,0-1.564,1.285c-1.726,2.062-3.556,4.027-5.454,5.931a42.088,42.088,0,0,0-3.087,3.232,24.19,24.19,0,0,0-2.964,4.631A27.825,27.825,0,0,1,35.4,48.451a1.294,1.294,0,0,1-.927.588c-.85.1-1.7.238-2.55.28-.8.039-1.62.136-2.4.237-.837.109-1.7.233-2.547.359-1.585.236-3.2.285-4.782.526-2.082.316-4.183.422-6.27.689-1.071.136-2.176.174-3.228.337-1.331.206-2.675.285-4,.5-1.09.18-2.2.24-3.3.379-.381.048-.8-.018-1.123.057a7.589,7.589,0,0,1-1.677.273c-.508,0-.674.153-.671.691.025,4.061.013,8.122.013,12.183M1.932,44.081c0,2.08.006,4.161-.007,6.241,0,.353.071.531.464.455.154-.03.321.015.478,0,1.667-.2,3.333-.406,5-.6,1.1-.129,2.21-.232,3.313-.359,1.689-.2,3.376-.4,5.064-.6q2.253-.265,4.511-.5c1.257-.13,2.514-.3,3.772-.451,1.176-.14,2.355-.253,3.532-.39,1.588-.184,3.17-.445,4.763-.545a1.978,1.978,0,0,0,1.883-1.207,35.667,35.667,0,0,1,4-6.855c1.627-1.98,3.443-3.779,5.2-5.626q2.254-2.363,4.382-4.831a4.939,4.939,0,0,1,1.862-1.479c2.1-.835,3.888-.18,4.423,2.122a5.453,5.453,0,0,1,.023,2.107,10.666,10.666,0,0,1-3.136,6.4A11.827,11.827,0,0,0,49.8,39.764c-.143.2-.371.426-.162.693.182.231.425.1.657.032a19.2,19.2,0,0,0,2.864-1.349c3.214-1.558,6.416-3.139,9.623-4.712.216-.106.433-.2.479-.486a13.319,13.319,0,0,1,.537-2.258c.1-.277.014-.38-.28-.306-.445.111-.9.184-1.337.323a2.678,2.678,0,0,1-2.367-.442,2.443,2.443,0,0,1-.9-2.877,2.989,2.989,0,0,1,1.573-1.568c1.522-.836,3.052-1.658,4.582-2.482.233-.126.452-.24.473-.557a9.9,9.9,0,0,1,.433-2.028c.112-.393.12-.7-.373-.827a1.929,1.929,0,0,1-.892-.684.447.447,0,0,0-.576-.123c-1.748.679-3.5,1.337-5.259,2q-6.134,2.306-12.27,4.608a4.334,4.334,0,0,1-1.758.289,2.074,2.074,0,0,1-1.765-2.892,9.1,9.1,0,0,1,1.458-1.963,12.6,12.6,0,0,0,1.99-2.309,10.25,10.25,0,0,0,1.356-4.462,2.917,2.917,0,0,0-.9-2.45c-.727-.691-1.334-.609-1.836.241a9.479,9.479,0,0,0-.439.852,14.358,14.358,0,0,1-2.793,4.016c-1.271,1.3-2.52,2.628-3.827,3.893a21.151,21.151,0,0,0-5.225,7.8A25.8,25.8,0,0,1,31,33.546a1.959,1.959,0,0,1-1.508,1.12c-.866.088-1.731.221-2.6.247-1.4.042-2.763.342-4.158.414-1.318.068-2.625.351-3.943.423-2,.11-3.985.427-5.984.566-1.4.1-2.8.233-4.192.429-.69.1-1.38.063-2.069.168a27.56,27.56,0,0,1-4.008.4c-.452,0-.623.094-.616.592.029,2.06.013,4.121.013,6.181M111.375,28.99h-.013q0,7.921,0,15.842a.9.9,0,0,0,.182.672,7.4,7.4,0,0,1,1.752,5.255q0,9.871-.01,19.742c0,.434.087.594.553.572a20.458,20.458,0,0,1,2.578,0c.644.051.732-.191.731-.763-.02-6.52-.013-13.041-.013-19.562,0-6.541.056-13.082-.016-19.622-.072-6.5.245-13.006-.155-19.509a10.544,10.544,0,0,0-.653-3.963,9.074,9.074,0,0,0-3.377-4.089,10.889,10.889,0,0,0-5.884-1.62c-10.264.093-20.53-.334-30.79.213a8.574,8.574,0,0,0-4.2,1.6,8.612,8.612,0,0,0-3.379,4.767c-.694,2.16-.464,4.38-.508,6.585-.006.282.2.249.372.249,1.66,0,3.319-.01,4.979.009.374,0,.419-.156.412-.465-.017-.72-.011-1.44,0-2.16a5.05,5.05,0,0,1,1.712-3.875A5.7,5.7,0,0,1,79.722,7.7c7.978-.032,15.957-.021,23.935-.009,1.073,0,2.143,0,3.22.087a4.621,4.621,0,0,1,3.946,2.664,7.071,7.071,0,0,1,.544,3.368c.016,5.06.007,10.121.007,15.181M67.69,119.077v0q24.714,0,49.428.008a5.569,5.569,0,0,1,1.524-.016c.3.08.419-.08.417-.4q-.018-2.46,0-4.92c0-.346-.12-.448-.453-.441-.927.021-1.855.023-2.782.022q-47.988-.03-95.977-.017c-.22,0-.44-.008-.66,0-1.486.032-1.7.268-1.755,1.528-.053,1.138-.024,2.279-.03,3.419,0,.822,0,.821.8.821H67.69m3.962-33.621h46.614c.16,0,.321-.011.48,0,.241.02.3-.091.3-.315q-.009-2.551,0-5.1c0-.266-.091-.365-.345-.33a10.284,10.284,0,0,1-1.384.011q-45.8-.018-91.609-.013a6.84,6.84,0,0,0-1.278.2,1.765,1.765,0,0,0-1.3,2.088c.058.147-.05.218-.055.324a2.957,2.957,0,0,0,.682,2.6,2.566,2.566,0,0,0,1.931.537H71.652m-.59-7.676q8.459,0,16.917.01c.526,0,.658-.094.471-.63-.614-1.758-1.24-3.51-1.745-5.306-.872-3.1-1.816-6.177-2.711-9.269-.347-1.2-.642-2.41-.959-3.617-.2-.774-.284-.837-1.056-.648-2.146.524-4.309.956-6.476,1.38-2.845.557-5.684,1.143-8.538,1.656a2.223,2.223,0,0,0-.91.249c-.169.115-.355.232-.3.469s.265.314.5.348a3.9,3.9,0,0,0,1.056-.137c.956-.118,1.932,0,2.869-.139a37.458,37.458,0,0,1,5.634-.449,4.52,4.52,0,0,0,.587-.067,4.267,4.267,0,0,1,3.507.741,2.734,2.734,0,0,1,.551,4.06,4.949,4.949,0,0,1-3.205,1.83c-1.447.222-2.9.382-4.362.514-1.126.1-2.23.354-3.369.391-.961.03-1.917.221-2.877.326-.887.1-1.786.112-2.66.274a33.4,33.4,0,0,1-3.983.4c-1.215.076-2.436.051-3.655.045-.332,0-.5.081-.585.427-.2.824-.424,1.646-.685,2.453-.435,1.347-.907,2.681-1.363,4.021-.225.663-.224.665.495.665H71.062m-.052-56.658c-.879,0-1.759.008-2.639,0-.286,0-.431.073-.482.381-.314,1.883-.747,3.741-1.142,5.607-.376,1.776-.73,3.557-1.225,5.3-.041.145-.2.3-.062.431a.469.469,0,0,0,.51.014c.415-.195.82-.412,1.232-.612,1.507-.731,2.959-1.569,4.758-1.413a3.108,3.108,0,0,1,2.9,2.582,4.579,4.579,0,0,1-.917,2.7,7.086,7.086,0,0,1-2.094,1.69c-2.767,1.946-5.565,3.848-8.349,5.77a5.336,5.336,0,0,0-.748.6.574.574,0,0,0,.277,1.041,1.64,1.64,0,0,0,.887-.024c.423-.116.856-.2,1.278-.318,2.621-.743,5.242-1.473,7.81-2.408,1.294-.471,2.651-.827,3.976-1.243,1.532-.481,1.524-.5,1.161-2.093q-1.56-6.861-3.11-13.725-.415-1.856-.811-3.716c-.1-.482-.258-.577-.684-.566-.839.024-1.679.007-2.519.007m40.355,40.387c0-2.38-.012-4.759.011-7.138,0-.459-.1-.6-.585-.6q-7.106.029-14.212,0c-.44,0-.569.1-.567.555q.027,7.138,0,14.277c0,.412.094.537.524.536q7.136-.024,14.272,0c.439,0,.573-.1.568-.555-.025-2.359-.012-4.719-.012-7.078m-7.68,9.571v0H96.554c-.274,0-.545-.071-.535.4.031,1.378-.019,2.758.022,4.136a2.093,2.093,0,0,0,2.221,2.164c1.11.04,2.236.083,3.329.048,1.193-.039,2.388.038,3.583-.037,1.274-.079,2.556-.018,3.835-.019a2.054,2.054,0,0,0,2.345-2.344c.005-1.259-.026-2.519.014-3.776.016-.505-.17-.577-.61-.574-2.357.019-4.715.009-7.072.009m-.01-19.239v0c2.4,0,4.8,0,7.2,0,.186,0,.477.124.48-.255a9.1,9.1,0,0,0-.391-3.537,4.6,4.6,0,0,0-4.623-2.881c-1.779-.034-3.56-.051-5.338,0a4.866,4.866,0,0,0-4.222,2.325,6.832,6.832,0,0,0-.764,3.7c-.008.5.084.678.641.669,2.338-.038,4.678-.016,7.018-.016m-24.394-.017c.492.146.881-.144,1.305-.176s.493-.219.4-.575c-.223-.89-.461-1.775-.646-2.672-.1-.478-.315-.511-.715-.363-1.4.52-2.8,1.048-4.216,1.521-3.134,1.047-6.278,2.064-9.421,3.083a3.668,3.668,0,0,0-.87.325.507.507,0,0,0-.277.486c.033.165.237.274.416.3a3.125,3.125,0,0,0,.951-.027c1.208-.194,2.419-.373,3.63-.55q2.823-.412,5.647-.814c1.274-.183,2.549-.362,3.792-.538m22.5-12.154h0c0,1.039.006,2.078,0,3.117,0,.271.01.443.368.435,1.038-.023,2.078-.018,3.116,0,.295,0,.367-.1.366-.377-.01-2,.033-4-.023-5.995-.027-.968-.356-1.269-1.319-1.313a8.771,8.771,0,0,0-1.258.01c-.759.076-1.284.378-1.25,1.308s.008,1.878.008,2.817m14.157,38.114v0c.839,0,1.678-.023,2.516.009.453.017.631-.091.615-.588-.039-1.157-.044-2.318,0-3.475.023-.611-.238-.758-.778-.752-1.457.018-2.916.027-4.373-.005-.5-.012-.635.132-.634.631a8.9,8.9,0,0,1-.373,3.838c-.166.368.11.342.331.343.9,0,1.8,0,2.7,0m-44.827-60.5H67.69c-1.558,0-1.55,0-1.44,1.547.02.288.131.448.39.361a5.019,5.019,0,0,1,1.644.019c2.059-.021,4.117-.009,6.176-.009,1.425,0,1.406,0,1.405-1.406,0-.443-.164-.526-.56-.521-1.4.02-2.8.008-4.2.008M80.726,26.4a14.87,14.87,0,0,0-3.09.611c-.222.062-.308.165-.221.4A12.7,12.7,0,0,1,77.9,29.5c.207,1.119.206,1.138,1.269.746a5.727,5.727,0,0,0,3.067-2.139c.518-.808.3-1.346-.627-1.59a2.792,2.792,0,0,0-.884-.115M82.87,40c.359,0,.718-.013,1.076,0a1.484,1.484,0,0,0,1.513-1.226,1.392,1.392,0,0,0-1.439-1.307c-1.274.134-2.535.38-3.8.563-.254.037-.316.128-.309.382.013.463.217.884.246,1.336.02.321.171.421.462.366A9.214,9.214,0,0,1,82.87,40m-18.01-13.5c-1.307.719-2.5,1.381-3.7,2.034-.357.195-.658.435-.536.883s.511.519.91.495a14.562,14.562,0,0,0,2.585-.6c.1-.024.193-.06.212-.178a24.753,24.753,0,0,0,.53-2.637" transform="translate(0 0)" fill="#3b332b"/>
    <path id="Trazado_727251" data-name="Trazado 727251" d="M32.4,12.208a.707.707,0,0,1,.857.563A1.1,1.1,0,0,1,32.68,14,19.3,19.3,0,0,0,22.835,24.76a18.822,18.822,0,0,0-.988,3.565c-.154.878-.789,1.258-1.406.919a.984.984,0,0,1-.484-1.166,24.18,24.18,0,0,1,4.111-9.365,24.87,24.87,0,0,1,4.91-4.7A15.448,15.448,0,0,1,31.886,12.3a1.418,1.418,0,0,1,.51-.095" transform="translate(-10.327 -6.322)" fill="#3b332b"/>
    <path id="Trazado_727252" data-name="Trazado 727252" d="M29.935,32.432a8.458,8.458,0,0,1,.84-2.673,11.548,11.548,0,0,1,2.471-3.521,7.818,7.818,0,0,1,2.9-1.991c.888-.283,1.427.1,1.349.943a.809.809,0,0,1-.534.656,9.688,9.688,0,0,0-4.877,5.66c-.137.4-.251.813-.347,1.227-.141.606-.485.95-.959.917-.5-.035-.846-.472-.847-1.217" transform="translate(-15.518 -12.521)" fill="#3b332b"/>
    <path id="Trazado_727253" data-name="Trazado 727253" d="M100.838,181.429q22.825,0,45.651-.016c.613,0,.736.156.739.746.011,2.133.067,4.271.033,6.4-.088,5.472,0,10.943-.042,16.413,0,.354-.068.514-.456.471a8.842,8.842,0,0,0-.959-.007q-31.223,0-62.448.011c-1.376,0-2.753-.048-4.114-.163a38.127,38.127,0,0,1-4.866-.843,27.016,27.016,0,0,1-5.973-2.251,26.471,26.471,0,0,1-3.161-2.033,21.586,21.586,0,0,1-3.742-3.38,21.288,21.288,0,0,1-2.583-3.42,35.78,35.78,0,0,1-3.11-6.32c-.52-1.427-.9-2.888-1.3-4.344a4.7,4.7,0,0,0-.162-.966c-.085-.175.032-.3.244-.3.18,0,.36,0,.54,0h45.711" transform="translate(-28.157 -94.043)" fill="#e4e5e7"/>
    <path id="Trazado_727254" data-name="Trazado 727254" d="M4.01,96.654c0-4.061.011-8.122-.013-12.183,0-.538.163-.691.671-.691a7.57,7.57,0,0,0,1.677-.274c.326-.074.741-.009,1.122-.056,1.1-.139,2.207-.2,3.3-.379,1.328-.219,2.672-.3,4-.5,1.051-.162,2.157-.2,3.228-.337,2.086-.266,4.188-.372,6.27-.689,1.584-.24,3.2-.29,4.782-.525.846-.126,1.71-.25,2.547-.359.777-.1,1.593-.2,2.4-.238.852-.041,1.7-.18,2.55-.279a1.29,1.29,0,0,0,.926-.588,27.83,27.83,0,0,0,2.417-4.271,24.158,24.158,0,0,1,2.964-4.631,42.172,42.172,0,0,1,3.086-3.232c1.9-1.9,3.728-3.869,5.454-5.931A4.475,4.475,0,0,1,52.954,60.2c1.024-.456,1.835-.178,1.831,1.1a9.442,9.442,0,0,1-1.878,5.742,18.522,18.522,0,0,1-1.657,1.732,6.245,6.245,0,0,0-1.235,1.685,2.066,2.066,0,0,0,1.874,3.019,4.382,4.382,0,0,0,2.168-.6q4.352-2.147,8.7-4.3c1.521-.751,3.048-1.491,4.568-2.247a15.387,15.387,0,0,0,2.565-1.407c.352-.267,1-.16,1.427-.468a3.924,3.924,0,0,1,2.616-.6c.877.037,1.175.418.963,1.273a2.98,2.98,0,0,1-1.3,1.861c-3.156,2.11-6.278,4.271-9.412,6.415A3.4,3.4,0,0,0,62.947,74.7a2.24,2.24,0,0,0,.4,2.6,2.656,2.656,0,0,0,2.688.936A79.312,79.312,0,0,0,76.558,75.08c.974-.354,1.973-.621,2.944-.975a31.454,31.454,0,0,1,4.52-1.17,3.805,3.805,0,0,1,1.83.12c.66.188.845.727.447,1.381a4.614,4.614,0,0,1-2.494,2.055q-4.591,1.558-9.19,3.094c-2.4.8-4.807,1.6-7.21,2.4a5.971,5.971,0,0,0-.884.363,2.537,2.537,0,0,0-1.39,2.682A2.447,2.447,0,0,0,67.557,86.8a25.858,25.858,0,0,0,4.543-.516c1.511-.212,3.019-.45,4.528-.685.7-.109,1.4-.229,2.091-.364.52-.1,1.084-.107,1.619-.208,1.087-.2,2.187-.392,3.272-.523,1.167-.14,2.324-.366,3.5-.474a4.956,4.956,0,0,1,1.067-.107,1.55,1.55,0,0,1,1.236,1.087,1.151,1.151,0,0,1-.6,1.207,5.37,5.37,0,0,1-2.118.786q-5.175,1.044-10.355,2.066c-2.627.523-5.255,1.042-7.88,1.573A3.276,3.276,0,0,0,66.2,92.089a1.844,1.844,0,0,0,.453,2.687,3.265,3.265,0,0,0,2.776.637c.689-.1,1.38-.128,2.068-.2,2.174-.216,4.353-.37,6.528-.569a17.236,17.236,0,0,1,2.156-.036,1.241,1.241,0,0,1,1.045.8.937.937,0,0,1-.308,1.08,2.937,2.937,0,0,1-1.8.984c-1.993.249-3.986.5-5.983.72-1.955.218-3.925.327-5.868.618a67.281,67.281,0,0,1-11.988.444c-2.147-.063-4.3-.047-6.442-.235-1.973-.174-3.963-.222-5.914-.505a9.992,9.992,0,0,0-4.427.7q-6.913,2.056-13.816,4.146L9.54,107.911c-1.643.494-3.293.968-4.929,1.485-.475.15-.613.091-.611-.439.019-4.1.011-8.2.011-12.3M60.529,82.9a3.066,3.066,0,0,0-.082-.844,15.884,15.884,0,0,0-1.711-4.063c-.565-.961-1.358-.968-1.924,0a19.189,19.189,0,0,0-1.76,4.111A2.676,2.676,0,0,0,55.142,84,2.974,2.974,0,0,0,58.1,85.807,2.792,2.792,0,0,0,60.529,82.9m-9.6,8.653a2.919,2.919,0,0,0-.089-.878,15.866,15.866,0,0,0-1.718-4.064c-.545-.926-1.341-.931-1.893,0a19.426,19.426,0,0,0-1.788,4.167,2.647,2.647,0,0,0,.2,2.055,3,3,0,0,0,2.589,1.641,2.792,2.792,0,0,0,2.7-2.921" transform="translate(-2.072 -31.102)" fill="#efb6a3"/>
    <path id="Trazado_727255" data-name="Trazado 727255" d="M4,57.5c0-2.06.017-4.121-.013-6.18-.007-.5.164-.59.616-.592a27.636,27.636,0,0,0,4.008-.4c.688-.1,1.379-.07,2.069-.168,1.39-.2,2.791-.331,4.192-.428,2-.139,3.981-.456,5.985-.566,1.318-.072,2.625-.355,3.942-.423,1.4-.072,2.761-.372,4.158-.415.868-.026,1.733-.158,2.6-.247a1.96,1.96,0,0,0,1.508-1.12,25.847,25.847,0,0,0,1.872-3.812,21.147,21.147,0,0,1,5.225-7.8c1.307-1.265,2.555-2.591,3.827-3.893a14.351,14.351,0,0,0,2.793-4.016c.134-.29.276-.577.439-.852.5-.85,1.109-.931,1.836-.241a2.918,2.918,0,0,1,.9,2.45A10.255,10.255,0,0,1,48.6,33.26a12.6,12.6,0,0,1-1.99,2.309,9.1,9.1,0,0,0-1.459,1.963,2.074,2.074,0,0,0,1.766,2.892,4.327,4.327,0,0,0,1.758-.289q6.135-2.3,12.27-4.608c1.755-.66,3.511-1.319,5.259-2a.447.447,0,0,1,.576.123,1.932,1.932,0,0,0,.891.685c.493.128.485.433.373.827a9.861,9.861,0,0,0-.433,2.027c-.021.317-.24.432-.473.557-1.529.824-3.059,1.646-4.582,2.482A3,3,0,0,0,60.98,41.8a2.443,2.443,0,0,0,.9,2.877,2.678,2.678,0,0,0,2.368.442c.435-.139.892-.212,1.336-.323.3-.074.377.029.281.306a13.279,13.279,0,0,0-.537,2.258c-.047.285-.263.38-.479.486-3.207,1.573-6.409,3.155-9.623,4.712a19.209,19.209,0,0,1-2.864,1.349c-.232.068-.474.2-.656-.032-.21-.266.019-.492.162-.693a11.875,11.875,0,0,1,1.663-1.807,10.665,10.665,0,0,0,3.137-6.4,5.444,5.444,0,0,0-.023-2.107c-.535-2.3-2.32-2.957-4.422-2.121a4.94,4.94,0,0,0-1.862,1.479q-2.127,2.474-4.381,4.831c-1.762,1.847-3.577,3.646-5.2,5.626a35.69,35.69,0,0,0-4,6.855,1.98,1.98,0,0,1-1.884,1.208c-1.593.1-3.175.361-4.763.545-1.177.137-2.356.25-3.532.39-1.257.149-2.515.321-3.772.45-1.505.155-3.008.326-4.511.5-1.688.2-3.376.407-5.064.6-1.1.128-2.21.23-3.313.359-1.668.195-3.334.4-5,.6-.157.019-.325-.026-.478,0-.393.076-.466-.1-.464-.455C4.005,61.66,4,59.579,4,57.5" transform="translate(-2.066 -13.418)" fill="#efb6a3"/>
    <path id="Trazado_727256" data-name="Trazado 727256" d="M184.757,31.012c0-5.061.009-10.121-.008-15.182a7.063,7.063,0,0,0-.543-3.368A4.62,4.62,0,0,0,180.259,9.8c-1.077-.092-2.147-.085-3.22-.087-7.978-.012-15.957-.023-23.935.009a5.7,5.7,0,0,0-4.075,1.175,5.048,5.048,0,0,0-1.712,3.875c-.007.72-.013,1.44,0,2.16.007.309-.039.469-.412.464-1.66-.019-3.319-.008-4.98-.009-.176,0-.377.033-.372-.249.045-2.2-.185-4.425.509-6.585a8.614,8.614,0,0,1,3.379-4.767,8.576,8.576,0,0,1,4.195-1.6c10.26-.548,20.527-.121,30.79-.213a10.885,10.885,0,0,1,5.884,1.62,9.072,9.072,0,0,1,3.377,4.088,10.548,10.548,0,0,1,.654,3.963c.4,6.5.082,13.008.154,19.51.073,6.54.016,13.081.016,19.622,0,6.521-.007,13.041.013,19.562,0,.572-.085.814-.73.763a20.555,20.555,0,0,0-2.578-.005c-.466.022-.554-.137-.553-.572q.02-9.871.01-19.742a7.4,7.4,0,0,0-1.752-5.255.9.9,0,0,1-.182-.672q0-7.921,0-15.841Z" transform="translate(-73.381 -2.021)" fill="#b6b9bd"/>
    <path id="Trazado_727257" data-name="Trazado 727257" d="M86.421,241.039H36.933c-.8,0-.8,0-.8-.821.006-1.14-.023-2.282.03-3.419.059-1.26.269-1.5,1.755-1.528.22,0,.44,0,.66,0q47.988,0,95.977.017c.928,0,1.855,0,2.782-.022.332-.008.456.095.453.441q-.022,2.46,0,4.92c0,.316-.12.477-.416.4a5.593,5.593,0,0,0-1.525.017q-24.714-.014-49.428-.008Z" transform="translate(-18.73 -121.962)" fill="#7f8185"/>
    <path id="Trazado_727258" data-name="Trazado 727258" d="M96.473,171.251H50.518a2.566,2.566,0,0,1-1.93-.537,2.958,2.958,0,0,1-.683-2.6c.005-.106.113-.176.055-.324a1.766,1.766,0,0,1,1.3-2.088,6.81,6.81,0,0,1,1.278-.2q45.8,0,91.608.013a10.371,10.371,0,0,0,1.384-.011c.255-.034.347.064.345.33q-.015,2.551,0,5.1c0,.224-.062.336-.3.316-.159-.013-.32,0-.48,0H96.473" transform="translate(-24.821 -85.794)" fill="#e4e5e7"/>
    <path id="Trazado_727259" data-name="Trazado 727259" d="M128.733,140.46H111.876c-.718,0-.72,0-.494-.665.456-1.34.929-2.675,1.363-4.021.261-.807.483-1.629.685-2.453.085-.345.252-.428.585-.427,1.219.006,2.44.031,3.655-.045a33.409,33.409,0,0,0,3.983-.4c.874-.161,1.774-.177,2.66-.274.96-.105,1.916-.3,2.877-.326,1.138-.036,2.242-.288,3.369-.391,1.458-.132,2.916-.292,4.362-.514a4.95,4.95,0,0,0,3.205-1.83,2.735,2.735,0,0,0-.551-4.06,4.267,4.267,0,0,0-3.507-.74,4.614,4.614,0,0,1-.587.067,37.452,37.452,0,0,0-5.634.449c-.937.14-1.913.021-2.869.14a3.9,3.9,0,0,1-1.056.136c-.232-.033-.439-.1-.5-.348s.131-.354.3-.469a2.223,2.223,0,0,1,.909-.249c2.854-.512,5.693-1.1,8.538-1.655,2.167-.424,4.331-.857,6.476-1.381.772-.188.853-.126,1.056.648.316,1.206.612,2.419.959,3.617.895,3.092,1.839,6.17,2.711,9.269.505,1.8,1.131,3.549,1.745,5.306.187.536.056.631-.471.63q-8.458-.022-16.917-.009m-7.669-6.6a2.694,2.694,0,0,0-2.883,2.764,3.065,3.065,0,0,0,2.751,2.88,2.892,2.892,0,0,0,2.894-3.106,2.736,2.736,0,0,0-2.762-2.539" transform="translate(-57.671 -62.679)" fill="#b6b9bd"/>
    <path id="Trazado_727260" data-name="Trazado 727260" d="M138.291,43.849c.84,0,1.68.017,2.519-.006.426-.012.581.083.683.566q.394,1.859.812,3.715,1.537,6.867,3.11,13.726c.363,1.6.371,1.612-1.161,2.093-1.326.416-2.683.772-3.977,1.243-2.568.935-5.188,1.665-7.809,2.408-.422.12-.854.2-1.278.318a1.642,1.642,0,0,1-.888.024.574.574,0,0,1-.276-1.041,5.272,5.272,0,0,1,.748-.6c2.784-1.923,5.582-3.824,8.349-5.77a7.08,7.08,0,0,0,2.094-1.69,4.577,4.577,0,0,0,.918-2.7,3.107,3.107,0,0,0-2.9-2.582c-1.8-.157-3.251.681-4.758,1.413-.413.2-.817.417-1.232.612a.467.467,0,0,1-.509-.014c-.143-.129.021-.285.062-.431.5-1.748.849-3.528,1.225-5.3.394-1.866.829-3.724,1.142-5.607.052-.308.2-.386.482-.381.879.013,1.759,0,2.639,0" transform="translate(-67.281 -22.727)" fill="#b6b9bd"/>
    <path id="Trazado_727261" data-name="Trazado 727261" d="M214.712,119.39c0,2.359-.014,4.719.012,7.078,0,.459-.129.556-.568.555q-7.136-.024-14.272,0c-.429,0-.525-.124-.523-.536q.022-7.138,0-14.277c0-.458.128-.556.567-.555q7.106.025,14.212,0c.483,0,.59.138.586.6-.023,2.38-.011,4.759-.011,7.138m-7.839,5.719c.31,0,.55,0,.79,0a2.045,2.045,0,0,0,2.248-2.227c-.009-.582.192-.672.7-.666a1.922,1.922,0,0,0,2.1-1.758,7.615,7.615,0,0,0,.092-1.659,2.071,2.071,0,0,0-2.274-2.331c-.511-.006-.617-.151-.613-.637a2.053,2.053,0,0,0-2.172-2.254c-.439-.022-.879-.014-1.319-.005a2.091,2.091,0,0,0-2.26,2.3c0,.463-.111.6-.589.6a2.1,2.1,0,0,0-2.3,2.317c0,.38,0,.76,0,1.14a2.07,2.07,0,0,0,2.309,2.293c.491,0,.585.153.582.6a2.058,2.058,0,0,0,1.536,2.223,5.472,5.472,0,0,0,1.173.068" transform="translate(-103.346 -57.881)" fill="#efb6a3"/>
    <path id="Trazado_727262" data-name="Trazado 727262" d="M207.039,147.58c2.357,0,4.715.01,7.072-.009.441,0,.627.069.611.574-.041,1.257-.009,2.517-.015,3.776a2.054,2.054,0,0,1-2.345,2.343c-1.279,0-2.561-.06-3.835.019-1.195.074-2.39,0-3.584.037-1.094.036-2.219-.007-3.329-.048a2.093,2.093,0,0,1-2.221-2.164c-.041-1.378.009-2.758-.022-4.136-.01-.467.261-.4.535-.4h7.132Z" transform="translate(-103.353 -76.5)" fill="#efb6a3"/>
    <path id="Trazado_727263" data-name="Trazado 727263" d="M207.027,100.415c-2.339,0-4.679-.022-7.018.016-.557.009-.649-.167-.641-.669a6.828,6.828,0,0,1,.764-3.7,4.866,4.866,0,0,1,4.221-2.325c1.778-.055,3.559-.038,5.338,0a4.6,4.6,0,0,1,4.623,2.882,9.092,9.092,0,0,1,.391,3.537c0,.379-.294.254-.48.255-2.4.008-4.8.005-7.2.005Z" transform="translate(-103.351 -48.574)" fill="#efb6a3"/>
    <path id="Trazado_727264" data-name="Trazado 727264" d="M149.074,103.448c-1.243.176-2.518.356-3.792.538q-2.824.405-5.647.814c-1.211.177-2.422.356-3.63.55a3.126,3.126,0,0,1-.951.027c-.179-.026-.383-.135-.416-.3a.507.507,0,0,1,.277-.486,3.69,3.69,0,0,1,.87-.326c3.143-1.019,6.286-2.036,9.421-3.083,1.417-.473,2.815-1,4.216-1.521.4-.149.616-.116.715.363.186.9.424,1.783.647,2.672.089.356.027.543-.4.575s-.813.322-1.305.176" transform="translate(-69.792 -51.623)" fill="#b6b9bd"/>
    <path id="Trazado_727265" data-name="Trazado 727265" d="M211.321,77.9c0-.939.027-1.879-.008-2.817s.491-1.233,1.25-1.308a8.7,8.7,0,0,1,1.257-.01c.963.045,1.293.345,1.32,1.314.055,2,.012,4,.022,5.994,0,.279-.071.381-.366.377-1.038-.016-2.078-.021-3.116,0-.359.008-.371-.164-.368-.435.01-1.039,0-2.078,0-3.117Z" transform="translate(-109.542 -38.231)" fill="#e4e5e7"/>
    <path id="Trazado_727266" data-name="Trazado 727266" d="M237.414,156.329c-.9,0-1.8,0-2.7,0-.221,0-.5.026-.331-.343a8.9,8.9,0,0,0,.373-3.838c0-.5.134-.643.634-.631,1.457.033,2.915.023,4.373.006.54-.007.8.141.777.751-.044,1.157-.039,2.317,0,3.475.016.5-.161.6-.614.588-.838-.032-1.677-.009-2.516-.009Z" transform="translate(-121.478 -78.544)" fill="#7f8185"/>
    <path id="Trazado_727267" data-name="Trazado 727267" d="M142.373,35.887c1.4,0,2.8.012,4.2-.008.4-.005.56.077.56.521,0,1.406.02,1.406-1.405,1.406-2.059,0-4.118-.013-6.176.008A5.032,5.032,0,0,0,137.9,37.8c-.26.087-.37-.073-.391-.361-.109-1.547-.118-1.547,1.441-1.547h3.418" transform="translate(-71.265 -18.6)" fill="#7f8185"/>
    <path id="Trazado_727268" data-name="Trazado 727268" d="M164.017,54.814a2.791,2.791,0,0,1,.884.115c.922.244,1.145.782.626,1.59a5.721,5.721,0,0,1-3.067,2.139c-1.063.393-1.062.374-1.269-.745a12.644,12.644,0,0,0-.486-2.087c-.087-.236,0-.34.222-.4a14.869,14.869,0,0,1,3.09-.611" transform="translate(-83.291 -28.413)" fill="#efb6a3"/>
    <path id="Trazado_727269" data-name="Trazado 727269" d="M168.878,80.316a9.214,9.214,0,0,0-2.255.118c-.292.055-.442-.045-.462-.366-.029-.452-.233-.873-.246-1.336-.007-.254.055-.346.309-.382,1.269-.183,2.531-.43,3.8-.563a1.392,1.392,0,0,1,1.439,1.307,1.484,1.484,0,0,1-1.513,1.226c-.358-.016-.717,0-1.076,0" transform="translate(-86.009 -40.321)" fill="#efb6a3"/>
    <path id="Trazado_727270" data-name="Trazado 727270" d="M130.082,55.012a24.753,24.753,0,0,1-.53,2.637c-.02.118-.115.154-.212.178a14.562,14.562,0,0,1-2.585.6c-.4.025-.788-.048-.91-.495s.179-.688.536-.883c1.2-.653,2.4-1.315,3.7-2.034" transform="translate(-65.222 -28.518)" fill="#f8f9fb"/>
    <path id="Trazado_727271" data-name="Trazado 727271" d="M159.01,32.4l.115.1c-.085.018-.116-.025-.115-.1" transform="translate(-82.43 -16.796)" fill="#e4e5e7"/>
    <path id="Trazado_727272" data-name="Trazado 727272" d="M115.344,101.489a2.792,2.792,0,0,1-2.429,2.907,2.973,2.973,0,0,1-2.958-1.809,2.676,2.676,0,0,1-.09-1.893,19.177,19.177,0,0,1,1.759-4.112c.566-.968,1.359-.961,1.924,0a15.85,15.85,0,0,1,1.711,4.063,3.068,3.068,0,0,1,.082.844m-3.707-.086a1.04,1.04,0,0,0,.888,1.095.976.976,0,0,0,.986-.929,6.094,6.094,0,0,0-.761-2.429c-.133-.246-.321-.181-.38-.009a11.093,11.093,0,0,0-.733,2.272" transform="translate(-56.886 -49.692)" fill="#3b332b"/>
    <path id="Trazado_727273" data-name="Trazado 727273" d="M95.405,119.448a2.791,2.791,0,0,1-2.7,2.921,3,3,0,0,1-2.589-1.641,2.646,2.646,0,0,1-.2-2.054,19.371,19.371,0,0,1,1.788-4.167c.552-.932,1.348-.926,1.893,0a15.878,15.878,0,0,1,1.718,4.063,2.933,2.933,0,0,1,.088.878m-3.707-.083a1.042,1.042,0,0,0,.842,1.078.965.965,0,0,0,1.026-.88,5.688,5.688,0,0,0-.765-2.484c-.138-.255-.322-.142-.374.013a11.02,11.02,0,0,0-.729,2.273" transform="translate(-46.548 -58.998)" fill="#3b332b"/>
    <path id="Trazado_727274" data-name="Trazado 727274" d="M199.047,56.872a2.806,2.806,0,0,1-2.8,2.837,2.933,2.933,0,0,1-2.817-2.951,2.626,2.626,0,0,1,2.641-2.68,2.679,2.679,0,0,1,2.978,2.794m-1.818-.01a.969.969,0,0,0-.937-.9,1.047,1.047,0,0,0-.97.885,1.027,1.027,0,0,0,.966.958.9.9,0,0,0,.941-.941" transform="translate(-100.272 -28.034)" fill="#3b332b"/>
    <path id="Trazado_727275" data-name="Trazado 727275" d="M181.107,38.9a2.805,2.805,0,0,1-2.835,2.861,2.928,2.928,0,0,1-2.783-2.924,2.637,2.637,0,0,1,2.675-2.707,2.679,2.679,0,0,1,2.944,2.77m-2.736-.886a1.054,1.054,0,0,0-.988.866,1.022,1.022,0,0,0,1.007.978.893.893,0,0,0,.9-.923.965.965,0,0,0-.917-.921" transform="translate(-90.972 -18.729)" fill="#3b332b"/>
    <path id="Trazado_727276" data-name="Trazado 727276" d="M128.524,147.779a2.736,2.736,0,0,1,2.762,2.538,2.894,2.894,0,0,1-2.894,3.107,3.064,3.064,0,0,1-2.75-2.88,2.693,2.693,0,0,1,2.883-2.764m.828,2.745a.886.886,0,0,0-.851-.887,1.106,1.106,0,0,0-.96.911,1.17,1.17,0,0,0,.929.954.882.882,0,0,0,.881-.978" transform="translate(-65.13 -76.599)" fill="#3b332b"/>
    <path id="Trazado_727277" data-name="Trazado 727277" d="M208.93,127.163a5.443,5.443,0,0,1-1.173-.068,2.058,2.058,0,0,1-1.536-2.223c0-.451-.091-.608-.581-.6a2.07,2.07,0,0,1-2.309-2.293c-.006-.38,0-.76,0-1.14a2.1,2.1,0,0,1,2.3-2.317c.477,0,.591-.133.588-.6a2.092,2.092,0,0,1,2.261-2.3c.439-.009.88-.017,1.319.006a2.052,2.052,0,0,1,2.172,2.254c0,.486.1.631.613.637a2.071,2.071,0,0,1,2.275,2.331,7.642,7.642,0,0,1-.092,1.659,1.922,1.922,0,0,1-2.1,1.758c-.513-.006-.713.083-.7.666a2.045,2.045,0,0,1-2.248,2.227c-.24,0-.48,0-.79,0m1.117-2.965c0-.14,0-.28,0-.419.007-1.037.363-1.4,1.4-1.432.359-.01.72-.022,1.078,0,.316.02.4-.1.409-.407.052-1.492.062-1.491-1.412-1.5-1.091,0-1.47-.384-1.477-1.478-.01-1.533-.009-1.526-1.558-1.41-.256.019-.353.09-.344.349.015.439.021.88,0,1.318a1.117,1.117,0,0,1-1.244,1.218,9.363,9.363,0,0,1-1.2-.005c-.551-.054-.512.352-.414.609.162.427-.517,1.135.394,1.288a7.976,7.976,0,0,0,1.136.01c.914.02,1.314.419,1.329,1.322a9.574,9.574,0,0,1-.006,1.078c-.04.414.138.532.511.483a2.706,2.706,0,0,1,.359,0c1.035,0,1.035,0,1.034-1.025" transform="translate(-105.403 -59.935)" fill="#3b332b"/>
    <path id="Trazado_727278" data-name="Trazado 727278" d="M113.679,104.76a11.191,11.191,0,0,1,.735-2.272c.059-.172.247-.237.38.009a6.083,6.083,0,0,1,.761,2.429.975.975,0,0,1-.986.929,1.043,1.043,0,0,1-.89-1.1" transform="translate(-58.929 -53.05)" fill="#b6b9bd"/>
    <path id="Trazado_727279" data-name="Trazado 727279" d="M93.745,122.722a11.156,11.156,0,0,1,.73-2.273c.052-.154.236-.267.375-.013a5.687,5.687,0,0,1,.765,2.484.964.964,0,0,1-1.026.88,1.045,1.045,0,0,1-.844-1.079" transform="translate(-48.596 -62.356)" fill="#b6b9bd"/>
    <path id="Trazado_727280" data-name="Trazado 727280" d="M199.268,58.888a.9.9,0,0,1-.941.941,1.027,1.027,0,0,1-.966-.958,1.047,1.047,0,0,1,.97-.885.969.969,0,0,1,.937.9" transform="translate(-102.31 -30.06)" fill="#b6b9bd"/>
    <path id="Trazado_727281" data-name="Trazado 727281" d="M180.41,40.042a.965.965,0,0,1,.917.921.893.893,0,0,1-.9.923,1.022,1.022,0,0,1-1.007-.978,1.054,1.054,0,0,1,.988-.866" transform="translate(-93.01 -20.757)" fill="#b6b9bd"/>
    <path id="Trazado_727282" data-name="Trazado 727282" d="M131.4,152.543a.882.882,0,0,1-.881.978,1.171,1.171,0,0,1-.93-.954,1.106,1.106,0,0,1,.96-.911.886.886,0,0,1,.851.887" transform="translate(-67.178 -78.617)" fill="#b6b9bd"/>
    <path id="Trazado_727283" data-name="Trazado 727283" d="M212.06,126.238c0,1.025,0,1.025-1.035,1.025a2.709,2.709,0,0,0-.359,0c-.374.049-.552-.068-.511-.483a9.574,9.574,0,0,0,.006-1.078c-.014-.9-.415-1.3-1.329-1.322a7.983,7.983,0,0,1-1.137-.01c-.911-.154-.231-.862-.393-1.288-.1-.258-.137-.664.414-.609a9.369,9.369,0,0,0,1.2.005,1.116,1.116,0,0,0,1.243-1.218c.022-.438.016-.879,0-1.318-.009-.259.088-.33.344-.349,1.548-.116,1.548-.123,1.558,1.41.006,1.094.385,1.473,1.476,1.478,1.474.006,1.463.006,1.412,1.5-.011.312-.093.427-.409.407-.358-.023-.718-.012-1.078,0-1.038.028-1.394.395-1.4,1.432,0,.14,0,.28,0,.419" transform="translate(-107.415 -61.974)" fill="#b6b9bd"/>
  </g>
</svg>
