<svg xmlns="http://www.w3.org/2000/svg" xmlns:xlink="http://www.w3.org/1999/xlink" width="245" height="221.261" viewBox="0 0 245 221.261">
  <defs>
    <clipPath id="clip-path">
      <rect id="Rectángulo_351220" data-name="Rectángulo 351220" width="245" height="221.261" fill="none"/>
    </clipPath>
  </defs>
  <g id="Grupo_1031722" data-name="Grupo 1031722" clip-path="url(#clip-path)">
    <path id="Trazado_728472" data-name="Trazado 728472" d="M187.56,76.378a12.273,12.273,0,0,0-2.628-.742C186.072,71.4,183.4,65.862,178.6,64.1a12.717,12.717,0,0,0-12.618,2.112c-2.567-3.128-6.581-3.128-9.763-.644,2.631-5.891,3.42-12.6-2.576-16.712-5.82-4-19.178-2.056-23.458,3.614-2.492,3.3-1.607,7.573-2.854,11.267-2.94,8.712-19.656,6.188-27.147,6.4-10.477.29-21.019.417-31.529.877v3.5c6.473.085,12.952.1,19.4.281q9.2.263,18.407.632c3.5.144,7.013.247,10.515.472,7.423.479,8.733,3.168,8.632,4.841-.3,5.021-3.321,11.314-3.913,14.848a26.427,26.427,0,0,0,.481,12.116,22.053,22.053,0,0,0,15.342,14.741c6.294,1.65,14.916.78,18.807-5.118a19.186,19.186,0,0,0,2.374-5.287c3.444,1.3,7.357,2.357,10.388.917,3.232-1.535,3.178-4.6,2.063-7.373,10.154.386,22.122-6.2,23.182-16.6.533-5.23-1.754-10.482-6.772-12.6" transform="translate(50.591 34.44)" fill="#eeded9"/>
    <path id="Trazado_728473" data-name="Trazado 728473" d="M106.273,71.174c.6-1.949.283-4.219-1.468-5.1-2.082-1.054-6.784.4-7.512,4.587,2.553,3.713-.221,7.515-4.818,8.139-3.7.5-6.789-.915-6.435-5.306-5.355,3.4-5.511,12.6,1.026,15.7,2.73,1.294,6.989,1.572,9-1.127a5.978,5.978,0,0,0,.872-4.8,8.112,8.112,0,0,0,1.41.3,8.623,8.623,0,0,0,8.2-3.845c1.581-2.555,1.391-6.619-.278-8.544" transform="translate(60.487 48.439)" fill="#eeded9"/>
    <path id="Trazado_728474" data-name="Trazado 728474" d="M105.609,57.366c-.408-4.815-6.036-8.255-9.931-5.864.156-1.836-.441-4.238-1.584-5.089-1.674-1.249-4.191-.387-5.768.594-2.979,1.857-5.12,7.418-2.5,10.287,2.359-1.74,6.765-1.914,8.1.657a3.934,3.934,0,0,1-.193,4.068c-.811,1.181-2.221,1.676-3.336,2.5.549,1.57,3.5,2.977,4.333,3.017a3.738,3.738,0,0,0,2.9-1.586,6.6,6.6,0,0,0,4.208-1.191,8.217,8.217,0,0,0,3.776-7.392" transform="translate(62.369 33.742)" fill="#eeded9"/>
    <path id="Trazado_728475" data-name="Trazado 728475" d="M132.158,78.767A4.618,4.618,0,0,0,134,72.394c-1.659-2.765-5.311-3.361-8.243-2.428,1.942,2.227,2.386,6.85-.035,8.915-2.074,1.77-5.461,1.905-8,1.23a9.775,9.775,0,0,1-2.312,4.644,8.075,8.075,0,0,1-10.682.505,7.579,7.579,0,0,1-1.115-1.125,6.066,6.066,0,0,0-.789,5.513,9.334,9.334,0,0,0,5.641,5.669,9.828,9.828,0,0,0,11.854-4.658,4.588,4.588,0,0,0,1.205.667,10.906,10.906,0,0,0,7.755-.637c3.877-1.9,5.641-8.264,2.878-11.922" transform="translate(75.531 51.252)" fill="#dac4be"/>
    <path id="Trazado_728476" data-name="Trazado 728476" d="M136.887,68.2a5.681,5.681,0,0,0-6-3.974,3.173,3.173,0,0,0-2.013-3.547c-2.3-.9-4.179.566-5.082,2.546a3.6,3.6,0,0,1,2.565.229,3.561,3.561,0,0,1,1.673,4.254c2.367-.773,5.1-.156,6.112,2.576a3.765,3.765,0,0,1-.622,3.753c.042-.026.087-.04.127-.068a4.584,4.584,0,0,0,3.243-5.77" transform="translate(91.214 44.512)" fill="#dac4be"/>
    <path id="Trazado_728477" data-name="Trazado 728477" d="M123.509,67.513a8.09,8.09,0,0,0,.238-1.957c0-2.881-1.435-5.216-3.2-5.216L21.994,56.5l-.4,10.432,2.251.089.13-3.385Z" transform="translate(15.908 41.632)" fill="#cda9b1"/>
    <path id="Trazado_728478" data-name="Trazado 728478" d="M119.5,67.729c.031,0,.059.014.089.014,1.344,0,2.491-1.348,2.967-3.257L23.015,60.608l-.13,3.383L119.5,67.743Z" transform="translate(16.863 44.659)" fill="#be9aa4"/>
    <path id="Trazado_728479" data-name="Trazado 728479" d="M57.028,56.854l-18.152-.707V70.568l18.028.7v-.021c.042,0,.082.021.123.021,2.445,0,4.427-3.227,4.427-7.208s-1.982-7.208-4.427-7.208" transform="translate(28.646 41.372)" fill="#6d4951"/>
    <path id="Trazado_728480" data-name="Trazado 728480" d="M72.221,56.639l-8.754-5.876a3.376,3.376,0,0,0-1.752-.606l0-.01-.078,0-.064,0L8.4,48.3l8.46,35.5,53,1.82a2.592,2.592,0,0,0,.347.012l.1,0-.005-.019c1.707-.151,3.132-1.905,3.54-4.778L75.8,67.017c.566-4.005-1.046-8.676-3.581-10.378" transform="translate(6.192 35.591)" fill="#42292d"/>
    <path id="Trazado_728481" data-name="Trazado 728481" d="M17.5,83.188,8.75,77.313c-2.536-1.7-4.148-6.371-3.581-10.378L7.125,53.106c.568-4.005,3.105-5.891,5.641-4.189l8.754,5.874c2.536,1.7,4.148,6.373,3.581,10.379L23.145,79C22.579,83,20.04,84.891,17.5,83.188" transform="translate(3.725 35.583)" fill="#5b3b41"/>
    <path id="Trazado_728482" data-name="Trazado 728482" d="M16.679,79.905,9.013,74.761c-2.221-1.492-3.632-5.582-3.137-9.089L7.59,53.559c.5-3.508,2.718-5.158,4.94-3.668L20.2,55.035c2.221,1.49,3.632,5.581,3.137,9.089L21.619,76.235c-.5,3.51-2.718,5.16-4.94,3.67" transform="translate(4.257 36.358)" fill="#6d4951"/>
    <path id="Trazado_728483" data-name="Trazado 728483" d="M46.039,59.934c-.045.837-1.066,1.461-2.28,1.4s-2.162-.8-2.117-1.633,1.066-1.462,2.28-1.4,2.162.8,2.117,1.633" transform="translate(30.682 42.956)" fill="#fff"/>
    <path id="Trazado_728484" data-name="Trazado 728484" d="M45.268,65.725c-.045.837-1.066,1.462-2.28,1.4s-2.162-.8-2.117-1.633,1.066-1.462,2.28-1.4,2.162.8,2.117,1.633" transform="translate(30.114 47.223)" fill="#fff"/>
    <path id="Trazado_728485" data-name="Trazado 728485" d="M45.69,62.83c-.045.837-1.066,1.461-2.28,1.4s-2.162-.8-2.117-1.633,1.066-1.462,2.28-1.4,2.162.8,2.117,1.633" transform="translate(30.425 45.089)" fill="#fff"/>
    <path id="Trazado_728486" data-name="Trazado 728486" d="M95.127,59.738c-11.93-.7-26.841-1.247-39.968-.825a.105.105,0,0,0,0,.21c13.091,1.117,27.2,1.214,39.968,1.3a.345.345,0,0,0,0-.69" transform="translate(40.569 43.302)" fill="#fff"/>
    <path id="Trazado_728487" data-name="Trazado 728487" d="M48.387,43.929a8.222,8.222,0,0,1,6.251,5.29A6.2,6.2,0,0,1,53.132,55.7l-11-3.561s2.022-9.237,6.251-8.207" transform="translate(31.048 32.31)" fill="#ffc8b5"/>
    <path id="Trazado_728488" data-name="Trazado 728488" d="M52.7,117.1c-3.175-1.93-6.683.1-10.388,1.363A22.731,22.731,0,0,1,36.79,116.3c-3.484,4.1-4.658,5.714-10.065,4.686a46.892,46.892,0,0,1-1.092,8.075c-.839,3.133.582,4.38,3.413,5.865,2.751,1.443,6.475.195,9.125-1.395a44.7,44.7,0,0,0,11.17-3.326,17.906,17.906,0,0,0,6.135-5.007c.794-3.02.552-6.077-2.779-8.1" transform="translate(18.711 85.697)" fill="#42292d"/>
    <path id="Trazado_728489" data-name="Trazado 728489" d="M20.249,107.421c-1.686.047-5.391-2-5.391-2-3.946,3.125-5.242.342-10.683,0-.195.311-2.478,6.8-2.666,7.213C.65,114.53-.01,117.21.749,117.913c3.185,2.949,8.564,4.689,10.854,2.713,2.687.66,6.841,2.477,13.468-1.464,1.244-.738,4.229-4.429,4.227-5.732-.012-5.24-4.359-6.138-9.049-6.009" transform="translate(0.307 77.682)" fill="#42292d"/>
    <path id="Trazado_728490" data-name="Trazado 728490" d="M43.08,23.84c-.7-1.883-1.636-3.62-3.465-4.346-.036-.016-.082,0-.118-.012-5.971-4.54-17.421-4.311-24.333,11.533C3.227,37.169,2.9,48.227.724,54.81c-2.676,8.08,2.581,7.272,7.491,9.28,6.065,2.478,10.065,4.757,18.728,4.37,3.762-.168,19.588-17.514,19.877-27.211.142-4.752-3.375-16.686-3.739-17.408" transform="translate(0 12.476)" fill="#fdb64f"/>
    <path id="Trazado_728491" data-name="Trazado 728491" d="M29.277,11.583c-1.68,4.066-9.461,19.1-9.461,19.1l17.719,8.877s.559-12.523,4.083-20.964-12.342-7.01-12.342-7.01" transform="translate(14.601 8.467)" fill="#ffb8a3"/>
    <path id="Trazado_728492" data-name="Trazado 728492" d="M52.51,54.886c-1.15-3.013-1.7-4.021-4.9-4.2-3.319-.182-6.656.483-10.029.179A53.329,53.329,0,0,1,23.453,47.3c-1.855-.7-4.809,8.771-5.349,13.426-.747,6.435.076,8.778,1.033,14.9-2.491,6.112-4.571,17.422-1.183,25.768C6.232,114.536,4.3,124.313,3.747,131.4c-.259,3.274-1.893,10.027-2.593,13.879-.776,4.278,1.629,5.683,3.423,6.857,3.606,2.357,9.283,3.456,13.546-.335,1.249-1.112.976-7.147,3.01-12.877,2.392-6.742,6.03-14.661,8.9-18.749,3.006-4.281,7.915-10.977,8.887-12.754,3.726-6.795,5.242-11.6,8.726-18.523,2.687-5.334,6.333-10.887,7.283-16.879.875-5.525-.457-11.977-2.421-17.129" transform="translate(0.74 34.823)" fill="#f8a73d"/>
    <path id="Trazado_728493" data-name="Trazado 728493" d="M47.187,58.7c-1.818-3.316-27.81-5.978-27.477-5.815-1.3,5.143-8.568,19.194,2.4,25.019.354,2.27,7.611,28.411,12.418,37.188-1.089,5.655-2.913,7.349-.766,14.739-1.567,3.349-2.593,19.812-2.216,30.5.167,4.738-2.008,6.267,1.4,9.165,4.045,3.435,12.6,3.112,16.142-4.695,1.546-3.406,2.576-8.582,4.3-16.488,1.871-8.556,2.633-17.4,4.34-31.154a71.5,71.5,0,0,0,.436-15.26c-3.029-18.471-5.419-33.052-10.984-43.2" transform="translate(11.899 38.967)" fill="#fdb64f"/>
    <path id="Trazado_728494" data-name="Trazado 728494" d="M14.807,57.164s3.679,6,15.885,7.484,18.9-3.741,18.9-3.741l-1.414-2.828s-13.322,3.033-21.589-.311a109.8,109.8,0,0,0-10.944-4.036Z" transform="translate(10.911 39.592)" fill="#f8a73d"/>
    <path id="Trazado_728495" data-name="Trazado 728495" d="M53.826,32c-2.55-1.6-27.234-14.7-29.506-13.487C18.4,21.67,14.415,32.565,13.773,39.422c-.413,4.424.141,25.124-.278,28.785C11.02,69.237,10.264,70,12.444,72.12c-2.018,2.062-1.28,3.981.716,6.1,2.074,2.2,16.323,10.753,22.284,10.753,8.3,0,13.973-2.136,16.132-3.748,1.5-1.12,2.336-2.65.978-3.8.768-4.347,4.462-12.088,5.2-16.147,1.515-8.33,3.891-14.261,4.316-22.767C62.4,35.8,58.644,35.028,53.826,32" transform="translate(8.223 13.583)" fill="#fdd264"/>
    <path id="Trazado_728496" data-name="Trazado 728496" d="M46.165,13.333C45.135,8.3,42.846,4.018,37.9,2.826A13.392,13.392,0,0,0,24.76,7.606c-3.838,4.771-2.666,10.02.723,14.659a23.529,23.529,0,0,0,7.18,6.3c2.767,1.454,8.177,3.635,11.276-.726C46.792,23.83,47.1,17.9,46.165,13.333" transform="translate(16.48 1.853)" fill="#ffc8b5"/>
    <path id="Trazado_728497" data-name="Trazado 728497" d="M47.1,7.207c1.688-1.186.24-4.174-2.437-4.174C44.333,1.689,40.549,0,34.193,0,25.61,0,22.267,5.531,23.941,8.918c-8.931,9.4.723,17.261.071,21.56C29.756,31.8,34,28.89,35.47,23.426c3.2.549,9.151-5.615,7.574-8.434,5.843,1.343,6.1-7.43,4.056-7.785" transform="translate(14.833 -0.001)" fill="#42292d"/>
    <path id="Trazado_728498" data-name="Trazado 728498" d="M36.011,11.384s-2.489-3.4-4.681.837c-1.812,3.5,2.652,4.764,2.652,4.764Z" transform="translate(22.767 7.439)" fill="#ffc8b5"/>
    <path id="Trazado_728499" data-name="Trazado 728499" d="M43.4,30.376A26.877,26.877,0,0,0,26.24,18.038c-2.993-.639-5.026-.193-5.848,3.72,0,0-1.678,1.869,4.564,4.321s18.442,4.3,18.442,4.3" transform="translate(14.875 13.114)" fill="#fdb64f"/>
    <path id="Trazado_728500" data-name="Trazado 728500" d="M65.251,73.35c3.7-3.917,2.5-7.316-1.115-10.511-1.445-1.278-6.466-1.221-10.034,1.7,1.254-5.294.926-12.731-2.564-14.553,3.536-6.638-1.061-16.832-6.109-21.316-3.613-3.21-8.6-3.321-11.616.469-3.917,4.926-6.234,12.151-3.554,23.093,1.127,4.608,4.757,12.366,8.792,19.159,4.507,7.581,7.988,7.621,12.375,7.621,5.2,0,9.813-1.407,13.824-5.657" transform="translate(21.447 19.359)" fill="#fdb64f"/>
    <path id="Trazado_728501" data-name="Trazado 728501" d="M22.7,56.118s6.095,2.654,11.557,1.66,7.8-3,7.8-3a84.422,84.422,0,0,1-9,1.61c-3.039.229-10.359-.273-10.359-.273" transform="translate(16.726 40.365)" fill="#fdb64f"/>
    <path id="Trazado_728502" data-name="Trazado 728502" d="M21.589,47.326s4.945,6.73,10.265,8.917,8.391,1.488,8.391,1.488a86.4,86.4,0,0,1-9.237-4.424c-4.505-2.543-9.419-5.982-9.419-5.982" transform="translate(15.908 34.872)" fill="#fdb64f"/>
    <path id="Trazado_728503" data-name="Trazado 728503" d="M28.271,90.013s2.914,1.9,5.739,1.428a6.1,6.1,0,0,0,3.937-2.063,22.7,22.7,0,0,0-4.837,0c-1.857.318-4.839.636-4.839.636" transform="translate(20.831 65.754)" fill="#f8a73d"/>
    <path id="Trazado_728504" data-name="Trazado 728504" d="M28.892,89.864s4.029-2.859,5.871-3.279,3.283-.667,3.283-.667a30.933,30.933,0,0,1-4.1,2.713,19.644,19.644,0,0,1-5.056,1.233" transform="translate(21.289 63.309)" fill="#f8a73d"/>
    <path id="Trazado_728505" data-name="Trazado 728505" d="M13.524,27.65s1.508,4.92,10.517,8.215c5.619,2.056,12.9,4.248,12.9,4.248v6.8a115.224,115.224,0,0,1-14.089-4.354,20.334,20.334,0,0,1-10.088-7.871c-.189-1.329.083-5.688.756-7.034" transform="translate(9.365 20.374)" fill="#fff"/>
    <path id="Trazado_728506" data-name="Trazado 728506" d="M35.387,24.925a.668.668,0,0,1-.575-.327A35.768,35.768,0,0,1,32.1,18.78C30.425,13.95,29,7.919,28.987,7.859a.668.668,0,0,1,1.3-.306c.014.059,1.424,6.025,3.078,10.788a34.921,34.921,0,0,0,2.6,5.574.668.668,0,0,1-.233.917.66.66,0,0,1-.342.094" transform="translate(21.346 5.185)" fill="#eeded9"/>
    <path id="Trazado_728507" data-name="Trazado 728507" d="M46.952,21.595a.666.666,0,0,1-.6-.37c-.021-.04-2.1-4.085-8.012-8.806S22.6,6.1,22.5,6.079a.669.669,0,1,1,.208-1.322c.417.066,10.272,1.673,16.464,6.616,6.171,4.924,8.287,9.08,8.373,9.254a.666.666,0,0,1-.3.9.68.68,0,0,1-.3.071" transform="translate(16.165 3.499)" fill="#eeded9"/>
    <path id="Trazado_728508" data-name="Trazado 728508" d="M40.176,10.1s-4.82,6.32-6.9,9.525a14.753,14.753,0,0,0-2.143,6.932S36.555,28.032,40.15,22s.026-11.906.026-11.906" transform="translate(22.943 7.439)" fill="#42292d"/>
    <path id="Trazado_728509" data-name="Trazado 728509" d="M39.987,19.744l2.095-3.267-2.713-1.759c-1.48-.855-3.736.283-5.039,2.541s-1.16,4.78.318,5.634l2.36,1.5,1.9-2.963a6.945,6.945,0,0,0,.78-1.073c.115-.2.2-.4.3-.608" transform="translate(24.639 10.635)" fill="#5b3b41"/>
    <path id="Trazado_728510" data-name="Trazado 728510" d="M41.25,21.365c-1.3,2.258-3.559,3.4-5.039,2.541s-1.622-3.376-.32-5.634,3.559-3.4,5.039-2.541,1.622,3.376.32,5.634" transform="translate(25.791 11.382)" fill="#6d4951"/>
    <path id="Trazado_728511" data-name="Trazado 728511" d="M40.338,20.565c-1,1.726-2.722,2.6-3.852,1.942s-1.242-2.581-.245-4.307,2.722-2.6,3.852-1.942,1.242,2.581.245,4.307" transform="translate(26.202 11.819)" fill="#5b3b41"/>
  </g>
</svg>
