<svg id="Grupo_1028363" data-name="Grupo 1028363" xmlns="http://www.w3.org/2000/svg" xmlns:xlink="http://www.w3.org/1999/xlink" width="519.526" height="232" viewBox="0 0 519.526 232">
  <defs>
    <clipPath id="clip-path">
      <rect id="Rectángulo_349866" data-name="Rectángulo 349866" width="519.526" height="232" fill="none"/>
    </clipPath>
    <clipPath id="clip-path-3">
      <rect id="Rectángulo_349861" data-name="Rectángulo 349861" width="2.532" height="2.357" fill="none"/>
    </clipPath>
    <clipPath id="clip-path-4">
      <rect id="Rectángulo_349862" data-name="Rectángulo 349862" width="2.537" height="2.22" fill="none"/>
    </clipPath>
    <clipPath id="clip-path-5">
      <rect id="Rectángulo_349863" data-name="Rectángulo 349863" width="3.489" height="3.425" fill="none"/>
    </clipPath>
    <clipPath id="clip-path-6">
      <rect id="Rectángulo_349864" data-name="Rectángulo 349864" width="2.757" height="3.826" fill="none"/>
    </clipPath>
  </defs>
  <g id="Enmascarar_grupo_1028362" data-name="Enmascarar grupo 1028362" transform="translate(0)" clip-path="url(#clip-path)">
    <g id="Grupo_1028361" data-name="Grupo 1028361">
      <g id="Grupo_1028360" data-name="Grupo 1028360" clip-path="url(#clip-path)">
        <path id="Trazado_727453" data-name="Trazado 727453" d="M420.166,159.569c0-6.58-1.994-11.913-12.458-11.913s-12.458,5.333-12.458,11.913a11.437,11.437,0,0,0,1.44,5.551,10.784,10.784,0,0,1-3-7.346c0-6.579,2.243-11.912,14.015-11.912s14.016,5.333,14.016,11.912a10.784,10.784,0,0,1-3,7.346,11.437,11.437,0,0,0,1.44-5.551" transform="translate(-337.627 15.464)" fill="#564447"/>
        <path id="Trazado_727454" data-name="Trazado 727454" d="M392.45,158.171c0-2.449,6.806-4.434,15.2-4.434s15.2,1.985,15.2,4.434-6.808,4.434-15.2,4.434-15.2-1.985-15.2-4.434" transform="translate(-337.387 16.299)" fill="#564447"/>
        <path id="Trazado_727455" data-name="Trazado 727455" d="M287.345,162.582,305.27,206l-35.846.43-1.769-38.812Z" transform="translate(-81.775 17.237)" fill="#e5e0d1"/>
        <path id="Trazado_727456" data-name="Trazado 727456" d="M282.1,175.311l-.351-7.69,19.689-5.039,2.332,5.65c-8.625,1.024-16.237,3.629-21.67,7.08" transform="translate(-95.873 17.237)" fill="#d8d2c0"/>
        <path id="Trazado_727457" data-name="Trazado 727457" d="M386.978,194.1c0-5.986,3.309-10.839,7.39-10.839s7.39,4.853,7.39,10.839-3.309,10.839-7.39,10.839-7.39-4.852-7.39-10.839" transform="translate(-310.237 19.43)" fill="#423437"/>
        <path id="Trazado_727458" data-name="Trazado 727458" d="M305.038,63.5l15.305.427A97.383,97.383,0,0,0,321.9,84.132l-13.541,3.415c-7.125-8.4-3.319-24.05-3.319-24.05" transform="translate(-138.627 6.732)" fill="#ffa77b"/>
        <path id="Trazado_727459" data-name="Trazado 727459" d="M305.038,63.5l15.305.427s-.081,1.759-.02,4.587a19.927,19.927,0,0,0-2.475-.157c-5.947,0-10.768,2.553-10.768,5.7s4.821,5.7,10.768,5.7a19.774,19.774,0,0,0,3.3-.275c.2,1.512.445,3.071.745,4.652l-13.541,3.415c-7.125-8.4-3.319-24.05-3.319-24.05" transform="translate(-138.627 6.732)" fill="#ea875c"/>
        <path id="Trazado_727460" data-name="Trazado 727460" d="M328.36,184.672l-4.353,1.461a75.211,75.211,0,0,1,.91,12.254l3.814-1.012c-1.6-2.81-.371-12.7-.371-12.7" transform="translate(-167.562 19.579)" fill="#ddbf92"/>
        <path id="Trazado_727461" data-name="Trazado 727461" d="M331.53,203.677H312.574s.927-7.195,4.608-8.318,2.01,4.5,9.929,5.283c2.458.244,4.457,2.249,4.42,3.035" transform="translate(-157.716 20.696)" fill="#f4deba"/>
        <path id="Trazado_727462" data-name="Trazado 727462" d="M341.316,184.672l4.218,1.461a77.649,77.649,0,0,0-.881,12.254l-3.7-1.012c1.552-2.81.359-12.7.359-12.7" transform="translate(-203.113 19.579)" fill="#ddbf92"/>
        <path id="Trazado_727463" data-name="Trazado 727463" d="M339.566,203.677h18.372s-.9-7.195-4.466-8.318-1.948,4.5-9.622,5.283c-2.382.244-4.32,2.249-4.284,3.035" transform="translate(-213.976 20.696)" fill="#f4deba"/>
        <path id="Trazado_727464" data-name="Trazado 727464" d="M303.109,70.226c8.075,2.216,16.049,1.828,17.288-1.246,1.221-3.035-.54-9.82-.472-13.374.067-3.487,5.188-20.768-6.843-26.975-11.3-5.828-9.973,41.6-9.973,41.6" transform="translate(-136.73 2.983)" fill="#f7ba57"/>
        <path id="Trazado_727465" data-name="Trazado 727465" d="M313.883,28.631a13.466,13.466,0,0,1,5.025,4.385c-.553,2.137-1.061,4.529-1.477,7.083-1.517,9.324-3.152,15.34-1.311,15.64.865.14,3.822.371,4.86-2.267a19.257,19.257,0,0,0-.253,2.134,23.134,23.134,0,0,0,.178,2.806,13.562,13.562,0,0,0-2.568-.244c-4.956,0-8.973,2.6-8.973,5.808s4.017,5.807,8.973,5.807a13.6,13.6,0,0,0,2.535-.239c-1.948,2.55-9.409,2.756-16.961.684,0,0-1.325-47.423,9.972-41.6" transform="translate(-137.531 2.983)" fill="#f2a446"/>
        <path id="Trazado_727466" data-name="Trazado 727466" d="M362.1,29.34C366.6,43.7,352.8,69.318,352.8,69.318L351.4,82.552l-.563,124.44L336.9,210.371,328.311,106.2s-20.553-9.573-20.553-10.416.563-34.066,1.408-39.979,19.286-31.673,22.945-33.363,20.694-2.392,22.945-1.548S362.1,29.34,362.1,29.34" transform="translate(-183.858 2.177)" fill="#5c8ebc"/>
        <path id="Trazado_727467" data-name="Trazado 727467" d="M328.439,22.443c3.66-1.689,20.694-2.393,22.945-1.548s7.039,8.447,7.039,8.447c1.724,5.5.763,12.644-1.076,19.374-7.44,23.349-14.662,20.815-25.177,20.815-10.035,0-18.921-7.536-24.411-19.124,5.212-9.646,17.734-26.6,20.68-27.963" transform="translate(-180.186 2.177)" fill="#5385aa"/>
        <path id="Trazado_727468" data-name="Trazado 727468" d="M327.784,55.649c.845-5.913,19.286-31.673,22.945-33.363a6.436,6.436,0,0,1,.764-.281c-6.811,8.71-16.758,23.98-17.391,28.424-.872,6.123-1.582,40.528-1.586,41.4S359.88,105.2,359.88,105.2l1.146,103.679-5.509,1.336-8.587-104.17s-20.553-9.573-20.553-10.418.563-34.065,1.408-39.978" transform="translate(-202.477 2.333)" fill="#3f7099"/>
        <path id="Trazado_727469" data-name="Trazado 727469" d="M361.091,98.8l-5.279,2.428-5.279,103.151-13.513-3.168s-11.614-88.756-10.558-111.842S361.091,98.8,361.091,98.8" transform="translate(-202.563 8.596)" fill="#5c8ebc"/>
        <path id="Trazado_727470" data-name="Trazado 727470" d="M344.45,89.2c.282-6.167,3.234-14.588,6.9-14.5-.1.653.889,9.652.844,10.416-1.387,23.252,6.757,107.356,7.833,117.747l-4.173-.978s-12.458-89.6-11.4-112.687" transform="translate(-221.395 7.919)" fill="#3f7099"/>
        <path id="Trazado_727471" data-name="Trazado 727471" d="M331.119,63.547,308.455,51.581S319.21,34.2,318.184,21.213c6.412-.741,15.293-.914,16.877-.32,2.127.8,6.51,7.616,6.99,8.37,1.839,15.886-10.932,34.283-10.932,34.283" transform="translate(-163.862 2.177)" fill="#f7ba57"/>
        <path id="Trazado_727472" data-name="Trazado 727472" d="M330.415,61.258s12.475-17.983,10.979-33.742c.331.5.565.864.656,1.008,1.84,15.886-10.932,34.283-10.932,34.283L308.455,50.841s.2-.322.531-.9Z" transform="translate(-163.862 2.917)" fill="#ef9348"/>
        <path id="Trazado_727473" data-name="Trazado 727473" d="M308.456,33.149a34.632,34.632,0,0,0,1.552-11.936c6.41-.74,15.293-.912,16.876-.319,2.128.8,6.51,7.615,6.99,8.37a32.864,32.864,0,0,1-.385,9.383c-5.339.657-12.551-.4-19.969-3.258-1.772-.684-3.463-1.437-5.063-2.241" transform="translate(-155.685 2.177)" fill="#ef9348"/>
        <path id="Trazado_727474" data-name="Trazado 727474" d="M375.913,67.242c-.434-11.586,2.6-16.637,2.6-16.637,1.012-2.716-8.524-16.463-11.991-15.4s-6.356,6.836-6.646,11.03,3.467,21.175,3.467,21.175Z" transform="translate(-257.072 3.727)" fill="#ffa77b"/>
        <path id="Trazado_727475" data-name="Trazado 727475" d="M359.874,46.239c.289-4.2,3.179-9.964,6.646-11.03s13,12.681,11.991,15.4a16.006,16.006,0,0,0-1.341,3.535c-1.292-.687-8.072-5.773-9.857-6.22-4.939-1.238-5.631,1.548-4.791,5.572.394,1.889,2.974,4.342,7.914,5.58a20.851,20.851,0,0,0,5.7.669,52.219,52.219,0,0,0-.225,7.5l-12.57.171s-3.756-16.98-3.467-21.175" transform="translate(-257.07 3.727)" fill="#ea875c"/>
        <path id="Trazado_727476" data-name="Trazado 727476" d="M308.151,99.678c-1.688-4.7-6.509-13.662-6.509-13.662s9.512-10.635,16.616-7.482c1.7,8.7,3,17.067.758,22.425Z" transform="translate(-134.304 8.264)" fill="#f4deba"/>
        <path id="Trazado_727477" data-name="Trazado 727477" d="M308.088,80.673c0,.19-.008.379-.008.571,0,10.107,4.443,18.3,9.924,18.3a5.688,5.688,0,0,0,2.14-.431,13.126,13.126,0,0,1-.521,1.557l-10.864-1.281c-1.688-4.7-6.51-13.663-6.51-13.663a35.96,35.96,0,0,1,5.839-5.053" transform="translate(-134.911 8.553)" fill="#d6bdbd"/>
        <path id="Trazado_727478" data-name="Trazado 727478" d="M311.373,39.265l-2.639-6.493s8.234-5.12,9.5-6.6l.422,2.111a33.089,33.089,0,0,1-7.285,10.981" transform="translate(-140.597 2.775)" fill="#e5ddcf"/>
        <path id="Trazado_727479" data-name="Trazado 727479" d="M317.23,33.274c4.045-3.8,7.039-7.179,7.039-7.179l-4.5-14.781s-8.587,5.771-11.824,10.416c0,0,2.392,18.019,9.291,11.544" transform="translate(-145.328 1.199)" fill="#dd704a"/>
        <path id="Trazado_727480" data-name="Trazado 727480" d="M321.7,18.441l-3.519,1.971s-1.829,7.883-.422,14.921l8.587-1.266c-2.229-4.659-4.767-10.1-4.645-15.626" transform="translate(-157.685 1.955)" fill="#e5ddcf"/>
        <path id="Trazado_727481" data-name="Trazado 727481" d="M303.217,32.067c4.931-1.577,14.465-7.918,15.626-9.713S314.725,10,312.3,9.473s-8.763,2.851-10.663,4.223-5.807,6.863-6.018,8.235,2.323,11.824,7.6,10.136" transform="translate(-126.423 0.998)" fill="#ffa77b"/>
        <path id="Trazado_727482" data-name="Trazado 727482" d="M299.74,19.934a21.124,21.124,0,0,0-4.137-2.967,18.2,18.2,0,0,1,3.008-3.269c1.9-1.373,8.235-4.751,10.664-4.223s7.707,11.086,6.545,12.88c-.817,1.263-5.78,4.776-10.368,7.3-.42-3.1-2.432-6.718-5.714-9.717" transform="translate(-123.402 0.999)" fill="#ea875c"/>
        <path id="Trazado_727483" data-name="Trazado 727483" d="M300.632,16.238l3.589-1.056,3.1-.07s7.46-1.514,11.05-5.526-5.6-4.223-5.6-4.223c-4.511,2.233-8.844,6.342-12.142,10.874" transform="translate(-132.179 0.569)" fill="#843a40"/>
        <path id="Trazado_727484" data-name="Trazado 727484" d="M302.6,23.639s7.352-10.23,7.166-12.224c-.189-2.023-11.2-12.933-17.027-11.237-1.84.536-6.176,6.335-6.176,6.335,5.246,2.024,10.82,9.161,16.037,17.126" transform="translate(-107.178 0)" fill="#f4deba"/>
        <path id="Trazado_727485" data-name="Trazado 727485" d="M302.167.178c1.847-.539,4.217.195,6.6,1.508-2.1,2.692-3.57,7.079-3.888,12.154-2.985-3.522-5.986-6.208-8.887-7.327,0,0,4.336-5.8,6.176-6.334" transform="translate(-116.61 0)" fill="#e5c595"/>
        <path id="Trazado_727486" data-name="Trazado 727486" d="M284.089,5.841c7.045,2.633,24.79,20.552,25.944,24.736,1.124,4.073-7.463-.771-11.075-4.958C296.178,13.97,284.089,5.841,284.089,5.841" transform="translate(-104.815 0.619)" fill="#aa445a"/>
        <path id="Trazado_727487" data-name="Trazado 727487" d="M307.153,7.241l5.208,6.827-3.8,2.393-3.168-7.672Z" transform="translate(-130.606 0.768)" fill="#e5c595"/>
        <path id="Trazado_727488" data-name="Trazado 727488" d="M311.985,25.567c1.077-3.373-6.414-14.143-10.169-13.2s-7.4,3.789-7.863,5.083,2.625,5.46,3.586,5.619,4.509-.669,4.854-.159S300,25.475,300.02,25.9s2.122,4.008,2.988,4.383,8.254-2.453,8.976-4.713" transform="translate(-117.63 1.305)" fill="#f4deba"/>
        <path id="Trazado_727489" data-name="Trazado 727489" d="M310.052,21.761c.282.634-5.419,6.334-5.842,6.194s-1.689-3.168-1.689-3.168,7.182-3.811,7.531-3.026" transform="translate(-125.129 2.296)" fill="#dd704a"/>
        <path id="Trazado_727490" data-name="Trazado 727490" d="M309.184,12.409c.822-1.763,2.385-2.912,3.492-2.566s1.338,2.056.518,3.819-2.385,2.912-3.492,2.566-1.339-2.056-.518-3.819" transform="translate(-135.576 1.037)" fill="#ea875c"/>
        <path id="Trazado_727491" data-name="Trazado 727491" d="M392.2,190.774h45.891v7.39a3.449,3.449,0,0,1-3.449,3.449H392.2Z" transform="translate(-352.336 20.226)" fill="#423437"/>
        <path id="Trazado_727492" data-name="Trazado 727492" d="M393.913,156.282h44.342a11.261,11.261,0,0,1,11.262,11.261v27.31a4.222,4.222,0,0,1-4.223,4.223h-58.42a4.222,4.222,0,0,1-4.223-4.223v-27.31a11.262,11.262,0,0,1,11.262-11.261" transform="translate(-353.209 16.569)" fill="#685159"/>
        <path id="Trazado_727493" data-name="Trazado 727493" d="M391.13,156.282h44.342a11.261,11.261,0,0,1,11.262,11.261v24.328c-9.047,3.621-20.876,3.989-32.768.225-17.9-5.668-30.31-18.913-31.315-31.948a11.224,11.224,0,0,1,8.479-3.866" transform="translate(-350.426 16.569)" fill="#f7ba57"/>
        <path id="Trazado_727494" data-name="Trazado 727494" d="M407.384,168.078c15.708,6.137,27.994,15.3,33.474,23.981a46.093,46.093,0,0,1-20.7-1.828c-14.966-4.738-25.479-15.61-26.914-26.511a99.113,99.113,0,0,1,14.138,4.359" transform="translate(-356.269 17.357)" fill="#e0994b"/>
        <path id="Trazado_727495" data-name="Trazado 727495" d="M427.227,166.9v1.851a47.782,47.782,0,0,1-14.707,1.106c-11.82-.907-21.949-5.825-27.828-12.617h32.875a9.66,9.66,0,0,1,9.66,9.66" transform="translate(-333.177 16.67)" fill="#f9dc80"/>
        <path id="Trazado_727496" data-name="Trazado 727496" d="M397.414,199.647c0-2.2,1.216-3.982,2.715-3.982s2.715,1.783,2.715,3.982-1.216,3.982-2.715,3.982-2.715-1.783-2.715-3.982" transform="translate(-322.865 20.744)" fill="#564447"/>
        <path id="Trazado_727497" data-name="Trazado 727497" d="M425.8,194.1c0-5.986,3.309-10.839,7.39-10.839s7.39,4.853,7.39,10.839-3.309,10.839-7.39,10.839-7.39-4.852-7.39-10.839" transform="translate(-391.991 19.43)" fill="#564447"/>
        <path id="Trazado_727498" data-name="Trazado 727498" d="M384.482,156.282v24.494A4.223,4.223,0,0,0,388.7,185h34.207v1.69H386.875a4.224,4.224,0,0,1-4.224-4.224V156.282Z" transform="translate(-326.604 16.569)" fill="#564447"/>
        <path id="Trazado_727499" data-name="Trazado 727499" d="M431.5,154.473l-.185,1.145a2.746,2.746,0,0,1,.185-1.145" transform="translate(-389.015 16.377)" fill="#f4deba"/>
        <path id="Trazado_727500" data-name="Trazado 727500" d="M429.019,135.174a7.868,7.868,0,0,1,6.147.5,7.307,7.307,0,0,1-2.177-9.628c1.47-2.37,4.237-3.666,6.988-4.129a16.564,16.564,0,0,1,9.372,1.176,6.405,6.405,0,0,1,3.064,2.393,5.336,5.336,0,0,1,.2,4.467,15.8,15.8,0,0,1-2.374,3.944c.119.28.543.277.783.09a3.77,3.77,0,0,0,.554-.718c.778-.989,2.3-.8,3.525-.511,2.424.568,5.235,1.474,6,3.846.777,2.422-1.233,4.987-3.607,5.9a5.814,5.814,0,0,1-4.139.158,12.746,12.746,0,0,1-3.4-2.547,4.688,4.688,0,0,0-3.871-1.4c-2.034.465-2.84,3.022-2.544,5.087A5.9,5.9,0,0,0,445,147.1c2.615,2.7,7.72,1.266,10.331,3.972a4.42,4.42,0,0,1,.939,4.513c-.3.811-.847,1.564-1.134,2.362l.238-1.478c1.21-1.087.948-3.2-.207-4.349a6.2,6.2,0,0,0-4.516-1.463,1.006,1.006,0,0,0-.539.113c-.535.345-.108,1.27-.494,1.775a1.314,1.314,0,0,1-1.052.351,9.528,9.528,0,0,1-3.23-.292,3.277,3.277,0,0,1-2.246-2.167,22.516,22.516,0,0,1-.1-2.309c-.1-.765-.711-1.592-1.472-1.459-.66.115-.988.848-1.206,1.482-1.106-.521-2.418-1.489-2.027-2.648a4.016,4.016,0,0,1,.674-1.012,3.549,3.549,0,0,0,.46-3.261,1.474,1.474,0,0,0-1.043-1.047,1.377,1.377,0,0,0-.835.2c-2.044,1.11-2.058,4.3-4.013,5.562a3.842,3.842,0,0,1-4.029-.2,8.7,8.7,0,0,1-2.744-3.2,6.915,6.915,0,0,1-.948-2.44,4.907,4.907,0,0,1,3.215-4.928" transform="translate(-412.648 12.902)" fill="#f4deba"/>
        <path id="Trazado_727501" data-name="Trazado 727501" d="M297,73.3l19.989,87-2.534,2.815-18.863-84.6Z" transform="translate(-124.396 7.771)" fill="#685159"/>
        <path id="Trazado_727502" data-name="Trazado 727502" d="M312.89,98.566l-4.473-20.06,1.408-5.208,5.806,25.268Z" transform="translate(-137.219 7.771)" fill="#564447"/>
        <path id="Trazado_727503" data-name="Trazado 727503" d="M298.679,141.963l2.539,11.05-2.534,2.816-3.091-13.866Z" transform="translate(-108.623 15.051)" fill="#564447"/>
        <path id="Trazado_727504" data-name="Trazado 727504" d="M323.467,91.087l-1.959,1.482a2.352,2.352,0,0,1-3.469-.721l-7.607-13.5a2.352,2.352,0,0,1,.734-3.1l7.071-4.769a2.44,2.44,0,0,1,3.78,1.682l2.359,16.726a2.354,2.354,0,0,1-.91,2.2" transform="translate(-147.882 7.427)" fill="#685159"/>
        <path id="Trazado_727505" data-name="Trazado 727505" d="M289.456,149.275l18.331,14.86-26.834,7.152Z" transform="translate(-99.001 15.826)" fill="#685159"/>
        <path id="Trazado_727506" data-name="Trazado 727506" d="M363.16,50.871c11.133-6.069,15.754-26.287,14.494-29.481s-16.3-.3-22.1,4.121c-7.143,5.438-18.889,7.064-22.25,10.622s12.534,19.825,14.448,18.736a33.145,33.145,0,0,1,15.412-4" transform="translate(-226.451 2.124)" fill="#f7ba57"/>
        <path id="Trazado_727507" data-name="Trazado 727507" d="M341.843,35.1c3.417,8.931,8.611,14.806,12.675,13.739,4.422-1.16,5.974-10.139,3.847-20.732a28.967,28.967,0,0,0,4.987-2.972,16.925,16.925,0,0,1,2.426-1.5c-.437.769-.858,1.558-1.239,2.392-4.218,9.228-3.127,18.77,2.439,21.315,2.984,1.364,6.645.425,10.052-2.148a20.523,20.523,0,0,1-6.067,5.3,33.145,33.145,0,0,0-15.412,4c-1.913,1.091-17.809-15.177-14.448-18.736a6.152,6.152,0,0,1,.741-.657" transform="translate(-234.253 2.505)" fill="#f2a446"/>
        <path id="Trazado_727508" data-name="Trazado 727508" d="M391.863,180.609c2.106,0,3.819-2.475,3.819-5.518s-1.713-5.519-3.819-5.519-3.82,2.476-3.82,5.519,1.713,5.518,3.82,5.518m-.422-10.192c1.64,0,2.975,2.1,2.975,4.674s-1.335,4.674-2.975,4.674-2.975-2.1-2.975-4.674,1.335-4.674,2.975-4.674" transform="translate(-305.338 17.978)" fill="#564447"/>
        <path id="Trazado_727509" data-name="Trazado 727509" d="M389.4,174.895c0-1.918,1.036-3.472,2.315-3.472s2.314,1.554,2.314,3.472-1.036,3.472-2.314,3.472-2.315-1.554-2.315-3.472" transform="translate(-305.194 18.174)" fill="#564447"/>
        <path id="Trazado_727510" data-name="Trazado 727510" d="M314.994,188.57c6.788,0,11.405-1.678,14.533-5.279,6.591-7.589,5.676-23.646,1.686-50.619-2.381-16.1,2.2-32.291,12.9-45.59,8.984-11.166,21.629-19.407,33-21.508,4.936-.912,16.667-1.742,19,10.2l4.145-.863C398.148,64.1,389.226,59.066,376.4,61.436c-24.39,4.5-54.97,34.04-49.367,71.909,3.717,25.125,4.8,40.906-.684,47.218-2.252,2.59-5.84,3.8-11.294,3.8-2.1-.031-2.163,4.179-.064,4.209" transform="translate(-227.414 6.452)" fill="#685159"/>
        <path id="Trazado_727511" data-name="Trazado 727511" d="M376.459,75.081a27.427,27.427,0,0,1,3.7,2.378,67.864,67.864,0,0,0-7.737,8.115,61.738,61.738,0,0,0-10.612,19.355c-1.49.219-3.023.382-4.59.486a68.269,68.269,0,0,1,19.239-30.334" transform="translate(-255.724 7.96)" fill="#564447"/>
        <path id="Trazado_727512" data-name="Trazado 727512" d="M380.734,77.536c-.827-5.929-.5-18.986-.5-18.986s-16.537-4.172-20.671,3.293l10.419,20.381Z" transform="translate(-258.894 6.084)" fill="#f4deba"/>
        <path id="Trazado_727513" data-name="Trazado 727513" d="M373.338,57.423a26.813,26.813,0,0,0-.581,5.558c0,7.712,3.163,14.243,7.54,16.535l-6.2,2.7L363.678,61.839c1.741-3.143,5.682-4.219,9.66-4.416" transform="translate(-263.005 6.088)" fill="#d6bdbd"/>
        <path id="Trazado_727514" data-name="Trazado 727514" d="M238.185,197.9c-2.932-5.175,4.516,2.967,6.968,2.534,1.542-.273-2.6-3.449-1.126-3.871,1.513-.432,2.67,2.844,2.956,3.449,1.952,4.133,3.82,3.287,4.776,1.335.573-1.9-7.732-7.669-3.888-8.129,1.73-.207,7.015,2.965,9.74,8.414.472.943,4.113.748,5.014-.137-.325-.611.383-.927.46-.179,8.979,5.564,6.078-.994,9.7-.685,2.02.173,2.96,2.923,4.973,3.149a5.933,5.933,0,0,0,5.356-2.243,10.221,10.221,0,0,0,1.532-5.187,13.241,13.241,0,0,1,1.216-5.3c.9-1.592,2.806-2.782,4.542-2.218a4.7,4.7,0,0,1,2.67,3.1,10.626,10.626,0,0,1-.8,8.7c.7-.522.987-1.431,1.532-2.116s1.722-1.077,2.234-.367a1.714,1.714,0,0,1,.22,1.057,12.5,12.5,0,0,1-.726,3.872,12.982,12.982,0,0,1,2.753-4.5c.549-.584,1.342-1.158,2.087-.862,1.411.56.4,2.911,1.3,4.138,2.6-2.6,3.724-6.276,5.264-9.615A37.77,37.77,0,0,1,318.395,178c1.4-1.061,3.586-1.95,4.716-.605a3.552,3.552,0,0,1,.309,3.055,41.707,41.707,0,0,1-11.414,20.677,21.02,21.02,0,0,1-6.52,4.513h-61.2c-1.38-4.786-4.9-5.631-6.1-7.742" transform="translate(-66.776 18.735)" fill="#d8d2c0"/>
        <path id="Trazado_727515" data-name="Trazado 727515" d="M245.227,200.127c1.542-.273-2.6-3.449-1.126-3.871,1.513-.432,2.67,2.844,2.956,3.449,1.952,4.133,3.82,3.287,4.776,1.335.572-1.895-7.7-7.648-3.905-8.126a20.219,20.219,0,0,0,2.685,4.347c4.117,5.12,9.737,7.435,12.554,5.168a3.409,3.409,0,0,0,.369-.356,5.557,5.557,0,0,0,4.565,2.277,5.341,5.341,0,0,0,5.259-3.755,10.643,10.643,0,0,0,4.925,3.892c4.943,1.871,10.627-.333,14.526-5.077a10.089,10.089,0,0,1-.459.915c.7-.522.987-1.431,1.532-2.116s1.722-1.077,2.234-.367a1.706,1.706,0,0,1,.219,1.057,12.467,12.467,0,0,1-.724,3.872,13,13,0,0,1,2.752-4.5c.55-.584,1.343-1.158,2.088-.862.02.008.035.02.055.029-.092,2.979.57,5.1,2.063,5.87,3.934,2.039,12.143-5.986,18.333-17.926,1.02-1.968,1.919-3.916,2.7-5.812-.032.2-.067.39-.11.578a41.705,41.705,0,0,1-11.413,20.677,21.033,21.033,0,0,1-6.52,4.513h-61.2c-1.379-4.786-4.9-5.631-6.1-7.742-2.932-5.175,4.516,2.967,6.968,2.534" transform="translate(-66.85 19.037)" fill="#c6bda7"/>
        <path id="Trazado_727516" data-name="Trazado 727516" d="M320.73,200.874a3.3,3.3,0,0,1-3.686-.563,13.536,13.536,0,0,1-2.406-3.2,26.98,26.98,0,0,0-2.724-3.557,9.165,9.165,0,0,0-2.3-1.958,4.025,4.025,0,0,0-2.929-.449.853.853,0,0,0-.415.207,1.015,1.015,0,0,0-.139.924,6.033,6.033,0,0,0,3.35,4.3,21.335,21.335,0,0,1,7.5,5.731l3.628-.2Z" transform="translate(-139.738 20.254)" fill="#c6bda7"/>
        <path id="Trazado_727517" data-name="Trazado 727517" d="M331.665,101.312,338,97.923l-6.489.067-7.988-5.379,6.664,8.8Z" transform="translate(-176.288 9.819)" fill="#3f7099"/>
        <path id="Trazado_727518" data-name="Trazado 727518" d="M428.008,193.919c0-4.917,2.717-8.9,6.072-8.9s6.071,3.987,6.071,8.9-2.717,8.9-6.071,8.9-6.072-3.987-6.072-8.9" transform="translate(-394.009 19.615)" fill="#685159"/>
        <path id="Trazado_727519" data-name="Trazado 727519" d="M398.485,199.54c0-1.583.875-2.865,1.953-2.865s1.953,1.282,1.953,2.865-.875,2.865-1.953,2.865-1.953-1.282-1.953-2.865" transform="translate(-323.597 20.851)" fill="#685159"/>
        <path id="Trazado_727520" data-name="Trazado 727520" d="M311.848,75.243l7.071-4.769a2.428,2.428,0,0,1,3.44.773l-5.716,2.893a2.153,2.153,0,0,0-1.02,2.737L321,90.009a2.153,2.153,0,0,0,3.069,1.051l.262-.152a2.281,2.281,0,0,1-.18.178l-1.958,1.482a2.352,2.352,0,0,1-3.47-.72l-7.607-13.5a2.352,2.352,0,0,1,.734-3.1" transform="translate(-148.563 7.427)" fill="#564447"/>
        <path id="Trazado_727521" data-name="Trazado 727521" d="M294.7,145.631l3.59-.422,2.323,6.863-4.858,1.8Z" transform="translate(-107.034 15.395)" fill="#e0994b"/>
        <path id="Trazado_727522" data-name="Trazado 727522" d="M304.71,160.455l3.078,2.5L280.953,170.1l1.427-3.7Z" transform="translate(-99.001 17.011)" fill="#e0994b"/>
        <path id="Trazado_727523" data-name="Trazado 727523" d="M316.466,76.992a2.358,2.358,0,1,1,2.358,2.358,2.357,2.357,0,0,1-2.358-2.358" transform="translate(-151.673 7.913)" fill="#564447"/>
        <path id="Trazado_727524" data-name="Trazado 727524" d="M317.2,76.914a1.549,1.549,0,1,1,1.55,1.548,1.55,1.55,0,0,1-1.55-1.548" transform="translate(-151.596 7.99)" fill="#f7ba57"/>
        <path id="Trazado_727525" data-name="Trazado 727525" d="M430.574,179.192h4.972c.144,0,.26.315.26.7s-.116.7-.26.7h-4.972c-.143,0-.259-.315-.259-.7s.116-.7.259-.7" transform="translate(-392.215 18.998)" fill="#423437"/>
        <path id="Trazado_727526" data-name="Trazado 727526" d="M430.574,176.949h4.972c.144,0,.26.315.26.7s-.116.7-.26.7h-4.972c-.143,0-.259-.315-.259-.7s.116-.7.259-.7" transform="translate(-392.215 18.76)" fill="#423437"/>
        <path id="Trazado_727527" data-name="Trazado 727527" d="M430.574,174.705h4.972c.144,0,.26.315.26.7s-.116.7-.26.7h-4.972c-.143,0-.259-.315-.259-.7s.116-.7.259-.7" transform="translate(-392.215 18.522)" fill="#423437"/>
        <path id="Trazado_727528" data-name="Trazado 727528" d="M430.574,172.462h4.972c.144,0,.26.315.26.7s-.116.7-.26.7h-4.972c-.143,0-.259-.315-.259-.7s.116-.7.259-.7" transform="translate(-392.215 18.284)" fill="#423437"/>
        <path id="Trazado_727529" data-name="Trazado 727529" d="M430.574,170.219h4.972c.144,0,.26.315.26.7s-.116.7-.26.7h-4.972c-.143,0-.259-.315-.259-.7s.116-.7.259-.7" transform="translate(-392.215 18.046)" fill="#423437"/>
        <path id="Trazado_727530" data-name="Trazado 727530" d="M436.365,179.192h4.972c.144,0,.26.315.26.7s-.116.7-.26.7h-4.972c-.143,0-.259-.315-.259-.7s.116-.7.259-.7" transform="translate(-404.411 18.998)" fill="#423437"/>
        <path id="Trazado_727531" data-name="Trazado 727531" d="M436.365,176.949h4.972c.144,0,.26.315.26.7s-.116.7-.26.7h-4.972c-.143,0-.259-.315-.259-.7s.116-.7.259-.7" transform="translate(-404.411 18.76)" fill="#423437"/>
        <path id="Trazado_727532" data-name="Trazado 727532" d="M436.365,174.705h4.972c.144,0,.26.315.26.7s-.116.7-.26.7h-4.972c-.143,0-.259-.315-.259-.7s.116-.7.259-.7" transform="translate(-404.411 18.522)" fill="#423437"/>
        <path id="Trazado_727533" data-name="Trazado 727533" d="M436.365,172.462h4.972c.144,0,.26.315.26.7s-.116.7-.26.7h-4.972c-.143,0-.259-.315-.259-.7s.116-.7.259-.7" transform="translate(-404.411 18.284)" fill="#423437"/>
        <path id="Trazado_727534" data-name="Trazado 727534" d="M436.365,170.219h4.972c.144,0,.26.315.26.7s-.116.7-.26.7h-4.972c-.143,0-.259-.315-.259-.7s.116-.7.259-.7" transform="translate(-404.411 18.046)" fill="#423437"/>
        <path id="Trazado_727535" data-name="Trazado 727535" d="M424.234,157.244c0-.223.74-.406,1.654-.406s1.653.182,1.653.406-.74.406-1.653.406-1.654-.182-1.654-.406" transform="translate(-377.225 16.628)" fill="#423437"/>
        <path id="Trazado_727536" data-name="Trazado 727536" d="M427.929,157.244c0-.223.74-.406,1.653-.406s1.654.182,1.654.406-.74.406-1.654.406-1.653-.182-1.653-.406" transform="translate(-385.007 16.628)" fill="#423437"/>
        <path id="Trazado_727537" data-name="Trazado 727537" d="M431.625,157.244c0-.223.74-.406,1.654-.406s1.653.182,1.653.406-.74.406-1.653.406-1.654-.182-1.654-.406" transform="translate(-392.791 16.628)" fill="#423437"/>
        <path id="Trazado_727538" data-name="Trazado 727538" d="M426.334,158.389c0-.223.74-.406,1.654-.406s1.653.182,1.653.406-.74.406-1.653.406-1.654-.182-1.654-.406" transform="translate(-381.648 16.749)" fill="#423437"/>
        <path id="Trazado_727539" data-name="Trazado 727539" d="M430.03,158.389c0-.223.74-.406,1.653-.406s1.653.182,1.653.406-.74.406-1.653.406-1.653-.182-1.653-.406" transform="translate(-389.431 16.749)" fill="#423437"/>
        <path id="Trazado_727540" data-name="Trazado 727540" d="M433.725,158.389c0-.223.74-.406,1.654-.406s1.653.182,1.653.406-.74.406-1.653.406-1.654-.182-1.654-.406" transform="translate(-397.213 16.749)" fill="#423437"/>
        <path id="Trazado_727541" data-name="Trazado 727541" d="M384.748,156.282h.845v3.589h30.4q.377.4.713.845H384.748Z" transform="translate(-322.717 16.569)" fill="#564447"/>
        <rect id="Rectángulo_349859" data-name="Rectángulo 349859" width="0.915" height="4.082" transform="translate(73.222 172.851)" fill="#564447"/>
        <rect id="Rectángulo_349860" data-name="Rectángulo 349860" width="0.915" height="4.082" transform="translate(83.481 172.851)" fill="#564447"/>
        <path id="Trazado_727542" data-name="Trazado 727542" d="M434.837,186.064c1.346,0,2.554,1.115,3.4,2.883-.729,3.073-2.335,5.212-4.2,5.212-1.346,0-2.554-1.115-3.4-2.883.729-3.073,2.335-5.212,4.2-5.212" transform="translate(-394.998 19.726)" fill="#7f6770"/>
        <path id="Trazado_727543" data-name="Trazado 727543" d="M332.835,22.236c6.593-2.295,14.6-3.139,15.5-.846.542,1.374-.008,5.9-1.691,11.088-6.226-3.04-11.089-6.673-13.812-10.242" transform="translate(-197.135 2.124)" fill="#ef9348"/>
        <path id="Trazado_727544" data-name="Trazado 727544" d="M310.019,12.389c.5-1.072,1.45-1.771,2.124-1.561s.814,1.251.314,2.323-1.45,1.771-2.124,1.561-.814-1.251-.314-2.323" transform="translate(-135.784 1.144)" fill="#cc4f46"/>
        <path id="Trazado_727545" data-name="Trazado 727545" d="M310.037,13.1c.385-.818,1.114-1.353,1.629-1.191s.619.956.236,1.774-1.114,1.353-1.629,1.191-.62-.954-.236-1.774" transform="translate(-135.256 1.259)" fill="#ea875c"/>
        <path id="Trazado_727546" data-name="Trazado 727546" d="M309.631,25.215c.762-2.385-5.959-12.057-8.614-11.389s-5.236,2.679-5.559,3.593,1.574,4.041,2.253,4.154c.367.061,2.839-.677,4.012-.211a1.966,1.966,0,0,1,1.128,1.975c-.1.425-1.7,1.812-1.679,2.11a9.245,9.245,0,0,0,2.114,3.1c.613.265,5.834-1.733,6.345-3.331" transform="translate(-116.907 1.462)" fill="#8ab5d6"/>
        <path id="Trazado_727547" data-name="Trazado 727547" d="M302.87,25.286c.667-2.086-4.394-9.751-7.449-11.188.29-.1.582-.2.876-.27,2.654-.669,9.376,9,8.615,11.388-.511,1.6-5.734,3.6-6.346,3.332a1.249,1.249,0,0,1-.347-.283c1.774-.618,4.3-1.89,4.652-2.979" transform="translate(-112.186 1.462)" fill="#5995b2"/>
        <path id="Trazado_727548" data-name="Trazado 727548" d="M306.727,20.615a14.148,14.148,0,0,1-1.6.241.762.762,0,0,1-.321-.189,6.371,6.371,0,0,1,1.917-.052" transform="translate(-124.326 2.18)" fill="#5995b2"/>
        <path id="Trazado_727549" data-name="Trazado 727549" d="M309.64,21.958c.221.525-4.561,5.114-4.905,4.991s-1.335-2.631-1.335-2.631,5.967-3.012,6.24-2.36" transform="translate(-125.688 2.318)" fill="#ffa77b"/>
        <path id="Trazado_727550" data-name="Trazado 727550" d="M317.155,61.4c.532-.693,1.2-1.074,1.494-.849s.1.97-.434,1.663-1.2,1.074-1.494.849-.1-.97.434-1.663" transform="translate(-149.409 6.413)" fill="#3f7099"/>
        <path id="Trazado_727551" data-name="Trazado 727551" d="M342.26,49.408c.532-.693,1.2-1.074,1.494-.849s.1.97-.434,1.663-1.2,1.074-1.494.849-.1-.97.434-1.663" transform="translate(-202.281 5.141)" fill="#3f7099"/>
        <path id="Trazado_727552" data-name="Trazado 727552" d="M314.252,25.239c-.208-.344-.474-.559-.6-.48s-.052.42.155.764.474.559.6.48.053-.42-.155-.764" transform="translate(-141.782 2.623)" fill="#dd704a"/>
        <path id="Trazado_727553" data-name="Trazado 727553" d="M313.8,26.59l-2.529-5.112s-3.138,1.9-1.7,4.2,4.228.917,4.228.917" transform="translate(-136.239 2.277)" fill="#3f3335"/>
        <path id="Trazado_727554" data-name="Trazado 727554" d="M311.314,26.3a3.786,3.786,0,0,0,1.508-.286l-2.162-4.224a4.563,4.563,0,0,0-1.133,1.02Z" transform="translate(-135.638 2.311)" fill="#f4deba"/>
        <g id="Grupo_1028350" data-name="Grupo 1028350" transform="translate(182.211 19.385)" opacity="0.38" style="mix-blend-mode: multiply;isolation: isolate">
          <g id="Grupo_1028349" data-name="Grupo 1028349" transform="translate(0)">
            <g id="Grupo_1028348" data-name="Grupo 1028348" clip-path="url(#clip-path-3)">
              <path id="Trazado_727555" data-name="Trazado 727555" d="M304.625,19.466a1.224,1.224,0,0,0,.411-1.661,1.292,1.292,0,0,0-1.743.139,1.225,1.225,0,0,0-.411,1.661,1.292,1.292,0,0,0,1.743-.139" transform="translate(-302.694 -17.527)" fill="#3f3335"/>
            </g>
          </g>
        </g>
        <g id="Grupo_1028353" data-name="Grupo 1028353" transform="translate(185.76 24.055)" opacity="0.38" style="mix-blend-mode: multiply;isolation: isolate">
          <g id="Grupo_1028352" data-name="Grupo 1028352" transform="translate(0)">
            <g id="Grupo_1028351" data-name="Grupo 1028351" transform="translate(0)" clip-path="url(#clip-path-4)">
              <path id="Trazado_727556" data-name="Trazado 727556" d="M301.4,23.628c.6-.442.791-1.145.429-1.569a1.325,1.325,0,0,0-1.742.031c-.6.442-.791,1.145-.429,1.569a1.324,1.324,0,0,0,1.742-.031" transform="translate(-299.48 -21.749)" fill="#3f3335"/>
            </g>
          </g>
        </g>
        <g id="Grupo_1028356" data-name="Grupo 1028356" transform="translate(183.802 16.616)" opacity="0.38" style="mix-blend-mode: multiply;isolation: isolate">
          <g id="Grupo_1028355" data-name="Grupo 1028355" transform="translate(0)">
            <g id="Grupo_1028354" data-name="Grupo 1028354" clip-path="url(#clip-path-5)">
              <path id="Trazado_727557" data-name="Trazado 727557" d="M303.684,16.871l-1.644-1.645a.951.951,0,0,0-1.3.122.885.885,0,0,0-.165,1.252l1.644,1.646a.952.952,0,0,0,1.3-.122.886.886,0,0,0,.165-1.253" transform="translate(-300.387 -15.023)" fill="#564447"/>
            </g>
          </g>
        </g>
        <g id="Grupo_1028359" data-name="Grupo 1028359" transform="translate(188.159 22.335)" opacity="0.38" style="mix-blend-mode: multiply;isolation: isolate">
          <g id="Grupo_1028358" data-name="Grupo 1028358" transform="translate(0)">
            <g id="Grupo_1028357" data-name="Grupo 1028357" clip-path="url(#clip-path-6)">
              <path id="Trazado_727558" data-name="Trazado 727558" d="M299.832,22.892l-.775-2.193a.944.944,0,0,0-1.22-.442.893.893,0,0,0-.688,1.065l.774,2.193a.947.947,0,0,0,1.221.444.894.894,0,0,0,.688-1.066" transform="translate(-297.112 -20.194)" fill="#564447"/>
            </g>
          </g>
        </g>
        <path id="Trazado_727559" data-name="Trazado 727559" d="M0,202.457H519.526s-131.107,8.078-245.708,8.078C136.389,210.535,0,202.457,0,202.457" transform="translate(0 21.464)" fill="#baba45"/>
      </g>
    </g>
  </g>
</svg>
